<?xml version="1.0" encoding="utf-8" ?>
<svg baseProfile="full" height="200mm" version="1.1" viewBox="0,0,200,200" width="200mm" xmlns="http://www.w3.org/2000/svg" xmlns:ev="http://www.w3.org/2001/xml-events" xmlns:xlink="http://www.w3.org/1999/xlink"><defs /><rect fill="#1a1a1a" height="200" width="200" x="0" y="0" /><rect fill="#1a1a1a" height="200" width="180" x="10" y="0" /><text alignment-baseline="middle" fill="#e1ed5e" style="dominant-baseline: central; font-size:9.0px; font-family:Arial;" text-anchor="middle" x="100.0" y="100.0">2026</text><line stroke="#e1ed5e" stroke-width="0.3" x1="100.0" x2="100.0" y1="15.0" y2="10.0" /><path d="M 100.0 14.0 a86.0,86.0 0 0,1 42.46469731375804,11.215312516191453" fill="none" id="id37" stroke="none" /><text fill="#e1ed5e" style="font-size:6.75px; font-family:Arial;" text-anchor="middle"><textPath startOffset="22.20632615414155" xlink:href="#id37">January</textPath></text><path d="M 100.0 79.0 l 0.0 -20.29874193889418 a41.29874193889418,41.29874193889418 0 0,0 0.7108899537820922,0.0061188542681706905 l -0.34940947450956383 20.29573446123457" fill="#ffbc11" stroke="none" /><path d="M 100.72285384407766 79.0124445844662 l 0.972522064699078 -28.236497450940284 a49.25324030024315,49.25324030024315 0 0,0 0.8470599651887641,0.036476183938996806 l -1.4584228622771735 28.21557354047709" fill="#d4ff1c" stroke="none" /><path d="M 101.08401301168833 79.027996857942 l 0.9329838739002972 -18.050097668525186 a39.07419388941749,39.07419388941749 0 0,0 0.6714024793476744,0.040500831074891365 l -1.2435484020875835 18.03136356806999" fill="#ff9b0e" stroke="none" /><path d="M 101.80526077348638 79.07773832637324 l 1.3744207247723068 -15.92899512119099 a36.98818056877048,36.98818056877048 0 0,0 0.6338627038737799,0.060192901443428426 l -1.6484085557363308 15.902976675232384" fill="#ff7c0b" stroke="none" /><path d="M 102.88285421437855 79.19881850522331 l 1.8042195336250293 -13.018312819347914 a34.14274236177185,34.14274236177185 0 0,0 0.5814525600858187,0.08569099277792012 l -2.028041074139504 12.985327342409025" fill="#ff5007" stroke="none" /><path d="M 103.59715602781102 79.31037775812273 l 10.791468083433088 -62.06886672563182 a84.0,84.0 0 0,0 1.4224195155883965,0.2599380745970459 l -11.858282720124386 61.87391316968404" fill="#4dd2ff" stroke="none" /><path d="M 104.307194497241 79.44645832069477 l 1.683626274880948 -8.034111957401748 a29.20862670472566,29.20862670472566 0 0,0 0.4912018589646395,0.10735770098863398 l -1.8216708579991157 8.003940758317244" fill="#ff0000" stroke="none" /><path d="M 105.01212808612495 79.60689891045804 l 4.140547325163886 -16.84685600949637 a38.34821862776192,38.34821862776192 0 0,0 0.6396685771461118,0.16306576312954046 l -4.429924790995023 16.773087250197964" fill="#ff900d" stroke="none" /><path d="M 105.71112130821622 79.79150937346287 l 6.118267884898789 -21.649156536868887 a43.49709271593191,43.49709271593191 0 0,0 0.7187579368104494,0.209825151395333 l -6.490016039432666 21.54063305655485" fill="#ffdb14" stroke="none" /><path d="M 106.0581310904928 79.89281104454417 l 7.331668645809618 -24.33411304873123 a46.414610423934874,46.414610423934874 0 0,0 0.7630001161083757,0.23706785016912424 l -7.749454134628712 24.204305063679584" fill="#faff18" stroke="none" /><path d="M 106.74666289553966 80.11325718540242 l 5.555720097628061 -16.376270526939187 a38.293011946294534,38.293011946294534 0 0,0 0.6223854331376367,0.21713805676339143 l -5.8367875348289715 16.27821161700359" fill="#ff8f0d" stroke="none" /><path d="M 107.4271985657038 80.35727306442388 l 7.873191671245589 -20.82224579585809 a43.26102124960355,43.26102124960355 0 0,0 0.694271069543978,0.26936638883484565 l -8.230445905789235 20.6836367031327" fill="#ffd814" stroke="none" /><path d="M 108.09893153111575 80.62456947434976 l 9.970273613197005 -23.852324590230133 a46.85226768157311,46.85226768157311 0 0,0 0.7414175969020302,0.3174363219879953 l -10.37937496788935 23.677168740279345" fill="#f4ff19" stroke="none" /><path d="M 108.76106565485865 80.91482961587045 l 6.86152262536 -14.947191763930267 a37.44685484723544,37.44685484723544 0 0,0 0.5834965154436524,0.2739594378348718 l -7.11779735210325 14.826867343455392" fill="#ff830c" stroke="none" /><path d="M 109.08828744355905 81.06846463323043 l 4.277327205966402 -8.909970308255074 a30.88347605455122,30.88347605455122 0 0,0 0.4772654930617703,0.23419210470413143 l -4.430063966038604 8.83502304341611" fill="#ff1b02" stroke="none" /><path d="M 109.73455568895987 81.39251694778311 l 8.051925542913839 -15.391156295649118 a38.37012369172217,38.37012369172217 0 0,0 0.582595428782239,0.3112023014980636 l -8.31566601822439 15.2502752676493" fill="#ff910d" stroke="none" /><path d="M 110.36928655335952 81.73862282372117 l 9.97281490694182 -17.563149941678184 a41.19706100010572,41.19706100010572 0 0,0 0.6136464425551552,0.35546362766512785 l -10.273658081962305 17.38888215662301" fill="#ffba11" stroke="none" /><line stroke="#e1ed5e" stroke-width="0.3" x1="143.23703022742887" x2="145.7803849466894" y1="26.81831364943548" y2="22.513508569990506" /><path d="M 143.74570117128098 25.957352633546492 a86.0,86.0 0 0,1 28.547481713284135,27.462654790039103" fill="none" id="id38" stroke="none" /><text fill="#e1ed5e" style="font-size:6.75px; font-family:Arial;" text-anchor="middle"><textPath startOffset="19.985693538727396" xlink:href="#id38">February</textPath></text><path d="M 110.68208982089419 81.91981866633111 l 9.890447473452937 -16.74027150018734 a40.44370440849984,40.44370440849984 0 0,0 0.596328812740596,0.359281437307582 l -10.177138352411172 16.567543453421145" fill="#ffaf10" stroke="none" /><path d="M 111.2981086023043 82.29822771554956 l 10.460495011102696 -16.389407040343357 a40.443112379744164,40.443112379744164 0 0,0 0.583599839570213,0.3795895695421279 l -10.74106187645719 16.2069185466417" fill="#ffaf10" stroke="none" /><path d="M 111.90073688211348 82.69761687909136 l 9.841331076943566 -14.308230019681098 a38.365979490432395,38.365979490432395 0 0,0 0.5409034203090162,0.37893741278684084 l -10.086165636836233 14.136707764130321" fill="#ff910d" stroke="none" /><path d="M 112.48926042617603 83.11751280151076 l 15.233315150252654 -20.591791606465456 a46.613976107410934,46.613976107410934 0 0,0 0.640950709029988,0.48275078573965124 l -15.585512013041026 20.326524231219956" fill="#f7ff18" stroke="none" /><path d="M 112.77801427241765 83.33499621200491 l 12.734155563247068 -16.607803542410615 a41.92792049899566,41.92792049899566 0 0,0 0.5689567796227303,0.44407979113843893 l -13.018144898029227 16.38614536204895" fill="#ffc512" stroke="none" /><path d="M 113.34407831869373 83.78471172551755 l 11.076755908945914 -13.460112112652638 a38.43184268950206,38.43184268950206 0 0,0 0.5071950258175401,0.4247612479741063 l -11.306808471722572 13.267449707284712" fill="#ff910d" stroke="none" /><path d="M 114.68862486808459 84.99185889309783 l 12.514188692807085 -12.786405223550357 a38.89125700391162,38.89125700391162 0 0,0 0.47440703480447777,0.47236978023096815 l -12.732431527778886 12.56909959266927" fill="#ff980e" stroke="none" /><path d="M 116.38621287248628 86.86637796730983 l 15.988120926392897 -12.814549578613398 a41.489819219790675,41.489819219790675 0 0,0 0.4418585126381098,0.5611154396159032 l -16.206333519624973 12.537441745044456" fill="#ffbf11" stroke="none" /><path d="M 117.2510076193507 88.02491185347247 l 18.850450867280767 -13.085369603817373 a43.94703457025055,43.94703457025055 0 0,0 0.42602576404349535,0.625140239915668 l -19.072901096992997 12.758951340631299" fill="#ffe215" stroke="none" /><line stroke="#e1ed5e" stroke-width="0.3" x1="172.23445277983987" x2="176.4835382374775" y1="55.19839476539836" y2="52.563006222186495" /><path d="M 173.08426987136738 54.67131705675599 a86.0,86.0 0 0,1 12.851231095245387,41.99856678651699" fill="none" id="id39" stroke="none" /><text fill="#e1ed5e" style="font-size:6.75px; font-family:Arial;" text-anchor="middle"><textPath startOffset="22.20632615414155" xlink:href="#id39">March</textPath></text><path d="M 117.84615892207809 88.93136811851018 l 22.86537146593773 -14.181672408894768 a47.90622687387673,47.90622687387673 0 0,0 0.4286106282532084,0.7045231772717194 l -23.106097892477166 13.785981458415966" fill="#e6ff1a" stroke="none" /><path d="M 118.21658344932153 89.55222093294921 l 15.9998055669803 -9.176387775711333 a39.444507876096836,39.444507876096836 0 0,0 0.33272824586814276,0.5918864225840482 l -16.155391454140876 8.899617843192493" fill="#ffa10e" stroke="none" /><path d="M 118.56541770881063 90.18545643968196 l 23.789537961298667 -12.576256578929584 a47.90918701765514,47.90918701765514 0 0,0 0.3791454736810525,0.7323883755713266 l -24.002492868139836 12.164895481097913" fill="#e6ff1a" stroke="none" /><path d="M 119.04729006885535 91.15688171328212 l 28.80861510516419 -13.375025535420122 a52.76204672798393,52.76204672798393 0 0,0 0.3753584539729723,0.8270525976809031 l -29.03457587610051 12.877150928897155" fill="#a7ff21" stroke="none" /><path d="M 119.34039704204932 91.81776055985345 l 16.138057487418013 -6.8274425894057185 a38.52286711068824,38.52286711068824 0 0,0 0.2531104866780928,0.6129271200347157 l -16.2531896609823 6.548640898917699" fill="#ff930d" stroke="none" /><path d="M 119.61058180528143 92.48833698450437 l 16.22570568439943 -6.2151156197209705 a38.37530394333439,38.37530394333439 0 0,0 0.23097439682347395,0.6188965502416356 l -16.330284669724527 5.934895932450002" fill="#ff910d" stroke="none" /><path d="M 119.85752413597 93.16781622104841 l 13.909154041689439 -4.78558635869574 a35.70939845649646,35.70939845649646 0 0,0 0.19497791737162196,0.5829591556833995 l -13.98946925283283 4.545454100090027" fill="#ff6809" stroke="none" /><path d="M 119.97218684219823 93.5106431181261 l 26.574262518082087 -8.634501304988742 a48.94183317475421,48.94183317475421 0 0,0 0.25343599867075256,0.8034613734182129 l -26.718954000521045 8.17578976514411" fill="#d8ff1c" stroke="none" /><path d="M 120.18372546131832 94.20196356495316 l 34.4536627499762 -9.897260658247706 a56.84704514219262,56.84704514219262 0 0,0 0.26207362018930513,0.9428182503361081 l -34.61892314073187 9.302731104492647" fill="#74ff27" stroke="none" /><path d="M 120.37134235888165 94.90015583598534 l 21.751111891029886 -5.44526124415829 a43.42234908552701,43.42234908552701 0 0,0 0.17527575895606157,0.7266311783188034 l -21.84162045024677 5.070044834180081" fill="#ffda14" stroke="none" /><path d="M 120.53481517161879 95.60439243477599 l 33.34257123189582 -7.137189067740136 a55.09789618352892,55.09789618352892 0 0,0 0.19053561973572739,0.9291193491794588 l -33.46048614754654 6.562194062397266" fill="#8aff24" stroke="none" /><path d="M 120.6074358757038 95.95851677861258 l 19.081394865406587 -3.7421995465302023 a40.44488846601121,40.44488846601121 0 0,0 0.12810297513634367,0.6843312155502534 l -19.142983564452788 3.413190253517386" fill="#ffaf10" stroke="none" /><path d="M 120.73433829027371 96.67025291283417 l 17.24113166173156 -2.7687697155507047 a38.46203615604186,38.46203615604186 0 0,0 0.09934946608523025,0.654588850541771 l -17.286237021256092 2.4715817526168515" fill="#ff920d" stroke="none" /><path d="M 120.83666639777658 97.38593545837742 l 17.301695140343586 -2.1705846277388186 a38.437318955492124,38.437318955492124 0 0,0 0.07670926042443502,0.65719809776068 l -17.33649475377161 1.8724427916532858" fill="#ff920d" stroke="none" /><path d="M 120.91429891909075 98.10471618934814 l 14.848511028760536 -1.345593398753955 a35.909356168728195,35.909356168728195 0 0,0 0.05048772745672907,0.6160781556962917 l -14.86947324003676 1.0898013258498946" fill="#ff6b09" stroke="none" /><path d="M 120.94382443527127 98.46500227214037 l 26.830709323053995 -1.9664545019003705 a47.90267470134263,47.90267470134263 0 0,0 0.05319343158776414,0.8228788426926094 l -26.860583345646177 1.504316594954726" fill="#e6ff1a" stroke="none" /><path d="M 120.98425023603335 99.18683210126433 l 9.850033830003575 -0.3817020490093684 a30.857426789301194,30.857426789301194 0 0,0 0.01599929005687975,0.5309385463153373 l -9.8551448145161 0.21209335526903197" fill="#ff1b02" stroke="none" /><line stroke="#e1ed5e" stroke-width="0.3" x1="184.98032266829074" x2="189.97916517819016" y1="98.17113171792111" y2="98.06355123074" /><path d="M 185.9800911702706 98.14961562048488 a86.0,86.0 0 0,1 -9.607161424134198,41.387399972396054" fill="none" id="id40" stroke="none" /><text fill="#e1ed5e" style="font-size:6.75px; font-family:Arial;" text-anchor="middle"><textPath startOffset="21.466115282336823" xlink:href="#id40">April</textPath></text><path d="M 120.99980553446 99.90962569577887 l 22.549574458245665 -0.09704385589677901 a43.54978327518765,43.54978327518765 0 0,0 -0.003226215042036465,0.749658756203049 l -22.547903945914126 -0.29112437850995465" fill="#ffdc14" stroke="none" /><path d="M 120.9904718944345 100.63252640178507 l 20.917093636975018 0.6303152230467585 a41.92658843429538,41.92658843429538 0 0,0 -0.027946800709787972,0.7211827475022337 l -20.903144703414025 -0.9902752175629983" fill="#ffc512" stroke="none" /><path d="M 120.95626037817324 101.35467743843564 l 15.115506833719202 0.977113077841234 a36.14705571413469,36.14705571413469 0 0,0 -0.04548236219615978,0.6205706962615941 l -15.096447912858705 -1.2371569105995985" fill="#ff6f0a" stroke="none" /><path d="M 120.76222939487914 103.15116336523771 l 14.639870331889062 2.221949395909162 a35.80752722275082,35.80752722275082 0 0,0 -0.09773450671754681,0.6085928666250361 l -14.599454070810227 -2.4736214922274025" fill="#ff6a09" stroke="none" /><path d="M 120.70491114924044 103.5080841355445 l 22.982692155890142 3.8940141864428606 a44.310244211861715,44.310244211861715 0 0,0 -0.1338877445743808,0.7509135745444537 l -22.912257968976576 -4.2890465117205325" fill="#ffe715" stroke="none" /><path d="M 120.5718875245553 104.21870165774334 l 21.967415011067928 4.504884153819593 a43.424569193360824,43.424569193360824 0 0,0 -0.15646484623774198,0.7309516717933051 l -21.886616126105743 -4.882349645029067" fill="#ffda14" stroke="none" /><path d="M 120.49622156327973 104.57218783832717 l 9.626008528672577 2.1473186650792484 a30.862607040913417,30.862607040913417 0 0,0 -0.12012819206819039,0.5175091073828798 l -9.587619770673834 -2.312696429810693" fill="#ff1b02" stroke="none" /><path d="M 120.41448212921028 104.9243191809786 l 21.806525788512605 5.2601037112387985 a43.43196955280685,43.43196955280685 0 0,0 -0.18156359641037365,0.7252563143956806 l -21.71275087780717 -5.634687865031875" fill="#ffda14" stroke="none" /><path d="M 120.23288151984713 105.62410040840565 l 17.24539963070594 4.793675038873301 a38.89924939211333,38.89924939211333 0 0,0 -0.18487769090175393,0.6435834957034624 l -17.160329302918086 -5.089816010081345" fill="#ff980e" stroke="none" /><path d="M 120.13307415673323 105.97154293290107 l 22.376183972919847 6.6368574529934055 a44.33969764245692,44.33969764245692 0 0,0 -0.2233310917021375,0.7298589295330713 l -22.258626108711574 -7.021043355078534" fill="#ffe715" stroke="none" /><path d="M 119.9155931802556 106.66101706037122 l 20.314648974817867 6.794486218510811 a42.42078443810128,42.42078443810128 0 0,0 -0.2375749146905437,0.6905039084432206 l -20.194683229184093 -7.143162830043332" fill="#ffcc13" stroke="none" /><path d="M 119.79798401119884 107.00284435728193 l 12.498885842782085 4.421043685403872 a34.25774394756317,34.25774394756317 0 0,0 -0.2014285833437659,0.5542449512278317 l -12.420932998433091 -4.635536433637835" fill="#ff5107" stroke="none" /><path d="M 119.41010516605496 108.01547362559984 l 30.397468217236334 12.552745216773504 a53.88734538534728,53.88734538534728 0 0,0 -0.3614276058893964,0.8543080963337152 l -30.17688963015463 -13.074127838773382" fill="#99ff23" stroke="none" /><path d="M 119.26925614724726 108.34839909993367 l 16.326275700330058 7.073353756905425 a38.79268421609049,38.79268421609049 0 0,0 -0.2707339866224997,0.6104336681486172 l -16.202100628976286 -7.353335761546729" fill="#ff970d" stroke="none" /><path d="M 118.97047184881838 109.00673069616215 l 15.746086613549641 7.475868959765448 a38.430658631990696,38.430658631990696 0 0,0 -0.2888644910100643,0.5951464103167521 l -15.615068865924863 -7.745804326047475" fill="#ff910d" stroke="none" /><path d="M 118.81262510543309 109.33194174019688 l 13.55129531857267 6.722076143461829 a36.12692673644148,36.12692673644148 0 0,0 -0.28113859160967947,0.5547131128709945 l -13.433578057176721 -6.954343468035518" fill="#ff6e0a" stroke="none" /><path d="M 118.64920377521936 109.65438752849418 l 10.56755354212116 5.470649490103984 a32.8996299820277,32.8996299820277 0 0,0 -0.26468142694250885,0.5006775119751469 l -10.47181960695376 -5.651742017165265" fill="#ff3c05" stroke="none" /><line stroke="#e1ed5e" stroke-width="0.3" x1="174.80103733775053" x2="179.2010983576182" y1="140.37084112569926" y2="142.7455964860345" /><path d="M 175.68104954172406 140.8457921977663 a86.0,86.0 0 0,1 -30.038265399797805,32.042727171017184" fill="none" id="id41" stroke="none" /><text fill="#e1ed5e" style="font-size:6.75px; font-family:Arial;" text-anchor="middle"><textPath startOffset="22.206326154141568" xlink:href="#id41">May</textPath></text><line stroke="#e1ed5e" stroke-width="0.3" x1="143.8653032363475" x2="146.44561519142675" y1="172.8068346515853" y2="177.08958963109032" /><path d="M 144.38136562736335 173.6633856474863 a86.0,86.0 0 0,1 -40.68145358897372,12.25698825130547" fill="none" id="id42" stroke="none" /><text fill="#e1ed5e" style="font-size:6.75px; font-family:Arial;" text-anchor="middle"><textPath startOffset="21.466115282336833" xlink:href="#id42">June</textPath></text><line stroke="#e1ed5e" stroke-width="0.3" x1="102.19456741930631" x2="102.32365962044197" y1="184.97166512339345" y2="189.96999836594603" /><path d="M 102.22038585953345 185.97133177190398 a86.0,86.0 0 0,1 -42.740103519485714,-10.115201625700543" fill="none" id="id43" stroke="none" /><text fill="#e1ed5e" style="font-size:6.75px; font-family:Arial;" text-anchor="middle"><textPath startOffset="22.20632615414155" xlink:href="#id43">July</textPath></text><line stroke="#e1ed5e" stroke-width="0.3" x1="58.666819895761336" x2="56.23545636021788" y1="174.27360380694188" y2="178.64263932499728" /><path d="M 58.180547188652646 175.14741091055294 a86.0,86.0 0 0,1 -31.652253787137756,-30.449443065178592" fill="none" id="id44" stroke="none" /><text fill="#e1ed5e" style="font-size:6.75px; font-family:Arial;" text-anchor="middle"><textPath startOffset="22.20632615414155" xlink:href="#id44">August</textPath></text><line stroke="#e1ed5e" stroke-width="0.3" x1="26.63291911575756" x2="22.317208475507996" y1="142.92168965132927" y2="145.44649492493687" /><path d="M 25.769776987707644 143.4266507060508 a86.0,86.0 0 0,1 -11.730757126820373,-40.83630448921669" fill="none" id="id45" stroke="none" /><text fill="#e1ed5e" style="font-size:6.75px; font-family:Arial;" text-anchor="middle"><textPath startOffset="21.46611528233685" xlink:href="#id45">September</textPath></text><line stroke="#e1ed5e" stroke-width="0.3" x1="15.007084014347285" x2="10.007500721073583" y1="101.09737516637583" y2="101.16192664675087" /><path d="M 14.007167355692545 101.11028546245083 a86.0,86.0 0 0,1 10.666146001902534,-42.60595125391555" fill="none" id="id46" stroke="none" /><text fill="#e1ed5e" style="font-size:6.75px; font-family:Arial;" text-anchor="middle"><textPath startOffset="22.20632615414155" xlink:href="#id46">October</textPath></text><line stroke="#e1ed5e" stroke-width="0.3" x1="26.266209847984243" x2="21.928928074336255" y1="57.711370442889674" y2="55.22380399835377" /><path d="M 25.398753493254645 57.213857153982495 a86.0,86.0 0 0,1 29.58750427330803,-30.492523968695096" fill="none" id="id47" stroke="none" /><text fill="#e1ed5e" style="font-size:6.75px; font-family:Arial;" text-anchor="middle"><textPath startOffset="21.46611528233685" xlink:href="#id47">November</textPath></text><line stroke="#e1ed5e" stroke-width="0.3" x1="56.762969772571076" x2="54.21961505331055" y1="26.818313649435495" y2="22.513508569990535" /><path d="M 56.25429882871897 25.957352633546506 a86.0,86.0 0 0,1 42.265352541879196,-11.944610805530505" fill="none" id="id48" stroke="none" /><text fill="#e1ed5e" style="font-size:6.75px; font-family:Arial;" text-anchor="middle"><textPath startOffset="22.20632615414155" xlink:href="#id48">December</textPath></text></svg>