<?xml version="1.0" encoding="utf-8" ?>
<svg baseProfile="full" height="200mm" version="1.1" viewBox="0,0,200,200" width="200mm" xmlns="http://www.w3.org/2000/svg" xmlns:ev="http://www.w3.org/2001/xml-events" xmlns:xlink="http://www.w3.org/1999/xlink"><defs /><rect fill="#1a1a1a" height="200" width="200" x="0" y="0" /><rect fill="#1a1a1a" height="200" width="180" x="10" y="0" /><text alignment-baseline="middle" fill="#e1ed5e" style="dominant-baseline: central; font-size:9.0px; font-family:Arial;" text-anchor="middle" x="100.0" y="100.0">2025</text><line stroke="#e1ed5e" stroke-width="0.3" x1="100.0" x2="100.0" y1="15.0" y2="10.0" /><path d="M 100.0 14.0 a86.0,86.0 0 0,1 42.46469731375804,11.215312516191453" fill="none" id="id25" stroke="none" /><text fill="#e1ed5e" style="font-size:6.75px; font-family:Arial;" text-anchor="middle"><textPath startOffset="22.20632615414155" xlink:href="#id25">January</textPath></text><path d="M 100.0 79.0 l 0.0 -38.27942518268707 a59.27942518268707,59.27942518268707 0 0,0 1.0203978583827482,0.008782886518201338 l -0.6589173791102197 38.27375367277743" fill="#6dff28" stroke="none" /><path d="M 101.08401301168833 79.027996857942 l 1.625760457779814 -31.45299277883104 a52.494981374994936,52.494981374994936 0 0,0 0.9020086440740908,0.054411624689308054 l -2.1669311506935163 31.420347884761426" fill="#c7ff1e" stroke="none" /><path d="M 101.44485096284872 79.0497635885617 l 1.8390986317715066 -26.66679962866177 a47.730141904086096,47.730141904086096 0 0,0 0.8191624478742978,0.0635827716892472 l -2.2978512690081456 26.63119159478406" fill="#fff216" stroke="none" /><path d="M 102.16513564639614 79.11191278185805 l 2.7827513433112743 -26.84651784392302 a47.990354302653714,47.990354302653714 0 0,0 0.820939675041835,0.0922421378111746 l -3.2444577218628345 26.794639752641245" fill="#fff617" stroke="none" /><path d="M 102.88285421437855 79.19881850522331 l 2.8833014052143784 -20.804408192017302 a42.00325753813888,42.00325753813888 0 0,0 0.7153175151753504,0.10541920740320376 l -3.2409879008183844 20.75169450045313" fill="#ff9a0e" stroke="none" /><path d="M 103.59715602781102 79.31037775812273 l 5.141083195350167 -29.569768006584262 a51.01336229722898,51.01336229722898 0 0,0 0.8638381200876168,0.15786089493170516 l -5.649316436540685 29.476891630301818" fill="#dcff1b" stroke="none" /><path d="M 103.95276090670814 79.375362276772 l 4.67654790555977 -24.401199218451232 a45.84529379201503,45.84529379201503 0 0,0 0.7737672422732569,0.1552104295757328 l -5.095881557300151 24.31708483279829" fill="#ffd614" stroke="none" /><path d="M 104.66035177308747 79.52364482259891 l 5.358523963654474 -23.543939438226737 a45.14603204130955,45.14603204130955 0 0,0 0.7562526047506501,0.17898055800277832 l -5.763000255367648 23.44821296808309" fill="#ffcb12" stroke="none" /><path d="M 105.36241919743992 79.69619591428918 l 5.363448920423576 -20.30770294049125 a42.00403254237695,42.00403254237695 0 0,0 0.6974711813639419,0.19064522099327996 l -5.7122179910112285 20.212371178671678" fill="#ff9a0e" stroke="none" /><path d="M 106.0581310904928 79.89281104454417 l 11.578076906766283 -38.42811861078631 a61.134426180321256,61.134426180321256 0 0,0 1.0049761023039863,0.31225096695884574 l -12.237838381780987 38.22312750894495" fill="#56ff2b" stroke="none" /><path d="M 106.40334571778207 80.00007090966166 l 6.403220835743941 -19.999539039259215 a41.999590444914844,41.999590444914844 0 0,0 0.6866276599296426,0.2263703440522514 l -6.746531317916 19.88635497094773" fill="#ff9a0e" stroke="none" /><path d="M 107.08798089147638 80.2323363322302 l 7.090420193787297 -19.774466635837072 a42.00722707204119,42.00722707204119 0 0,0 0.6785520889581464,0.24991646089992936 l -7.42975460851802 19.649486907130818" fill="#ff9a0e" stroke="none" /><path d="M 108.09893153111575 80.62456947434976 l 8.290996798680593 -19.834916722538786 a42.49801268270583,42.49801268270583 0 0,0 0.6725133274331583,0.2879351097685089 l -8.631193883904068 19.689262084807485" fill="#ffa10e" stroke="none" /><path d="M 108.76106565485865 80.91482961587045 l 13.14168128549545 -28.62793595531547 a52.50019847669512,52.50019847669512 0 0,0 0.8180575644128714,0.38408899544620695 l -13.63251706120792 28.39748197722926" fill="#c7ff1e" stroke="none" /><line stroke="#e1ed5e" stroke-width="0.3" x1="143.23703022742887" x2="145.7803849466894" y1="26.81831364943548" y2="22.513508569990506" /><path d="M 143.74570117128098 25.957352633546492 a86.0,86.0 0 0,1 28.547481713284135,27.462654790039103" fill="none" id="id26" stroke="none" /><text fill="#e1ed5e" style="font-size:6.75px; font-family:Arial;" text-anchor="middle"><textPath startOffset="19.985693538727396" xlink:href="#id26">February</textPath></text><path d="M 112.19680574252982 82.90503203632743 l 14.426947676719607 -20.220721191542676 a45.83977424963658,45.83977424963658 0 0,0 0.638383651266248,0.46381287182826975 l -14.772876644339643 19.96938908489773" fill="#ffd614" stroke="none" /><path d="M 112.77801427241765 83.33499621200491 l 11.554713934139217 -15.069583377855848 a39.98956969712427,39.98956969712427 0 0,0 0.5426535950887322,0.4235497383954536 l -11.812400084387379 14.868455250237169" fill="#ff790b" stroke="none" /><path d="M 113.6212207817346 84.01681056812373 l 13.62077122098289 -15.982661915674088 a41.99930690677896,41.99930690677896 0 0,0 0.5462033889894821,0.47366219655410674 l -13.893868408619136 15.745834725700309" fill="#ff9a0e" stroke="none" /><path d="M 114.16331599549186 84.49514656593476 l 14.17290726677839 -15.515353182541611 a42.01422101272621,42.01422101272621 0 0,0 0.5297635472700375,0.4923574814703997 l -14.437878697843274 15.269091114996572" fill="#ff9a0e" stroke="none" /><path d="M 114.68862486808459 84.99185889309783 l 17.652515270704257 -18.036503924211274 a46.23740813139368,46.23740813139368 0 0,0 0.564017555062638,0.5615954844370101 l -17.96036862593422 17.729972589124145" fill="#ffdc14" stroke="none" /><path d="M 114.94478906791727 85.2469230424477 l 22.415414648165438 -22.127869174798345 a52.49751431567546,52.49751431567546 0 0,0 0.6293095438101493,0.6485588027669834 l -22.7929884556787 21.73874617648125" fill="#c7ff1e" stroke="none" /><path d="M 115.4437574822437 85.77008943001954 l 17.746573925331507 -16.351730475654055 a45.131306960786226,45.131306960786226 0 0,0 0.5214951733973597,0.5758479955726223 l -18.0254127393449 16.043829692811883" fill="#ffcb12" stroke="none" /><path d="M 115.9244219780498 86.31012108654704 l 16.580676051828277 -14.254046254589175 a42.86542139917819,42.86542139917819 0 0,0 0.47619275527764177,0.5636620233219065 l -16.823579420593035 13.966525281638162" fill="#ffa70f" stroke="none" /><path d="M 116.38621287248628 86.86637796730983 l 21.04217200779106 -16.86539385566086 a47.96691515008769,47.96691515008769 0 0,0 0.5108383257053655,0.6487127972016257 l -21.32936441409039 16.500688664506196" fill="#fff617" stroke="none" /><path d="M 116.60985879189232 87.15038557335679 l 23.937695602985478 -18.518529423673257 a51.26465269578758,51.26465269578758 0 0,0 0.5339434743154049,0.7026070240485276 l -24.252915017524995 18.103737623743697" fill="#d9ff1c" stroke="none" /><path d="M 117.04232023915458 87.72973835380427 l 19.19798479709196 -13.822313701088625 a44.65626716793409,44.65626716793409 0 0,0 0.44377140021971634,0.6276831743846452 l -19.433068817115558 13.489804026372186" fill="#ffc312" stroke="none" /><path d="M 117.45458315368197 88.32363383020206 l 20.647049107373686 -13.811988724155784 a45.840927304722484,45.840927304722484 0 0,0 0.43309496264617675,0.6596333410476071 l -20.881740705377787 13.454537319130504" fill="#ffd614" stroke="none" /><line stroke="#e1ed5e" stroke-width="0.3" x1="172.23445277983987" x2="176.4835382374775" y1="55.19839476539836" y2="52.563006222186495" /><path d="M 173.08426987136738 54.67131705675599 a86.0,86.0 0 0,1 12.851231095245387,41.99856678651699" fill="none" id="id27" stroke="none" /><text fill="#e1ed5e" style="font-size:6.75px; font-family:Arial;" text-anchor="middle"><textPath startOffset="22.20632615414155" xlink:href="#id27">March</textPath></text><path d="M 117.84615892207809 88.93136811851018 l 21.113232441815242 -13.09495218254892 a45.84444317760739,45.84444317760739 0 0,0 0.41016412425892057,0.6742019748867577 l -21.335512364360387 12.72958243445508" fill="#ffd614" stroke="none" /><path d="M 118.21658344932153 89.55222093294921 l 21.708111901976608 -12.450279589783039 a46.02501916507771,46.02501916507771 0 0,0 0.38823716449823054,0.6906305949753871 l -21.91920670776727 12.074765484872858" fill="#ffd814" stroke="none" /><path d="M 118.3937258080291 89.86733742301442 l 17.937150517823095 -9.881146195534079 a41.478730889304614,41.478730889304614 0 0,0 0.33912200706621365,0.6283415753868169 l -18.104580624107776 9.570923636814802" fill="#ff910d" stroke="none" /><path d="M 118.73160827565052 90.50648371742162 l 25.976528337744096 -13.165372193897657 a50.12227754632998,50.12227754632998 0 0,0 0.3834115245613396,0.7729342374273023 l -26.19929987525884 12.716278367971404" fill="#e9ff1a" stroke="none" /><path d="M 119.04729006885535 91.15688171328212 l 28.563828555892222 -13.261378061034826 a52.49216489617854,52.49216489617854 0 0,0 0.373438467288905,0.82282216152644 l -28.787869340144475 12.767733890666323" fill="#c7ff1e" stroke="none" /><path d="M 119.196687751892 91.48605970444005 l 19.201825476558387 -8.5162189324597 a42.00562035593788,42.00562035593788 0 0,0 0.28745704209379397,0.6634904859159526 l -19.34557322849486 8.184429301957145" fill="#ff9a0e" stroke="none" /><path d="M 119.47837535516314 92.15188598940014 l 17.993502704820557 -7.249837735570522 a40.39913108313068,40.39913108313068 0 0,0 0.2543345575411696,0.6472537073459508 l -18.115630812243428 6.9390350233287865" fill="#ff800b" stroke="none" /><path d="M 119.7369772167798 92.82701384747503 l 23.68200982616175 -8.606724661089403 a46.19748596186187,46.19748596186187 0 0,0 0.26518879081116764,0.7497244223297943 l -23.826651697782726 8.197802612332994" fill="#ffdb14" stroke="none" /><path d="M 119.97218684219823 93.5106431181261 l 29.049891931528144 -9.438882061990881 a51.544863984205875,51.544863984205875 0 0,0 0.26691529991409907,0.8461944419108494 l -29.20806271521045 8.937437453653613" fill="#d5ff1c" stroke="none" /><path d="M 120.08093135843002 93.85539295169968 l 31.046209156114514 -9.499895806554946 a53.46713913021301,53.46713913021301 0 0,0 0.26171936194733547,0.8823875808222158 l -31.205134415173553 8.9640788389862" fill="#baff1f" stroke="none" /><path d="M 120.28053869075195 94.5502522615342 l 20.282005170940877 -5.450141808229671 a42.00151850423882,42.00151850423882 0 0,0 0.1816139022477258,0.6998324503337745 l -20.372815405058905 5.100212932347046" fill="#ff9a0e" stroke="none" /><path d="M 120.45610955862082 95.25157060432595 l 24.19763224633578 -5.616940402814206 a45.84100291489206,45.84100291489206 0 0,0 0.17180686832656958,0.7701765027665551 l -24.290733501664384 5.199585730497686" fill="#ffd614" stroke="none" /><path d="M 120.6074358757038 95.95851677861258 l 28.441060580812753 -5.577795793184412 a49.98285239364695,49.98285239364695 0 0,0 0.15831301161351352,0.8457144384007419 l -28.532859316336125 5.0874032773211075" fill="#ebff1a" stroke="none" /><path d="M 120.67395015179393 96.31383870115 l 23.110365889712124 -4.120573751965236 a44.47484056605613,44.47484056605613 0 0,0 0.12789299195090478,0.7548316781014138 l -23.177870743183252 3.7221562855479844" fill="#ffc111" stroke="none" /><path d="M 120.78858239683441 97.02765380044208 l 22.111413083978025 -3.161484193218732 a43.3362837301617,43.3362837301617 0 0,0 0.09922770989099873,0.7393616944570689 l -22.16255679292686 2.780404156696999" fill="#ffaf10" stroke="none" /><path d="M 120.87857604477298 97.74499172005257 l 24.50720106558183 -2.646920997040839 a45.64972808842789,45.64972808842789 0 0,0 0.07765426186396882,0.7819678195284082 l -24.549132453128028 2.224677646807996" fill="#ffd313" stroke="none" /><path d="M 120.96714384426684 98.82574320788733 l 43.520214633933996 -2.4373328102135257 a64.58841214143303,64.58841214143303 0 0,0 0.05261308007941649,1.1105789650060789 l -43.55572132224691 1.6878427385844468" fill="#30ff33" stroke="none" /><line stroke="#e1ed5e" stroke-width="0.3" x1="184.98032266829074" x2="189.97916517819016" y1="98.17113171792111" y2="98.06355123074" /><path d="M 185.9800911702706 98.14961562048488 a86.0,86.0 0 0,1 -9.607161424134198,41.387399972396054" fill="none" id="id28" stroke="none" /><text fill="#e1ed5e" style="font-size:6.75px; font-family:Arial;" text-anchor="middle"><textPath startOffset="21.466115282336823" xlink:href="#id28">April</textPath></text><path d="M 120.99513854157772 99.54816195383933 l 26.50936524865489 -0.5705101576344073 a47.51550353522549,47.51550353522549 0 0,0 0.010559738895098043,0.8178634146659008 l -26.515257994667703 0.11411048490804372" fill="#ffef16" stroke="none" /><path d="M 120.99824983174949 100.27111621757518 l 27.502041084692774 0.35508908667261163 a48.50433333283327,48.50433333283327 0 0,0 -0.017964936388965742,0.8347600021331879 l -27.4918540856188 -0.8284389045959143" fill="#fffe18" stroke="none" /><path d="M 120.95626037817324 101.35467743843564 l 56.788954622345024 3.6710135391981744 a77.90748375656526,77.90748375656526 0 0,0 -0.0980278012690794,1.337511464865871 l -56.71735026241161 -4.647998140560816" fill="#44ffe6" stroke="none" /><path d="M 120.89721153311464 102.0752229133903 l 23.288366397178287 2.3126794446364065 a44.40291639225476,44.40291639225476 0 0,0 -0.08207709623754983,0.7599319747818308 l -23.245106999439685 -2.7132077413030284" fill="#ffbf11" stroke="none" /><path d="M 120.8583938346157 102.4346265915055 l 24.672388558186075 2.8798024304263397 a45.83988766489093,45.83988766489093 0 0,0 -0.09822503624829121,0.7829501833741249 l -24.619162012690936 -3.3040703680878596" fill="#ffd614" stroke="none" /><path d="M 120.81339534386255 102.79330883721812 l 21.186500661992163 2.843382281032837 a42.376450432583184,42.376450432583184 0 0,0 -0.10324910956814634,0.7221240318427444 l -21.134417501407412 -3.2076517848559907" fill="#ffa00e" stroke="none" /><path d="M 120.70491114924044 103.5080841355445 l 31.24676449145914 5.294216333964045 a52.69209708705821,52.69209708705821 0 0,0 -0.1592143343229864,0.8929585398966106 l -31.151003714796964 -5.831293624593874" fill="#c4ff1e" stroke="none" /><path d="M 120.64145759157962 103.86396538481128 l 26.117379948072497 4.889027415509834 a47.571039204773044,47.571039204773044 0 0,0 -0.15759620885206527,0.8035796736669458 l -26.029353806244767 -5.337870816244725" fill="#fff016" stroke="none" /><path d="M 120.49622156327973 104.57218783832717 l 20.506153318448217 4.57440336132268 a42.010175868654336,42.010175868654336 0 0,0 -0.16351847622198817,0.7044333158881986 l -20.424374276295676 -4.926705334559443" fill="#ff9a0e" stroke="none" /><path d="M 120.41448212921028 104.9243191809786 l 21.190485848340042 5.111504433802315 a42.79826066605958,42.79826066605958 0 0,0 -0.1789144311586078,0.7146742160857409 l -21.099360102886376 -5.4755064892854515" fill="#ffa60f" stroke="none" /><path d="M 120.32669344350535 105.2749913415812 l 24.038781896767365 6.238317447942946 a45.835048614038584,45.835048614038584 0 0,0 -0.2047559086405294,0.7619729071190662 l -23.92783791178506 -6.65118128823756" fill="#ffd513" stroke="none" /><path d="M 120.13307415673323 105.97154293290107 l 30.83975091436453 9.14718215367587 a53.16770395618211,53.16770395618211 0 0,0 -0.26779617361351615,0.875173389951878 l -30.67772796824488 -9.676682516179804" fill="#beff1f" stroke="none" /><path d="M 120.02730092923936 106.31721596034902 l 22.498411422891476 7.096678889749261 a44.59112900685142,44.59112900685142 0 0,0 -0.23719879266664315,0.7300228192279791 l -22.372920379208583 -7.482900608955035" fill="#ffc212" stroke="none" /><path d="M 119.79798401119884 107.00284435728193 l 20.17391513877531 7.135816844479933 a42.39875543260568,42.39875543260568 0 0,0 -0.24929607902379258,0.685955741067907 l -20.04809479874629 -7.482020382553972" fill="#ffa00e" stroke="none" /><path d="M 119.54520255179757 107.68017299344265 l 20.261526981383202 7.961648487189365 a42.76964221687817,42.76964221687817 0 0,0 -0.27514604060223347,0.6828899082121876 l -20.121478326523576 -8.309237763244365" fill="#ffa60f" stroke="none" /><path d="M 119.26925614724726 108.34839909993367 l 27.770089592078136 12.031382487419041 a51.26436915765171,51.26436915765171 0 0,0 -0.3577738255086202,0.8066855269904267 l -27.55887468183824 -12.507616350902156" fill="#d9ff1c" stroke="none" /><path d="M 118.81262510543309 109.33194174019688 l 20.6755513059462 10.256040247026421 a44.07953169701325,44.07953169701325 0 0,0 -0.34302550976782015,0.6768218736104529 l -20.495947126392114 -10.610416332339568" fill="#ffba11" stroke="none" /><line stroke="#e1ed5e" stroke-width="0.3" x1="174.80103733775053" x2="179.2010983576182" y1="140.37084112569926" y2="142.7455964860345" /><path d="M 175.68104954172406 140.8457921977663 a86.0,86.0 0 0,1 -30.038265399797805,32.042727171017184" fill="none" id="id29" stroke="none" /><text fill="#e1ed5e" style="font-size:6.75px; font-family:Arial;" text-anchor="middle"><textPath startOffset="22.206326154141568" xlink:href="#id29">May</textPath></text><path d="M 118.48025628344425 109.97397251340804 l 25.261801738855986 13.634037987245609 a49.70619478319834,49.70619478319834 0 0,0 -0.4128539507899095,0.7494498422200866 l -25.023371378614566 -14.066858347863501" fill="#efff19" stroke="none" /><path d="M 118.12598468904814 110.60418214915192 l 20.139691724502352 11.782254213390583 a44.332995887946936,44.332995887946936 0 0,0 -0.39101517504950595,0.6553639245338192 l -19.933895673754616 -12.127180231810508" fill="#ffbe11" stroke="none" /><path d="M 117.55443506779139 111.5257021239791 l 19.919756913652776 13.078699695103374 a44.82958457912589,44.82958457912589 0 0,0 -0.42907653743484436,0.6414112055959972 l -19.691677270807208 -13.41964781490518" fill="#ffc612" stroke="none" /><path d="M 117.14729908036423 112.12312394758627 l 17.884864177528385 12.644581761462844 a42.90328319158927,42.90328319158927 0 0,0 -0.4315257325474188,0.5993515002012204 l -17.664558652605365 -12.950566867115194" fill="#ffa80f" stroke="none" /><path d="M 116.71984013943494 112.70617746262583 l 12.413457347297182 9.433558614444086 a36.591213918272004,36.591213918272004 0 0,0 -0.38541557468748083,0.4982015848258761 l -12.249234955391634 -9.645838193383216" fill="#ff4006" stroke="none" /><path d="M 116.498646956653 112.99209946851258 l 23.776692316248283 18.723302123896296 a51.263726471210376,51.263726471210376 0 0,0 -0.5518957293552427,0.6885747802183957 l -23.450878674838187 -19.129804737692943" fill="#d9ff1c" stroke="none" /><path d="M 116.0416608686014 113.55231037782055 l 17.361950032855543 14.667716612187947 a43.72837916699796,43.72837916699796 0 0,0 -0.4907104807158181,0.5708071498200994 l -17.106897042568946 -14.964400861169574" fill="#ffb510" stroke="none" /><path d="M 115.56566222782051 114.09645910891815 l 16.182360204058757 14.654948537595178 a42.83200170422922,42.83200170422922 0 0,0 -0.49961203191353837,0.5422301860674489 l -15.927701764149496 -14.931329978463962" fill="#ffa70f" stroke="none" /><path d="M 115.07121518719521 114.62390073753431 l 23.291664250589317 22.600366445698942 a53.454247596301705,53.454247596301705 0 0,0 -0.64643844322302,0.6548387300599914 l -22.89918518231076 -22.9979456697396" fill="#baff1f" stroke="none" /><path d="M 114.81725581225074 114.88116024355365 l 16.45439011678938 16.52535524394743 a44.320255574374755,44.320255574374755 0 0,0 -0.5452447684931757,0.5336367647821887 l -16.16749539592041 -16.80614211165219" fill="#ffbe11" stroke="none" /><path d="M 114.29624159901734 115.38237550388516 l 15.556263073946642 16.73812507877021 a43.85086764169781,43.85086764169781 0 0,0 -0.5573245871351459,0.5091027963095369 l -15.265838937344633 -17.00342064166633" fill="#ffb711" stroke="none" /><path d="M 113.75828350139079 115.86535959552629 l 14.251621466237378 16.434252089537257 a42.753007979573255,42.753007979573255 0 0,0 -0.560134689302742,0.4773589340863647 l -13.966621300357588 -16.677135413846568" fill="#ffa60f" stroke="none" /><path d="M 113.20401910651253 116.32954008644616 l 15.6153788376188 19.311692344353798 a45.83508641912337,45.83508641912337 0 0,0 -0.6177751324564557,0.49079792782405135 l -15.280646212444994 -19.577624186182973" fill="#ffd513" stroke="none" /><path d="M 112.92097659922987 116.55440617244103 l 16.91829403288383 21.675785031747317 a48.49669670570692,48.49669670570692 0 0,0 -0.662490907039597,0.5079697774564591 l -16.542674397350737 -21.96379415103115" fill="#fffd18" stroke="none" /><path d="M 112.34349029814194 116.9893568818739 l 12.962500845590004 17.841351807962376 a43.05312364513027,43.05312364513027 0 0,0 -0.6033027495002312,0.4304404930869249 l -12.653470768240888 -18.061836562893518" fill="#ffaa0f" stroke="none" /><path d="M 111.7513745106137 117.40417183066458 l 12.17317279688227 18.02886895400684 a42.753764081268926,42.753764081268926 0 0,0 -0.6134662305613743,0.4065719663249674 l -11.86103186758093 -18.235738941423126" fill="#ffa60f" stroke="none" /><path d="M 111.1453310114006 117.79835938074945 l 14.623710540885886 23.353102336799292 a48.55395250661214,48.55395250661214 0 0,0 -0.7121727284540645,0.4374746569199141 l -14.219558612499513 -23.601365460547584" fill="#fffe18" stroke="none" /><line stroke="#e1ed5e" stroke-width="0.3" x1="143.8653032363475" x2="146.44561519142675" y1="172.8068346515853" y2="177.08958963109032" /><path d="M 144.38136562736335 173.6633856474863 a86.0,86.0 0 0,1 -40.68145358897372,12.25698825130547" fill="none" id="id30" stroke="none" /><text fill="#e1ed5e" style="font-size:6.75px; font-family:Arial;" text-anchor="middle"><textPath startOffset="21.466115282336833" xlink:href="#id30">June</textPath></text><path d="M 110.8373102113329 117.98757091392108 l 17.17752452317954 28.510943625402394 a54.28575153358127,54.28575153358127 0 0,0 -0.8045461915533699,0.47534007124293814 l -16.68421046059779 -28.80240226893908" fill="#aeff20" stroke="none" /><path d="M 110.21172684928248 118.3499491758327 l 11.13426396274772 20.007701032571386 a43.8971599680157,43.8971599680157 0 0,0 -0.6634265332190925,0.36175304255532814 l -10.78821461765998 -20.196394726886485" fill="#ffb811" stroke="none" /><path d="M 109.57404056367764 118.69057910512821 l 9.759636282335387 19.052901725141567 a42.40709145380053,42.40709145380053 0 0,0 -0.652556470944545,0.32720536138171347 l -9.430225903708081 -19.218074927432582" fill="#ffa00e" stroke="none" /><path d="M 108.92500713936063 119.00905698771935 l 12.210987884464396 26.00775113651762 a49.731713215427476,49.731713215427476 0 0,0 -0.7780218769802049,0.3571516841582975 l -11.761498011716773 -26.21408989100999" fill="#efff19" stroke="none" /><path d="M 108.59647513512805 119.15986991738527 l 11.616366552664514 25.890620116171842 a49.37717713032403,49.37717713032403 0 0,0 -0.7784648805529651,0.341256126660401 l -11.168980997453795 -26.086740796126698" fill="#f4ff19" stroke="none" /><path d="M 107.93186726928326 119.44442032107085 l 8.225972873628454 20.165399731784966 a42.77865872959913,42.77865872959913 0 0,0 -0.6842118982128562,0.2722620348231805 l -7.877639899373731 -20.304008611014215" fill="#ffa60f" stroke="none" /><path d="M 107.2578585660854 119.70592522655815 l 8.585297669913754 23.31007588403777 a45.84083279201053,45.84083279201053 0 0,0 -0.7427970820744859,0.2663406061775826 l -8.182781027209533 -23.45440403125531" fill="#ffd614" stroke="none" /><path d="M 106.57524785965236 119.94407469862006 l 8.932341499478698 27.09362291760143 a49.528076126238986,49.528076126238986 0 0,0 -0.8119742585226222,0.2599685162769843 l -8.464645895865134 -27.24336428053812" fill="#f2ff19" stroke="none" /><path d="M 106.2309692047433 120.05430185196036 l 7.300300613082644 23.495932541820654 a45.6039272282122,45.6039272282122 0 0,0 -0.7516504989281008,0.22646612944397432 l -6.894775139714298 -23.618114040370354" fill="#ffd213" stroke="none" /><path d="M 105.18746579009965 120.34920634021253 l 6.1364001083981154 24.071652140861044 a45.84149438099424,45.84149438099424 0 0,0 -0.7663098107100272,0.1883403072474595 l -5.721137012944877 -24.173713706422532" fill="#ffd614" stroke="none" /><path d="M 104.83641907484287 120.43548508189849 l 4.835179817595793 20.43024880634146 a41.994619076265764,41.994619076265764 0 0,0 -0.7048693837288487,0.16042597687899643 l -4.482790284474082 -20.51045151679814" fill="#ff990e" stroke="none" /><path d="M 104.13013068566511 120.58985236759428 l 8.261732308708455 41.18703776790955 a63.00747910593975,63.00747910593975 0 0,0 -1.0652236003240612,0.20415263825564273 l -7.5515410938126895 -41.32314760451366" fill="#3fff2d" stroke="none" /><path d="M 103.7750983002368 120.6578951692458 l 4.2149832199340285 23.06501038451509 a44.44697821857039,44.44697821857039 0 0,0 -0.753801762262059,0.13105809865427406 l -3.81733248619992 -23.13414706169037" fill="#ffc011" stroke="none" /><path d="M 103.06178313531738 120.77559828337769 l 3.6212746403304448 24.57200391937287 a45.83741143183758,45.83741143183758 0 0,0 -0.7815745946546174,0.10831911709520409 l -3.1977714544889966 -24.630697601960676" fill="#ffd614" stroke="none" /><path d="M 102.34483914955558 120.86867818915974 l 2.773447338298947 24.683219737486848 a45.8385455843811,45.8385455843811 0 0,0 -0.7848593719596014,0.08135388299997098 l -2.348155369733743 -24.72730298894258" fill="#ffd614" stroke="none" /><path d="M 101.62511606390274 120.93702456842531 l 1.9463901171967233 25.076127550928646 a46.151552783849425,46.151552783849425 0 0,0 -0.7925699324634727,0.054660262898970635 l -1.5144574239543203 -25.105916158343902" fill="#ffda14" stroke="none" /><path d="M 101.26447882468166 120.96189622390904 l 2.09249897894884 34.68839935410054 a55.7514546706532,55.7514546706532 0 0,0 -0.9584257304481356,0.04953966273536812 l -1.495085180087225 -34.7192788235981" fill="#9bff22" stroke="none" /><line stroke="#e1ed5e" stroke-width="0.3" x1="102.19456741930631" x2="102.32365962044197" y1="184.97166512339345" y2="189.96999836594603" /><path d="M 102.22038585953345 185.97133177190398 a86.0,86.0 0 0,1 -42.740103519485714,-10.115201625700543" fill="none" id="id31" stroke="none" /><text fill="#e1ed5e" style="font-size:6.75px; font-family:Arial;" text-anchor="middle"><textPath startOffset="22.20632615414155" xlink:href="#id31">July</textPath></text><path d="M 100.54218724476979 120.99299961872073 l 0.5862734853374557 22.699978970145157 a43.70754856528203,43.70754856528203 0 0,0 -0.7522699955936578,0.012951010191414288 l -0.19544379985112995 -22.70670745761573" fill="#ffb510" stroke="none" /><path d="M 99.81925306533755 120.99922214144158 l -0.21377226903441895 24.83611339532397 a45.837033380989745,45.837033380989745 0 0,0 -0.7889215028392887,-0.013581999127101228 l 0.6412534617663757 -24.82875391891771" fill="#ffd514" stroke="none" /><path d="M 98.73552117531835 120.96189622390904 l -2.4027076212186596 39.830882755241944 a60.903285891952464,60.903285891952464 0 0,0 -1.0459044230269179,-0.07213169259670629 l 3.0879748050245075 -39.78362271812895" fill="#58ff2a" stroke="none" /><path d="M 98.01472825383883 120.90594882070398 l -1.9858209461935696 20.91173218401016 a42.0058093813618,42.0058093813618 0 0,0 -0.71923427651127,-0.07455157353191832 l 2.345487819310433 -20.87445124202248" fill="#ff9a0e" stroke="none" /><path d="M 97.2962882734958 120.8252237178851 l -2.714683512539707 20.90973342967665 a42.08521896195039,42.08521896195039 0 0,0 -0.7175958878055365,-0.09945225130122148 l 3.074207991532075 -20.859906612882824" fill="#ff9b0e" stroke="none" /><path d="M 96.58105272829116 120.7198165907248 l -4.3515775868451865 26.37182802608 a47.728440675270825,47.728440675270825 0 0,0 -0.8094539636444262,-0.14073394721850463 l 4.804880521961663 -26.29301550034049" fill="#fff216" stroke="none" /><path d="M 96.22490169976321 120.6578951692458 l -6.521304666671646 35.68554179433318 a57.27651179083587,57.27651179083587 0 0,0 -0.9683341242910901,-0.18558353957502247 l 7.134606405534432 -35.56800105640969" fill="#87ff25" stroke="none" /><path d="M 95.51606077576429 120.51570834832081 l -4.485292659130581 20.52190082198804 a42.00633865254876,42.00633865254876 0 0,0 -0.7050660939430099,-0.16047074748330165 l 4.8378789024664535 -20.441653340927054" fill="#ff9a0e" stroke="none" /><path d="M 94.81253420990036 120.34920634021253 l -6.135452230908728 24.067933840751333 a45.83765716488868,45.83765716488868 0 0,0 -0.7628904408694767,-0.20148629923694703 l 6.548833114589693 -23.958756192210807" fill="#ffd614" stroke="none" /><path d="M 94.11515582081647 120.15858648285463 l -6.961248098971418 23.845817758116404 a45.8411352326888,45.8411352326888 0 0,0 -0.7555601954334551,-0.2276440889293081 l 7.370683268845118 -23.72245830008137" fill="#ffd614" stroke="none" /><path d="M 93.08242187328487 119.8279376855182 l -8.931300014605132 25.599893040073358 a48.113145218031825,48.113145218031825 0 0,0 -0.7796172473465541,-0.27954300744541233 l 9.370636822581412 -25.44236249158799" fill="#fff817" stroke="none" /><path d="M 92.40401165467489 119.57807347666478 l -8.986610416221732 23.16229449499237 a45.84453769031935,45.84453769031935 0 0,0 -0.7332482851801402,-0.2917746251931522 l 9.383979777443729 -23.00417302539315" fill="#ffd614" stroke="none" /><path d="M 92.06813273071674 119.44442032107085 l -7.375170435190213 18.079716794647272 a40.52611836291982,40.52611836291982 0 0,0 -0.6436484338008448,-0.2690450975301877 l 7.685290328488521 -17.950086654097113" fill="#ff820b" stroke="none" /><path d="M 91.7346041902142 119.30500536409082 l -9.777631040966718 22.837045440762164 a45.842155969977966,45.842155969977966 0 0,0 -0.7227328605130862,-0.316824846888007 l 10.169284576137548 -22.665356040579706" fill="#ffd614" stroke="none" /><path d="M 91.40352486487194 119.15986991738527 l -16.60993799901248 37.02031895566847 a61.57578164263093,61.57578164263093 0 0,0 -0.9633149978686324,-0.44221066790449964 l 17.24472099264853 -36.7289212174299" fill="#50ff2b" stroke="none" /><path d="M 90.7491055286396 118.85261126421891 l -8.781858215847858 17.896751458296563 a40.93526389299361,40.93526389299361 0 0,0 -0.6299081221426607,-0.3158490091204401 l 9.08862024567328 -17.742934608266822" fill="#ff880c" stroke="none" /><path d="M 90.10565033884886 118.52300852407294 l -13.972808912755474 26.15820821578891 a50.65621766127544,50.65621766127544 0 0,0 -0.7655775201288433,-0.4174539053702746 l 14.421009244752957 -25.91381365865887" fill="#e1ff1b" stroke="none" /><line stroke="#e1ed5e" stroke-width="0.3" x1="58.666819895761336" x2="56.23545636021788" y1="174.27360380694188" y2="178.64263932499728" /><path d="M 58.180547188652646 175.14741091055294 a86.0,86.0 0 0,1 -31.652253787137756,-30.449443065178592" fill="none" id="id32" stroke="none" /><text fill="#e1ed5e" style="font-size:6.75px; font-family:Arial;" text-anchor="middle"><textPath startOffset="22.20632615414155" xlink:href="#id32">August</textPath></text><path d="M 89.4739219176387 118.17145234162733 l -10.536361338530092 18.189204603953915 a42.02051555934273,42.02051555934273 0 0,0 -0.6227683103818683,-0.3679424949526026 l 10.847897519940343 -18.00514353670756" fill="#ff9a0e" stroke="none" /><path d="M 88.24862548938628 117.40417183066458 l -13.90388948596091 20.592117246342163 a45.84659806744007,45.84659806744007 0 0,0 -0.6502425522785014,-0.4472427566852977 l 14.256288922862302 -20.349733700291765" fill="#ffd614" stroke="none" /><path d="M 87.95078237400918 117.19931262002967 l -15.337957722363617 21.893731029531263 a47.731786425274194,47.731786425274194 0 0,0 -0.6688647779957935,-0.4772172596386913 l 15.712549828208298 -21.626469508048352" fill="#fff216" stroke="none" /><path d="M 87.65650970185807 116.9893568818739 l -14.604397249866043 20.101228334094557 a45.84648465218572,45.84648465218572 0 0,0 -0.6344608330190377,-0.4693589564511861 l 14.948243053303646 -19.846859428903606" fill="#ffd614" stroke="none" /><path d="M 87.36589467227662 116.77436683061367 l -18.20268935927691 24.16780458100234 a51.2559197212025,51.2559197212025 0 0,0 -0.7001833744122443,-0.5368707541485407 l 18.61600146218264 -23.850894485026434" fill="#d9ff1c" stroke="none" /><path d="M 87.07902340077011 116.55440617244103 l -20.951045550257135 26.84256217884814 a55.050983157234654,55.050983157234654 0 0,0 -0.7419889667237232,-0.5894809101303253 l 21.409992009698215 -26.477947354712686" fill="#a4ff21" stroke="none" /><path d="M 86.51685102203217 116.09983520530335 l -14.71984681670719 17.576540048882052 a43.92615646804495,43.92615646804495 0 0,0 -0.5755048631255806,-0.49045772966699447 l 15.020217156409826 -17.320557928992105" fill="#ffb811" stroke="none" /><path d="M 85.97065885151581 115.62618273729859 l -16.600806483633367 18.49033628552214 a45.849131008120594,45.849131008120594 0 0,0 -0.5827216058390758,-0.5323023707380722 l 16.916627638939296 -18.201841148197495" fill="#ffd614" stroke="none" /><path d="M 85.44109423537348 115.13401014063109 l -27.801130823025936 28.899328191199363 a61.10079855740597,61.10079855740597 0 0,0 -0.7516854389134684,-0.7356824107899478 l 28.294466214315197 -28.416495677486846" fill="#56ff2a" stroke="none" /><path d="M 85.18274418774928 114.88116024355367 l -22.909161500738374 23.00796501441743 a53.46838669801088,53.46838669801088 0 0,0 -0.646609431672185,-0.6550119404562419 l 23.301811557466092 -22.610212579980523" fill="#baff1f" stroke="none" /><path d="M 84.67929136418377 114.36230785411682 l -18.126457903255293 16.992540939172528 a45.845823063202005,45.845823063202005 0 0,0 -0.5347666208439801,-0.5803835492358024 l 18.416270932095 -16.678006135135384" fill="#ffd614" stroke="none" /><path d="M 84.19399662182784 113.82643327865904 l -16.443690678586837 14.384255563070768 a42.84723715339713,42.84723715339713 0 0,0 -0.48082249425691703,-0.5593051876858608 l 16.68885568241453 -14.099073276223377" fill="#ffa70f" stroke="none" /><path d="M 83.72743513129214 113.27417163493432 l -26.892388570007142 21.937179813495927 a55.70504892908097,55.70504892908097 0 0,0 -0.5997101795701313,-0.7482306586692817 l 27.266016661632136 -21.471021321248383" fill="#9bff22" stroke="none" /><path d="M 83.50135304334701 112.99209946851258 l -17.82898475161978 14.039693310864644 a43.6932960483185,43.6932960483185 0 0,0 -0.4602218675790839,-0.594898802378034 l 18.068013436416933 -13.730716514373357" fill="#ffb410" stroke="none" /><path d="M 83.06392112726016 112.41649034213515 l -17.279055196110008 12.66793946673513 a42.4252756995816,42.4252756995816 0 0,0 -0.42671788294227236,-0.5926738176060807 l 17.494552871427885 -12.368632043677911" fill="#ffa00e" stroke="none" /><path d="M 82.6465618267979 111.8261652097733 l -20.540541162676707 13.998138631863995 a45.85682434287412,45.85682434287412 0 0,0 -0.4389085375544439,-0.6561087117515042 l 20.778452805641884 -13.642493005906669" fill="#ffd614" stroke="none" /><path d="M 82.24976979558568 111.22182372390057 l -34.31442398217952 21.69382665355186 a61.59682017231318,61.59682017231318 0 0,0 -0.5588748727066578,-0.9010842444366052 l 34.68276349455414 -21.09994607774999" fill="#50ff2b" stroke="none" /><path d="M 82.05923443525364 110.91462005526583 l -18.2236182486419 11.086699087522868 a42.3310843308425,42.3310843308425 0 0,0 -0.3733583985953784,-0.625770151580819 l 18.41175752293551 -10.771366842055938" fill="#ff9f0e" stroke="none" /><line stroke="#e1ed5e" stroke-width="0.3" x1="26.63291911575756" x2="22.317208475507996" y1="142.92168965132927" y2="145.44649492493687" /><path d="M 25.769776987707644 143.4266507060508 a86.0,86.0 0 0,1 -11.730757126820373,-40.83630448921669" fill="none" id="id33" stroke="none" /><text fill="#e1ed5e" style="font-size:6.75px; font-family:Arial;" text-anchor="middle"><textPath startOffset="21.46611528233685" xlink:href="#id33">September</textPath></text><path d="M 81.69416730710424 110.29060199501025 l -18.322529858080394 10.2999882864859 a42.01915457629051,42.01915457629051 0 0,0 -0.34900627680992047,-0.6335477681358394 l 18.49711254434183 -9.983069999952239" fill="#ff9a0e" stroke="none" /><path d="M 81.51974371655577 109.97397251340807 l -10.467571672724638 5.649449366100805 a32.89480285098345,32.89480285098345 0 0,0 -0.264642592100501,-0.5006040510893524 l 10.563266773050024 -5.468430299925326" fill="#ff0000" stroke="none" /><path d="M 81.35079622478065 109.6543875284942 l -19.234740713893817 9.957510417082233 a42.65934588202113,42.65934588202113 0 0,0 -0.33197366905179226,-0.6550155433893391 l 19.403293052731875 -9.624940661990209" fill="#ffa40f" stroke="none" /><path d="M 81.02952815118164 109.00673069616217 l -24.14790455646331 11.464853112245576 a47.73133276425679,47.73133276425679 0 0,0 -0.3459962104183202,-0.7452450559731634 l 24.34167538372146 -11.047487988993584" fill="#fff216" stroke="none" /><path d="M 80.87730276802145 108.67885076344099 l -20.28550979743344 9.206594135571603 a43.27696755213576,43.27696755213576 0 0,0 -0.30202978193145785,-0.6809974247216612 l 20.440980664096177 -8.856048374357245" fill="#ffae10" stroke="none" /><path d="M 80.58989483394504 108.01547362559985 l -22.962474983331596 9.482437680413627 a45.84334683014866,45.84334683014866 0 0,0 -0.2949198243069025,-0.73196681773097 l 23.122297421895887 -9.085771494839852" fill="#ffd614" stroke="none" /><path d="M 80.32549172779594 107.34259656027581 l -20.827168455272815 7.772773445932705 a43.23031607751243,43.23031607751243 0 0,0 -0.2541854868880274,-0.6994092915931771 l 20.957878203166064 -7.4131163573334105" fill="#ffad10" stroke="none" /><path d="M 80.0844068197444 106.66101706037122 l -18.17741519864548 6.079661883818153 a40.16717798543904,40.16717798543904 0 0,0 -0.21366595408490766,-0.6575961893419667 l 18.279373403746636 -5.765866794498383" fill="#ff7c0b" stroke="none" /><path d="M 79.97269907076064 106.31721596034903 l -29.14464016573183 9.19310029165189 a51.56015614100097,51.56015614100097 0 0,0 -0.25969924405340644,-0.8487121556642346 l 29.298566182291367 -8.690061163435606" fill="#d4ff1c" stroke="none" /><path d="M 79.76711848015287 105.62410040840567 l -21.27213960586785 5.9129812492436225 a43.0786609799018,43.0786609799018 0 0,0 -0.19244247881643373,-0.7161500540352781 l 21.370770161026055 -5.545940262032806" fill="#ffab0f" stroke="none" /><path d="M 79.58551787078972 104.9243191809786 l -21.37617033062702 5.1562946788816895 a42.98927085693026,42.98927085693026 0 0,0 -0.16732946051921702,-0.7208509364979363 l 21.46176035707679 -4.787575085035179" fill="#ffa90f" stroke="none" /><path d="M 79.4281124754447 104.21870165774334 l -18.8875331207465 3.8732890791895382 a40.280593239790754,40.280593239790754 0 0,0 -0.13344397959391235,-0.6804279770178622 l 18.95140703331608 -3.547597375103721" fill="#ff7e0b" stroke="none" /><path d="M 79.35854240842038 103.8639653848113 l -39.73303691096925 7.437802227689763 a61.4232003204431,61.4232003204431 0 0,0 -0.1855962182497523,-1.0409221554287316 l 39.85517957155819 -6.752761321527817" fill="#52ff2b" stroke="none" /><path d="M 79.23777060512086 103.15116336523772 l -25.510745621211395 3.871863926197023 a46.8028965895913,46.8028965895913 0 0,0 -0.11403402948468669,-0.7975537366199197 l 25.57361370171268 -3.4321647175967027" fill="#ffe415" stroke="none" /><path d="M 79.1416061653843 102.43462659150553 l -19.739686969088417 2.304049256332558 a40.87369831242302,40.87369831242302 0 0,0 -0.07555347131564769,-0.6995313100788861 l 19.77642274190512 -1.9639216243688895" fill="#ff870c" stroke="none" /><path d="M 79.07016306316243 101.71520430193888 l -28.64421430240419 2.3473990621814353 a49.74023826204625,49.74023826204625 0 0,0 -0.06258610798757912,-0.8539377185961595 l 28.680376969056105 -1.853988207088515" fill="#eeff19" stroke="none" /><path d="M 79.0235259727143 100.99374915477108 l -21.968224079064736 1.0407327791122147 a42.992862339984725,42.992862339984725 0 0,0 -0.028657541684843607,-0.7395238139617878 l 21.98288375360078 -0.6624317181364303" fill="#ffa90f" stroke="none" /><path d="M 79.0095281055655 100.63252640178507 l -21.00291042201392 0.6329012240917335 a42.01244417374137,42.01244417374137 0 0,0 -0.01556048367776115,-0.7230345327589904 l 21.010692968376688 -0.2712768755426143" fill="#ff9a0e" stroke="none" /><line stroke="#e1ed5e" stroke-width="0.3" x1="15.007084014347285" x2="10.007500721073583" y1="101.09737516637583" y2="101.16192664675087" /><path d="M 14.007167355692545 101.11028546245083 a86.0,86.0 0 0,1 10.666146001902534,-42.60595125391555" fill="none" id="id34" stroke="none" /><text fill="#e1ed5e" style="font-size:6.75px; font-family:Arial;" text-anchor="middle"><textPath startOffset="22.20632615414155" xlink:href="#id34">October</textPath></text><path d="M 79.00175016825051 100.2711162175752 l -19.094399525211003 0.24653489779503554 a40.095991010790954,40.095991010790954 0 0,0 -0.0029703543759785856,-0.6902057482110268 l 19.095814176876484 0.08218032861966662" fill="#ff7b0b" stroke="none" /><path d="M 79.00019446554 99.90962569577889 l -19.284138462778778 -0.08299079690131002 a40.284317040641966,40.284317040641966 0 0,0 0.008952696233160294,-0.6933961894756542 l 19.2798527594279 0.4149232444374362" fill="#ff7e0b" stroke="none" /><path d="M 79.08570108090925 98.10471618934814 l -29.202771591111404 -2.6463971102696444 a50.322436567718356,50.322436567718356 0 0,0 0.08560295604155346,-0.8620100851420217 l 29.15289150938762 3.1486827261160966" fill="#e6ff1a" stroke="none" /><path d="M 79.16333360222342 97.38593545837743 l -21.27251347858525 -2.668743748831697 a42.43926358095164,42.43926358095164 0 0,0 0.09717379000053884,-0.7240576055875368 l 21.223423689526875 3.0345196964838936" fill="#ffa10e" stroke="none" /><path d="M 79.26566170972629 96.67025291283419 l -20.749051282188077 -3.332109860517171 a42.01490150425232,42.01490150425232 0 0,0 0.12081912810728472,-0.7130813332679155 l 20.688620292560568 3.688776982100914" fill="#ff9a0e" stroke="none" /><path d="M 79.32604984820605 96.31383870115002 l -32.085961206994774 -5.720920654699511 a53.59199042271185,53.59199042271185 0 0,0 0.16974440224744325,-0.9067813842669222 l 31.98273108083747 6.272380116429006" fill="#b8ff1f" stroke="none" /><path d="M 79.46518482838121 95.60439243477599 l -21.01037304685943 -4.497403747787106 a42.486330911507594,42.486330911507594 0 0,0 0.1592339389725945,-0.7138145257763933 l 20.929844720884798 4.858396443113459" fill="#ffa10e" stroke="none" /><path d="M 79.62865764111835 94.90015583598534 l -24.10766592136091 -6.035210502633603 a45.85162614371633,45.85162614371633 0 0,0 0.19826170683622651,-0.7639832324801671 l 24.000207882654372 6.449290160662635" fill="#ffd614" stroke="none" /><path d="M 79.81627453868168 94.20196356495316 l -22.780727185629214 -6.544058800852973 a44.70203022306501,44.70203022306501 0 0,0 0.21881452828882525,-0.7377338108610656 l 22.66470676022868 6.935221998460578" fill="#ffc412" stroke="none" /><path d="M 79.91906864156998 93.8553929516997 l -32.85847181131467 -10.05443392462083 a55.36234583551488,55.36234583551488 0 0,0 0.28668340549240284,-0.9088647387160496 l 32.68053292205406 10.618548829763293" fill="#a0ff22" stroke="none" /><path d="M 80.14247586403 93.16781622104843 l -23.497605995498613 -8.084591081314011 a45.84950905896844,45.84950905896844 0 0,0 0.26319128873530345,-0.7440772149748115 l 23.3549616259535 8.487865922715434" fill="#ffd614" stroke="none" /><path d="M 80.38941819471856 92.48833698450439 l -19.615177182676675 -7.5134232348896575 a42.004920961869374,42.004920961869374 0 0,0 0.2644438803747091,-0.6729808312807504 l 19.482939752420275 7.849953071066171" fill="#ff9a0e" stroke="none" /><path d="M 80.65960295795068 91.81776055985345 l -22.8807228780041 -9.680026358529759 a45.844121834386726,45.844121834386726 0 0,0 0.31372505746216084,-0.7241206870543923 l 22.71070711069926 10.072446190170751" fill="#ffd614" stroke="none" /><path d="M 80.803312248108 91.48605970444005 l -54.10977893428015 -23.998276848932097 a80.19278222920983,80.19278222920983 0 0,0 0.5705055172050694,-1.25703328378936 l 53.688671100111726 24.926132141563528" fill="#47fdff" stroke="none" /><path d="M 81.10775173730289 90.83032412892265 l -19.090110720555003 -9.265711799696486 a42.21993738157782,42.21993738157782 0 0,0 0.3229623901944945,-0.6510724711999162 l 18.927788317407096 9.592943859395364" fill="#ff9d0e" stroke="none" /><path d="M 81.43458229118936 90.18545643968196 l -19.0078836983201 -10.048451668183507 a42.50048891575917,42.50048891575917 0 0,0 0.34747570124242677,-0.643819701989069 l 18.8320998978592 10.374152353505048" fill="#ffa20e" stroke="none" /><line stroke="#e1ed5e" stroke-width="0.3" x1="26.266209847984243" x2="21.928928074336255" y1="57.711370442889674" y2="55.22380399835377" /><path d="M 25.398753493254645 57.213857153982495 a86.0,86.0 0 0,1 29.58750427330803,-30.492523968695096" fill="none" id="id35" stroke="none" /><text fill="#e1ed5e" style="font-size:6.75px; font-family:Arial;" text-anchor="middle"><textPath startOffset="21.46611528233685" xlink:href="#id35">November</textPath></text><path d="M 81.78341655067845 89.55222093294921 l -36.99046710499379 -21.215187193314147 a63.64245330997019,63.64245330997019 0 0,0 0.5532054354623382,-0.9456074133817572 l 36.619801995061124 21.848774019049795" fill="#37ff2e" stroke="none" /><path d="M 81.96595687620814 89.24020034530311 l -24.601556176109305 -14.678229048897231 a49.647634706868075,49.647634706868075 0 0,0 0.4441907720894009,-0.7301328372154192 l 24.345249605733688 15.099529659319726" fill="#f0ff19" stroke="none" /><path d="M 82.34701348167596 88.62581576622439 l -37.674012477112264 -24.274145244230215 a65.81702068928271,65.81702068928271 0 0,0 0.6218246835938602,-0.9470816540528284 l 37.25059115816048 24.91904496226071" fill="#32ff45" stroke="none" /><path d="M 82.7489923806493 88.02491185347247 l -18.0698350473473 -12.543491502633785 a42.996775166259866,42.996775166259866 0 0,0 0.4272802079204019,-0.6043575523939176 l 17.85124221962302 12.852675555359488" fill="#ffa90f" stroke="none" /><path d="M 83.39014120810768 87.1503855733568 l -27.03490574147177 -20.914573639128317 a55.18048447516191,55.18048447516191 0 0,0 0.5876614373198902,-0.7462703474429405 l 26.67089022355791 21.376836380524306" fill="#a2ff22" stroke="none" /><path d="M 83.84228863543731 86.58626213691792 l -17.05202040106777 -14.156171411596537 a43.162323632528576,43.162323632528576 0 0,0 0.4794910476525139,-0.5675661611587846 l 16.805818739928135 14.447596522384439" fill="#ffac0f" stroke="none" /><path d="M 84.07557802195018 86.31012108654704 l -14.374443981778914 -12.357396571757088 a39.95599878183616,39.95599878183616 0 0,0 0.45285013375956085,-0.5176859859481797 l 14.15960198444151 12.60299811390821" fill="#ff780b" stroke="none" /><path d="M 84.31358615837235 86.03803664274999 l -16.126458112143084 -14.353632354544986 a42.589104034492635,42.589104034492635 0 0,0 0.4921198540206902,-0.5434110342252003 l 15.87699461750635 14.629096176039743" fill="#ffa30f" stroke="none" /><path d="M 84.80347519578584 85.50635884689758 l -19.328868292388545 -18.4348516871286 a47.710464357456075,47.710464357456075 0 0,0 0.571925184480492,-0.5894191762501795 l 19.008678844204933 18.764835058928902" fill="#fff216" stroke="none" /><path d="M 85.05521093208273 85.24692304244772 l -28.53693613472719 -28.17086363782698 a61.09930525655701,61.09930525655701 0 0,0 0.7453073638751905,-0.7421067771968103 l 28.047792970684686 28.6579062656739" fill="#56ff2a" stroke="none" /><path d="M 85.57189188830299 84.74124197986013 l -15.155971324939687 -16.02852551541025 a43.0593992892044,43.0593992892044 0 0,0 0.5429423552528905,-0.5046057472120851 l 14.87782108589194 16.287035848696984" fill="#ffaa0f" stroke="none" /><path d="M 86.10567301691215 84.25364557470407 l -14.57358833043208 -16.51615708905255 a43.02664118323915,43.02664118323915 0 0,0 0.5595639300258447,-0.4852483260838803 l 14.287130601759463 16.76457040855611" fill="#ffaa0f" stroke="none" /><path d="M 86.65592168130627 83.78471172551755 l -25.360485135085778 -30.81723348925896 a60.91060117585816,60.91060117585816 0 0,0 0.8153220467584225,-0.6592670599642196 l 24.826259689762853 31.249206646487316" fill="#58ff2a" stroke="none" /><path d="M 86.93701828274178 83.55741782278169 l -13.066818831080393 -16.4474120132167 a42.006168529667235,42.006168529667235 0 0,0 0.5700185958781818,-0.4449085555680665 l 12.781767680042787 16.669898958007987" fill="#ff9a0e" stroke="none" /><path d="M 87.51073957382395 83.11751280151077 l -13.133703019020398 -17.753619151271103 a43.0835945434661,43.0835945434661 0 0,0 0.5999999529786341,-0.4359254826401957 l 12.826157749687983 17.977063868727967" fill="#ffab0f" stroke="none" /><path d="M 88.39885842347998 82.49532879139004 l -8.476090667007632 -12.789360364382585 a36.34313695192004,36.34313695192004 0 0,0 0.524436613469967,-0.34110816155432366 l 8.254687027753379 12.933367450096442" fill="#ff3c05" stroke="none" /><path d="M 89.00827224532344 82.1063720568725 l -21.13422042563061 -34.40477107917669 a61.377512875481756,61.377512875481756 0 0,0 0.9049907746411335,-0.5452468157103988 l 20.538867584771825 34.76346450434571" fill="#53ff2b" stroke="none" /><line stroke="#e1ed5e" stroke-width="0.3" x1="56.762969772571076" x2="54.21961505331055" y1="26.818313649435495" y2="22.513508569990535" /><path d="M 56.25429882871897 25.957352633546506 a86.0,86.0 0 0,1 42.265352541879196,-11.944610805530505" fill="none" id="id36" stroke="none" /><text fill="#e1ed5e" style="font-size:6.75px; font-family:Arial;" text-anchor="middle"><textPath startOffset="22.20632615414155" xlink:href="#id36">December</textPath></text><path d="M 89.63071344664047 81.73862282372117 l -10.378081928263356 -18.2768667336075 a42.01781249578069,42.01781249578069 0 0,0 0.6320197522526053,-0.35171830785531033 l 10.061938086938707 18.45280043902299" fill="#ff9a0e" stroke="none" /><path d="M 90.26544431104013 81.39251694778311 l -11.513415084589827 -22.007750831669888 a45.83746813946476,45.83746813946476 0 0,0 0.7022726023503318,-0.35973130333969944 l 11.132881994650731 22.202674660322092" fill="#ffd614" stroke="none" /><path d="M 90.91171255644093 81.06846463323043 l -9.723788714555148 -20.255328750529205 a43.468431404023846,43.468431404023846 0 0,0 0.6773246607630931,-0.3180130101604211 l 9.373685842492446 20.419706743329634" fill="#ffb110" stroke="none" /><path d="M 91.90106846888425 80.62456947434976 l -8.34368176516643 -19.96095728776279 a42.63462135657246,42.63462135657246 0 0,0 0.6795474039065013,-0.27720444847262604 l 7.998850491671549 20.101622622418994" fill="#ffa40f" stroke="none" /><path d="M 92.57280143429618 80.3572730644239 l -7.796614720366773 -20.619722580359635 a43.044504085799545,43.044504085799545 0 0,0 0.6953074554408597,-0.25608760377986667 l 7.440524939153344 20.75087345194582" fill="#ffaa0f" stroke="none" /><path d="M 93.59665428221793 80.00007090966166 l -12.270461412665037 -38.325020852385826 a61.24141457025971,61.24141457025971 0 0,0 1.0067348621685692,-0.3127974222099719 l 11.60894117778574 38.530558409478324" fill="#54ff2b" stroke="none" /><path d="M 94.28887869178378 79.79150937346287 l -6.018321008335034 -21.295499976416416 a43.12958442910572,43.12958442910572 0 0,0 0.7161608155872778,-0.19575380403154236 l 5.6508623035240335 21.395940321274253" fill="#ffab0f" stroke="none" /><path d="M 94.98787191387505 79.60689891045804 l -5.240002058564545 -21.320263539460306 a42.95475481452255,42.95475481452255 0 0,0 0.7195459655276707,-0.1702932824426479 l 4.87223240607434 21.407302734043824" fill="#ffa90f" stroke="none" /><path d="M 95.692805502759 79.44645832069477 l -9.893292538774768 -47.20989513510904 a69.23537535798565,69.23537535798565 0 0,0 1.1685401276200666,-0.2343981565458169 l 9.079186001687564 47.37319724773207" fill="#37ff75" stroke="none" /><path d="M 96.04723909329186 79.375362276772 l -5.344594664392831 -27.88692039114487 a49.39445405407027,49.39445405407027 0 0,0 0.8364242310517315,-0.15285118193556826 l 4.863775312238206 27.974787054431175" fill="#f3ff19" stroke="none" /><path d="M 96.75951476605007 79.25152402106235 l -3.3851463416744503 -21.674725383583233 a42.93747789077631,42.93747789077631 0 0,0 0.7312273331381277,-0.1077639010028741 l 3.0115500281076737 21.729783768747076" fill="#ffa80f" stroke="none" /><path d="M 97.47563105711357 79.15227682838746 l -2.9856612130573805 -24.65734599906365 a45.83744923692237,45.83744923692237 0 0,0 0.7841113329564564,-0.08810404446610544 l 2.5607831765912064 24.705085997000353" fill="#ffd614" stroke="none" /><path d="M 98.19473922651362 79.07773832637324 l -1.866827543962509 -21.635796305974655 a42.71618582699374,42.71618582699374 0 0,0 0.7331110688128646,-0.056903528515194146 l 1.4941262857873103 21.66472509667831" fill="#ffa50f" stroke="none" /><path d="M 98.55514903715128 79.0497635885617 l -4.334552888546145 -62.8507092343149 a84.0,84.0 0 0,0 1.4433518046415081,-0.08706692247877434 l 3.2520390350650135 62.91600942617398" fill="#4dd2ff" stroke="none" /><path d="M 99.27714615592234 79.0124445844662 l -0.7419091717852843 -21.54081351812461 a42.55358615733816,42.55358615733816 0 0,0 0.7322729816286623,-0.01891245069973545 l 0.3710095549617429 21.55039276096671" fill="#ffa20f" stroke="none" /></svg>