<?xml version="1.0" encoding="utf-8" ?>
<svg baseProfile="full" height="200mm" version="1.1" viewBox="0,0,200,200" width="200mm" xmlns="http://www.w3.org/2000/svg" xmlns:ev="http://www.w3.org/2001/xml-events" xmlns:xlink="http://www.w3.org/1999/xlink"><defs /><rect fill="#1a1a1a" height="200" width="200" x="0" y="0" /><rect fill="#1a1a1a" height="200" width="180" x="10" y="0" /><text alignment-baseline="middle" fill="#e1ed5e" style="dominant-baseline: central; font-size:9.0px; font-family:Arial;" text-anchor="middle" x="100.0" y="100.0">2025</text><line stroke="#e1ed5e" stroke-width="0.3" x1="100.0" x2="100.0" y1="15.0" y2="10.0" /><path d="M 100.0 14.0 a86.0,86.0 0 0,1 42.46469731375804,11.215312516191453" fill="none" id="id25" stroke="none" /><text fill="#e1ed5e" style="font-size:6.75px; font-family:Arial;" text-anchor="middle"><textPath startOffset="22.20632615414155" xlink:href="#id25">January</textPath></text><path d="M 100.0 79.0 l 0.0 -40.744585993363636 a61.744585993363636,61.744585993363636 0 0,0 1.06283154939833,0.009148126693566818 l -0.7013510701258016 40.73854924327863" fill="#52ff2b" stroke="none" /><path d="M 101.08401301168833 79.027996857942 l 1.7304645137676182 -33.47866384318704 a54.523356636210046,54.523356636210046 0 0,0 0.9368617285236753,0.05651405792295209 l -2.3064882911309055 33.443916515883785" fill="#b1ff20" stroke="none" /><path d="M 101.44485096284872 79.0497635885617 l 1.9575346556123672 -28.384113568228685 a49.45153501978456,49.45153501978456 0 0,0 0.8487056367724812,0.06587589174078276 l -2.4458304817471896 28.346212414299437" fill="#faff18" stroke="none" /><path d="M 102.16513564639614 79.11191278185805 l 2.961302164337463 -28.569082029993194 a49.72214752669079,49.72214752669079 0 0,0 0.8505643316470901,0.0955708131575713 l -3.4526331994942785 28.513875263365023" fill="#f6ff19" stroke="none" /><path d="M 102.88285421437855 79.19881850522331 l 3.068950835307825 -22.143958236037854 a43.355611053803145,43.355611053803145 0 0,0 0.7383481612052505,0.10881332595748053 l -3.4496679769417313 22.087850425919406" fill="#ffa50f" stroke="none" /><path d="M 103.59715602781102 79.31037775812273 l 5.470675988962276 -31.465474042340844 a52.93750698607256,52.93750698607256 0 0,0 0.8964207505188891,0.1638151623800877 l -6.011491860584066 31.366643398610016" fill="#c8ff1d" stroke="none" /><path d="M 103.95276090670814 79.375362276772 l 4.976136453011066 -25.964386419256886 a47.43693053528486,47.43693053528486 0 0,0 0.8006305530228368,0.1605989569951919 l -5.422333415501028 25.874883506184485" fill="#ffe515" stroke="none" /><path d="M 104.66035177308747 79.52364482259891 l 5.703637249523613 -25.060276093048568 a46.70114619494576,46.70114619494576 0 0,0 0.7823027153848663,0.18514577754457867 l -6.1341636518710025 24.95838440336312" fill="#ffda14" stroke="none" /><path d="M 105.36241919743992 79.69619591428918 l 5.708219309327929 -21.613111968231987 a43.354202661573886,43.354202661573886 0 0,0 0.7198905704339917,0.19677328692345308 l -6.079407768985631 21.51165214048224" fill="#ffa50f" stroke="none" /><path d="M 106.0581310904928 79.89281104454417 l 12.322447938759298 -40.898717013112034 a63.71472552319695,63.71472552319695 0 0,0 1.047393105920444,0.3254301364578728 l -13.024626417390461 40.680546741771636" fill="#3aff2e" stroke="none" /><path d="M 106.40334571778207 80.00007090966166 l 6.813571460058136 -21.28121017653191 a43.34534991041859,43.34534991041859 0 0,0 0.708628723817133,0.23362374890669188 l -7.178883006117687 21.160772703365982" fill="#ffa50f" stroke="none" /><path d="M 107.08798089147638 80.2323363322302 l 7.547024668197505 -21.047890452511574 a43.36003742938078,43.36003742938078 0 0,0 0.7004043357718372,0.25796482782010877 l -7.908211329741919 20.91486235688514" fill="#ffa50f" stroke="none" /><path d="M 108.09893153111575 80.62456947434976 l 8.822945070264877 -21.107519996158643 a43.87731977529597,43.87731977529597 0 0,0 0.6943402869504308,0.29728027473127067 l -9.184969115005622 20.95252019346458" fill="#ffae10" stroke="none" /><path d="M 108.76106565485865 80.91482961587045 l 13.986653254504871 -30.468629157907202 a54.525569823998886,54.525569823998886 0 0,0 0.8496168803675038,0.3989065174511334 l -14.509048346171973 30.223357657816067" fill="#b1ff20" stroke="none" /><line stroke="#e1ed5e" stroke-width="0.3" x1="143.23703022742887" x2="145.7803849466894" y1="26.81831364943548" y2="22.513508569990506" /><path d="M 143.74570117128098 25.957352633546492 a86.0,86.0 0 0,1 28.547481713284135,27.462654790039103" fill="none" id="id26" stroke="none" /><text fill="#e1ed5e" style="font-size:6.75px; font-family:Arial;" text-anchor="middle"><textPath startOffset="19.985693538727396" xlink:href="#id26">February</textPath></text><path d="M 112.19680574252982 82.90503203632743 l 15.356095616986073 -21.523009233811116 a47.439546120853464,47.439546120853464 0 0,0 0.6606627358616215,0.47999957427183754 l -15.724303669201483 21.255490424722602" fill="#ffe515" stroke="none" /><path d="M 112.77801427241765 83.33499621200491 l 12.298802519844376 -16.04001891150111 a41.21244047866174,41.21244047866174 0 0,0 0.5592478028023,0.4365017807288546 l -12.573082877806106 15.825938741549031" fill="#ff820c" stroke="none" /><path d="M 113.6212207817346 84.01681056812373 l 14.496986588711039 -17.010816178051197 a43.35017868377602,43.35017868377602 0 0,0 0.5637715537290517,0.4888971358966915 l -14.787651941086855 16.758754048734836" fill="#ffa50f" stroke="none" /><path d="M 114.16331599549186 84.49514656593476 l 15.084519783026423 -16.51331287344903 a43.365872197187684,43.365872197187684 0 0,0 0.5468067176274068,0.5081972508857687 l -15.366534384448677 16.251211036488623" fill="#ffa50f" stroke="none" /><path d="M 114.68862486808459 84.99185889309783 l 18.789316390165308 -19.198033459111883 a47.86266738629867,47.86266738629867 0 0,0 0.5838429472794661,0.5813357401191703 l -19.116995137612097 18.871761868342595" fill="#ffec16" stroke="none" /><path d="M 114.94478906791727 85.2469230424477 l 23.857261935794952 -23.551220411056423 a54.52355783509995,54.52355783509995 0 0,0 0.6535965703402382,0.673588718496144 l -24.2591227698383 23.137067497010165" fill="#b1ff20" stroke="none" /><path d="M 115.4437574822437 85.77008943001954 l 18.887743563472576 -17.40320657624646 a46.68303829485538,46.68303829485538 0 0,0 0.5394255294100856,0.5956471425188288 l -19.184512733498696 17.075506646458084" fill="#ffda14" stroke="none" /><path d="M 115.9244219780498 86.31012108654704 l 17.648567933153224 -15.172089657869323 a44.2736815883854,44.2736815883854 0 0,0 0.4918371436391021,0.5821800446477728 l -17.907115690279443 14.866050663592445" fill="#ffb410" stroke="none" /><path d="M 116.38621287248628 86.86637796730983 l 22.395916088358167 -17.95042571882024 a49.70182643881158,49.70182643881158 0 0,0 0.5293147938127258,0.67217603538326 l -22.701584962764855 17.56225728948394" fill="#f7ff19" stroke="none" /><path d="M 116.60985879189232 87.15038557335679 l 25.47853238520129 -19.71054187807939 a53.21274706744634,53.21274706744634 0 0,0 0.5542337176390124,0.7293066058668067 l -25.81404204306442 19.269050496331552" fill="#c4ff1e" stroke="none" /><path d="M 117.04232023915458 87.72973835380427 l 20.431811062931786 -14.710653486713634 a46.17662068899442,46.17662068899442 0 0,0 0.4588799046617174,0.6490530824581813 l -20.68200358739739 14.35677390392366" fill="#ffd213" stroke="none" /><path d="M 117.45458315368197 88.32363383020206 l 21.976777493741466 -14.701519881038756 a47.44075331419283,47.44075331419283 0 0,0 0.4482097656519301,0.6826542229923985 l -22.22658389475132 14.321047594068684" fill="#ffe515" stroke="none" /><line stroke="#e1ed5e" stroke-width="0.3" x1="172.23445277983987" x2="176.4835382374775" y1="55.19839476539836" y2="52.563006222186495" /><path d="M 173.08426987136738 54.67131705675599 a86.0,86.0 0 0,1 12.851231095245387,41.99856678651699" fill="none" id="id27" stroke="none" /><text fill="#e1ed5e" style="font-size:6.75px; font-family:Arial;" text-anchor="middle"><textPath startOffset="22.20632615414155" xlink:href="#id27">March</textPath></text><path d="M 117.84615892207809 88.93136811851018 l 22.46997506151962 -13.936437719072833 a47.44095451308272,47.44095451308272 0 0,0 0.424447898439529,0.6976807439741379 l -22.706538758245372 13.547589201891613" fill="#ffe515" stroke="none" /><path d="M 118.21658344932153 89.55222093294921 l 23.102178710312025 -13.249820407012383 a47.63209345848118,47.63209345848118 0 0,0 0.40179339930545854,0.7147456240521168 l -23.326829750909916 12.850191273025473" fill="#ffe815" stroke="none" /><path d="M 118.3937258080291 89.86733742301442 l 19.089064484490557 -10.515707983818617 a42.79386375322158,42.79386375322158 0 0,0 0.34987427664650733,0.6482638979323613 l -19.26724686035553 10.185563102553797" fill="#ff9c0e" stroke="none" /><path d="M 118.73160827565052 90.50648371742162 l 27.64937640149172 -14.013201707400349 a51.99770697138185,51.99770697138185 0 0,0 0.3977576654445362,0.801855182034444 l -27.886494079889662 13.535186936866955" fill="#d5ff1c" stroke="none" /><path d="M 119.04729006885535 91.15688171328212 l 30.402315226934103 -14.114935445933442 a54.5191314595223,54.5191314595223 0 0,0 0.38785866291539667,0.8545951511200499 l -30.64077620681285 13.589518285971328" fill="#b1ff20" stroke="none" /><path d="M 119.196687751892 91.48605970444005 l 20.43846465877708 -9.06468189131167 a43.35842783826165,43.35842783826165 0 0,0 0.2967147089035206,0.6848584573014973 l -20.59147007752328 8.711524289423568" fill="#ffa50f" stroke="none" /><path d="M 119.47837535516314 92.15188598940014 l 19.147062014585785 -7.714623161251654 a41.6428049041431,41.6428049041431 0 0,0 0.26216416234979406,0.6671791975680789 l -19.27701972681728 7.383894958787791" fill="#ff890c" stroke="none" /><path d="M 119.7369772167798 92.82701384747503 l 25.204493626499616 -9.160039137633595 a47.81739763607273,47.81739763607273 0 0,0 0.27448761755813633,0.7760134577369512 l -25.358434324867563 8.724828053470029" fill="#ffeb16" stroke="none" /><path d="M 119.97218684219823 93.5106431181261 l 30.91800378830552 -10.045868399024078 a53.509113032258895,53.509113032258895 0 0,0 0.2770867909850175,0.8784408482162467 l -31.086346063058745 9.512177384381411" fill="#bfff1e" stroke="none" /><path d="M 120.08093135843002 93.85539295169968 l 33.04375636802516 -10.111129541611067 a55.556110538031376,55.556110538031376 0 0,0 0.2719447877485732,0.9168626332925289 l -33.212907052885434 9.540837521572008" fill="#a3ff21" stroke="none" /><path d="M 120.28053869075195 94.5502522615342 l 21.58815197890898 -5.8011270912820585 a43.354001462683996,43.354001462683996 0 0,0 0.18746201718628425,0.7223676227882618 l -21.684810327965565 5.4286630429449465" fill="#ffa50f" stroke="none" /><path d="M 120.45610955862082 95.25157060432595 l 25.75457792294534 -5.978350601419875 a47.439344921963574,47.439344921963574 0 0,0 0.1777972724907104,0.7970303100341817 l -25.85366958243809 5.534142121835729" fill="#ffe515" stroke="none" /><path d="M 120.6074358757038 95.95851677861258 l 30.271949025204872 -5.936865450024491 a51.848618593971054,51.848618593971054 0 0,0 0.164222539621514,0.8772833733200053 l -30.369657288736246 5.414903999241922" fill="#d7ff1c" stroke="none" /><path d="M 120.67395015179393 96.31383870115 l 24.598741025741994 -4.385950749796869 a45.98668893693532,45.98668893693532 0 0,0 0.13224050189286085,0.7804909278772658 l -24.67059338915508 3.961874033603765" fill="#ffcf13" stroke="none" /><path d="M 120.78858239683441 97.02765380044208 l 23.530335916192847 -3.3643614172300196 a44.76963685197191,44.76963685197191 0 0,0 0.10250967907478804,0.7638161769755903 l -23.584761594325474 2.958826898189765" fill="#ffbc11" stroke="none" /><path d="M 120.87857604477298 97.74499172005257 l 26.082233882460184 -2.817033749732074 a47.233920855382706,47.233920855382706 0 0,0 0.08034911515487592,0.8091046244024412 l -26.12686012329729 2.3676535946251978" fill="#ffe215" stroke="none" /><path d="M 120.96714384426684 98.82574320788733 l 46.31724390805921 -2.593979354314838 a67.38982444598449,67.38982444598449 0 0,0 0.05489508276423367,1.158748434955755 l -46.35503259905694 1.7963198127360829" fill="#34ff58" stroke="none" /><line stroke="#e1ed5e" stroke-width="0.3" x1="184.98032266829074" x2="189.97916517819016" y1="98.17113171792111" y2="98.06355123074" /><path d="M 185.9800911702706 98.14961562048488 a86.0,86.0 0 0,1 -9.607161424134198,41.387399972396054" fill="none" id="id28" stroke="none" /><text fill="#e1ed5e" style="font-size:6.75px; font-family:Arial;" text-anchor="middle"><textPath startOffset="21.466115282336823" xlink:href="#id28">April</textPath></text><path d="M 120.99513854157772 99.54816195383933 l 28.214025690723197 -0.6071962905687625 a49.220558694187275,49.220558694187275 0 0,0 0.010938666527992188,0.8472117774264551 l -28.220297364368903 0.12144825508184465" fill="#feff18" stroke="none" /><path d="M 120.99824983174949 100.27111621757518 l 29.271797526240995 0.3779390706620581 a50.27423728055748,50.27423728055748 0 0,0 -0.01862046981558273,0.8652200645989407 l -29.260954993740405 -0.8817489510511136" fill="#eeff19" stroke="none" /><path d="M 120.95626037817324 101.35467743843564 l 60.44195539009039 3.9071547988194246 a81.56810901786199,81.56810901786199 0 0,0 -0.10263381635687548,1.4003568812428233 l -60.36574501506917 -4.946984816559018" fill="#49eeff" stroke="none" /><path d="M 120.89721153311464 102.0752229133903 l 24.784101020313383 2.4612151838359857 a45.906008182088186,45.906008182088186 0 0,0 -0.08485550404297831,0.785656580391874 l -24.738063214769355 -2.887468086112651" fill="#ffce13" stroke="none" /><path d="M 120.8583938346157 102.4346265915055 l 26.260460907357597 3.065164889356958 a47.4387413252939,47.4387413252939 0 0,0 -0.1016510363270191,0.8102587748731324 l -26.203808361783732 -3.5167414185174852" fill="#ffe515" stroke="none" /><path d="M 120.81339534386255 102.79330883721812 l 22.548005592529805 3.0261061322620546 a43.75016207688353,43.75016207688353 0 0,0 -0.1065961219448212,0.7455330286097024 l -22.492575419568382 -3.4137846328521664" fill="#ffac0f" stroke="none" /><path d="M 120.70491114924044 103.5080841355445 l 33.2562175361653 5.634682916816968 a54.730189095020165,54.730189095020165 0 0,0 -0.1653726290251413,0.9274975270353794 l -33.154298464800966 -6.206299194585565" fill="#aeff20" stroke="none" /><path d="M 120.64145759157962 103.86396538481128 l 27.797867807826552 5.203605341553881 a49.28071716226531,49.28071716226531 0 0,0 -0.163260133142197,0.8324599015981313 l -27.70417774170869 -5.6813289702199565" fill="#fdff18" stroke="none" /><path d="M 120.49622156327973 104.57218783832717 l 21.82225783793513 4.86799294120633 a43.35862903715154,43.35862903715154 0 0,0 -0.16876713331066026,0.7270443932560796 l -21.735230138693918 -5.242905991810974" fill="#ffa50f" stroke="none" /><path d="M 120.41448212921028 104.9243191809786 l 22.555139654305826 5.440682067091253 a44.20205478358345,44.20205478358345 0 0,0 -0.18478287118611947,0.7381157168587561 l -22.458145468824647 -5.828125623347405" fill="#ffb310" stroke="none" /><path d="M 120.32669344350535 105.2749913415812 l 25.586966956195646 6.6400878001326635 a47.434516148606136,47.434516148606136 0 0,0 -0.21190110512846544,0.7885628413290131 l -25.468877774725403 -7.079541574637226" fill="#ffe515" stroke="none" /><path d="M 120.13307415673323 105.97154293290107 l 32.82594533876838 9.736294635261284 a55.23942348533963,55.23942348533963 0 0,0 -0.27823105271166215,0.9092751786026831 l -32.65348751355058 -10.299896786416026" fill="#a7ff21" stroke="none" /><path d="M 120.02730092923936 106.31721596034902 l 23.947336335939443 7.553713595443954 a46.11042625421959,46.11042625421959 0 0,0 -0.2452805676923913,0.7548959651758783 l -23.813763517230807 -7.964808460597627" fill="#ffd113" stroke="none" /><path d="M 119.79798401119884 107.00284435728193 l 21.472627536333082 7.595190929226394 a43.776317932569626,43.776317932569626 0 0,0 -0.25739586700924666,0.7082428788833589 l -21.33870740831861 -7.963681605115885" fill="#ffac0f" stroke="none" /><path d="M 119.54520255179757 107.68017299344265 l 21.566431282455344 8.474402997947797 a44.17167375120958,44.17167375120958 0 0,0 -0.2841656022697035,0.7052757205819796 l -21.41736306592825 -8.84437808637259" fill="#ffb210" stroke="none" /><path d="M 119.26925614724726 108.34839909993367 l 29.55844310990236 12.80618608048352 a53.21335066411602,53.21335066411602 0 0,0 -0.37137575957844016,0.8373542975121467 l -29.333626265592645 -13.313088714488355" fill="#c4ff1e" stroke="none" /><path d="M 118.81262510543309 109.33194174019688 l 22.004648557005005 10.915334632813897 a45.563165273710325,45.563165273710325 0 0,0 -0.35457109894180067,0.6996024163810453 l -21.813498788276934 -11.292491260897638" fill="#ffc812" stroke="none" /><line stroke="#e1ed5e" stroke-width="0.3" x1="174.80103733775053" x2="179.2010983576182" y1="140.37084112569926" y2="142.7455964860345" /><path d="M 175.68104954172406 140.8457921977663 a86.0,86.0 0 0,1 -30.038265399797805,32.042727171017184" fill="none" id="id29" stroke="none" /><text fill="#e1ed5e" style="font-size:6.75px; font-family:Arial;" text-anchor="middle"><textPath startOffset="22.206326154141568" xlink:href="#id29">May</textPath></text><path d="M 118.48025628344425 109.97397251340804 l 26.88529282767084 14.510251782511459 a51.55104543581915,51.55104543581915 0 0,0 -0.4281770686401879,0.7772657520187912 l -26.631539349579143 -14.970888052928053" fill="#dbff1b" stroke="none" /><path d="M 118.12598468904814 110.60418214915192 l 21.430911883368378 12.537652278332416 a45.828949007259126,45.828949007259126 0 0,0 -0.4042094191807207,0.6774782366292396 l -21.211921588489428 -12.904692608847759" fill="#ffcd13" stroke="none" /><path d="M 117.55443506779139 111.5257021239791 l 21.200679203080334 13.919713871571822 a46.36192486658597,46.36192486658597 0 0,0 -0.4437429964459643,0.6633355718463313 l -20.95793310122365 -14.28258635762396" fill="#ffd513" stroke="none" /><path d="M 117.14729908036423 112.12312394758627 l 19.03670392405418 13.458931353748135 a44.31392136636401,44.31392136636401 0 0,0 -0.44571407960260084,0.6190578733129664 l -18.802210052075978 -13.784622832512232" fill="#ffb510" stroke="none" /><path d="M 116.71984013943494 112.70617746262583 l 13.211921851860476 10.040348608127106 a37.59407964282407,37.59407964282407 0 0,0 -0.39597876809303223,0.511855936235352 l -13.037136266549375 -10.26628253847571" fill="#ff4506" stroke="none" /><path d="M 116.498646956653 112.99209946851258 l 25.307940065226493 19.92910543115712 a53.21274706744634,53.21274706744634 0 0,0 -0.572878522014534,0.7147540403127236 l -24.961143631157107 -20.361787305048093" fill="#c4ff1e" stroke="none" /><path d="M 116.0416608686014 113.55231037782055 l 18.47795964769568 15.61054346838642 a45.189337736288934,45.189337736288934 0 0,0 -0.507105044052017,0.5898777308209978 l -18.206512094072885 -15.926298298368947" fill="#ffc312" stroke="none" /><path d="M 115.56566222782051 114.09645910891815 l 17.22307718723826 15.597434901659156 a44.23605739597538,44.23605739597538 0 0,0 -0.5159895788215038,0.560004778631247 l -16.952041200421036 -15.891590935091736" fill="#ffb310" stroke="none" /><path d="M 115.07121518719521 114.62390073753431 l 24.789581866301397 24.05382578876431 a55.54142301906918,55.54142301906918 0 0,0 -0.6716792892118522,0.680407573785556 l -24.37186195203401 -24.47697385653053" fill="#a3ff21" stroke="none" /><path d="M 114.81725581225074 114.88116024355365 l 17.5140727459802 17.589608113177164 a45.82210824500277,45.82210824500277 0 0,0 -0.5637211355875227,0.551719778743796 l -17.20870165801688 -17.888477994843534" fill="#ffcc13" stroke="none" /><path d="M 114.29624159901734 115.38237550388516 l 16.556078066427787 17.813899403248346 a45.31951341804977,45.31951341804977 0 0,0 -0.5759904071057137,0.5261535802903308 l -16.24698810985521 -18.09624575012526" fill="#ffc512" stroke="none" /><path d="M 113.75828350139079 115.86535959552629 l 15.16775587537039 17.490692148884847 a44.151352663330385,44.151352663330385 0 0,0 -0.5784553035001962,0.49297215896267205 l -14.864435095293146 -17.749188698070466" fill="#ffb210" stroke="none" /><path d="M 113.20401910651253 116.32954008644616 l 16.620281737794826 20.554465628687865 a47.43330895526678,47.43330895526678 0 0,0 -0.6393163188291063,0.5079115490741165 l -16.264007926248368 -20.83751109176711" fill="#ffe515" stroke="none" /><path d="M 112.92097659922987 116.55440617244103 l 18.007530769574025 23.071319434169222 a50.266994120521325,50.266994120521325 0 0,0 -0.6866741199125728,0.5265124338623581 l -17.60772792116796 -23.377871209858952" fill="#eeff19" stroke="none" /><path d="M 112.34349029814194 116.9893568818739 l 13.793812860071082 18.9855546349646 a44.467436119352456,44.467436119352456 0 0,0 -0.6231214881214702,0.4445806368730319 l -13.464964044100729 -19.220179533681854" fill="#ffb711" stroke="none" /><path d="M 111.7513745106137 117.40417183066458 l 12.95659942553164 19.1891495364542 a44.1537670500091,44.1537670500091 0 0,0 -0.6335546265766399,0.41988545981713127 l -12.624370100215037 -19.40933301736265" fill="#ffb210" stroke="none" /><path d="M 111.1453310114006 117.79835938074945 l 15.565441799578851 24.856985116517343 a50.32835978193873,50.32835978193873 0 0,0 -0.738199126006066,0.45346219601683907 l -15.135263473640476 -25.12123577936256" fill="#edff19" stroke="none" /><line stroke="#e1ed5e" stroke-width="0.3" x1="143.8653032363475" x2="146.44561519142675" y1="172.8068346515853" y2="177.08958963109032" /><path d="M 144.38136562736335 173.6633856474863 a86.0,86.0 0 0,1 -40.68145358897372,12.25698825130547" fill="none" id="id30" stroke="none" /><text fill="#e1ed5e" style="font-size:6.75px; font-family:Arial;" text-anchor="middle"><textPath startOffset="21.466115282336833" xlink:href="#id30">June</textPath></text><path d="M 110.8373102113329 117.98757091392108 l 18.28342485693982 30.346496939770002 a56.428710123497794,56.428710123497794 0 0,0 -0.8363060755646907,0.494104370530044 l -17.75835091034675 -30.656719882593798" fill="#97ff23" stroke="none" /><path d="M 110.21172684928248 118.3499491758327 l 11.851059870277059 21.295746498998295 a45.3712215327523,45.3712215327523 0 0,0 -0.6857043196261687,0.37390066796767524 l -11.482732738782241 -21.49658781872574" fill="#ffc512" stroke="none" /><path d="M 109.57404056367764 118.69057910512821 l 10.386260724871583 20.276206936199788 a43.78154910370685,43.78154910370685 0 0,0 -0.6737065004027718,0.33781042521947763 l -10.035700316786052 -20.45198520232857" fill="#ffac0f" stroke="none" /><path d="M 108.92500713936063 119.00905698771935 l 12.995662982593634 27.679002870468782 a51.57800608706483,51.57800608706483 0 0,0 -0.806905986385888,0.37041096211034247 l -12.517289000440329 -27.8986009029132" fill="#dbff1b" stroke="none" /><path d="M 108.59647513512805 119.15986991738527 l 12.364507556320962 27.558080800300967 a51.20478214631311,51.20478214631311 0 0,0 -0.8072783203475256,0.3538870919173948 l -11.888308561315682 -27.766832445512815" fill="#e0ff1b" stroke="none" /><path d="M 107.93186726928326 119.44442032107085 l 8.755241514294914 21.46286495182645 a44.17992290569521,44.17992290569521 0 0,0 -0.7066240460056291,0.28118029096394104 l -8.384496392247419 -21.61039208719646" fill="#ffb310" stroke="none" /><path d="M 107.2578585660854 119.70592522655815 l 9.136859165401688 24.80762912084549 a47.43672933639496,47.43672933639496 0 0,0 -0.7686567190893727,0.27561295196930524 l -8.708482885682582 -24.961229613854755" fill="#ffe515" stroke="none" /><path d="M 106.57524785965236 119.94407469862006 l 9.50760139760849 28.838504118175326 a51.365338860447814,51.365338860447814 0 0,0 -0.8420947510391915,0.26961214680698636 l -9.009785301478358 -28.997889111642017" fill="#deff1b" stroke="none" /><path d="M 106.2309692047433 120.05430185196036 l 7.770269709221463 25.008522606924195 a47.18784630959719,47.18784630959719 0 0,0 -0.77775688142948,0.23433176833771868 l -7.338637853351737 -25.13856974436764" fill="#ffe215" stroke="none" /><path d="M 105.18746579009965 120.34920634021253 l 6.531005231934019 25.619595087696922 a47.43894252418379,47.43894252418379 0 0,0 -0.7930135689700152,0.19490344132855394 l -6.089038378220793 -25.728219787339505" fill="#ffe515" stroke="none" /><path d="M 104.83641907484287 120.43548508189849 l 5.145843752449837 21.742907636759288 a43.34353912040956,43.34353912040956 0 0,0 -0.7275106759022191,0.16557906126393687 l -4.770812927154756 -21.82826343160091" fill="#ffa50f" stroke="none" /><path d="M 104.13013068566511 120.58985236759428 l 8.793287406269878 43.836988052053975 a65.71021611315682,65.71021611315682 0 0,0 -1.1109168939839473,0.21290986673651538 l -8.037402897714227 -43.981855117138956" fill="#31ff40" stroke="none" /><path d="M 103.7750983002368 120.6578951692458 l 4.485984744781488 24.547970733031946 a45.954497114552424,45.954497114552424 0 0,0 -0.7793686387063123,0.1355032278421622 l -4.062767134603125 -24.621552539395115" fill="#ffce13" stroke="none" /><path d="M 103.06178313531738 120.77559828337769 l 3.8536618712471644 26.14885751818657 a47.43129696636785,47.43129696636785 0 0,0 -0.808751967932531,0.11208565339073362 l -3.4029813121278027 -26.211317737069905" fill="#ffe515" stroke="none" /><path d="M 102.34483914955558 120.86867818915974 l 2.9517866209054433 26.270409672415198 a47.435723341945504,47.435723341945504 0 0,0 -0.8122066604856357,0.08418854127201102 l -2.4991473638142048 -26.317327582142966" fill="#ffe515" stroke="none" /><path d="M 101.62511606390274 120.93702456842531 l 2.0715360274205623 26.68843269958497 a47.76870750471859,47.76870750471859 0 0,0 -0.8203416569362145,0.056575563617128774 l -1.6118316097054177 -26.72013660771838" fill="#ffea16" stroke="none" /><path d="M 101.26447882468166 120.96189622390904 l 2.2271082205175357 36.91988389734898 a57.98699552571992,57.98699552571992 0 0,0 -0.996857012459003,0.05152612103758419 l -1.5912631396450527 -36.95274982514877" fill="#82ff25" stroke="none" /><line stroke="#e1ed5e" stroke-width="0.3" x1="102.19456741930631" x2="102.32365962044197" y1="184.97166512339345" y2="189.96999836594603" /><path d="M 102.22038585953345 185.97133177190398 a86.0,86.0 0 0,1 -42.740103519485714,-10.115201625700543" fill="none" id="id31" stroke="none" /><text fill="#e1ed5e" style="font-size:6.75px; font-family:Arial;" text-anchor="middle"><textPath startOffset="22.20632615414155" xlink:href="#id31">July</textPath></text><path d="M 100.54218724476979 120.99299961872073 l 0.6238972242137889 24.156736102491685 a45.16479147172197,45.16479147172197 0 0,0 -0.7773512493081988,0.013382806719752666 l -0.20798628501292216 -24.1638963864906" fill="#ffc212" stroke="none" /><path d="M 99.81925306533755 120.99922214144158 l -0.2275044810628328 26.431525076393818 a47.43250415970721,47.43250415970721 0 0,0 -0.8163818577453281,-0.014054754040006287 l 0.6824460287008288 -26.42369284507465" fill="#ffe515" stroke="none" /><path d="M 98.73552117531835 120.96189622390904 l -2.557407342678327 42.39541720517361 a63.47248205976565,63.47248205976565 0 0,0 -1.090025747454418,-0.07517455745175057 l 3.286795850911675 -42.34511430320557" fill="#3dff2e" stroke="none" /><path d="M 98.01472825383883 120.90594882070398 l -2.11323660231282 22.25348561949637 a43.35359906490421,43.35359906490421 0 0,0 -0.7423114782652278,-0.07694361985070099 l 2.495980677183641 -22.213812631189906" fill="#ffa50f" stroke="none" /><path d="M 97.2962882734958 120.8252237178851 l -2.889175662955951 22.25375174117451 a43.44051698533803,43.44051698533803 0 0,0 -0.7407051007863039,-0.10265497764872746 l 3.271809354929086 -22.20072219803318" fill="#ffa70f" stroke="none" /><path d="M 96.58105272829116 120.7198165907248 l -4.6314542982813185 28.06796244059919 a49.4475110419867,49.4475110419867 0 0,0 -0.8386086626547967,-0.14580286534847903 l 5.113911932408166 -27.984080996729706" fill="#faff18" stroke="none" /><path d="M 96.22490169976321 120.6578951692458 l -6.940799913919844 37.98108171209017 a59.61006697048764,59.61006697048764 0 0,0 -1.0077859177177733,-0.19314456968130578 l 7.593553446209312 -37.8559799440604" fill="#6dff28" stroke="none" /><path d="M 95.51606077576429 120.51570834832081 l -4.773519417937534 21.840646644836067 a43.35621465047282,43.35621465047282 0 0,0 -0.7277234315661734,-0.16562748376037534 l 5.1487629988965695 -21.755242427498004" fill="#ffa50f" stroke="none" /><path d="M 94.81253420990036 120.34920634021253 l -6.529911818987183 25.615305886269837 a47.434516148606136,47.434516148606136 0 0,0 -0.7894674635500282,-0.20850553248168094 l 6.9698697253487 -25.499109004484573" fill="#ffe515" stroke="none" /><path d="M 94.11515582081647 120.15858648285463 l -7.409002715105289 25.379605208999138 a47.43894252418379,47.43894252418379 0 0,0 -0.781895485414801,-0.23557869576900978 l 7.844773174960336 -25.248311144124404" fill="#ffe515" stroke="none" /><path d="M 93.08242187328487 119.8279376855182 l -9.506519678480702 27.2486521060191 a49.85936516959789,49.85936516959789 0 0,0 -0.8079126993635083,-0.28968874983472953 l 9.974151938473936 -27.080975815144413" fill="#f4ff19" stroke="none" /><path d="M 92.40401165467489 119.57807347666478 l -9.564638512191888 24.65211728302299 a47.442564104201864,47.442564104201864 0 0,0 -0.7588074943397376,-0.30194516199971677 l 9.987567082573483 -24.483825276617203" fill="#ffe515" stroke="none" /><path d="M 92.06813273071674 119.44442032107085 l -7.849767960641776 19.243159582445486 a41.782638132618814,41.782638132618814 0 0,0 -0.6636048721294301,-0.27738689037005143 l 8.179844292268669 -19.10518764905546" fill="#ff8c0c" stroke="none" /><path d="M 91.7346041902142 119.30500536409082 l -10.406665032085064 24.306243631895114 a47.44035091641304,47.44035091641304 0 0,0 -0.7479294940669494,-0.32787031057721666 l 10.823515200809757 -24.123508768023445" fill="#ffe515" stroke="none" /><path d="M 91.40352486487194 119.15986991738527 l -17.677842609166472 39.40047048209079 a64.18452493109736,64.18452493109736 0 0,0 -1.0041271722061642,-0.46094553543211597 l 18.353437777140055 -39.090337876324604" fill="#34ff2f" stroke="none" /><path d="M 90.7491055286396 118.85261126421891 l -9.346764632797159 19.04798727796556 a42.21763013256772,42.21763013256772 0 0,0 -0.6496410573444668,-0.3257435124796407 l 9.673259597824387 -18.884275924576617" fill="#ff930d" stroke="none" /><path d="M 90.10565033884886 118.52300852407294 l -14.87266523064101 27.842810723023877 a52.56609383532989,52.56609383532989 0 0,0 -0.7944418596431518,-0.4331930446989134 l 15.349729902152802 -27.5826770265652" fill="#cdff1d" stroke="none" /><line stroke="#e1ed5e" stroke-width="0.3" x1="58.666819895761336" x2="56.23545636021788" y1="174.27360380694188" y2="178.64263932499728" /><path d="M 58.180547188652646 175.14741091055294 a86.0,86.0 0 0,1 -31.652253787137756,-30.449443065178592" fill="none" id="id32" stroke="none" /><text fill="#e1ed5e" style="font-size:6.75px; font-family:Arial;" text-anchor="middle"><textPath startOffset="22.20632615414155" xlink:href="#id32">August</textPath></text><path d="M 89.4739219176387 118.17145234162733 l -11.212828174639906 19.357007538425723 a43.37009737387544,43.37009737387544 0 0,0 -0.6427698923513155,-0.3797597821365391 l 11.544365938019604 -19.161129183995435" fill="#ffa60f" stroke="none" /><path d="M 88.24862548938628 117.40417183066458 l -14.797875653211278 21.91614013872891 a47.444173695321005,47.444173695321005 0 0,0 -0.6729009761860537,-0.4628274272594521 l 15.172933514020222 -21.658171922104355" fill="#ffe515" stroke="none" /><path d="M 87.95078237400918 117.19931262002967 l -16.324240004287688 23.301571590217744 a49.45073022422498,49.45073022422498 0 0,0 -0.6929523106145951,-0.49440307459854915 l 16.72291964275117 -23.017124253774973" fill="#faff18" stroke="none" /><path d="M 87.65650970185807 116.9893568818739 l -15.544441401092293 21.395088108287037 a47.445783286440154,47.445783286440154 0 0,0 -0.6565932244430092,-0.48573197051588995 l 15.910419595953865 -21.124346189031378" fill="#ffe515" stroke="none" /><path d="M 87.36589467227662 116.77436683061367 l -19.37354833539012 25.72236008475789 a53.20208352628201,53.20208352628201 0 0,0 -0.7267690165704878,-0.5572554908855427 l 19.813446080454092 -25.38506525204498" fill="#c4ff1e" stroke="none" /><path d="M 87.07902340077011 116.55440617244103 l -22.298869832616067 28.569399964513543 a57.241553638665955,57.241553638665955 0 0,0 -0.7715139458400879,-0.6129373391901041 l 22.787341271173513 -28.18132871131831" fill="#8cff24" stroke="none" /><path d="M 86.51685102203217 116.09983520530335 l -15.66664721468246 18.707086807997882 a45.400797769566594,45.400797769566594 0 0,0 -0.5948250884452922,-0.50692284482779 l 15.98633777970481 -18.43463957294714" fill="#ffc612" stroke="none" /><path d="M 85.97065885151581 115.62618273729859 l -17.666934519661446 19.677812684877647 a47.44497849088059,47.44497849088059 0 0,0 -0.6030041016548295,-0.5508299497724288 l 18.00303817078313 -19.370789968518643" fill="#ffe515" stroke="none" /><path d="M 85.44109423537348 115.13401014063109 l -29.590301893678944 30.759174910749927 a63.681527706364584,63.681527706364584 0 0,0 -0.7834345578914985,-0.7667556060137054 l 30.11538640394624 -30.245269201813652" fill="#3aff2e" stroke="none" /><path d="M 85.18274418774928 114.88116024355367 l -24.384212701633984 24.489377872918897 a55.558927322489886,55.558927322489886 0 0,0 -0.671890974066885,-0.6806220094260905 l 24.802144300756403 -24.066015369512144" fill="#a3ff21" stroke="none" /><path d="M 84.67929136418377 114.36230785411682 l -19.293867756526584 18.086922413500357 a47.44598448533005,47.44598448533005 0 0,0 -0.5534316345647862,-0.6006407352447566 l 19.6023457990871 -17.752130423454258" fill="#ffe515" stroke="none" /><path d="M 84.19399662182784 113.82643327865904 l -17.49870149131061 15.307135070393509 a44.248934124928546,44.248934124928546 0 0,0 -0.49655203666898046,-0.5776021991112269 l 17.759596037550367 -15.003655772120752" fill="#ffb410" stroke="none" /><path d="M 83.72743513129214 113.27417163493432 l -28.62337108266288 23.349210378772554 a57.938908991035476,57.938908991035476 0 0,0 -0.6237595008550805,-0.7782358847244489 l 29.021048495572824 -22.853046660469843" fill="#83ff25" stroke="none" /><path d="M 83.50135304334701 112.99209946851258 l -18.977161323831385 14.943841649378772 a45.15473152722732,45.15473152722732 0 0,0 -0.475615180198621,-0.6147967339782088 l 19.231583321248074 -14.614966921287312" fill="#ffc212" stroke="none" /><path d="M 83.06392112726016 112.41649034213515 l -18.387303893688422 13.480439181312812 a43.79945580490734,43.79945580490734 0 0,0 -0.44053953090228254,-0.6118708777470421 l 18.61662321696631 -13.161934698114631" fill="#ffac10" stroke="none" /><path d="M 82.6465618267979 111.8261652097733 l -21.862229657759375 14.898853887405778 a47.45624562871459,47.45624562871459 0 0,0 -0.45421704763034443,-0.6789928572290529 l 22.11544981080045 -14.520324115970904" fill="#ffe615" stroke="none" /><path d="M 82.24976979558568 111.22182372390057 l -36.52395726578486 23.09070955226176 a64.21088198567337,64.21088198567337 0 0,0 -0.5825925493513635,-0.9393246910605204 l 36.91601445480418 -22.458588529835975" fill="#34ff2f" stroke="none" /><path d="M 82.05923443525364 110.91462005526583 l -19.39729287644629 11.800727292437521 a43.70489232665757,43.70489232665757 0 0,0 -0.3854753278307895,-0.6460788219438355 l 19.597549079975312 -11.465086376607575" fill="#ffab0f" stroke="none" /><line stroke="#e1ed5e" stroke-width="0.3" x1="26.63291911575756" x2="22.317208475507996" y1="142.92168965132927" y2="145.44649492493687" /><path d="M 25.769776987707644 143.4266507060508 a86.0,86.0 0 0,1 -11.730757126820373,-40.83630448921669" fill="none" id="id33" stroke="none" /><text fill="#e1ed5e" style="font-size:6.75px; font-family:Arial;" text-anchor="middle"><textPath startOffset="21.46611528233685" xlink:href="#id33">September</textPath></text><path d="M 81.69416730710424 110.29060199501025 l -19.499979844606383 10.961890390784681 a43.36989617498554,43.36989617498554 0 0,0 -0.3602253815502817,-0.6539137020488539 l 19.68578163560818 -10.624606170338005" fill="#ffa60f" stroke="none" /><path d="M 81.51974371655577 109.97397251340807 l -11.138508916961005 6.011560666376998 a33.6572209642856,33.6572209642856 0 0,0 -0.2707763362874682,-0.5122067835292443 l 11.24033776147336 -5.818938867761627" fill="#ff0000" stroke="none" /><path d="M 81.35079622478065 109.6543875284942 l -20.469854159268692 10.59690843037154 a44.050149621714155,44.050149621714155 0 0,0 -0.34279685939497656,-0.6763707247327759 l 20.649229688449935 -10.24298349393608" fill="#ffb010" stroke="none" /><path d="M 81.02952815118164 109.00673069616217 l -25.698951178212628 12.201253309911632 a49.44831583754627,49.44831583754627 0 0,0 -0.35844232499979745,-0.7720528795233322 l 25.905168120052252 -11.757080363109472" fill="#faff18" stroke="none" /><path d="M 80.87730276802145 108.67885076344099 l -21.588311879726138 9.797871856980604 a44.707667593884835,44.707667593884835 0 0,0 -0.3120146317502034,-0.7035106251395637 l 21.75376759620762 -9.424812895348344" fill="#ffbb11" stroke="none" /><path d="M 80.58989483394504 108.01547362559985 l -24.439872807440924 10.092534492994359 a47.44175930864229,47.44175930864229 0 0,0 -0.3052027456013243,-0.7574881850874873 l 24.609978167299634 -9.670346940064066" fill="#ffe515" stroke="none" /><path d="M 80.32549172779594 107.34259656027581 l -22.167728151424228 8.273075099098396 a44.661190650319526,44.661190650319526 0 0,0 -0.26259873904451264,-0.722558948179803 l 22.306851151473968 -7.890268353912476" fill="#ffba11" stroke="none" /><path d="M 80.0844068197444 106.66101706037122 l -19.355695099419027 6.473752205402256 a41.40961539075698,41.40961539075698 0 0,0 -0.22027499626592095,-0.6779367296589682 l 19.464262346701197 -6.139616575765485" fill="#ff860c" stroke="none" /><path d="M 79.97269907076064 106.31721596034903 l -31.02155187417071 9.785134966848952 a53.52822692679874,53.52822692679874 0 0,0 -0.26961206305103624,-0.8811078217003578 l 31.18539070972788 -9.249700172596548" fill="#bfff1e" stroke="none" /><path d="M 79.76711848015287 105.62410040840567 l -22.63790398759529 6.29262050179025 a44.496207560607175,44.496207560607175 0 0,0 -0.19877499175029614,-0.7397156904148143 l 22.742867055687363 -5.902013878199897" fill="#ffb811" stroke="none" /><path d="M 79.58551787078972 104.9243191809786 l -22.74779491978238 5.4871537832532455 a44.400235690128156,44.400235690128156 0 0,0 -0.1728214351362401,-0.7445102194097419 l 22.838876920849177 -5.094774906494929" fill="#ffb610" stroke="none" /><path d="M 79.4281124754447 104.21870165774334 l -20.103716005695354 4.122693162637332 a41.52208557020724,41.52208557020724 0 0,0 -0.13755687029092525,-0.70139951807337 l 20.171702808961946 -3.776029917496007" fill="#ff880c" stroke="none" /><path d="M 79.35854240842038 103.8639653848113 l -42.28682980349109 7.9158579702603316 a64.02135263139405,64.02135263139405 0 0,0 -0.19344679003425214,-1.084952331152856 l 42.416823035864525 -7.186786888374262" fill="#36ff2e" stroke="none" /><path d="M 79.23777060512086 103.15116336523772 l -27.153688392880536 4.121219666122661 a48.46465446485885,48.46465446485885 0 0,0 -0.11808285894510119,-0.8258712404359541 l 27.220605302842234 -3.653202953706306" fill="#fff517" stroke="none" /><path d="M 79.1416061653843 102.43462659150553 l -21.01100664260203 2.452439813533742 a42.1536488855817,42.1536488855817 0 0,0 -0.07791941109862051,-0.7214369740693105 l 21.0501083552017 -2.0904065175796496" fill="#ff920d" stroke="none" /><path d="M 79.07016306316243 101.71520430193888 l -30.48787356444446 2.498487305587441 a51.590078020458414,51.590078020458414 0 0,0 -0.06491368571790217,-0.885695667457299 l 30.526363808826694 -1.9733185016333816" fill="#dbff1b" stroke="none" /><path d="M 79.0235259727143 100.99374915477108 l -23.28117101843842 1.1029329329400077 a44.30728180299755,44.30728180299755 0 0,0 -0.029533687828703106,-0.7621332528669248 l 23.296706839118325 -0.7020224330590862" fill="#ffb510" stroke="none" /><path d="M 79.0095281055655 100.63252640178507 l -22.35552326142566 0.673660828574387 a43.3656709982978,43.3656709982978 0 0,0 -0.01606168907844526,-0.7463235782799751 l 22.363807013189113 -0.2887474345042831" fill="#ffa50f" stroke="none" /><line stroke="#e1ed5e" stroke-width="0.3" x1="15.007084014347285" x2="10.007500721073583" y1="101.09737516637583" y2="101.16192664675087" /><path d="M 14.007167355692545 101.11028546245083 a86.0,86.0 0 0,1 10.666146001902534,-42.60595125391555" fill="none" id="id34" stroke="none" /><text fill="#e1ed5e" style="font-size:6.75px; font-family:Arial;" text-anchor="middle"><textPath startOffset="22.20632615414155" xlink:href="#id34">October</textPath></text><path d="M 79.00175016825051 100.2711162175752 l -20.323619116958824 0.26240580936882363 a41.325313055891776,41.325313055891776 0 0,0 -0.003061423882532731,-0.7113670942843231 l 20.32512483813086 0.08747076311917479" fill="#ff840c" stroke="none" /><path d="M 79.00019446554 99.90962569577889 l -20.523706303521568 -0.0883253739743299 a41.52389636021627,41.52389636021627 0 0,0 0.00922817755989745,-0.71473252182252 l 20.519145118843955 0.44159415385732187" fill="#ff880c" stroke="none" /><path d="M 79.08570108090925 98.10471618934814 l -31.08340529624175 -2.816822838088147 a52.210776595778654,52.210776595778654 0 0,0 0.0888151909697256,-0.8943568524964775 l 31.030312979589798 3.3514552212890547" fill="#d2ff1c" stroke="none" /><path d="M 79.16333360222342 97.38593545837743 l -22.6382967668437 -2.840088127880644 a43.81575291498868,43.81575291498868 0 0,0 0.10032555735457306,-0.7475419332413037 l 22.58605521043129 3.229348403186607" fill="#ffad10" stroke="none" /><path d="M 79.26566170972629 96.67025291283419 l -22.080944906430965 -3.5459999231587083 a43.363860208288756,43.363860208288756 0 0,0 0.12469822834646818,-0.7359760024628511 l 22.016634816564274 3.9255617139373875" fill="#ffa50f" stroke="none" /><path d="M 79.32604984820605 96.31383870115002 l -34.15229630965271 -6.089347802387683 a55.69091379425976,55.69091379425976 0 0,0 0.17639241980111856,-0.9422953598686908 l 34.04241816594173 6.676321239718947" fill="#a1ff22" stroke="none" /><path d="M 79.46518482838121 95.60439243477599 l -22.359728390324015 -4.786241826257174 a43.866253836351845,43.866253836351845 0 0,0 0.16440573324353774,-0.7369986654060848 l 22.274028270078443 5.170418661213218" fill="#ffae10" stroke="none" /><path d="M 79.62865764111835 94.90015583598534 l -25.6576134153948 -6.423230621422272 a47.449404866458224,47.449404866458224 0 0,0 0.20517047678310932,-0.7906055413501366 l 25.543246606741384 6.863932588321272" fill="#ffe615" stroke="none" /><path d="M 79.81627453868168 94.20196356495316 l -24.247891588802148 -6.9655207694129055 a46.228530002586844,46.228530002586844 0 0,0 0.22628667949811687,-0.762926190133454 l 24.124399012192324 7.3818763462928985" fill="#ffd313" stroke="none" /><path d="M 79.91906864156998 93.8553929516997 l -34.97269245192465 -10.701368811159368 a57.573330608099695,57.573330608099695 0 0,0 0.2981325707062411,-0.9451617212104471 l 34.78330439745021 11.301780698796229" fill="#88ff25" stroke="none" /><path d="M 80.14247586403 93.16781622104843 l -25.005895620678295 -8.603533515453986 a47.44457609310079,47.44457609310079 0 0,0 0.2723474990622792,-0.769963054557715 l 24.854095040806207 9.032694196438312" fill="#ffe515" stroke="none" /><path d="M 80.38941819471856 92.48833698450439 l -20.875374553044 -7.996130891052295 a43.354403860463776,43.354403860463776 0 0,0 0.2729396110184487,-0.6946015390954283 l 20.73464139214386 8.354281435043486" fill="#ffa50f" stroke="none" /><path d="M 80.65960295795068 91.81776055985345 l -24.35284231357645 -10.302828138666843 a47.442564104201864,47.442564104201864 0 0,0 0.32466367669799834,-0.749368528398517 l 24.17188792703577 10.72049581165196" fill="#ffe515" stroke="none" /><path d="M 80.803312248108 91.48605970444005 l -57.59006325567602 -25.54182088667983 a84.0,84.0 0 0,0 0.5975907321465934,-1.3167119646317162 l 57.141870206566075 26.529354860153617" fill="#4dd2ff" stroke="none" /><path d="M 81.10775173730289 90.83032412892265 l -20.31904823240953 -9.86219764366906 a43.58598378273075,43.58598378273075 0 0,0 0.3334119938224109,-0.6721382344703388 l 20.146276225633706 10.210495466638362" fill="#ffa90f" stroke="none" /><path d="M 81.43458229118936 90.18545643968196 l -20.22527300132558 -10.69202029301128 a43.87752097418587,43.87752097418587 0 0,0 0.3587340465542544,-0.6646797060055625 l 20.038230855552854 11.038580982349316" fill="#ffae10" stroke="none" /><line stroke="#e1ed5e" stroke-width="0.3" x1="26.266209847984243" x2="21.928928074336255" y1="57.711370442889674" y2="55.22380399835377" /><path d="M 25.398753493254645 57.213857153982495 a86.0,86.0 0 0,1 29.58750427330803,-30.492523968695096" fill="none" id="id35" stroke="none" /><text fill="#e1ed5e" style="font-size:6.75px; font-family:Arial;" text-anchor="middle"><textPath startOffset="21.46611528233685" xlink:href="#id35">November</textPath></text><path d="M 81.78341655067845 89.55222093294921 l -39.3712842325377 -22.580660110715442 a66.38704917875722,66.38704917875722 0 0,0 0.5770625508592804,-0.9863869569927102 l 38.976762007208094 23.255026480062043" fill="#32ff4a" stroke="none" /><path d="M 81.96595687620814 89.24020034530311 l -26.18482034846763 -15.622864989828326 a51.4912893655209,51.4912893655209 0 0,0 0.4606857046502048,-0.7572461692948907 l 25.912018845531207 16.07127893233029" fill="#dcff1b" stroke="none" /><path d="M 82.34701348167596 88.62581576622439 l -40.09278884484914 -25.83261287226496 a68.6943980480514,68.6943980480514 0 0,0 0.6490095097521767,-0.988486009335664 l 39.642182699739045 26.51891694557829" fill="#36ff6b" stroke="none" /><path d="M 82.7489923806493 88.02491185347247 l -19.23034784903812 -13.349081726814804 a44.409490839063245,44.409490839063245 0 0,0 0.441319061859418,-0.6242145156880847 l 18.997716167374826 13.678122742834674" fill="#ffb610" stroke="none" /><path d="M 83.39014120810768 87.1503855733568 l -28.776018204129972 -22.26152210502989 a57.38178926492145,57.38178926492145 0 0,0 0.6111049055864933,-0.7760411714200499 l 28.388559217949506 22.753555670402985" fill="#8aff24" stroke="none" /><path d="M 83.84228863543731 86.58626213691792 l -18.14969576623939 -15.06743472574805 a44.5889602488479,44.5889602488479 0 0,0 0.4953395800809872,-0.5863258246696408 l 17.88764557267128 15.377619500046807" fill="#ffb911" stroke="none" /><path d="M 84.07557802195018 86.31012108654704 l -15.297764953131397 -13.151155510919239 a41.17360909291237,41.17360909291237 0 0,0 0.4666501890465919,-0.5334618347220241 l 15.069122900506962 13.412532901844205" fill="#ff820b" stroke="none" /><path d="M 84.31358615837235 86.03803664274999 l -17.165066610505963 -15.278063772909652 a43.97952881136167,43.97952881136167 0 0,0 0.5081863023231801,-0.561152007723934 l 16.899536667566736 15.571268567903141" fill="#ffaf10" stroke="none" /><path d="M 84.80347519578584 85.50635884689758 l -20.573641674207447 -19.622050664885265 a49.43061033523568,49.43061033523568 0 0,0 0.5925452899211809,-0.6106700074652496 l 20.232832120583147 19.973284867900638" fill="#fbff18" stroke="none" /><path d="M 85.05521093208273 85.24692304244772 l -30.374448656815037 -29.984804505485272 a63.6813265074747,63.6813265074747 0 0,0 0.7768036213843488,-0.7734677797667465 l 29.853809235263373 30.503208135902128" fill="#3aff2e" stroke="none" /><path d="M 85.57189188830299 84.74124197986013 l -16.130969809419238 -17.059656265852535 a44.47850205829658,44.47850205829658 0 0,0 0.560836032650057,-0.52123597022934 l 15.834925892974322 17.334796822156523" fill="#ffb711" stroke="none" /><path d="M 86.10567301691215 84.25364557470407 l -15.50982875866255 -17.57719254821169 a44.44168266144614,44.44168266144614 0 0,0 0.5779666254006239,-0.5012069621697173 l 15.204968334615153 17.841564503801088" fill="#ffb710" stroke="none" /><line stroke="#e1ed5e" stroke-width="0.3" x1="56.762969772571076" x2="54.21961505331055" y1="26.818313649435495" y2="22.513508569990535" /><path d="M 56.25429882871897 25.957352633546506 a86.0,86.0 0 0,1 42.265352541879196,-11.944610805530505" fill="none" id="id36" stroke="none" /><text fill="#e1ed5e" style="font-size:6.75px; font-family:Arial;" text-anchor="middle"><textPath startOffset="22.20632615414155" xlink:href="#id36">December</textPath></text></svg>