<?xml version="1.0" encoding="utf-8" ?>
<svg baseProfile="full" height="200mm" version="1.1" viewBox="0,0,200,200" width="200mm" xmlns="http://www.w3.org/2000/svg" xmlns:ev="http://www.w3.org/2001/xml-events" xmlns:xlink="http://www.w3.org/1999/xlink"><defs /><rect fill="#1a1a1a" height="200" width="200" x="0" y="0" /><text alignment-baseline="middle" fill="#e1ed5e" style="dominant-baseline: central; font-size:9.0px; font-family:Arial;" text-anchor="middle" x="100.0" y="100.0">2025</text><line stroke="#e1ed5e" stroke-width="0.3" x1="100.0" x2="100.0" y1="15.0" y2="10.0" /><path d="M 100.0 14.0 a86.0,86.0 0 0,1 42.46469731375804,11.215312516191453" fill="none" id="id25" stroke="none" /><text fill="#e1ed5e" style="font-size:6.75px; font-family:Arial;" text-anchor="middle"><textPath startOffset="22.20632615414155" xlink:href="#id25">January</textPath></text><path d="M 100.0 79.0 l 0.0 -55.33344754453154 a76.33344754453154,76.33344754453154 0 0,0 1.3139548191867458,0.01130962395908147 l -0.9524743399142176 55.32524929718102" fill="#3cffa8" stroke="none" /><path d="M 101.08401301168833 79.027996857942 l 2.3500684831066807 -45.46591515078159 a66.52661048632285,66.52661048632285 0 0,0 1.1431107535966631,0.06895556235701082 l -3.1323412855429558 45.418726319044275" fill="#72ff27" stroke="none" /><path d="M 101.44485096284872 79.0497635885617 l 2.6584425523570645 -38.54722832332671 a59.638790460039814,59.638790460039814 0 0,0 1.0235431036362839,0.07944664411984367 l -3.3215758453556896 38.495756417018406" fill="#faff18" stroke="none" /><path d="M 102.16513564639614 79.11191278185805 l 4.021615485320273 -38.7984259346635 a60.006297518725574,60.006297518725574 0 0,0 1.0264885746584753,0.11533795167156236 l -4.688870763488473 38.72345202952133" fill="#f2ff19" stroke="none" /><path d="M 102.88285421437855 79.19881850522331 l 4.167808456561832 -30.072745166233155 a51.36018163917647,51.36018163917647 0 0,0 0.8746663869041958,0.12890308889900604 l -4.684843823894683 29.99654759317318" fill="#ff4906" stroke="none" /><path d="M 103.59715602781102 79.31037775812273 l 7.4294867769101165 -42.73188976982783 a64.37293715058964,64.37293715058964 0 0,0 1.0900633580802856,0.1992021111795347 l -8.163945256093303 42.597672177297554" fill="#9aff22" stroke="none" /><path d="M 103.95276090670814 79.375362276772 l 6.757874173564231 -35.261102277242514 a56.90284385883496,56.90284385883496 0 0,0 0.9603942504961148,0.1926460517294994 l -7.363834833527472 35.139552269435804" fill="#ffc912" stroke="none" /><path d="M 104.66035177308747 79.52364482259891 l 7.7458613178927695 -34.0332694231336 a55.90360719443806,55.90360719443806 0 0,0 0.9364554678264174,0.22162875357181494 l -8.330540472681712 33.89489475742092" fill="#ffb310" stroke="none" /><path d="M 105.36241919743992 79.69619591428918 l 7.752084013734355 -29.351825971750962 a51.358268963034604,51.358268963034604 0 0,0 0.8527969901536451,0.23310163200192524 l -8.256178893111711 29.214037798922742" fill="#ff4806" stroke="none" /><path d="M 106.0581310904928 79.89281104454417 l 16.734579822472984 -55.542766169038416 a79.0090082275434,79.0090082275434 0 0,0 1.2988126346555806,0.40354740788343463 l -17.688177829839283 55.24647862627246" fill="#42ffd9" stroke="none" /><path d="M 106.40334571778207 80.00007090966166 l 9.253214624329516 -28.90108460493566 a51.34624642728578,51.34624642728578 0 0,0 0.8394308767552908,0.2767471622081893 l -9.749328323327225 28.737523718468236" fill="#ff4806" stroke="none" /><path d="M 107.08798089147638 80.2323363322302 l 10.249285479622008 -28.584223250342774 a51.36619290705087,51.36619290705087 0 0,0 0.8297295472308085,0.30559639462080374 l -10.739797352625393 28.403563587915645" fill="#ff4906" stroke="none" /><path d="M 108.09893153111575 80.62456947434976 l 11.982057402995867 -28.665203536313438 a52.068691530010796,52.068691530010796 0 0,0 0.8239653288584966,0.3527789528214177 l -12.473706489644679 28.45470505552923" fill="#ff5a08" stroke="none" /><path d="M 108.76106565485865 80.91482961587045 l 18.994664574767107 -41.378118151389295 a66.52961612026006,66.52961612026006 0 0,0 1.0366638089725047,0.4867275584566712 l -19.70410659503921 41.04502561029262" fill="#72ff27" stroke="none" /><line stroke="#e1ed5e" stroke-width="0.3" x1="143.23703022742887" x2="145.7803849466894" y1="26.81831364943548" y2="22.513508569990506" /><path d="M 143.74570117128098 25.957352633546492 a86.0,86.0 0 0,1 28.547481713284135,27.462654790039103" fill="none" id="id26" stroke="none" /><text fill="#e1ed5e" style="font-size:6.75px; font-family:Arial;" text-anchor="middle"><textPath startOffset="19.985693538727396" xlink:href="#id26">February</textPath></text><path d="M 112.19680574252982 82.90503203632743 l 20.854444599086296 -29.22946137269704 a56.90639597166984,56.90639597166984 0 0,0 0.792502001492416,0.5757864076136047 l -21.354491916932503 28.866155730266758" fill="#ffc912" stroke="none" /><path d="M 112.77801427241765 83.33499621200491 l 16.702468008957183 -21.783251036037086 a48.44963503016477,48.44963503016477 0 0,0 0.6574556522859148,0.5131545649979122 l -17.07495621640253 21.49251808181595" fill="#ff0000" stroke="none" /><path d="M 113.6212207817346 84.01681056812373 l 19.687726047599902 -23.10164851917198 a51.352804174057866,51.352804174057866 0 0,0 0.6678461560387399,0.5791496054514919 l -20.082466002285408 22.759333920300815" fill="#ff4806" stroke="none" /><path d="M 114.16331599549186 84.49514656593476 l 20.485629287888475 -22.426010950712723 a51.37411685106714,51.37411685106714 0 0,0 0.6477838628173757,0.6020445024530073 l -20.868621034500695 22.070061862185074" fill="#ff4906" stroke="none" /><path d="M 114.68862486808459 84.99185889309783 l 25.516952191934372 -26.0720130409707 a57.48101853257404,57.48101853257404 0 0,0 0.7011704341887682,0.6981593855131315 l -25.961958426290465 25.62891780480745" fill="#ffd614" stroke="none" /><path d="M 114.94478906791727 85.2469230424477 l 32.39950829529777 -31.98388663065928 a66.52688372577168,66.52688372577168 0 0,0 0.7974854313449898,0.821878837949504 l -32.94525799034587 31.421443597159666" fill="#72ff27" stroke="none" /><path d="M 115.4437574822437 85.77008943001954 l 25.650621848856183 -23.63453682779418 a55.87901564404273,55.87901564404273 0 0,0 0.6456856429591904,0.7129822139020245 l -26.05365113243141 23.189501826622603" fill="#ffb210" stroke="none" /><path d="M 115.9244219780498 86.31012108654704 l 23.967751399518303 -20.604554120672148 a52.60697324421969,52.60697324421969 0 0,0 0.5844118340211262,0.6917592784996339 l -24.318873847026545 20.18893589254341" fill="#ff6709" stroke="none" /><path d="M 116.38621287248628 86.86637796730983 l 30.414918151057936 -24.37769131035296 a59.97870033439304,59.97870033439304 0 0,0 0.6387615038602118,0.8111622426561459 l -30.830033735512114 23.850536673743775" fill="#f2ff19" stroke="none" /><path d="M 116.60985879189232 87.15038557335679 l 34.60128507571068 -26.7680284016787 a64.74672871659864,64.74672871659864 0 0,0 0.674365112481068,0.8873854398351313 l -35.05692612841586 26.168458185962535" fill="#93ff23" stroke="none" /><path d="M 117.04232023915458 87.72973835380427 l 27.747552665639013 -19.97789775518714 a55.191271951320005,55.191271951320005 0 0,0 0.548462950152972,0.7757619472862318 l -28.087328235595866 19.497309307569115" fill="#ffa30f" stroke="none" /><path d="M 117.45458315368197 88.32363383020206 l 29.84570428193457 -19.965493803148313 a56.90803540836286,56.90803540836286 0 0,0 0.5376545571518827,0.8188847769012462 l -30.184955474444376 19.448790962269392" fill="#ffc912" stroke="none" /><line stroke="#e1ed5e" stroke-width="0.3" x1="172.23445277983987" x2="176.4835382374775" y1="55.19839476539836" y2="52.563006222186495" /><path d="M 173.08426987136738 54.67131705675599 a86.0,86.0 0 0,1 12.851231095245387,41.99856678651699" fill="none" id="id27" stroke="none" /><text fill="#e1ed5e" style="font-size:6.75px; font-family:Arial;" text-anchor="middle"><textPath startOffset="22.20632615414155" xlink:href="#id27">March</textPath></text><path d="M 117.84615892207809 88.93136811851018 l 30.515494416756116 -18.92646904331167 a56.9083086478117,56.9083086478117 0 0,0 0.5091510543416801,0.8369104610820186 l -30.83676126938402 18.398390809022573" fill="#ffca12" stroke="none" /><path d="M 118.21658344932153 89.55222093294921 l 31.374062655579642 -17.994003978474534 a57.16788612420685,57.16788612420685 0 0,0 0.4822311519222663,0.8578354104717839 l -31.67915144879434 17.451285058067956" fill="#ffcf13" stroke="none" /><path d="M 118.3937258080291 89.86733742301442 l 25.924027022848612 -14.280924985003216 a50.59729709802357,50.59729709802357 0 0,0 0.4136736244365581,0.7664743999456523 l -26.166008746503636 13.832569601725105" fill="#ff3605" stroke="none" /><path d="M 118.73160827565052 90.50648371742162 l 37.54941377978761 -19.030718872285796 a63.096635685072016,63.096635685072016 0 0,0 0.482659178053976,0.9730114506945508 l -37.871432970795 18.381547833092295" fill="#b3ff20" stroke="none" /><path d="M 119.04729006885535 91.15688171328212 l 41.2880600901399 -19.16887903141827 a66.52087245789727,66.52087245789727 0 0,0 0.4732411532755504,1.0427241507506655 l -41.6119035603788 18.455332871825544" fill="#72ff27" stroke="none" /><path d="M 119.196687751892 91.48605970444005 l 27.756588624348908 -12.310349650440799 a51.36400699146019,51.36400699146019 0 0,0 0.3514992849703965,0.8113088122155743 l -27.964378619161984 11.830741693638622" fill="#ff4906" stroke="none" /><path d="M 119.47837535516314 92.15188598940014 l 26.002790942299395 -10.47689369302893 a49.0340942112271,49.0340942112271 0 0,0 0.30869635859202843,0.7855985614952959 l -26.17928085077312 10.027746126637851" fill="#ff0f01" stroke="none" /><path d="M 119.7369772167798 92.82701384747503 l 34.22912497369719 -12.439850173239204 a57.41953965658572,57.41953965658572 0 0,0 0.32960707652001786,0.9318435906883593 l -34.43818513102701 11.84880895612423" fill="#ffd513" stroke="none" /><path d="M 119.97218684219823 93.5106431181261 l 41.98839426373066 -13.642856309478875 a65.14921042473554,65.14921042473554 0 0,0 0.33736282716767646,1.0695323548275133 l -42.21701257466654 12.918073788224943" fill="#8bff24" stroke="none" /><path d="M 120.08093135843002 93.85539295169968 l 44.87528625182762 -13.731484624676911 a67.92914857720314,67.92914857720314 0 0,0 0.3325102803790229,1.1210593657232084 l -45.10500242931834 12.956995872207171" fill="#59ff2a" stroke="none" /><path d="M 120.28053869075195 94.5502522615342 l 29.317928897422068 -7.878258025665041 a51.357995723585766,51.357995723585766 0 0,0 0.22207116188051884,0.8557307752537864 l -29.44919639117289 7.372430824862405" fill="#ff4806" stroke="none" /><path d="M 120.45610955862082 95.25157060432595 l 34.97617049693327 -8.118937555540885 a56.906122732221,56.906122732221 0 0,0 0.21327767966555894,0.9560820183903155 l -35.110742563600866 7.515677367600605" fill="#ffc912" stroke="none" /><path d="M 120.6074358757038 95.95851677861258 l 41.111015429871685 -8.062598378380335 a62.8941652534838,62.8941652534838 0 0,0 0.19920761295853123,1.0641750340121499 l -41.24370876674008 7.353745266905622" fill="#b7ff1f" stroke="none" /><path d="M 120.67395015179393 96.31383870115 l 33.40647875109366 -5.956368676474279 a54.93333391161788,54.93333391161788 0 0,0 0.1579677035909814,0.9323343286329588 l -33.50405831620486 5.380448559525482" fill="#ff9d0e" stroke="none" /><path d="M 120.78858239683441 97.02765380044208 l 31.95552430784133 -4.568992700808508 a53.28050848560288,53.28050848560288 0 0,0 0.12199714382003313,0.909020424564739 l -32.0294374507192 4.018253934179104" fill="#ff770a" stroke="none" /><path d="M 120.87857604477298 97.74499172005257 l 35.42114578399155 -3.8256908352771912 a56.62714525495842,56.62714525495842 0 0,0 0.09632782823414573,0.9700080845029901 l -35.48175073790792 3.2154072200697663" fill="#ffc312" stroke="none" /><path d="M 120.96714384426684 98.82574320788733 l 62.90143153280055 -3.5227703763380056 a84.0,84.0 0 0,0 0.0684255670660141,1.444355573508001 l -62.95275070810006 2.4395036962070047" fill="#4dd2ff" stroke="none" /><line stroke="#e1ed5e" stroke-width="0.3" x1="184.98032266829074" x2="189.97916517819016" y1="98.17113171792111" y2="98.06355123074" /><path d="M 185.9800911702706 98.14961562048488 a86.0,86.0 0 0,1 -9.607161424134198,41.387399972396054" fill="none" id="id28" stroke="none" /><text fill="#e1ed5e" style="font-size:6.75px; font-family:Arial;" text-anchor="middle"><textPath startOffset="21.466115282336823" xlink:href="#id28">April</textPath></text><path d="M 120.99513854157772 99.54816195383933 l 38.31623938532538 -0.8246068348539148 a59.325111572774944,59.325111572774944 0 0,0 0.013184279688136735,1.02113699143218 l -38.32475667213124 0.16493358536127214" fill="#fffe18" stroke="none" /><path d="M 120.99824983174949 100.27111621757518 l 39.752753242264326 0.5132625901491351 a60.7560665663343,60.7560665663343 0 0,0 -0.022502708440879166,1.0456124385527106 l -39.73802847113844 -1.1974648444919604" fill="#e2ff1b" stroke="none" /><line stroke="#e1ed5e" stroke-width="0.3" x1="174.80103733775053" x2="179.2010983576182" y1="140.37084112569926" y2="142.7455964860345" /><path d="M 175.68104954172406 140.8457921977663 a86.0,86.0 0 0,1 -30.038265399797805,32.042727171017184" fill="none" id="id29" stroke="none" /><text fill="#e1ed5e" style="font-size:6.75px; font-family:Arial;" text-anchor="middle"><textPath startOffset="22.206326154141568" xlink:href="#id29">May</textPath></text><line stroke="#e1ed5e" stroke-width="0.3" x1="143.8653032363475" x2="146.44561519142675" y1="172.8068346515853" y2="177.08958963109032" /><path d="M 144.38136562736335 173.6633856474863 a86.0,86.0 0 0,1 -40.68145358897372,12.25698825130547" fill="none" id="id30" stroke="none" /><text fill="#e1ed5e" style="font-size:6.75px; font-family:Arial;" text-anchor="middle"><textPath startOffset="21.466115282336833" xlink:href="#id30">June</textPath></text><line stroke="#e1ed5e" stroke-width="0.3" x1="102.19456741930631" x2="102.32365962044197" y1="184.97166512339345" y2="189.96999836594603" /><path d="M 102.22038585953345 185.97133177190398 a86.0,86.0 0 0,1 -42.740103519485714,-10.115201625700543" fill="none" id="id31" stroke="none" /><text fill="#e1ed5e" style="font-size:6.75px; font-family:Arial;" text-anchor="middle"><textPath startOffset="22.20632615414155" xlink:href="#id31">July</textPath></text><line stroke="#e1ed5e" stroke-width="0.3" x1="58.666819895761336" x2="56.23545636021788" y1="174.27360380694188" y2="178.64263932499728" /><path d="M 58.180547188652646 175.14741091055294 a86.0,86.0 0 0,1 -31.652253787137756,-30.449443065178592" fill="none" id="id32" stroke="none" /><text fill="#e1ed5e" style="font-size:6.75px; font-family:Arial;" text-anchor="middle"><textPath startOffset="22.20632615414155" xlink:href="#id32">August</textPath></text><line stroke="#e1ed5e" stroke-width="0.3" x1="26.63291911575756" x2="22.317208475507996" y1="142.92168965132927" y2="145.44649492493687" /><path d="M 25.769776987707644 143.4266507060508 a86.0,86.0 0 0,1 -11.730757126820373,-40.83630448921669" fill="none" id="id33" stroke="none" /><text fill="#e1ed5e" style="font-size:6.75px; font-family:Arial;" text-anchor="middle"><textPath startOffset="21.46611528233685" xlink:href="#id33">September</textPath></text><line stroke="#e1ed5e" stroke-width="0.3" x1="15.007084014347285" x2="10.007500721073583" y1="101.09737516637583" y2="101.16192664675087" /><path d="M 14.007167355692545 101.11028546245083 a86.0,86.0 0 0,1 10.666146001902534,-42.60595125391555" fill="none" id="id34" stroke="none" /><text fill="#e1ed5e" style="font-size:6.75px; font-family:Arial;" text-anchor="middle"><textPath startOffset="22.20632615414155" xlink:href="#id34">October</textPath></text><line stroke="#e1ed5e" stroke-width="0.3" x1="26.266209847984243" x2="21.928928074336255" y1="57.711370442889674" y2="55.22380399835377" /><path d="M 25.398753493254645 57.213857153982495 a86.0,86.0 0 0,1 29.58750427330803,-30.492523968695096" fill="none" id="id35" stroke="none" /><text fill="#e1ed5e" style="font-size:6.75px; font-family:Arial;" text-anchor="middle"><textPath startOffset="21.46611528233685" xlink:href="#id35">November</textPath></text><line stroke="#e1ed5e" stroke-width="0.3" x1="56.762969772571076" x2="54.21961505331055" y1="26.818313649435495" y2="22.513508569990535" /><path d="M 56.25429882871897 25.957352633546506 a86.0,86.0 0 0,1 42.265352541879196,-11.944610805530505" fill="none" id="id36" stroke="none" /><text fill="#e1ed5e" style="font-size:6.75px; font-family:Arial;" text-anchor="middle"><textPath startOffset="22.20632615414155" xlink:href="#id36">December</textPath></text></svg>