<?xml version="1.0" encoding="utf-8" ?>
<svg baseProfile="full" height="200mm" version="1.1" viewBox="0,0,200,200" width="200mm" xmlns="http://www.w3.org/2000/svg" xmlns:ev="http://www.w3.org/2001/xml-events" xmlns:xlink="http://www.w3.org/1999/xlink"><defs /><rect fill="#1a1a1a" height="200" width="200" x="0" y="0" /><text alignment-baseline="middle" fill="#e1ed5e" style="dominant-baseline: central; font-size:9.0px; font-family:Arial;" text-anchor="middle" x="100.0" y="100.0">2024</text><line stroke="#e1ed5e" stroke-width="0.3" x1="100.0" x2="100.0" y1="15.0" y2="10.0" /><path d="M 100.0 14.0 a86.0,86.0 0 0,1 42.35913384403234,11.155469271406648" fill="none" id="id13" stroke="none" /><text fill="#e1ed5e" style="font-size:6.75px; font-family:Arial;" text-anchor="middle"><textPath startOffset="22.145653131862478" xlink:href="#id13">January</textPath></text><path d="M 100.36049292484886 79.00309439819443 l 0.5608477050620555 -32.66656710423558 a53.671381307251146,53.671381307251146 0 0,0 0.9210691065983715,0.023723472928924332 l -1.1215301257311683 32.65212591395661" fill="#e4ff1a" stroke="none" /><path d="M 101.08105385017728 79.02784411241856 l 1.682290643159346 -32.635989049733126 a53.67931888920517,53.67931888920517 0 0,0 0.9198479083791942,0.05533576598423604 l -2.242282903671003 32.60230130592419" fill="#e4ff1a" stroke="none" /><path d="M 102.15924093988457 79.11130261209362 l 3.9727465947662712 -38.43271951917718 a59.63750309150385,59.63750309150385 0 0,0 1.0174274417074918,0.11400486699388555 l -4.63190993807456 38.35885889167633" fill="#8aff24" stroke="none" /><path d="M 102.87502721639298 79.19773525538626 l 4.474238214312968 -32.37335887949525 a53.681082796306065,53.681082796306065 0 0,0 0.911747358916083,0.13399546401600915 l -5.029310678836733 32.291782342180355" fill="#e4ff1a" stroke="none" /><path d="M 103.58742460773223 79.30868818359171 l 5.7060436088417505 -32.91094321371755 a54.401932831537536,54.401932831537536 0 0,0 0.9187845715730925,0.16743315526502126 l -6.270162913965897 32.80814188452116" fill="#d9ff1c" stroke="none" /><path d="M 104.29559338865022 79.4440306129975 l 9.629379884895785 -46.08006862398437 a68.07544669314083,68.07544669314083 0 0,0 1.1418443252745183,0.2488596561680085 l -10.418986626789437 45.90797750968264" fill="#32ff4d" stroke="none" /><path d="M 104.64783097203109 79.52079915486377 l 6.5129321008795555 -28.69718055309596 a50.426968179675875,50.426968179675875 0 0,0 0.842533415172868,0.19883559188124472 l -7.004597669792308 28.58114881756849" fill="#ffe515" stroke="none" /><path d="M 105.3480935250658 79.69241777938227 l 8.321730056571917 -31.598964481373894 a53.67637904403701,53.67637904403701 0 0,0 0.8890306172378747,0.24230924807173512 l -8.862942074744485 31.451454739158017" fill="#e4ff1a" stroke="none" /><path d="M 106.04205211174951 79.88797359093562 l 11.946344634619988 -39.76549595062858 a62.521197216946575,62.521197216946575 0 0,0 1.0252266621778914,0.31761784064368787 l -12.62721192966951 39.55456152217825" fill="#61ff29" stroke="none" /><path d="M 106.72888874123014 80.10723608172694 l 9.901495868372145 -29.27201315432578 a51.90130053150534,51.90130053150534 0 0,0 0.8415282502063997,0.2927272088895306 l -10.402529890623562 29.09772751286766" fill="#fffd17" stroke="none" /><path d="M 107.06938296918511 80.22567764915836 l 10.999691635809864 -30.768095195079425 a53.67520310596975,53.67520310596975 0 0,0 0.864965286582304,0.3176272342506321 l -11.526246074046291 30.574737111820074" fill="#e4ff1a" stroke="none" /><path d="M 107.74402155503746 80.48000691201159 l 12.045500893342595 -30.362530954792533 a53.6646196633644,53.6646196633644 0 0,0 0.8533838251663023,0.34706377243382397 l -12.564939179699337 30.151279925779416" fill="#e4ff1a" stroke="none" /><path d="M 108.4095320186766 80.7573450057729 l 16.309815205095312 -37.32004900085248 a61.72832097509531,61.72832097509531 0 0,0 0.9673315760537835,0.432675110007938 l -16.948060184004728 37.03457013993469" fill="#6cff28" stroke="none" /><path d="M 109.06512990194946 81.05736502329252 l 15.241687423722714 -31.8492646459003 a56.30842242308571,56.30842242308571 0 0,0 0.8683288324732528,0.42474314447535955 l -15.786176505458034 31.582927751327716" fill="#bbff1f" stroke="none" /><path d="M 110.02825361518725 81.54914285379988 l 21.071560400353675 -38.76929779734069 a65.12560605141462,65.12560605141462 0 0,0 0.9776774194078431,0.5423011838504922 l -21.733982007917618 38.40186369805705" fill="#3eff2e" stroke="none" /><line stroke="#e1ed5e" stroke-width="0.3" x1="143.13028292997686" x2="145.6673583964461" y1="26.7553504044142" y2="22.446841604673864" /><path d="M 143.63769802327073 25.89364864446614 a86.0,86.0 0 0,1 29.32050498858742,28.57503671076993" fill="none" id="id14" stroke="none" /><text fill="#e1ed5e" style="font-size:6.75px; font-family:Arial;" text-anchor="middle"><textPath startOffset="20.669276256404974" xlink:href="#id14">February</textPath></text><path d="M 110.65571695917076 81.90426304109057 l 20.88768547610455 -35.47185642264242 a62.16488798256625,62.16488798256625 0 0,0 0.9149109794136968,0.5493777556103365 l -21.493529212075682 35.10806466649616" fill="#66ff29" stroke="none" /><path d="M 111.27062007382361 82.28071324371311 l 22.120650271305653 -34.777336368843244 a62.21633527300895,62.21633527300895 0 0,0 0.8962540632571598,0.580941055568895 l -22.714389966819823 34.39248147157045" fill="#65ff29" stroke="none" /><path d="M 117.01052211995028 87.68569379921539 l 23.9811236680981 -17.360484164180736 a50.60541678138284,50.60541678138284 0 0,0 0.503367023725211,0.7080487572489197 l -24.27560579035327 16.946258180222312" fill="#ffe815" stroke="none" /><path d="M 117.62189284568427 88.57770195909679 l 27.395807374329966 -17.757631353286108 a53.6475685613891,53.6475685613891 0 0,0 0.4942788287578999,0.7770884163387122 l -27.696603894713757 17.284729262268723" fill="#e5ff1a" stroke="none" /><line stroke="#e1ed5e" stroke-width="0.3" x1="172.87174338648825" x2="177.1583165268699" y1="56.24261187166439" y2="53.66864786411523" /><path d="M 173.72905801456457 55.72781907015455 a86.0,86.0 0 0,1 12.242430191666344,42.057860355516425" fill="none" id="id15" stroke="none" /><text fill="#e1ed5e" style="font-size:6.75px; font-family:Arial;" text-anchor="middle"><textPath startOffset="22.145653131862474" xlink:href="#id15">March</textPath></text><path d="M 118.18653347947321 89.5 l 30.58893850251924 -17.660531878654396 a56.321063757308785,56.321063757308785 0 0,0 0.4762257985619933,0.84144535498436 l -30.88759766610261 17.132829753570917" fill="#bbff1f" stroke="none" /><path d="M 118.70294669586156 90.45014215332178 l 29.101860814173534 -14.85961749068495 a53.6760850595202,53.6760850595202 0 0,0 0.41197695468322154,0.824229881787625 l -29.352657682068493 14.357855752733576" fill="#e4ff1a" stroke="none" /><path d="M 119.0197475246899 91.09779779509293 l 29.58521873909857 -13.847376215166426 a53.66550161691484,53.66550161691484 0 0,0 0.38336471161350394,0.8377210811904935 l -29.818567915567122 13.337466151761248" fill="#e4ff1a" stroke="none" /><path d="M 119.4528033332814 92.08871423366111 l 30.580725119495384 -12.436914680994489 a54.0129913157907,54.0129913157907 0 0,0 0.34193136355068715,0.8618904022463807 l -30.789715158012196 11.910123261534542" fill="#dfff1b" stroke="none" /><path d="M 119.71291397450082 92.76114493625339 l 31.33624495049222 -11.507103198040449 a54.382235868910904,54.382235868910904 0 0,0 0.31427709036577134,0.8790889557782434 l -31.529162210901934 10.96747928588129" fill="#d9ff1c" stroke="none" /><path d="M 119.94978838288452 93.4421083053983 l 31.036086600557038 -10.202178120613397 a53.66991138466707,53.66991138466707 0 0,0 0.28019599946987594,0.8777099775492304 l -31.206647315804172 9.667899109372778" fill="#e4ff1a" stroke="none" /><path d="M 120.16314734710363 94.1308016681162 l 42.57268705113294 -12.392288739595658 a65.33962677965627,65.33962677965627 0 0,0 0.30423843970470527,1.0796348927464385 l -42.779143982912224 11.659645922946206" fill="#3bff2e" stroke="none" /><path d="M 120.43855184770803 95.1765574152323 l 34.34554540861509 -8.105455198361541 a56.2890194449759,56.2890194449759 0 0,0 0.2138691602513519,0.9423469815758121 l -34.47962543042411 7.5146738828467035" fill="#bbff1f" stroke="none" /><path d="M 120.592083275326 95.88100663000786 l 32.71938539269485 -6.544793438370264 a54.36753664307013,54.36753664307013 0 0,0 0.17520251352963107,0.9167335843223055 l -32.82691419850664 5.982157289014644" fill="#d9ff1c" stroke="none" /><path d="M 120.7213421655516 96.59031103205396 l 39.09310457366033 -6.4327554809248175 a60.61882340863381,60.61882340863381 0 0,0 0.16014485100214307,1.0282448235983979 l -39.197770916800735 5.760722475394979" fill="#7bff26" stroke="none" /><path d="M 120.77682067341334 96.94652285012252 l 29.150588037128365 -4.284132585827445 a50.463716244277805,50.463716244277805 0 0,0 0.11860291007890025,0.8581515753573746 l -29.21983546376248 3.783092702269985" fill="#ffe615" stroke="none" /><path d="M 120.86939407059847 97.66154086499901 l 32.470232299187295 -3.638357255547338 a53.673439198868856,53.673439198868856 0 0,0 0.09474028468489669,0.9165263128684006 l -32.52790497635386 3.080426420396006" fill="#e4ff1a" stroke="none" /><path d="M 120.93736805541906 98.37931529534042 l 33.01858418143451 -2.5558472397639913 a54.11735581926018,54.11735581926018 0 0,0 0.06374519119948366,0.9268410898941255 l -33.05759333379906 1.9886627257155316" fill="#ddff1b" stroke="none" /><path d="M 120.98066250479742 99.09900007780936 l 41.24035552012309 -1.7710383123625812 a62.27836600605701,62.27836600605701 0 0,0 0.03670067964999088,1.0685002440554863 l -41.26468088676993 1.062831803742975" fill="#64ff29" stroke="none" /><path d="M 120.99303781780057 99.45929381324524 l 41.67171445295593 -1.0733155445604667 a62.68553456184641,62.68553456184641 0 0,0 0.018473034210008156,1.0759616312831057 l -41.68399891876461 0.35780699730829474" fill="#5eff29" stroke="none" /><line stroke="#e1ed5e" stroke-width="0.3" x1="184.99686870605535" x2="189.99668451229388" y1="99.2704041080226" y2="99.22748670261217" /><path d="M 185.99683186730306 99.26182062694052 a86.0,86.0 0 0,1 -10.086455211305974,41.156179273409016" fill="none" id="id16" stroke="none" /><text fill="#e1ed5e" style="font-size:6.75px; font-family:Arial;" text-anchor="middle"><textPath startOffset="21.40746469413373" xlink:href="#id16">April</textPath></text><path d="M 120.99922638620191 100.18025310272382 l 29.43646717960898 0.25267666745280837 a50.43755162228122,50.43755162228122 0 0,0 -0.014863630390961093,0.8657319539628786 l -29.42779211761935 -0.757955537384758" fill="#ffe515" stroke="none" /><path d="M 120.98066250479742 100.90099992219065 l 61.998872482876585 2.6624983491444243 a83.05601571650558,83.05601571650558 0 0,0 -0.07339941132229824,1.4239289708422658 l -61.944031482097714 -3.7263991133634202" fill="#4bdeff" stroke="none" /><path d="M 120.93736805541906 101.62068470465957 l 36.778569959325694 2.846893918784773 a57.888589200968745,57.888589200968745 0 0,0 -0.08519650377812513,0.990112516100228 l -36.724279832849824 -3.477827482260658" fill="#a3ff21" stroke="none" /><path d="M 120.82617615685814 102.69636545807757 l 32.413194784416525 4.196536999609525 a53.6837286569574,53.6837286569574 0 0,0 -0.12617078004681181,0.9129089125149349 l -32.336379487814504 -4.752334220324545" fill="#e4ff1a" stroke="none" /><path d="M 120.7213421655516 103.40968896794604 l 32.567966041549504 5.359046418572395 a54.00593568738713,54.00593568738713 0 0,0 -0.1583793050385901,0.9134897438001219 l -32.47117191901868 -5.917329195293105" fill="#dfff1b" stroke="none" /><path d="M 120.592083275326 104.11899336999214 l 45.27429391881046 9.056126764313658 a67.17115031941651,67.17115031941651 0 0,0 -0.23587401862449975,1.1287425664741393 l -45.11216218936159 -9.831985782073208" fill="#31ff3f" stroke="none" /><path d="M 120.51834098615036 104.47187691870673 l 35.700115183199266 7.780673943896331 a57.538159656924734,57.538159656924734 0 0,0 -0.2186152469801712,0.9632591154147585 l -35.56128907466143 -8.392367393250106" fill="#a9ff21" stroke="none" /><path d="M 120.35273937422433 105.17358676015961 l 31.660397203755995 8.047949162174582 a53.66726552401573,53.66726552401573 0 0,0 -0.2346295005500135,0.89092643041301 l -31.51757822240125 -8.590256096960395" fill="#e4ff1a" stroke="none" /><path d="M 120.16314734710363 105.8691983318838 l 33.94597586214502 9.881178839517268 a56.35487197674256,56.35487197674256 0 0,0 -0.27834927176914587,0.9265341975251485 l -33.771350270372245 -10.46245064063314" fill="#baff1f" stroke="none" /><path d="M 119.94978838288452 106.5578916946017 l 30.879409214273547 10.150675151733692 a53.50498607073361,53.50498607073361 0 0,0 -0.2943145671303465,0.8700887214494712 l -30.700609225570837 -10.679265547657325" fill="#e7ff1a" stroke="none" /><path d="M 119.83427380445688 106.89939002012753 l 34.73064207714441 12.081120171176986 a57.771877347793016,57.771877347793016 0 0,0 -0.33386596243668226,0.9338825173249815 l -34.51813594466378 -12.675537644882889" fill="#a5ff21" stroke="none" /><path d="M 119.58574465831526 107.57618678355244 l 30.29426108356072 11.718470981970949 a53.48176129390518,53.48176129390518 0 0,0 -0.3385683910265331,0.8534135146292668 l -30.08863401756806 -12.23678551381378" fill="#e7ff1a" stroke="none" /><path d="M 119.31412917781788 108.2440532568976 l 32.53309170357126 13.886442311041694 a56.3728050322683,56.3728050322683 0 0,0 -0.38753919153919225,0.8867655112042552 l -32.2899186300151 -14.442869892021793" fill="#baff1f" stroke="none" /><path d="M 119.0197475246899 108.90220220490707 l 39.9886248803607 18.716695588047923 a65.15206465792801,65.15206465792801 0 0,0 -0.48281012607193097,1.008887471019248 l -39.661435496328856 -19.400395561132274" fill="#3dff2e" stroke="none" /><path d="M 118.8641267826498 109.22738970284198 l 29.343942914472674 14.353592923199884 a53.66638357046529,53.66638357046529 0 0,0 -0.4119024934047647,0.8240809093510663 l -29.093220507856177 -14.855205688714696" fill="#e4ff1a" stroke="none" /><path d="M 118.5362547648365 109.86951160357373 l 28.832886220019592 15.351887893385582 a53.66520763239803,53.66520763239803 0 0,0 -0.43993881227503456,0.8094378632449478 l -28.56510205812922 -15.844580590105133" fill="#e4ff1a" stroke="none" /><line stroke="#e1ed5e" stroke-width="0.3" x1="174.33088141563837" x2="178.70328620479359" y1="141.23008692659167" y2="143.65538615756765" /><path d="M 175.20536237346943 141.71514677278685 a86.0,86.0 0 0,1 -30.301960400862466,31.631185727798858" fill="none" id="id17" stroke="none" /><text fill="#e1ed5e" style="font-size:6.75px; font-family:Arial;" text-anchor="middle"><textPath startOffset="22.145653131862474" xlink:href="#id17">May</textPath></text><path d="M 118.18653347947321 110.5 l 33.46055001992235 19.3184575612351 a59.636915122470214,59.636915122470214 0 0,0 -0.5194837915552174,0.8821970480653393 l -33.12399251823737 -19.890005777593988" fill="#8aff24" stroke="none" /><path d="M 117.62189284568427 111.42229804090321 l 39.48872310290447 25.596113226085198 a68.05868957568235,68.05868957568235 0 0,0 -0.6438856351318467,0.9749249180114687 l -39.0435130288519 -26.270218022435728" fill="#32ff4d" stroke="none" /><path d="M 117.21940702142032 112.02048342749411 l 27.10949542404601 18.924533235500093 a54.06149876106525,54.06149876106525 0 0,0 -0.5377443258108462,0.7564047378198526 l -26.780635999705204 -19.387115200029452" fill="#deff1b" stroke="none" /><path d="M 116.79662413953412 112.60449989151573 l 26.699481763697296 20.035788870333278 a54.38105993084365,54.38105993084365 0 0,0 -0.5667232112020095,0.7418588755229147 l -26.35160657514098 -20.49116865909707" fill="#d9ff1c" stroke="none" /><path d="M 116.35404254752997 113.17365903436017 l 25.87691428745625 20.844610419324027 a54.22818798209961,54.22818798209961 0 0,0 -0.590191659534976,0.7199378608111706 l -25.515275808682645 -21.28575056183369" fill="#dbff1b" stroke="none" /><path d="M 116.1254893667686 113.45245675266167 l 38.40711909287358 32.04058474380082 a71.0170557683962,71.0170557683962 0 0,0 -0.7889840568802509,0.9294212351327429 l -37.85144047248622 -32.69517276138312" fill="#37ff7b" stroke="none" /><path d="M 115.6541949942343 113.99807769240083 l 24.763632262912814 22.143792669630837 a54.22025040014559,54.22025040014559 0 0,0 -0.6263789241906811,0.6885001631225209 l -24.379855637880254 -22.56563040831103" fill="#dcff1b" stroke="none" /><path d="M 115.16444852881244 114.52719865689866 l 21.252249603646597 20.359174374958137 a50.430495993877656,50.430495993877656 0 0,0 -0.6042370674557601,0.6200004615899091 l -20.89962573504003 -20.720997528615783" fill="#ffe515" stroke="none" /><path d="M 114.65682725009322 115.03919595460226 l 43.97048175027964 45.117587863806776 a84.0,84.0 0 0,0 -1.0413100565387516,0.9975514787776794 l -43.18949920787558 -45.86575147289004" fill="#4dd2ff" stroke="none" /><path d="M 113.86319453409587 115.77377054828091 l 19.888949062030907 22.62997306856899 a51.1278272677639,51.1278272677639 0 0,0 -0.6642247825612478,0.5737415471418555 l -19.4975447997068 -22.96805874817556" fill="#fff116" stroke="none" /><path d="M 112.7482090630111 116.68781488649013 l 19.83001864460187 25.958130957934042 a53.665795601431654,53.665795601431654 0 0,0 -0.7368748456856458,0.5529646216613492 l -19.38149081000546 -26.294714606859408" fill="#e4ff1a" stroke="none" /><path d="M 112.45986205192187 116.90419585922612 l 26.3282954700778 35.71938930071242 a65.37402296812368,65.37402296812368 0 0,0 -0.9090693397590712,0.6580960965571472 l -25.71124511994476 -36.16608616864264" fill="#3aff2e" stroke="none" /><path d="M 111.8722381534696 117.32195027204791 l 20.738924236383475 30.258710251143192 a57.68368199274838,57.68368199274838 0 0,0 -0.8215906381077661,0.5528028477440944 l -20.216437310178705 -30.610262772944406" fill="#a6ff21" stroke="none" /><path d="M 111.27062007382361 117.71928675628689 l 17.53429043930748 27.566816938822093 a53.67079333821752,53.67079333821752 0 0,0 -0.7816406590067105,0.4878015811133742 l -17.058485651511056 -27.863754316777015" fill="#e4ff1a" stroke="none" /><line stroke="#e1ed5e" stroke-width="0.3" x1="143.1302829299769" x2="145.66735839644613" y1="173.24464959558577" y2="177.55315839532614" /><path d="M 143.63769802327073 174.10635135553383 a86.0,86.0 0 0,1 -40.68552437913181,11.842963189579606" fill="none" id="id18" stroke="none" /><text fill="#e1ed5e" style="font-size:6.75px; font-family:Arial;" text-anchor="middle"><textPath startOffset="21.407464694133747" xlink:href="#id18">June</textPath></text><path d="M 110.34350942703117 118.27599006163325 l 23.665199690316104 41.814140297150864 a69.04647755218225,69.04647755218225 0 0,0 -1.0365382540797723,0.5749502966267143 l -22.943917248080236 -42.214223509210726" fill="#34ff5d" stroke="none" /><path d="M 109.71004243097381 118.62028667847754 l 13.962946496691954 26.77579099091263 a51.19779558276597,51.19779558276597 0 0,0 -0.7827723080904168,0.3996891179844795 l -13.501246966887955 -27.011538060569944" fill="#fff216" stroke="none" /><path d="M 109.06512990194946 118.94263497670748 l 15.394861921615643 32.16934043441184 a56.663261734881964,56.663261734881964 0 0,0 -0.8810092602519894,0.41235681856332607 l -14.840363947492147 -32.428873484545704" fill="#b6ff1f" stroke="none" /><path d="M 108.07796709384702 119.3841803445677 l 18.668507376494514 44.797621672103695 a69.53184598944455,69.53184598944455 0 0,0 -1.1057071320651592,0.44968146471107934 l -17.896745783238913 -45.111490393394064" fill="#35ff64" stroke="none" /><path d="M 107.74402155503746 119.51999308798841 l 12.177761815760723 30.695914878515392 a54.02328077387924,54.02328077387924 0 0,0 -0.8649583555846777,0.33458447336194175 l -11.649031197682516 -30.900439240015373" fill="#dfff1b" stroke="none" /><path d="M 107.407793817531 119.65005319985036 l 10.42460218182711 27.65249580454077 a50.552205583839246,50.552205583839246 0 0,0 -0.8146387989229532,0.29914665088763104 l -9.94837423125003 -27.827373304437124" fill="#ffe715" stroke="none" /><path d="M 106.72888874123015 119.89276391827305 l 10.468011548336294 30.946816098900282 a53.66932341563344,53.66932341563344 0 0,0 -0.8752629978897378,0.28771633233852606 l -9.935225812798823 -31.121953352640826" fill="#e4ff1a" stroke="none" /><path d="M 105.69591212413111 120.21278271476187 l 11.971550232944338 42.48280843242006 a65.13736543208725,65.13736543208725 0 0,0 -1.0788565329234954,0.29404714551020544 l -11.240512299086147 -42.68205607207441" fill="#3dff2e" stroke="none" /><path d="M 104.9986988182912 120.39639698878246 l 7.77589626531916 31.72831029360912 a53.66726552401573,53.66726552401573 0 0,0 -0.8966722794800684,0.21161221644526154 l -7.2300918320992125 -31.857118653700606" fill="#e4ff1a" stroke="none" /><path d="M 104.29559338865022 120.5559693870025 l 7.222350623158539 34.561562252170255 a56.30812843856891,56.30812843856891 0 0,0 -0.947862918867061,0.1895991302226807 l -6.627991218760519 -34.680450779055796" fill="#bbff1f" stroke="none" /><path d="M 103.58742460773223 120.69131181640829 l 8.328348763268632 48.03570249397475 a69.75233437705614,69.75233437705614 0 0,0 -1.181546407261116,0.1944230116836707 l -7.502524852954444 -48.171591504154094" fill="#35ff68" stroke="none" /><path d="M 103.2317021107853 120.74984581791261 l 4.534504974804598 29.114774772631865 a50.46577413589551,50.46577413589551 0 0,0 -0.8571368885879489,0.12596960549260297 l -4.034042980608963 -29.188325451423353" fill="#ffe615" stroke="none" /><path d="M 102.51750503828377 120.84855314841334 l 3.9186225219675777 32.45181585555256 a53.687550455675996,53.687550455675996 0 0,0 -0.9159200885363981,0.10263075634698776 l -3.36096653183038 -32.51430237240652" fill="#e4ff1a" stroke="none" /><path d="M 101.80034050326958 120.92268563240118 l 2.836143065459515 32.96028149083896 a54.08207767724233,54.08207767724233 0 0,0 -0.9256559782940472,0.07165162697751637 l -2.269918092390232 -33.00411088481153" fill="#deff1b" stroke="none" /><path d="M 101.08105385017728 120.97215588758144 l 2.5843501410498995 50.13570232167755 a71.20226601398993,71.20226601398993 0 0,0 -1.2212010478612487,0.05244362749986541 l -1.7233233325878212 -50.172678517603245" fill="#38ff7e" stroke="none" /><path d="M 100.72087961077811 120.9876233191556 l 1.1555495263937918 33.64256364582696 a54.66240311343602,54.66240311343602 0 0,0 -0.9380763001419172,0.024161517905937513 l -0.5778599121811308 -33.65744288108295" fill="#d5ff1c" stroke="none" /><line stroke="#e1ed5e" stroke-width="0.3" x1="101.45913802915013" x2="101.54496967792366" y1="184.9874750549273" y2="189.98673829345242" /><path d="M 101.47630435890484 185.9873277026323 a86.0,86.0 0 0,1 -42.54439059252881,-10.42667462771756" fill="none" id="id19" stroke="none" /><text fill="#e1ed5e" style="font-size:6.75px; font-family:Arial;" text-anchor="middle"><textPath startOffset="22.145653131862474" xlink:href="#id19">July</textPath></text><path d="M 100.0 121.0 l 4.326158810802806e-15 35.32576750957783 a56.32576750957783,56.32576750957783 0 0,0 -0.9669066987563886,-0.008299731108657057 l 0.606413773907532 -35.32056217666361" fill="#bbff1f" stroke="none" /><path d="M 99.27912038922189 120.98762331915562 l -1.1217319613921628 32.65800213900479 a53.67726099758745,53.67726099758745 0 0,0 -0.9206269834683964,-0.039535683884243986 l 1.6821847054613979 -32.63393388669472" fill="#e4ff1a" stroke="none" /><path d="M 98.55909050195518 120.95050786540614 l -2.1298863550990887 30.968080157340076 a52.041237161509486,52.041237161509486 0 0,0 -0.8907254374334139,-0.06894778219872331 l 2.661180787307739 -30.9269546081463" fill="#ffff18" stroke="none" /><path d="M 98.19965949673042 120.92268563240118 l -3.312135226965507 38.492031923932224 a59.63426926181888,59.63426926181888 0 0,0 -1.0191792988229695,-0.09651733923525754 l 3.9724140891734914 -38.42950282919178" fill="#8aff24" stroke="none" /><path d="M 97.48249496171623 120.84855314841334 l -4.233168210428215 35.05670538059849 a56.311362268253866,56.311362268253866 0 0,0 -0.9586933757353657,-0.1241220511989839 l 4.834339408054375 -34.97887173319911" fill="#bbff1f" stroke="none" /><path d="M 96.76829788921471 120.74984581791261 l -4.536721805699482 29.129008417224334 a50.48017937721946,50.48017937721946 0 0,0 -0.8550921644949406,-0.14070509026690925 l 5.036091473247486 -29.046837328461756" fill="#ffe615" stroke="none" /><path d="M 96.05791012581884 120.62667999033965 l -8.481204097123872 44.37724365187617 a66.18042249774845,66.18042249774845 0 0,0 -1.1140481877142918,-0.2228408382820252 l 9.241748770369123 -44.225113416931286" fill="#30ff2f" stroke="none" /><path d="M 95.70440661134978 120.55596938700252 l -7.903381087324576 37.82053955900801 a59.63750309150385,59.63750309150385 0 0,0 -1.0003128556104808,-0.2180135310895519 l 8.551456359554193 -37.679294569784744" fill="#8aff24" stroke="none" /><path d="M 95.00130118170881 120.39639698878247 l -7.777225849180053 31.733735449483262 a53.672851229835224,53.672851229835224 0 0,0 -0.8930004817717214,-0.22699723041515402 l 8.320831624177153 -31.595552987232846" fill="#e4ff1a" stroke="none" /><path d="M 94.30408787586889 120.21278271476187 l -8.860230963358605 31.441833961280096 a53.66638357046529,53.66638357046529 0 0,0 -0.8845753021240379,-0.2574869785097256 l 9.39866627786425 -31.285103288467855" fill="#e4ff1a" stroke="none" /><path d="M 93.27111125876986 119.89276391827306 l -15.157732720104548 44.811143434391084 a68.3053425852905,68.3053425852905 0 0,0 -1.1075035661323231,-0.3852472304638674 l 15.924742058281891 -44.54433777135863" fill="#33ff51" stroke="none" /><path d="M 92.59220618246901 119.65005319985036 l -11.525416444832532 30.572536421764696 a53.672851229835224,53.672851229835224 0 0,0 -0.8593476825966166,-0.33241414451917506 l 12.048536389922676 -30.37018238910748" fill="#e4ff1a" stroke="none" /><path d="M 91.92203290615298 119.3841803445677 l -12.393840691904487 29.74070584128923 a53.219821089422624,53.219821089422624 0 0,0 -0.8402774275694055,-0.3586644678449706 l 12.902553194644323 -29.523566723784857" fill="#ebff1a" stroke="none" /><path d="M 91.26138138417905 119.09545874513695 l -19.026763210925708 41.57691139992482 a66.7237058848234,66.7237058848234 0 0,0 -1.0374306201768633,-0.485569913185645 l 19.737682544974064 -41.244165255168646" fill="#30ff38" stroke="none" /><path d="M 90.93487009805054 118.94263497670748 l -7.257197047642505 15.164750656024031 a37.81179857860819,37.81179857860819 0 0,0 -0.5830934965071102,-0.2852202483293594 l 7.516450793411685 -15.03793665759745" fill="#ff0000" stroke="none" /><path d="M 90.28995756902619 118.62028667847754 l -16.327236729433356 31.309629255546664 a56.31106828373706,56.31106828373706 0 0,0 -0.8532767487091308,-0.45432180768361025 l 16.862302293929048 -31.02473698014048" fill="#bbff1f" stroke="none" /><line stroke="#e1ed5e" stroke-width="0.3" x1="58.13341422392154" x2="55.67067388415222" y1="173.97424548756322" y2="178.32567169271397" /><path d="M 57.64086615596768 174.84453072859336 a86.0,86.0 0 0,1 -31.369924170532247,-30.572349798747897" fill="none" id="id20" stroke="none" /><text fill="#e1ed5e" style="font-size:6.75px; font-family:Arial;" text-anchor="middle"><textPath startOffset="22.145653131862474" xlink:href="#id20">August</textPath></text><path d="M 89.65649057296885 118.27599006163327 l -16.08932971015523 28.42830394804766 a53.66550161691484,53.66550161691484 0 0,0 -0.7978463724214624,-0.4606368178895012 l 16.57496855043709 -28.147920232881987" fill="#e4ff1a" stroke="none" /><path d="M 89.03521579738668 117.91015095944536 l -23.088075728780264 37.71263656671014 a65.21879914324512,65.21879914324512 0 0,0 -0.94982134548872,-0.5927587680679349 l 23.7320612030587 -37.31074200180066" fill="#3cff2e" stroke="none" /><path d="M 88.72937992617639 117.7192867562869 l -17.753920716111573 27.912112213577476 a54.08001978562462,54.08001978562462 0 0,0 -0.7790468091893639,-0.5049687295400237 l 18.230453157557946 -27.603229642333556" fill="#deff1b" stroke="none" /><path d="M 88.1277618465304 117.32195027204791 l -18.46543913344721 26.941627542033732 a53.66226778722987,53.66226778722987 0 0,0 -0.7553728465072891,-0.5273089120737291 l 18.925207071128263 -26.620673814154873" fill="#e4ff1a" stroke="none" /><path d="M 87.54013794807813 116.9041958592261 l -19.379920950066214 26.29258479035148 a53.66314974078032,53.66314974078032 0 0,0 -0.7368385158756185,-0.552937359094613 l 19.8284124548526 -25.956028403992853" fill="#e4ff1a" stroke="none" /><path d="M 86.96720088162412 116.46651593811092 l -23.98117261724605 30.299428198789055 a59.64132489022245,59.64132489022245 0 0,0 -0.7973455246629285,-0.6422851135402541 l 24.49776891226424 -29.883294791455388" fill="#8aff24" stroke="none" /><path d="M 86.68645165197938 116.24036423190432 l -24.882270565231376 30.35232428898104 a60.24781494841271,60.24781494841271 0 0,0 -0.7941972137326392,-0.6625475622984863 l 25.39964211312591 -29.920714542770686" fill="#81ff25" stroke="none" /><path d="M 86.13680546590413 115.77377054828092 l -21.562841643680336 24.53455555426301 a53.663443725297135,53.663443725297135 0 0,0 -0.6867259100039652,-0.614074543287641 l 21.98083258050767 -24.160785481091988" fill="#e4ff1a" stroke="none" /><path d="M 85.60350026404147 115.28858382429668 l -22.389121018973185 23.77647065112136 a53.658739973028084,53.658739973028084 0 0,0 -0.6651831613703756,-0.63723042154096 l 22.793976666208874 -23.38862809927482" fill="#e4ff1a" stroke="none" /><path d="M 84.83555147118756 114.52719865689866 l -21.389389653431877 20.49055144041901 a50.62040999174043,50.62040999174043 0 0,0 -0.5957399534922733,-0.6326551858782636 l 21.737985440660403 -20.12035479459626" fill="#ffe815" stroke="none" /><path d="M 84.3458050057657 113.99807769240083 l -24.353169579475345 21.776754407062537 a53.669617400150265,53.669617400150265 0 0,0 -0.608227387752913,-0.6920511165012239 l 24.72340803118685 -21.35549101275001" fill="#e4ff1a" stroke="none" /><path d="M 83.8745106332314 113.45245675266167 l -22.811076910081333 19.02981166245384 a50.70654745516735,50.70654745516735 0 0,0 -0.551863938395517,-0.6731842730213158 l 23.13438766771548 -18.635425107734033" fill="#ffea15" stroke="none" /><path d="M 83.4222238831116 112.89097897827486 l -37.171715898617556 28.90495111387863 a68.08750005833025,68.08750005833025 0 0,0 -0.7095626073645187,-0.92884023030584 l 37.66243048333637 -28.262589970331923" fill="#32ff4e" stroke="none" /><path d="M 83.20337586046588 112.60449989151573 l -24.397927979774607 18.30866000331941 a51.503539480254034,51.503539480254034 0 0,0 -0.5245953847195617,-0.7117143908328993 l 24.708625384078 -17.887139303217634" fill="#fff717" stroke="none" /><path d="M 82.78059297857968 112.02048342749411 l -26.788404832681707 18.700387065575793 a53.66991138466707,53.66991138466707 0 0,0 -0.5208799411622467,-0.7599794008413527 l 27.105474510659278 -18.237772929664388" fill="#e4ff1a" stroke="none" /><path d="M 82.37810715431573 111.42229804090323 l -27.41751640297367 17.771702883371916 a53.673439198868856,53.673439198868856 0 0,0 -0.4945171864083139,-0.7774631541553163 l 27.718551281007876 -17.298426054537927" fill="#e4ff1a" stroke="none" /><line stroke="#e1ed5e" stroke-width="0.3" x1="26.387840678322732" x2="22.057713659400548" y1="142.50000000000003" y2="145.00000000000006" /><path d="M 25.521815274538298 143.00000000000003 a86.0,86.0 0 0,1 -11.493303480769221,-40.785679425670985" fill="none" id="id21" stroke="none" /><text fill="#e1ed5e" style="font-size:6.75px; font-family:Arial;" text-anchor="middle"><textPath startOffset="21.40746469413373" xlink:href="#id21">September</textPath></text><line stroke="#e1ed5e" stroke-width="0.3" x1="15.003131293944662" x2="10.003315487706104" y1="100.72959589197737" y2="100.7725132973878" /><path d="M 14.003168132696942 100.73817937305945 a86.0,86.0 0 0,1 10.791469493833604,-42.45332614584628" fill="none" id="id22" stroke="none" /><text fill="#e1ed5e" style="font-size:6.75px; font-family:Arial;" text-anchor="middle"><textPath startOffset="22.145653131862435" xlink:href="#id22">October</textPath></text><line stroke="#e1ed5e" stroke-width="0.3" x1="26.387840678322718" x2="22.05771365940052" y1="57.49999999999999" y2="54.99999999999999" /><path d="M 25.521815274538284 56.99999999999999 a86.0,86.0 0 0,1 29.574782752854787,-30.34633250058573" fill="none" id="id23" stroke="none" /><text fill="#e1ed5e" style="font-size:6.75px; font-family:Arial;" text-anchor="middle"><textPath startOffset="21.40746469413373" xlink:href="#id23">November</textPath></text><line stroke="#e1ed5e" stroke-width="0.3" x1="56.869717070023135" x2="54.33264160355391" y1="26.7553504044142" y2="22.446841604673864" /><path d="M 56.362301976729285 25.89364864446614 a86.0,86.0 0 0,1 42.16139366436587,-11.88097634709845" fill="none" id="id24" stroke="none" /><text fill="#e1ed5e" style="font-size:6.75px; font-family:Arial;" text-anchor="middle"><textPath startOffset="22.145653131862474" xlink:href="#id24">December</textPath></text></svg>