<?xml version="1.0" encoding="utf-8" ?>
<svg baseProfile="full" height="200mm" version="1.1" viewBox="0,0,200,200" width="200mm" xmlns="http://www.w3.org/2000/svg" xmlns:ev="http://www.w3.org/2001/xml-events" xmlns:xlink="http://www.w3.org/1999/xlink"><defs /><rect fill="#1a1a1a" height="200" width="200" x="0" y="0" /><rect fill="#1a1a1a" height="200" width="180" x="10" y="0" /><text alignment-baseline="middle" fill="#e1ed5e" style="dominant-baseline: central; font-size:9.0px; font-family:Arial;" text-anchor="middle" x="100.0" y="100.0">2024</text><line stroke="#e1ed5e" stroke-width="0.3" x1="100.0" x2="100.0" y1="15.0" y2="10.0" /><path d="M 100.0 14.0 a86.0,86.0 0 0,1 42.35913384403234,11.155469271406648" fill="none" id="id13" stroke="none" /><text fill="#e1ed5e" style="font-size:6.75px; font-family:Arial;" text-anchor="middle"><textPath startOffset="22.145653131862478" xlink:href="#id13">January</textPath></text><path d="M 100.36049292484886 79.00309439819443 l 0.5408853975665974 -31.503862770295914 a52.50850562091033,52.50850562091033 0 0,0 0.9011126820865581,0.0232094662238112 l -1.081611393723897 31.48993558672206" fill="#f0ff19" stroke="none" /><path d="M 101.08105385017728 79.02784411241856 l 1.622412706934639 -31.474373083493063 a52.51616067972962,52.51616067972962 0 0,0 0.8999160488057052,0.0541367148074685 l -2.1624731078728066 31.441884390860903" fill="#f0ff19" stroke="none" /><path d="M 102.15924093988457 79.11130261209362 l 3.831344234712959 -37.064779955541766 a58.26227464604917,58.26227464604917 0 0,0 0.9939657760358843,0.11137593841903037 l -4.46704591234964 36.99354825661577" fill="#99ff23" stroke="none" /><path d="M 102.87502721639298 79.19773525538626 l 4.314986213750421 -31.22109073472 a52.517861803911686,52.517861803911686 0 0,0 0.8919906101247882,0.13109190230469855 l -4.8503019294828915 31.14241775911642" fill="#f0ff19" stroke="none" /><path d="M 103.58742460773223 79.30868818359171 l 5.502947837789981 -31.739540776891847 a53.21305455298236,53.21305455298236 0 0,0 0.8987058176950384,0.16377413744995672 l -6.046988389036073 31.640398465510525" fill="#e5ff1a" stroke="none" /><path d="M 104.29559338865022 79.4440306129975 l 9.286640420121474 -44.43993621195637 a66.3998856916555,66.3998856916555 0 0,0 1.1137397748949747,0.24273440022076875 l -10.048142611635582 44.27397035360189" fill="#30ff36" stroke="none" /><path d="M 104.64783097203109 79.52079915486377 l 6.281116668416631 -27.675758984846517 a49.37957120869824,49.37957120869824 0 0,0 0.8250335142497112,0.19470566291313954 l -6.7552823364062276 27.56385717828715" fill="#ffdb14" stroke="none" /><path d="M 105.3480935250658 79.69241777938227 l 8.025533900674116 -30.474259432531 a52.51332547275952,52.51332547275952 0 0,0 0.869767204675987,0.23705891931740192 l -8.547482506284796 30.332000019069454" fill="#f0ff19" stroke="none" /><path d="M 106.04205211174951 79.88797359093562 l 11.521137215759971 -38.35011874446169 a61.04332916302891,61.04332916302891 0 0,0 1.0009924856185428,0.3101100307978075 l -12.177770334250145 38.146692125857236" fill="#71ff27" stroke="none" /><path d="M 106.72888874123014 80.10723608172694 l 9.549070952649998 -28.23013151279692 a50.80142750420781,50.80142750420781 0 0,0 0.8236948970026766,0.2865238429214996 l -10.032271621697694 28.062049237306827" fill="#fff216" stroke="none" /><path d="M 107.06938296918511 80.22567764915836 l 10.608178530188866 -29.672963358414886 a52.51219138997148,52.51219138997148 0 0,0 0.8462235827038674,0.3107450209868219 l -11.115991264546858 29.486487488419343" fill="#f0ff19" stroke="none" /><path d="M 107.74402155503746 80.48000691201159 l 11.61676419601918 -29.281834405997923 a52.50198464487907,52.50198464487907 0 0,0 0.8348954071812097,0.3395446937929918 l -12.11771406439083 29.078102455625636" fill="#f1ff19" stroke="none" /><path d="M 108.4095320186766 80.7573450057729 l 15.729298349307896 -35.99171282834705 a60.27867384319055,60.27867384319055 0 0,0 0.9446144597824203,0.42251403284981087 l -16.34482621194595 35.71639504458739" fill="#7cff26" stroke="none" /><path d="M 109.06512990194946 81.05736502329252 l 14.699188545050571 -30.715650638697863 a55.051686273097935,55.051686273097935 0 0,0 0.8489487790658533,0.4152633892069396 l -15.224297573378491 30.458793499393703" fill="#c9ff1d" stroke="none" /><path d="M 110.02825361518725 81.54914285379988 l 20.32155827977009 -37.389378369966245 a63.55503901784831,63.55503901784831 0 0,0 0.9540997820163092,0.529223065837323 l -20.9604022499425 37.03502238869578" fill="#4fff2b" stroke="none" /><line stroke="#e1ed5e" stroke-width="0.3" x1="143.13028292997686" x2="145.6673583964461" y1="26.7553504044142" y2="22.446841604673864" /><path d="M 143.63769802327073 25.89364864446614 a86.0,86.0 0 0,1 29.32050498858742,28.57503671076993" fill="none" id="id14" stroke="none" /><text fill="#e1ed5e" style="font-size:6.75px; font-family:Arial;" text-anchor="middle"><textPath startOffset="20.669276256404974" xlink:href="#id14">February</textPath></text><path d="M 110.65571695917076 81.90426304109057 l 20.144228033773963 -34.20930315024348 a60.69970207825171,60.69970207825171 0 0,0 0.8933471237671541,0.5364292798744844 l -20.72850791409855 33.85845986983308" fill="#76ff27" stroke="none" /><path d="M 111.27062007382361 82.28071324371311 l 21.33330779182375 -33.53950321698784 a60.749318200228615,60.749318200228615 0 0,0 0.8751210279123827,0.5672428773804999 l -21.90591445199314 33.16834649790345" fill="#75ff27" stroke="none" /><path d="M 117.01052211995028 87.68569379921539 l 23.127561176126743 -16.74257074485585 a49.55166827178384,49.55166827178384 0 0,0 0.4928854926013163,0.6933051710850574 l -23.411561767258018 16.34308834706129" fill="#ffde14" stroke="none" /><path d="M 117.62189284568427 88.57770195909679 l 26.420705709552355 -17.125582235021348 a52.485540444452454,52.485540444452454 0 0,0 0.4835725486407322,0.7602563657286636 l -26.710795949818976 16.669512194614015" fill="#f1ff19" stroke="none" /><line stroke="#e1ed5e" stroke-width="0.3" x1="172.87174338648825" x2="177.1583165268699" y1="56.24261187166439" y2="53.66864786411523" /><path d="M 173.72905801456457 55.72781907015455 a86.0,86.0 0 0,1 12.242430191666344,42.057860355516425" fill="none" id="id15" stroke="none" /><text fill="#e1ed5e" style="font-size:6.75px; font-family:Arial;" text-anchor="middle"><textPath startOffset="22.145653131862474" xlink:href="#id15">March</textPath></text><path d="M 118.18653347947321 89.5 l 29.5001834076234 -17.031938831534706 a55.063877663069405,55.063877663069405 0 0,0 0.46559559359551683,0.8226628013751629 l -29.788212366240295 16.523019260060426" fill="#c9ff1d" stroke="none" /><path d="M 118.70294669586156 90.45014215332178 l 28.066035421613034 -14.330717664695431 a52.5130419520625,52.5130419520625 0 0,0 0.40305031711186334,0.8063706269274618 l -28.307905651936636 13.846815181604219" fill="#f0ff19" stroke="none" /><path d="M 119.0197475246899 91.09779779509293 l 28.532189140403975 -13.354505192395882 a52.502835206970104,52.502835206970104 0 0,0 0.37505909143812705,0.8195718021815038 l -28.75723269669715 12.862744407999694" fill="#f1ff19" stroke="none" /><path d="M 119.4528033332814 92.08871423366111 l 29.49226236434886 -11.994246354252704 a52.837956670836974,52.837956670836974 0 0,0 0.33449276056683674,0.843140263471961 l -29.693813799881823 11.486205073567177" fill="#ebff1a" stroke="none" /><path d="M 119.71291397450082 92.76114493625339 l 30.22089090373632 -11.09752974280836 a53.19405866628264,53.19405866628264 0 0,0 0.3074105673529795,0.8598820688297956 l -30.40694164113324 10.577112717597647" fill="#e6ff1a" stroke="none" /><path d="M 119.94978838288452 93.4421083053983 l 29.931416119454802 -9.839050991931314 a52.507088017425275,52.507088017425275 0 0,0 0.27412521516661875,0.8586933321845598 l -30.09590605039868 9.323788626055368" fill="#f0ff19" stroke="none" /><path d="M 120.16314734710363 94.1308016681162 l 41.05739321618964 -11.95120878837264 a63.76144208527222,63.76144208527222 0 0,0 0.2968899978379583,1.0535578649574475 l -41.25650170610218 11.244642999512179" fill="#4cff2c" stroke="none" /><path d="M 120.43855184770803 95.1765574152323 l 33.12308103485049 -7.816956934751014 a55.032973907095226,55.032973907095226 0 0,0 0.20909683685555017,0.9213192441411486 l -33.252388733263714 7.2472033566708385" fill="#c9ff1d" stroke="none" /><path d="M 120.592083275326 95.88100663000786 l 31.55480109222222 -6.311843962190188 a53.1798826314321,53.1798826314321 0 0,0 0.17137523017470171,0.8967076205533092 l -31.658502614679076 5.7692337766035635" fill="#e6ff1a" stroke="none" /><path d="M 120.7213421655516 96.59031103205396 l 37.70165985986737 -6.203793782777 a59.20866673267149,59.20866673267149 0 0,0 0.1564194515624453,1.0043250867743 l -37.802600803568076 5.555680514071258" fill="#8bff24" stroke="none" /><path d="M 120.77682067341334 96.94652285012252 l 28.113028291731535 -4.13164703358624 a49.4150112958246,49.4150112958246 0 0,0 0.11613817961595507,0.8403180135316096 l -28.1798109879027 3.6484407118545445" fill="#ffdb14" stroke="none" /><path d="M 120.86939407059847 97.66154086499901 l 31.314516129262667 -3.508856848114038 a52.5104902657894,52.5104902657894 0 0,0 0.09268753541750362,0.896667825810392 l -31.370136057161837 2.9707845000207147" fill="#f0ff19" stroke="none" /><path d="M 120.93736805541906 98.37931529534042 l 31.843350469064163 -2.4648767177290622 a52.93860651827583,52.93860651827583 0 0,0 0.06235673460492175,0.9066532357335301 l -31.88097116483415 1.917880057841198" fill="#eaff1a" stroke="none" /><path d="M 120.98066250479742 99.09900007780936 l 39.772483492326124 -1.708001571624367 a60.809141067297915,60.809141067297915 0 0,0 0.035834864483839435,1.0432929801801973 l -39.79594304380681 1.0250023268800497" fill="#75ff27" stroke="none" /><path d="M 120.99303781780057 99.45929381324524 l 40.18848902426171 -1.035112918880113 a61.20181723265799,61.20181723265799 0 0,0 0.018035792010964006,1.0504944652290054 l -40.20033624787134 0.3450715376820412" fill="#6fff27" stroke="none" /><line stroke="#e1ed5e" stroke-width="0.3" x1="184.99686870605535" x2="189.99668451229388" y1="99.2704041080226" y2="99.22748670261217" /><path d="M 185.99683186730306 99.26182062694052 a86.0,86.0 0 0,1 -10.086455211305974,41.156179273409016" fill="none" id="id16" stroke="none" /><text fill="#e1ed5e" style="font-size:6.75px; font-family:Arial;" text-anchor="middle"><textPath startOffset="21.40746469413373" xlink:href="#id16">April</textPath></text><path d="M 120.99922638620191 100.18025310272382 l 28.38873210979302 0.24368312199101053 a49.38977795379063,49.38977795379063 0 0,0 -0.014554858056838798,0.8477475134784103 l -28.38036582013751 -0.7309775514384919" fill="#ffdb14" stroke="none" /><path d="M 120.98066250479742 100.90099992219065 l 59.79214052034151 2.5677317836899216 a80.84724984923899,80.84724984923899 0 0,0 -0.07144745019091525,1.3860614463640428 l -59.73925148069402 -3.593765023430695" fill="#48f9ff" stroke="none" /><path d="M 120.93736805541906 101.62068470465957 l 35.469506703570644 2.745564143694682 a56.575610019531425,56.575610019531425 0 0,0 -0.08326414996995783,0.9676556357570745 l -35.41714893090295 -3.3540408268274136" fill="#b2ff20" stroke="none" /><path d="M 120.82617615685814 102.69636545807757 l 31.259508756361704 4.0471692456788855 a52.52041349018479,52.52041349018479 0 0,0 -0.12343668564420618,0.8931263674052841 l -31.18542755416229 -4.583183921284254" fill="#f0ff19" stroke="none" /><path d="M 120.7213421655516 103.40968896794604 l 31.408771224926124 5.16830135262238 a52.83115217410871,52.83115217410871 0 0,0 -0.1549341023208584,0.8936187300512399 l -31.315422305113028 -5.706713115594208" fill="#ebff1a" stroke="none" /><path d="M 120.592083275326 104.11899336999214 l 43.66284152506829 8.733791154208816 a65.52777602765002,65.52777602765002 0 0,0 -0.2301032480412974,1.1011273401910495 l -43.506480566202626 -9.482034945685275" fill="#35ff2f" stroke="none" /><path d="M 120.51834098615036 104.47187691870673 l 34.429437474298865 7.503735651400738 a56.23765334869446,56.23765334869446 0 0,0 -0.2136739956529085,0.9414870503447829 l -34.2955526170883 -8.093657035684538" fill="#b7ff1f" stroke="none" /><path d="M 120.35273937422433 105.17358676015961 l 30.533505573986748 7.761497716562679 a52.504536331152174,52.504536331152174 0 0,0 -0.22954613050809444,0.8716240463764809 l -30.39576996267392 -8.284502267311963" fill="#f0ff19" stroke="none" /><path d="M 120.16314734710363 105.8691983318838 l 32.73773340652409 9.52947706980024 a55.09648254322566,55.09648254322566 0 0,0 -0.27213380591614966,0.9058449331712363 l -32.569323280604316 -10.0900596065622" fill="#c8ff1d" stroke="none" /><path d="M 119.94978838288452 106.5578916946017 l 29.780315366782087 9.78938117328549 a52.348032906402175,52.348032906402175 0 0,0 -0.28795052155709583,0.8512745515289472 l -29.607879423652626 -10.299157399288598" fill="#f3ff19" stroke="none" /><path d="M 119.83427380445688 106.89939002012753 l 33.49447091980332 11.651115673396376 a56.46305230281811,56.46305230281811 0 0,0 -0.3263022107747593,0.912725357754403 l -33.28952853898462 -12.224375987531701" fill="#b3ff20" stroke="none" /><path d="M 119.58574465831526 107.57618678355244 l 29.215994471003533 11.301374292428775 a52.3256347713383,52.3256347713383 0 0,0 -0.3312494866543022,0.8349650945490487 l -29.01768630938311 -11.801240404191388" fill="#f3ff19" stroke="none" /><path d="M 119.31412917781788 108.2440532568976 l 31.375138172687553 13.392180804880617 a55.11377730574333,55.11377730574333 0 0,0 -0.37888390842912484,0.8669605296197272 l -31.140620382241462 -13.928803404276188" fill="#c8ff1d" stroke="none" /><path d="M 119.0197475246899 108.90220220490707 l 38.56530582426514 18.05051040220294 a63.58055588057928,63.58055588057928 0 0,0 -0.4711644421646205,0.9845524706721641 l -38.2497621241406 -18.709875374940207" fill="#4fff2b" stroke="none" /><path d="M 118.8641267826498 109.22738970284198 l 28.29950106992049 13.842704079381141 a52.50368576906115,52.50368576906115 0 0,0 -0.40297850614101005,0.8062269568814812 l -28.057702650567744 -14.326462892426369" fill="#f1ff19" stroke="none" /><path d="M 118.5362547648365 109.86951160357373 l 27.806634466627994 14.805466638564445 a52.50255168627311,52.50255168627311 0 0,0 -0.4304075442787116,0.7919014036608011 l -27.548381572733945 -15.28062287569985" fill="#f1ff19" stroke="none" /><line stroke="#e1ed5e" stroke-width="0.3" x1="174.33088141563837" x2="178.70328620479359" y1="141.23008692659167" y2="143.65538615756765" /><path d="M 175.20536237346943 141.71514677278685 a86.0,86.0 0 0,1 -30.301960400862466,31.631185727798858" fill="none" id="id17" stroke="none" /><text fill="#e1ed5e" style="font-size:6.75px; font-family:Arial;" text-anchor="middle"><textPath startOffset="22.145653131862474" xlink:href="#id17">May</textPath></text><path d="M 118.18653347947321 110.5 l 32.26958537401916 18.630853802327564 a58.26170760465514,58.26170760465514 0 0,0 -0.5075046673154285,0.8618538762194735 l -31.945006996573966 -19.182058846840587" fill="#99ff23" stroke="none" /><path d="M 117.62189284568427 111.42229804090321 l 38.08319709991233 24.685068252029108 a66.38372501192588,66.38372501192588 0 0,0 -0.6280392292036459,0.950931439733041 l -37.65383343178796 -25.33517957010121" fill="#30ff36" stroke="none" /><path d="M 117.21940702142032 112.02048342749411 l 26.144584488658214 18.250950463839697 a52.884737585843766,52.884737585843766 0 0,0 -0.5260391999946601,0.7399400124863212 l -25.827430190133594 -18.697067703035522" fill="#eaff1a" stroke="none" /><path d="M 116.79662413953412 112.60449989151573 l 25.74916448482507 19.322653067630085 a53.1929245834946,53.1929245834946 0 0,0 -0.5543412554209239,0.7256504979393533 l -25.41367125204984 -19.761824478810315" fill="#e6ff1a" stroke="none" /><path d="M 116.35404254752997 113.17365903436017 l 24.955874733621112 20.102686151723542 a53.04549382104894,53.04549382104894 0 0,0 -0.5773198256123078,0.7042363163564352 l -24.607108088770175 -20.52812474977847" fill="#e8ff1a" stroke="none" /><path d="M 116.1254893667686 113.45245675266167 l 37.040090727728 30.90016106154777 a69.23679378594638,69.23679378594638 0 0,0 -0.76920573312372,0.9061224194794373 l -36.50419043109717 -31.531450263476763" fill="#35ff63" stroke="none" /><path d="M 115.6541949942343 113.99807769240083 l 23.88221786560862 21.355626480490542 a53.03783876222965,53.03783876222965 0 0,0 -0.6127191250521228,0.6734856510246405 l -23.51210103971462 -21.762449707072854" fill="#e8ff1a" stroke="none" /><path d="M 115.16444852881244 114.52719865689866 l 20.49581619448914 19.63452828020127 a49.38297345706236,49.38297345706236 0 0,0 -0.5916860914388689,0.6071220545159401 l -20.155743301899463 -19.983473026784946" fill="#ffdb14" stroke="none" /><path d="M 114.65682725009322 115.03919595460226 l 42.40543607121174 43.51171312408396 a81.75763480734093,81.75763480734093 0 0,0 -1.0135124681393666,0.9709220178979574 l -41.652251117207065 -44.2332472722875" fill="#49edff" stroke="none" /><path d="M 113.86319453409587 115.77377054828091 l 19.181039743058413 21.824502212699613 a50.055484550372185,50.055484550372185 0 0,0 -0.6502934921788041,0.5617080303150895 l -18.803566771116756 -22.15055437547942" fill="#ffe615" stroke="none" /><path d="M 112.7482090630111 116.68781488649013 l 19.12420684176956 25.034200651163296 a52.503118727667115,52.503118727667115 0 0,0 -0.7209103503802848,0.5409845667602632 l -18.69164350247851 -25.358804245187574" fill="#f1ff19" stroke="none" /><path d="M 112.45986205192187 116.90419585922612 l 25.391189861440566 34.448025566252795 a63.7946140068225,63.7946140068225 0 0,0 -0.8871066059930963,0.6421967710283129 l -24.7961022450735 -34.87882310865419" fill="#4cff2c" stroke="none" /><path d="M 111.8722381534696 117.32195027204791 l 20.000761667480944 29.18170900285876 a56.37799609371485,56.37799609371485 0 0,0 -0.8029937095848932,0.5402900042793554 l -19.49687166979905 -29.520748681195236" fill="#b5ff20" stroke="none" /><path d="M 111.27062007382361 117.71928675628689 l 16.91019071614752 26.58562851380592 a52.507938579516306,52.507938579516306 0 0,0 -0.7647052924248814,0.477232659832016 l -16.45132129493292 -26.871996970479483" fill="#f0ff19" stroke="none" /><line stroke="#e1ed5e" stroke-width="0.3" x1="143.1302829299769" x2="145.66735839644613" y1="173.24464959558577" y2="177.55315839532614" /><path d="M 143.63769802327073 174.10635135553383 a86.0,86.0 0 0,1 -40.68552437913181,11.842963189579606" fill="none" id="id18" stroke="none" /><text fill="#e1ed5e" style="font-size:6.75px; font-family:Arial;" text-anchor="middle"><textPath startOffset="21.407464694133747" xlink:href="#id18">June</textPath></text><path d="M 110.34350942703117 118.27599006163325 l 22.822881911540062 40.32584549138431 a67.33635455388244,67.33635455388244 0 0,0 -1.0108655772139656,0.560710095533218 l -22.127272146170004 -40.71168850235067" fill="#32ff45" stroke="none" /><path d="M 109.71004243097381 118.62028667847754 l 13.465961969530959 25.822757630215225 a50.12296247626077,50.12296247626077 0 0,0 -0.766338991342805,0.39129814936113133 l -13.02069575647457 -26.050113731249194" fill="#ffe715" stroke="none" /><path d="M 109.06512990194946 118.94263497670748 l 14.846911087983527 31.024333938206688 a55.39389575439007,55.39389575439007 0 0,0 -0.8612729593539816,0.4031192331988053 l -14.31214941475804 -31.274629402976025" fill="#c4ff1e" stroke="none" /><path d="M 108.07796709384702 119.3841803445677 l 18.004037358400062 43.20313552049362 a67.80444722464739,67.80444722464739 0 0,0 -1.0782377458151995,0.4385099044620962 l -17.259745151394423 -43.505832681535004" fill="#32ff4c" stroke="none" /><path d="M 107.74402155503746 119.51999308798841 l 11.744317542424938 29.603352162953353 a52.84787989523235,52.84787989523235 0 0,0 -0.8461391947232223,0.3273048176591103 l -11.234406085208185 -29.800596868750503" fill="#ebff1a" stroke="none" /><path d="M 107.407793817531 119.65005319985036 l 10.05355829167081 26.668257803235168 a49.500351025624866,49.500351025624866 0 0,0 -0.7976883706666769,0.2929222188440307 l -9.594280769350007 -26.83691087108792" fill="#ffdd14" stroke="none" /><path d="M 106.72888874123015 119.89276391827305 l 10.09542258433086 29.845323031538456 a52.506520976031254,52.506520976031254 0 0,0 -0.8562995028339525,0.2814826548508166 l -9.581600343849175 -30.014226607791294" fill="#f0ff19" stroke="none" /><path d="M 105.69591212413111 120.21278271476187 l 11.545445668745545 40.97071365598733 a63.56637984572874,63.56637984572874 0 0,0 -1.0528366278854477,0.28695530468670727 l -10.840427639925402 -41.16286945481818" fill="#4fff2b" stroke="none" /><path d="M 104.9986988182912 120.39639698878246 l 7.499128025206791 30.59900142655713 a52.504536331152174,52.504536331152174 0 0,0 -0.8772454086379824,0.20702752782315606 l -6.972750462828929 -30.72322509802651" fill="#f0ff19" stroke="none" /><path d="M 104.29559338865022 120.5559693870025 l 6.965284787499011 33.331409169659366 a55.05140275240093,55.05140275240093 0 0,0 -0.9267078261630659,0.1853675191989561 l -6.392080475804987 -33.44606608552118" fill="#c9ff1d" stroke="none" /><path d="M 103.58742460773223 120.69131181640829 l 8.031917027092778 46.32596301338086 a68.01708774740555,68.01708774740555 0 0,0 -1.1521527756459709,0.18958630078698738 l -7.235486748393734 -46.457015312663515" fill="#33ff50" stroke="none" /><path d="M 103.2317021107853 120.74984581791261 l 4.373107893511881 28.078489732278566 a49.41699594070367,49.41699594070367 0 0,0 -0.8393238956350436,0.12335170895262719 l -3.8904588922691516 -28.149422514530077" fill="#ffdb14" stroke="none" /><path d="M 102.51750503828377 120.84855314841334 l 3.779146605357578 31.29675518391649 a52.52409925924592,52.52409925924592 0 0,0 -0.8960713840639937,0.10040666761041919 l -3.241339319692785 -31.35701761203388" fill="#f0ff19" stroke="none" /><path d="M 101.80034050326958 120.92268563240118 l 2.7351959465485978 31.787122951865914 a52.90458403463453,52.90458403463453 0 0,0 -0.9055022771698429,0.07009160304958889 l -2.189124674603519 -31.829392321910557" fill="#eaff1a" stroke="none" /><path d="M 101.08105385017728 120.97215588758144 l 2.4923651124477755 48.351217340794285 a69.41541182506323,69.41541182506323 0 0,0 -1.1905544360320157,0.05112753012366345 l -1.66198491581493 -48.38687743934378" fill="#35ff65" stroke="none" /><path d="M 100.72087961077811 120.9876233191556 l 1.1144199385147586 32.445120571045706 a53.46425389053401,53.46425389053401 0 0,0 -0.9175145369185663,0.023631919822899406 l -0.5572920875254485 -32.459470208218654" fill="#e1ff1b" stroke="none" /><line stroke="#e1ed5e" stroke-width="0.3" x1="101.45913802915013" x2="101.54496967792366" y1="184.9874750549273" y2="189.98673829345242" /><path d="M 101.47630435890484 185.9873277026323 a86.0,86.0 0 0,1 -42.54439059252881,-10.42667462771756" fill="none" id="id19" stroke="none" /><text fill="#e1ed5e" style="font-size:6.75px; font-family:Arial;" text-anchor="middle"><textPath startOffset="22.145653131862474" xlink:href="#id19">July</textPath></text><path d="M 100.0 121.0 l 4.172177415005036e-15 34.06841399422159 a55.06841399422159,55.06841399422159 0 0,0 -0.9453225536935429,-0.00811445718257683 l 0.5848296288446866 -34.06339393523344" fill="#c9ff1d" stroke="none" /><path d="M 99.27912038922189 120.98762331915562 l -1.0818060454283698 31.495602658714486 a52.51417603485054,52.51417603485054 0 0,0 -0.9006787338583788,-0.03867902021395442 l 1.6223105398875874 -31.472391070074703" fill="#f0ff19" stroke="none" /><path d="M 98.55909050195518 120.95050786540614 l -2.054077100702364 29.865830236256034 a50.93638335598499,50.93638335598499 0 0,0 -0.8718150224836008,-0.06748399648378502 l 2.566461117961201 -29.826168472777194" fill="#fff417" stroke="none" /><path d="M 98.19965949673042 120.92268563240118 l -3.194246072261898 37.12198124804418 a58.25915591838205,58.25915591838205 0 0,0 -0.9956779283775138,-0.09429173501979014 l 3.831023564024427 -37.061677757519206" fill="#99ff23" stroke="none" /><path d="M 97.48249496171623 120.84855314841334 l -4.082496638210198 33.80892862004678 a55.05452148006804,55.05452148006804 0 0,0 -0.9372958302054282,-0.12135171053634786 l 4.66227029030642 -33.733865313310034" fill="#c9ff1d" stroke="none" /><path d="M 96.76829788921471 120.74984581791261 l -4.3752458205268185 28.09221675735995 a49.430888454857204,49.430888454857204 0 0,0 -0.8373180508317761,-0.13778036662747908 l 4.856841374411658 -28.012970392236802" fill="#ffdc14" stroke="none" /><path d="M 96.05791012581884 120.62667999033965 l -8.179331766025015 42.79772005646161 a64.57231127872335,64.57231127872335 0 0,0 -1.0869780464008407,-0.21742605187581154 l 8.912806297956813 -42.651004607922935" fill="#42ff2d" stroke="none" /><path d="M 95.70440661134978 120.55596938700252 l -7.622075267411297 36.474389376869844 a58.26227464604917,58.26227464604917 0 0,0 -0.9772458487426913,-0.21298618430428579 l 8.247083532773125 -36.33817173443184" fill="#99ff23" stroke="none" /><path d="M 95.00130118170881 120.39639698878247 l -7.5004102850586305 30.604233484324975 a52.50992322439538,52.50992322439538 0 0,0 -0.873651867987881,-0.22207888845346735 l 8.02466744627189 -30.470969364036247" fill="#f0ff19" stroke="none" /><path d="M 94.30408787586889 120.21278271476187 l -8.544867891752965 30.322721674484225 a52.50368576906115,52.50368576906115 0 0,0 -0.8654107210487064,-0.25190844826629377 l 9.064138625183277 -30.171569531915416" fill="#f1ff19" stroke="none" /><path d="M 93.27111125876986 119.89276391827306 l -14.618222049450708 43.216176001366776 a66.621598876718,66.621598876718 0 0,0 -1.0802033273644922,-0.37575079027357683 l 15.357931148860223 -42.95886677852461" fill="#30ff3a" stroke="none" /><path d="M 92.59220618246901 119.65005319985036 l -11.11519116440725 29.48436512774142 a52.50992322439538,52.50992322439538 0 0,0 -0.8407282229703331,-0.32521173754417926 l 11.619691649871111 -29.289213502059198" fill="#f0ff19" stroke="none" /><path d="M 91.92203290615298 119.3841803445677 l -11.952705501890392 28.682141974882587 a52.07301783030162,52.07301783030162 0 0,0 -0.8221707734548931,-0.3509358138916926 l 12.443311350515717 -28.472731511331492" fill="#f7ff18" stroke="none" /><path d="M 91.26138138417905 119.09545874513695 l -18.349541757701175 40.09706030561591 a65.09625752679946,65.09625752679946 0 0,0 -1.0121267984394284,-0.47372644694766514 l 19.035157270012093 -39.776157627097724" fill="#3bff2e" stroke="none" /><path d="M 90.93487009805054 118.94263497670748 l -6.998890919771052 14.624990195287179 a37.21341457926429,37.21341457926429 0 0,0 -0.5738658524502962,-0.28070654521803107 l 7.248917021483417 -14.502689899971926" fill="#ff0000" stroke="none" /><path d="M 90.28995756902619 118.62028667847754 l -15.746099787617709 30.195222543837183 a55.054237959371044,55.054237959371044 0 0,0 -0.834232107477137,-0.4441816089212569 l 16.26212071088141 -29.920470467193354" fill="#c9ff1d" stroke="none" /><line stroke="#e1ed5e" stroke-width="0.3" x1="58.13341422392154" x2="55.67067388415222" y1="173.97424548756322" y2="178.32567169271397" /><path d="M 57.64086615596768 174.84453072859336 a86.0,86.0 0 0,1 -31.369924170532247,-30.572349798747897" fill="none" id="id20" stroke="none" /><text fill="#e1ed5e" style="font-size:6.75px; font-family:Arial;" text-anchor="middle"><textPath startOffset="22.145653131862474" xlink:href="#id20">August</textPath></text><path d="M 89.65649057296885 118.27599006163327 l -15.516660616262095 27.41645253123124 a52.502835206970104,52.502835206970104 0 0,0 -0.7805609814428693,-0.4506570927549625 l 15.985014065565366 -27.14604854120011" fill="#f1ff19" stroke="none" /><path d="M 89.03521579738668 117.91015095944536 l -22.266299579896245 36.37032698638328 a63.64491507880076,63.64491507880076 0 0,0 -0.9268999072014186,-0.578454095314413 l 22.887363615887377 -35.982737094227325" fill="#4eff2c" stroke="none" /><path d="M 88.72937992617639 117.7192867562869 l -17.122003670920503 26.91863365990573 a52.90259938975545,52.90259938975545 0 0,0 -0.7620855431596465,-0.4939746418197634 l 17.581574846337162 -26.620745176382073" fill="#eaff1a" stroke="none" /><path d="M 88.1277618465304 117.32195027204791 l -17.808196943288376 25.98269154467118 a52.499716479303,52.499716479303 0 0,0 -0.7390082811079774,-0.515885174488813 l 18.25160031557012 -25.673161554377238" fill="#f1ff19" stroke="none" /><path d="M 87.54013794807813 116.9041958592261 l -18.690129518718393 25.35675023544797 a52.50056704139402,52.50056704139402 0 0,0 -0.720875313660757,-0.5409582745527447 l 19.122657821289916 -25.03217293363121" fill="#f1ff19" stroke="none" /><path d="M 86.96720088162412 116.46651593811092 l -23.127608383022856 29.22097767259164 a58.26596041511031,58.26596041511031 0 0,0 -0.778958261954906,-0.6274736362687046 l 23.625817415333024 -28.819655742529527" fill="#99ff23" stroke="none" /><path d="M 86.68645165197938 116.24036423190432 l -23.99663346317106 29.271991027045942 a58.85086361304375,58.85086361304375 0 0,0 -0.7757823573727847,-0.6471852341760337 l 24.495590154705738 -28.85574360895804" fill="#90ff24" stroke="none" /><path d="M 86.13680546590413 115.77377054828092 l -20.795353301511955 23.66129470676715 a52.50085056209104,52.50085056209104 0 0,0 -0.6718483175025594,-0.6007709083330961 l 21.198466645837886 -23.30082826855067" fill="#f1ff19" stroke="none" /><path d="M 85.60350026404147 115.28858382429668 l -21.592222833779907 22.930192394099873 a52.496314230938864,52.496314230938864 0 0,0 -0.6507730945225539,-0.6234259034696465 l 21.982668414167776 -22.556154360324644" fill="#f1ff19" stroke="none" /><path d="M 84.83555147118756 114.52719865689866 l -20.62807500500208 19.761229228857342 a49.5661278273314,49.5661278273314 0 0,0 -0.5833323493718157,-0.6194787402745799 l 20.96426318811015 -19.40420902863827" fill="#ffde14" stroke="none" /><path d="M 84.3458050057657 113.99807769240083 l -23.48636482080964 21.001652246880283 a52.506804496728265,52.506804496728265 0 0,0 -0.5950494541481214,-0.6770570470988776 l 23.843425338916354 -20.595382921970106" fill="#f0ff19" stroke="none" /><path d="M 83.8745106332314 113.45245675266167 l -21.999160007379192 18.352481705394418 a49.649199391555584,49.649199391555584 0 0,0 -0.5403563068188338,-0.6591468336124836 l 22.310963133436655 -17.97213259008344" fill="#ffdf14" stroke="none" /><path d="M 83.4222238831116 112.89097897827486 l -35.84865936080056 27.876134347636206 a66.41151004023294,66.41151004023294 0 0,0 -0.6920965549152551,-0.9059766069819384 l 36.32190789307011 -27.2566368274134" fill="#30ff36" stroke="none" /><path d="M 83.20337586046588 112.60449989151573 l -23.52953013096748 17.656998068150006 a50.417824001152084,50.417824001152084 0 0,0 -0.5135367014678245,-0.696711163120304 l 23.829168852019137 -17.250480595760823" fill="#ffec16" stroke="none" /><path d="M 82.78059297857968 112.02048342749411 l -25.834922506274328 18.034782350574226 a52.507088017425275,52.507088017425275 0 0,0 -0.5095944489472543,-0.7435135304286579 l 26.140706692036908 -17.58863408507552" fill="#f0ff19" stroke="none" /><path d="M 82.37810715431573 111.42229804090323 l -26.441642046605622 17.139152915753634 a52.5104902657894,52.5104902657894 0 0,0 -0.48380242240386523,-0.7606177654653259 l 26.731962160635376 -16.682721475609636" fill="#f0ff19" stroke="none" /><path d="M 81.99639281039703 110.81064883170644 l -36.711782969256575 22.044370857838434 a63.82183199373555,63.82183199373555 0 0,0 -0.555937663777866,-0.9441036926770818 l 37.08479434316421 -21.410915996867793" fill="#4bff2c" stroke="none" /><line stroke="#e1ed5e" stroke-width="0.3" x1="26.387840678322732" x2="22.057713659400548" y1="142.50000000000003" y2="145.00000000000006" /><path d="M 25.521815274538298 143.00000000000003 a86.0,86.0 0 0,1 -11.493303480769221,-40.785679425670985" fill="none" id="id21" stroke="none" /><text fill="#e1ed5e" style="font-size:6.75px; font-family:Arial;" text-anchor="middle"><textPath startOffset="21.40746469413373" xlink:href="#id21">September</textPath></text><path d="M 81.81346652052679 110.50000000000001 l -29.578018359600293 17.07687686201094 a55.153753724021854,55.153753724021854 0 0,0 -0.46635554548638974,-0.8240055635491533 l 29.866807270108062 -16.566614528362667" fill="#c7ff1e" stroke="none" /><path d="M 81.4637452351635 109.86951160357371 l -31.303735680148222 16.66747605975476 a56.464469906303165,56.464469906303165 0 0,0 -0.44819864395178766,-0.8594799969839307 l 31.585242393074957 -16.127649819666328" fill="#b3ff20" stroke="none" /><path d="M 81.1358732173502 109.22738970284198 l -28.29517143676064 13.840586238841983 a52.49886591721196,52.49886591721196 0 0,0 -0.38904345096664816,-0.8129511834303671 l 28.5285941456872 -13.35282255334651" fill="#f1ff19" stroke="none" /><path d="M 80.83023694016515 108.57439118712176 l -35.011910750399956 15.660382345127935 a59.35467989163209,59.35467989163209 0 0,0 -0.4080383200038312,-0.9336715287866075 l 35.275582952420756 -15.057048746565478" fill="#89ff24" stroke="none" /><path d="M 80.68587082218212 108.24405325689762 l -28.989707711061683 12.3739823872758 a52.52012996948777,52.52012996948777 0 0,0 -0.3468183175406063,-0.8322377073221048 l 29.197851873138777 -11.874512170512414" fill="#f0ff19" stroke="none" /><path d="M 80.41425534168474 107.57618678355246 l -29.386020939442236 11.367144183005438 a52.507938579516306,52.507938579516306 0 0,0 -0.31797136397479453,-0.8434568202137354 l 29.576822987231466 -10.861019082597558" fill="#f0ff19" stroke="none" /><path d="M 80.16572619554312 106.89939002012753 l -23.73595036704572 8.256595663403562 a46.13099106234755,46.13099106234755 0 0,0 -0.25375247547695085,-0.7501741048875763 l 23.874188264095036 -7.847919884041825" fill="#ffa40f" stroke="none" /><path d="M 79.94057633289273 106.21446072829308 l -33.42755816536525 10.355942967695048 a55.994959632053146,55.994959632053146 0 0,0 -0.2765715844897502,-0.9206168547334939 l 33.60040606985863 -9.780588509370832" fill="#baff1f" stroke="none" /><path d="M 79.73907114497094 105.5222062557868 l -35.95087121810264 9.79856981691708 a58.26227464604917,58.26227464604917 0 0,0 -0.2547185564167161,-0.9672078476761385 l 36.11377925532408 -9.179981464868138" fill="#99ff23" stroke="none" /><path d="M 79.64726062577567 105.17358676015961 l -22.408475414273163 5.696146822646766 a44.12111284123741,44.12111284123741 0 0,0 -0.1802924678933479,-0.7356547939603839 l 22.5029554086828 -5.310636204078283" fill="#ff800b" stroke="none" /><path d="M 79.48165901384964 104.47187691870673 l -30.77363322966695 6.70697013161947 a52.49603071024185,52.49603071024185 0 0,0 -0.18434178462893214,-0.8821421719266804 l 30.88423272512025 -6.177711508407381" fill="#f1ff19" stroke="none" /><path d="M 79.34024301695615 103.76489593502545 l -44.678818753331775 8.141969106617001 a66.41462876790007,66.41462876790007 0 0,0 -0.19476938256460147,-1.123378040683359 l 44.812002953388614 -7.373798033013049" fill="#30ff36" stroke="none" /><path d="M 79.17382384314188 102.69636545807758 l -31.23757719186432 4.044329765569497 a52.49829887581794,52.49829887581794 0 0,0 -0.10804128344426754,-0.8947368151628781 l 31.30240056156825 -3.5074992734832193" fill="#f1ff19" stroke="none" /><path d="M 79.0935383218832 101.97986365728391 l -31.359974775012677 2.969822216036541 a52.50028352069701,52.50028352069701 0 0,0 -0.07726636052220204,-0.8979522308307021 l 31.40633475823262 -2.4310489378301767" fill="#f1ff19" stroke="none" /><path d="M 79.06263194458094 101.62068470465958 l -37.14379134474479 2.8751643638376936 a58.254903107926886,58.254903107926886 0 0,0 -0.06861883550490437,-0.9977028084770232 l 37.18767414141477 -2.2371181312063273" fill="#99ff23" stroke="none" /><path d="M 79.03789590574601 101.26102812881392 l -37.61275375694588 2.2626898653108762 a58.68075119483722,58.68075119483722 0 0,0 -0.05185816531764299,-1.0060345531420718 l 37.64605351172009 -1.6166835187920736" fill="#93ff23" stroke="none" /><path d="M 79.00696218219943 100.54070618675478 l -31.478786512074663 0.8107818776079642 a52.48922621351359,52.48922621351359 0 0,0 -0.015468246035972428,-0.9009477841456682 l 31.488066189709304 -0.27028717749324355" fill="#f1ff19" stroke="none" /><line stroke="#e1ed5e" stroke-width="0.3" x1="15.003131293944662" x2="10.003315487706104" y1="100.72959589197737" y2="100.7725132973878" /><path d="M 14.003168132696942 100.73817937305945 a86.0,86.0 0 0,1 10.791469493833604,-42.45332614584628" fill="none" id="id22" stroke="none" /><text fill="#e1ed5e" style="font-size:6.75px; font-family:Arial;" text-anchor="middle"><textPath startOffset="22.145653131862435" xlink:href="#id22">October</textPath></text><path d="M 79.00077361379809 100.18025310272382 l -28.670824810992855 0.24610454855748187 a49.67188104731645,49.67188104731645 0 0,0 0.0,-0.8527153025625883 l 28.670824810992855 0.24610454855747135" fill="#ffe015" stroke="none" /><path d="M 79.00696218219943 99.45929381324524 l -45.39021926201533 -1.1690910379971942 a66.4052725848987,66.4052725848987 0 0,0 0.03913266825226601,-1.1393049386785599 l 45.36346190676621 1.9481022412398925" fill="#30ff36" stroke="none" /><path d="M 79.03789590574601 98.7389718711861 l -34.012878450983244 -2.0461303061831213 a55.074367928858805,55.074367928858805 0 0,0 0.06487246209037233,-0.9432313612456295 l 33.97274202772781 2.629705091583076" fill="#c8ff1d" stroke="none" /><path d="M 79.0935383218832 98.0201363427161 l -62.7193850343504 -5.9395909718517155 a84.0,84.0 0 0,0 0.14827043007334506,-1.4343819108683489 l 62.608182211795395 7.015377405002977" fill="#4dd2ff" stroke="none" /><path d="M 79.17382384314186 97.30363454192245 l -32.05663677367033 -4.15037342657834 a53.32419466621064,53.32419466621064 0 0,0 0.12532578128833485,-0.9067949224342593 l 31.980666475826784 4.7000566572126665" fill="#e4ff1b" stroke="none" /><path d="M 79.22317932658666 96.9465228501225 l -31.823301736830736 -4.676929459732652 a53.16513955518753,53.16513955518753 0 0,0 0.14045345775155121,-0.9018119532772159 l 31.738326786940917 5.222529594941318" fill="#e6ff1a" stroke="none" /><path d="M 79.34024301695615 96.23510406497455 l -30.998282214075154 -5.648919626514828 a52.50878914160734,52.50878914160734 0 0,0 0.16921259280889836,-0.8853917880118907 l 30.896743328984094 6.180213979560033" fill="#f0ff19" stroke="none" /><path d="M 79.407916724674 95.88100663000787 l -44.67036215623643 -8.935323497703383 a66.55525503361747,66.55525503361747 0 0,0 0.2337112791831922,-1.1183930753270273 l 44.51039316622887 9.70083302431582" fill="#30ff39" stroke="none" /><path d="M 79.56144815229197 95.17655741523228 l -35.32674261539911 -8.337015067501108 a57.297170193424115,57.297170193424115 0 0,0 0.23413389990068362,-0.9553462099840393 l 35.17842118898213 8.942217102093265" fill="#a7ff21" stroke="none" /><path d="M 79.73907114497095 94.47779374421319 l -30.376621987103697 -8.279283401423044 a52.48468988236141,52.48468988236141 0 0,0 0.24438248189024883,-0.8672272145517669 l 30.230021013138863 8.799518539877825" fill="#f1ff19" stroke="none" /><path d="M 79.94057633289273 93.78553927170692 l -36.10219613377769 -11.184552647262048 a58.795010035732616,58.795010035732616 0 0,0 0.3069527445784077,-0.9615251005093322 l 35.904878673422026 11.802646781462773" fill="#91ff24" stroke="none" /><path d="M 80.05021161711548 93.44210830539832 l -45.82662274865379 -15.064121129869774 a69.23906195152246,69.23906195152246 0 0,0 0.38086290724071525,-1.1259535103535574 l 45.56127441984071 15.848576314697493" fill="#35ff63" stroke="none" /><path d="M 80.28708602549916 92.7611449362534 l -27.03355314833878 -9.92709516979822 a49.79861479888032,49.79861479888032 0 0,0 0.30156456147437716,-0.7999358273359812 l 26.859157903049965 10.389699277328345" fill="#ffe215" stroke="none" /><path d="M 80.5471966667186 92.08871423366112 l -29.177629207819283 -11.86628778857839 a52.49829887581794,52.49829887581794 0 0,0 0.346674155232171,-0.8318917702623074 l 28.969629208050634 12.36541206828196" fill="#f1ff19" stroke="none" /><path d="M 80.83023694016515 91.42560881287825 l -28.32967742940222 -12.671504375222089 a52.03445901550813,52.03445901550813 0 0,0 0.3717132007233138,-0.812260427132509 l 28.10797976382386 13.155953784569268" fill="#f8ff18" stroke="none" /><path d="M 80.9802524753101 91.09779779509293 l -28.548366616629497 -13.36207706811808 a52.5206970108818,52.5206970108818 0 0,0 0.38920523053792505,-0.8132892405126813 l 28.314782128131668 13.850178810695848" fill="#f0ff19" stroke="none" /><path d="M 81.29705330413844 90.45014215332179 l -31.443585285304984 -16.05531869109211 a56.30541479528006,56.30541479528006 0 0,0 0.4469361104472486,-0.8570589225176903 l 31.163341105882797 16.59272385671429" fill="#b6ff1f" stroke="none" /><path d="M 81.63589988554816 89.8137432299009 l -27.54342290372021 -15.277872385586125 a52.496881272332885,52.496881272332885 0 0,0 0.4438902168762316,-0.7843114804812149 l 27.277099321822607 15.748440636166446" fill="#f1ff19" stroke="none" /><line stroke="#e1ed5e" stroke-width="0.3" x1="26.387840678322718" x2="22.05771365940052" y1="57.49999999999999" y2="54.99999999999999" /><path d="M 25.521815274538284 56.99999999999999 a86.0,86.0 0 0,1 29.574782752854787,-30.34633250058573" fill="none" id="id23" stroke="none" /><text fill="#e1ed5e" style="font-size:6.75px; font-family:Arial;" text-anchor="middle"><textPath startOffset="21.40746469413373" xlink:href="#id23">November</textPath></text><path d="M 81.99639281039701 89.18935116829357 l -36.49423850464231 -21.913741657397665 a63.56808096991081,63.56808096991081 0 0,0 0.5697880607919384,-0.9307059760684444 l 36.11268247939498 22.536984749590655" fill="#4fff2b" stroke="none" /><path d="M 82.18462484594161 88.88188828441811 l -40.94771850020739 -25.554404824295567 a69.26741402122354,69.26741402122354 0 0,0 0.638191388568168,-1.0033428636012869 l 40.50300942001333 26.253561362575525" fill="#35ff63" stroke="none" /><path d="M 82.576782715395 88.27688183743585 l -33.266547414643945 -22.38321773941278 a61.095780491975916,61.095780491975916 0 0,0 0.5929498619782598,-0.8651315691475916 l 32.87740781585037 22.950984043630402" fill="#71ff27" stroke="none" /><path d="M 82.98947788004972 87.6856937992154 l -25.51578317992543 -18.471459301176896 a52.5,52.5 0 0,0 0.5347449510404532,-0.7254842268278416 l 25.194936209301158 18.9067498372736" fill="#f1ff19" stroke="none" /><path d="M 83.42222388311158 87.10902102172516 l -29.418864229895423 -22.876286763576186 a58.266527456504335,58.266527456504335 0 0,0 0.6207703886650079,-0.7843231071095864 l 29.021827410588852 23.377929814600456" fill="#99ff23" stroke="none" /><path d="M 83.64595745247003 86.82634096563983 l -29.009242056117643 -23.367791943908948 a58.250366776774705,58.250366776774705 0 0,0 0.6339669813022998,-0.7733366355995573 l 28.603828255576715 23.862330861207" fill="#99ff23" stroke="none" /><path d="M 84.10781606972428 86.27271002978789 l -29.690189316036882 -25.645678391331145 a60.2327434902748,60.2327434902748 0 0,0 0.682606025624072,-0.7766803529003691 l 29.245572226454215 26.151571022042813" fill="#7dff26" stroke="none" /><path d="M 84.58840730492382 85.73525988315684 l -23.118221329376738 -21.397880527466764 a52.50113408278805,52.50113408278805 0 0,0 0.6178737624186127,-0.6561605239345722 l 22.747491733221853 21.791582511345847" fill="#f1ff19" stroke="none" /><path d="M 85.08716467003674 85.21462403516908 l -26.45701789378979 -26.23089089450202 a58.25632071141194,58.25632071141194 0 0,0 0.7101947050295644,-0.7041247012897952 l 26.00283126863025 26.681195606020488" fill="#99ff23" stroke="none" /><path d="M 86.40962598614128 83.9905735841838 l -18.488709182107694 -21.779652927324907 a49.568963034301504,49.568963034301504 0 0,0 0.6534267236606778,-0.545111812804488 l 18.112108124285108 22.093826924041277" fill="#ffde14" stroke="none" /><path d="M 86.96720088162412 83.53348406188908 l -23.128136249921425 -29.221644615173936 a58.26681097720133,58.26681097720133 0 0,0 0.7896264267585458,-0.6140182854601904 l 22.623099878527636 29.614363952254934" fill="#99ff23" stroke="none" /><path d="M 87.83215693770416 82.88440491214696 l -20.626894090325127 -29.01430971475903 a56.59914223738333,56.59914223738333 0 0,0 0.7967135371773706,-0.5561679248412891 l 20.12578546197399 29.364122455405447" fill="#b1ff20" stroke="none" /><path d="M 88.4268655584334 82.4767994020092 l -23.477776586438107 -35.54834611108835 a63.60153641215809,63.60153641215809 0 0,0 0.916208503581226,-0.5938752827042474 l 22.864082450599856 35.946135235496506" fill="#4eff2b" stroke="none" /><path d="M 89.03521579738668 82.08984904055464 l -27.159905576842174 -44.363664613626284 a73.01725875988949,73.01725875988949 0 0,0 1.0746306137453134,-0.6452848069086282 l 26.394342206539424 44.82336342107084" fill="#3bff9b" stroke="none" /><line stroke="#e1ed5e" stroke-width="0.3" x1="56.869717070023135" x2="54.33264160355391" y1="26.7553504044142" y2="22.446841604673864" /><path d="M 56.362301976729285 25.89364864446614 a86.0,86.0 0 0,1 42.16139366436587,-11.88097634709845" fill="none" id="id24" stroke="none" /><text fill="#e1ed5e" style="font-size:6.75px; font-family:Arial;" text-anchor="middle"><textPath startOffset="22.145653131862474" xlink:href="#id24">December</textPath></text><path d="M 89.34428304082924 81.90426304109057 l -18.909598506079803 -32.11263229642279 a58.266527456504335,58.266527456504335 0 0,0 0.8662499401685466,-0.500129636141805 l 18.355556098050855 32.43250882984077" fill="#99ff23" stroke="none" /><path d="M 89.97174638481275 81.54914285379989 l -19.84606400828502 -36.514522466469636 a62.55931432994608,62.55931432994608 0 0,0 0.9479558807863263,-0.5047331126913879 l 19.21631931171213 36.8498260468836" fill="#5cff2a" stroke="none" /><path d="M 90.61103034731259 81.2157712731953 l -16.12873262650837 -32.26826946267666 a57.07460644627058,57.07460644627058 0 0,0 0.8801441107155563,-0.4305225891348138 l 15.57242826653076 32.54038580190869" fill="#aaff21" stroke="none" /><path d="M 91.5904679813234 80.7573450057729 l -23.98423085988708 -54.88061389310592 a80.89261316076073,80.89261316076073 0 0,0 1.277197771519763,-0.5451597817877608 l 23.038598013196886 55.28424832455308" fill="#48f8ff" stroke="none" /><path d="M 92.25597844496254 80.48000691201159 l -11.619273442177988 -29.288159345479016 a52.50878914160734,52.50878914160734 0 0,0 0.8407100653469984,-0.32520471378540433 l 11.11479111433746 29.48330394740246" fill="#f0ff19" stroke="none" /><path d="M 92.93061703081487 80.22567764915836 l -12.546352476282712 -35.094380835601015 a58.26964618417144,58.26964618417144 0 0,0 0.9447846757471531,-0.3286451537012947 l 11.942062028490556 35.30458442187089" fill="#99ff23" stroke="none" /><path d="M 93.61358852112211 79.99465700312896 l -13.808158190394044 -43.25385886385486 a66.40442202280767,66.40442202280767 0 0,0 1.0889040353476267,-0.3373452536248042 l 13.063613522174801 43.4845207052863" fill="#30ff36" stroke="none" /><path d="M 93.95794788825049 79.88797359093562 l -14.808881943336436 -49.2939516615422 a72.47034733535548,72.47034733535548 0 0,0 1.1945183394933017,-0.3477068795296947 l 13.96050359146151 49.54090223537442" fill="#3aff93" stroke="none" /><path d="M 94.6519064749342 79.69241777938228 l -8.024089810003735 -30.468775985039755 a52.507655058819296,52.507655058819296 0 0,0 0.8736141306047219,-0.2220692957582388 l 7.499870386173635 30.602030512633256" fill="#f0ff19" stroke="none" /><path d="M 95.35216902796891 79.52079915486377 l -6.969675698183129 -30.709677117664885 a52.49064381699864,52.49064381699864 0 0,0 0.8804370251526771,-0.1918871517835029 l 6.441476256411333 30.824795727582103" fill="#f1ff19" stroke="none" /><path d="M 96.41257539226777 79.30868818359171 l -8.804919962289016 -50.784438526056604 a72.54207807169922,72.54207807169922 0 0,0 1.2288023402563704,-0.20219895747505642 l 7.931840118979573 50.92810348202733" fill="#3aff94" stroke="none" /><path d="M 97.12497278360702 79.19773525538626 l -4.3123855617856055 -31.20227371261588 a52.49886591721196,52.49886591721196 0 0,0 0.8937861376659417,-0.11571850974272588 l 3.7761216022288697 31.271703818559004" fill="#f1ff19" stroke="none" /><path d="M 98.1996594967304 79.07731436759882 l -2.7705131038429824 -32.19756185392812 a53.316539607391334,53.316539607391334 0 0,0 0.9125532107710294,-0.07063738990353774 l 2.217390898296736 32.24037701082671" fill="#e4ff1b" stroke="none" /><path d="M 98.9189461498227 79.02784411241856 l -3.128705267266483 -60.69604634463752 a81.77663069404068,81.77663069404068 0 0,0 1.4025636076597015,-0.060232116172683786 l 2.086315899005961 60.740811029236035" fill="#49edff" stroke="none" /><path d="M 99.63950707515114 79.00309439819443 l -0.5408269934492752 -31.500461023260893 a52.5051033725462,52.5051033725462 0 0,0 0.9013199182981196,-0.007736747479744063 l 7.716524800399038e-15 31.505103372546202" fill="#f0ff19" stroke="none" /></svg>