<?xml version="1.0" encoding="utf-8" ?>
<svg baseProfile="full" height="200mm" version="1.1" viewBox="0,0,200,200" width="200mm" xmlns="http://www.w3.org/2000/svg" xmlns:ev="http://www.w3.org/2001/xml-events" xmlns:xlink="http://www.w3.org/1999/xlink"><defs /><rect fill="#1a1a1a" height="200" width="200" x="0" y="0" /><text alignment-baseline="middle" fill="#e1ed5e" style="dominant-baseline: central; font-size:9.0px; font-family:Arial;" text-anchor="middle" x="100.0" y="100.0">2024</text><line stroke="#e1ed5e" stroke-width="0.3" x1="100.0" x2="100.0" y1="15.0" y2="10.0" /><path d="M 100.0 14.0 a86.0,86.0 0 0,1 42.35913384403234,11.155469271406648" fill="none" id="id13" stroke="none" /><text fill="#e1ed5e" style="font-size:6.75px; font-family:Arial;" text-anchor="middle"><textPath startOffset="22.145653131862478" xlink:href="#id13">January</textPath></text><path d="M 100.36049292484886 79.00309439819443 l 0.7532716315135122 -43.874296135045284 a64.88076206604089,64.88076206604089 0 0,0 1.1134363248354875,0.028678170097212536 l -1.5063212704197408 43.85490024759803" fill="#e3ff1b" stroke="none" /><path d="M 101.08105385017728 79.02784411241856 l 2.2629416788629038 -43.900464020210954 a64.9587493706517,64.9587493706517 0 0,0 1.1131320399733748,0.06696325937410283 l -3.016218070968741 43.85514878301216" fill="#e1ff1b" stroke="none" /><path d="M 102.15924093988457 79.11130261209362 l 5.332003764011383 -51.58229961292127 a72.85714895264306,72.85714895264306 0 0,0 1.2429571800692918,0.13927594458734288 l -6.216696845681472 51.48316790782695" fill="#30ff32" stroke="none" /><path d="M 102.87502721639298 79.19773525538626 l 6.004591222483804 -43.446230902121115 a64.85920764616654,64.85920764616654 0 0,0 1.1016024303602798,0.16189762149985568 l -6.7495187584517655 43.33675220732238" fill="#e4ff1b" stroke="none" /><path d="M 103.58742460773223 79.30868818359171 l 7.62531366812992 -43.98078288952103 a65.63692050436,65.63692050436 0 0,0 1.108530280931769,0.20201114427231218 l -8.379178682612743 43.84340357131735" fill="#d0ff1d" stroke="none" /><path d="M 104.29559338865022 79.4440306129975 l 12.88678016595065 -61.66790816100754 a84.0,84.0 0 0,0 1.4089503335234634,0.30707416746512495 l -13.943492916093248 61.4376025354087" fill="#4dd2ff" stroke="none" /><path d="M 104.64783097203109 79.52079915486377 l 8.681412844884058 -38.25190682272883 a60.22467723969244,60.22467723969244 0 0,0 1.0062334664191168,0.23746835824322887 l -9.336778465043059 38.09724232083937" fill="#ffa00e" stroke="none" /><path d="M 105.3480935250658 79.69241777938227 l 11.158892986967865 -42.37213424967848 a64.81687635566206,64.81687635566206 0 0,0 1.0735483395150291,0.29260037379223836 l -11.884622727417586 42.1743333817421" fill="#e5ff1a" stroke="none" /><path d="M 106.04205211174951 79.88797359093562 l 15.937737134149005 -53.05154345150408 a76.39384196410336,76.39384196410336 0 0,0 1.2527111938696827,0.3880931300614443 l -16.846088960890317 52.770133733635994" fill="#39ff89" stroke="none" /><path d="M 106.72888874123014 80.10723608172694 l 13.089876690554426 -38.69789451696314 a61.8518287451116,61.8518287451116 0 0,0 1.0028662226747864,0.34884893071762524 l -13.752248685274232 38.46748715367693" fill="#ffcc13" stroke="none" /><path d="M 107.06938296918511 80.22567764915836 l 14.782948637974533 -41.35053836204035 a64.91358096606976,64.91358096606976 0 0,0 1.0460695239950635,0.38413121878367046 l -15.490607313623721 41.09067629424796" fill="#e2ff1b" stroke="none" /><path d="M 107.74402155503746 80.48000691201159 l 16.111003256949264 -40.61025269378745 a64.6893242085375,64.6893242085375 0 0,0 1.0287005346688756,0.41836355194252345 l -16.805758252808577 40.32770188526563" fill="#e8ff1a" stroke="none" /><path d="M 108.4095320186766 80.7573450057729 l 21.882016097357116 -50.07033511548839 a75.64303328936184,75.64303328936184 0 0,0 1.185386115374965,0.5302081319045341 l -22.738315615587712 49.687323232674004" fill="#37ff77" stroke="none" /><path d="M 109.06512990194946 81.05736502329252 l 20.293899673953405 -42.406445129369054 a68.01222130985383,68.01222130985383 0 0,0 1.048812418862676,0.5130267107262765 l -21.018872342078147 42.05182466854556" fill="#97ff23" stroke="none" /><path d="M 110.02825361518725 81.54914285379988 l 28.311660320295854 -52.09026618058531 a80.28697952211805,80.28697952211805 0 0,0 1.205282709987613,0.6685500017957852 l -29.201687218439567 51.59658326335638" fill="#43ffe1" stroke="none" /><line stroke="#e1ed5e" stroke-width="0.3" x1="143.13028292997686" x2="145.6673583964461" y1="26.7553504044142" y2="22.446841604673864" /><path d="M 143.63769802327073 25.89364864446614 a86.0,86.0 0 0,1 29.32050498858742,28.57503671076993" fill="none" id="id14" stroke="none" /><text fill="#e1ed5e" style="font-size:6.75px; font-family:Arial;" text-anchor="middle"><textPath startOffset="20.669276256404974" xlink:href="#id14">February</textPath></text><path d="M 110.65571695917076 81.90426304109057 l 28.0180125041786 -47.58071055469433 a76.21714445327564,76.21714445327564 0 0,0 1.1217248923446543,0.6735635680790114 l -28.83067015308069 47.0927329860794" fill="#38ff85" stroke="none" /><path d="M 111.27062007382361 82.28071324371311 l 29.50640141309445 -46.38896390439291 a75.97784732484286,75.97784732484286 0 0,0 1.094494783140403,0.7094382951207837 l -30.29838182849186 45.87561176756823" fill="#38ff7f" stroke="none" /><path d="M 117.01052211995028 87.68569379921539 l 32.235390433129325 -23.33593675116173 a60.795556792568014,60.795556792568014 0 0,0 0.6047273281157977,0.8506247190729612 l -32.63123285977508 22.779134805379265" fill="#ffaf10" stroke="none" /><line stroke="#e1ed5e" stroke-width="0.3" x1="172.87174338648825" x2="177.1583165268699" y1="56.24261187166439" y2="53.66864786411523" /><path d="M 173.72905801456457 55.72781907015455 a86.0,86.0 0 0,1 12.242430191666344,42.057860355516425" fill="none" id="id15" stroke="none" /><text fill="#e1ed5e" style="font-size:6.75px; font-family:Arial;" text-anchor="middle"><textPath startOffset="22.145653131862474" xlink:href="#id15">March</textPath></text><path d="M 118.18653347947321 89.5 l 40.72555733503056 -23.512911490277435 a68.02582298055486,68.02582298055486 0 0,0 0.5751960227766038,1.0163162580278535 l -41.123186722828535 22.810338462150465" fill="#97ff23" stroke="none" /><path d="M 118.70294669586156 90.45014215332178 l 38.95485111170883 -19.89062454194187 a64.73919717831939,64.73919717831939 0 0,0 0.4968890199906662,0.994110892740077 l -39.29056004491123 19.218981793038047" fill="#e7ff1a" stroke="none" /><path d="M 119.0197475246899 91.09779779509293 l 39.57817065279444 -18.524582284498 a64.69887574110868,64.69887574110868 0 0,0 0.462182688932331,1.0099525860123102 l -39.890337806581826 17.842440716271007" fill="#e8ff1a" stroke="none" /><path d="M 119.4528033332814 92.08871423366111 l 31.319153527503673 -12.737227086031835 a54.81015130874881,54.81015130874881 0 0,0 0.34697781620439405,0.8746107595205855 l -31.53319001867419 12.197715309297685" fill="#ff0000" stroke="none" /><path d="M 119.71291397450082 92.76114493625339 l 41.88702172779605 -15.381494574152562 a65.62188885019933,65.62188885019933 0 0,0 0.3792314891550213,1.0607779695666448 l -42.144893386995015 14.660181648205" fill="#d1ff1d" stroke="none" /><path d="M 119.94978838288452 93.4421083053983 l 41.509817737338096 -13.645101580007827 a64.69500847597767,64.69500847597767 0 0,0 0.3377550305741223,1.05801282267852 l -41.73793748368948 12.93051972363792" fill="#e8ff1a" stroke="none" /><path d="M 120.16314734710363 94.1308016681162 l 57.005060468668944 -16.593342301776474 a80.37100241515657,80.37100241515657 0 0,0 0.3742284671253056,1.328004808858625 l -57.28150742786883 15.612329569014836" fill="#43ffe3" stroke="none" /><path d="M 120.43855184770803 95.1765574152323 l 44.91479136437094 -10.599768465355236 a67.14860317305508,67.14860317305508 0 0,0 0.25512996165639107,1.1241496856951962 l -45.090132187585 9.827184445721013" fill="#acff21" stroke="none" /><path d="M 120.592083275326 95.88100663000786 l 43.77010480887627 -8.755246815053882 a65.63716413228471,65.63716413228471 0 0,0 0.21151953623411093,1.106759593225207 l -43.91395063739253 8.00258465679536" fill="#d0ff1d" stroke="none" /><path d="M 120.7213421655516 96.59031103205396 l 52.38706304085852 -8.620271287757783 a74.09155724897722,74.09155724897722 0 0,0 0.19573757339645512,1.256775633866137 l -52.52732210639324 7.719707471960205" fill="#33ff51" stroke="none" /><line stroke="#e1ed5e" stroke-width="0.3" x1="184.99686870605535" x2="189.99668451229388" y1="99.2704041080226" y2="99.22748670261217" /><path d="M 185.99683186730306 99.26182062694052 a86.0,86.0 0 0,1 -10.086455211305974,41.156179273409016" fill="none" id="id16" stroke="none" /><text fill="#e1ed5e" style="font-size:6.75px; font-family:Arial;" text-anchor="middle"><textPath startOffset="21.40746469413373" xlink:href="#id16">April</textPath></text><line stroke="#e1ed5e" stroke-width="0.3" x1="174.33088141563837" x2="178.70328620479359" y1="141.23008692659167" y2="143.65538615756765" /><path d="M 175.20536237346943 141.71514677278685 a86.0,86.0 0 0,1 -30.301960400862466,31.631185727798858" fill="none" id="id17" stroke="none" /><text fill="#e1ed5e" style="font-size:6.75px; font-family:Arial;" text-anchor="middle"><textPath startOffset="22.145653131862474" xlink:href="#id17">May</textPath></text><line stroke="#e1ed5e" stroke-width="0.3" x1="143.1302829299769" x2="145.66735839644613" y1="173.24464959558577" y2="177.55315839532614" /><path d="M 143.63769802327073 174.10635135553383 a86.0,86.0 0 0,1 -40.68552437913181,11.842963189579606" fill="none" id="id18" stroke="none" /><text fill="#e1ed5e" style="font-size:6.75px; font-family:Arial;" text-anchor="middle"><textPath startOffset="21.407464694133747" xlink:href="#id18">June</textPath></text><line stroke="#e1ed5e" stroke-width="0.3" x1="101.45913802915013" x2="101.54496967792366" y1="184.9874750549273" y2="189.98673829345242" /><path d="M 101.47630435890484 185.9873277026323 a86.0,86.0 0 0,1 -42.54439059252881,-10.42667462771756" fill="none" id="id19" stroke="none" /><text fill="#e1ed5e" style="font-size:6.75px; font-family:Arial;" text-anchor="middle"><textPath startOffset="22.145653131862474" xlink:href="#id19">July</textPath></text><line stroke="#e1ed5e" stroke-width="0.3" x1="58.13341422392154" x2="55.67067388415222" y1="173.97424548756322" y2="178.32567169271397" /><path d="M 57.64086615596768 174.84453072859336 a86.0,86.0 0 0,1 -31.369924170532247,-30.572349798747897" fill="none" id="id20" stroke="none" /><text fill="#e1ed5e" style="font-size:6.75px; font-family:Arial;" text-anchor="middle"><textPath startOffset="22.145653131862474" xlink:href="#id20">August</textPath></text><line stroke="#e1ed5e" stroke-width="0.3" x1="26.387840678322732" x2="22.057713659400548" y1="142.50000000000003" y2="145.00000000000006" /><path d="M 25.521815274538298 143.00000000000003 a86.0,86.0 0 0,1 -11.493303480769221,-40.785679425670985" fill="none" id="id21" stroke="none" /><text fill="#e1ed5e" style="font-size:6.75px; font-family:Arial;" text-anchor="middle"><textPath startOffset="21.40746469413373" xlink:href="#id21">September</textPath></text><line stroke="#e1ed5e" stroke-width="0.3" x1="15.003131293944662" x2="10.003315487706104" y1="100.72959589197737" y2="100.7725132973878" /><path d="M 14.003168132696942 100.73817937305945 a86.0,86.0 0 0,1 10.791469493833604,-42.45332614584628" fill="none" id="id22" stroke="none" /><text fill="#e1ed5e" style="font-size:6.75px; font-family:Arial;" text-anchor="middle"><textPath startOffset="22.145653131862435" xlink:href="#id22">October</textPath></text><line stroke="#e1ed5e" stroke-width="0.3" x1="26.387840678322718" x2="22.05771365940052" y1="57.49999999999999" y2="54.99999999999999" /><path d="M 25.521815274538284 56.99999999999999 a86.0,86.0 0 0,1 29.574782752854787,-30.34633250058573" fill="none" id="id23" stroke="none" /><text fill="#e1ed5e" style="font-size:6.75px; font-family:Arial;" text-anchor="middle"><textPath startOffset="21.40746469413373" xlink:href="#id23">November</textPath></text><line stroke="#e1ed5e" stroke-width="0.3" x1="56.869717070023135" x2="54.33264160355391" y1="26.7553504044142" y2="22.446841604673864" /><path d="M 56.362301976729285 25.89364864446614 a86.0,86.0 0 0,1 42.16139366436587,-11.88097634709845" fill="none" id="id24" stroke="none" /><text fill="#e1ed5e" style="font-size:6.75px; font-family:Arial;" text-anchor="middle"><textPath startOffset="22.145653131862474" xlink:href="#id24">December</textPath></text></svg>