<?xml version="1.0" encoding="utf-8" ?>
<svg baseProfile="full" height="200mm" version="1.1" viewBox="0,0,200,200" width="200mm" xmlns="http://www.w3.org/2000/svg" xmlns:ev="http://www.w3.org/2001/xml-events" xmlns:xlink="http://www.w3.org/1999/xlink"><defs /><rect fill="#1a1a1a" height="200" width="200" x="0" y="0" /><text alignment-baseline="middle" fill="#e1ed5e" style="dominant-baseline: central; font-size:9.0px; font-family:Arial;" text-anchor="middle" x="100.0" y="100.0">2025</text><line stroke="#e1ed5e" stroke-width="0.3" x1="100.0" x2="100.0" y1="15.0" y2="10.0" /><path d="M 100.0 14.0 a86.0,86.0 0 0,1 42.46469731375804,11.215312516191453" fill="none" id="id25" stroke="none" /><text fill="#e1ed5e" style="font-size:6.75px; font-family:Arial;" text-anchor="middle"><textPath startOffset="22.20632615414155" xlink:href="#id25">January</textPath></text><path d="M 100.0 79.0 l 0.0 -60.094238840137365 a81.09423884013736,81.09423884013736 0 0,0 1.3959040153416067,0.012014986562670929 l -1.0344235360690783 60.085335230183254" fill="#46fff9" stroke="none" /><path d="M 101.08401301168833 79.027996857942 l 2.5522641906748342 -49.37772153014002 a70.44363898427233,70.44363898427233 0 0,0 1.2104161125412793,0.07301560541151264 l -3.4018423520557257 49.326472655348205" fill="#3dff2e" stroke="none" /><path d="M 101.44485096284872 79.0497635885617 l 2.887170215728194 -41.86376320801349 a62.96320318792658,62.96320318792658 0 0,0 1.0805979113381454,0.08387519528365146 l -3.6073583164286807 41.80786275054137" fill="#d4ff1c" stroke="none" /><path d="M 102.16513564639614 79.11191278185805 l 4.367628120469708 -42.13657341452729 a63.36232989952944,63.36232989952944 0 0,0 1.0838980306243933,0.12178857296551177 l -5.092292854603826 42.05514888809118" fill="#cbff1d" stroke="none" /><path d="M 102.88285421437855 79.19881850522331 l 4.52639927463409 -32.66015061042049 a53.97231760566366,53.97231760566366 0 0,0 0.9191511892353289,0.13545899240164383 l -5.087919444298075 32.57739713385788" fill="#ff5407" stroke="none" /><path d="M 103.59715602781102 79.31037775812273 l 8.068706589662012 -46.40846547383147 a68.1046674297342,68.1046674297342 0 0,0 1.153254857794183,0.21074995384234824 l -8.866356568559096 46.26270003863838" fill="#6aff28" stroke="none" /><path d="M 103.95276090670814 79.375362276772 l 7.33930963385092 -38.294904728460885 a59.99186061299759,59.99186061299759 0 0,0 1.012530026657737,0.20310399795960346 l -7.997406069975782 38.16289677442408" fill="#ffe815" stroke="none" /><path d="M 104.66035177308747 79.52364482259891 l 8.412301432789212 -36.96143132196102 a58.90665140531604,58.90665140531604 0 0,0 0.986760221178379,0.23353426340882882 l -9.047285340930115 36.811151146411326" fill="#ffce13" stroke="none" /><path d="M 105.36241919743992 79.69619591428918 l 8.419059518300383 -31.877204812170955 a53.97024036627242,53.97024036627242 0 0,0 0.8961684159439466,0.24495668103551552 l -8.96652582346804 31.727561590309143" fill="#ff5407" stroke="none" /><path d="M 106.0581310904928 79.89281104454417 l 18.174393271478365 -60.321566866367476 a84.0,84.0 0 0,0 1.380858509157127,0.4290394604699177 l -19.21003715334621 59.99978727101504" fill="#4dd2ff" stroke="none" /><path d="M 106.40334571778207 80.00007090966166 l 10.049344733598918 -31.38768246078069 a53.95718343295604,53.95718343295604 0 0,0 0.8821156159976503,0.2908196496303588 l -10.588143171838986 31.210049086891097" fill="#ff5407" stroke="none" /><path d="M 107.08798089147638 80.2323363322302 l 11.131115751598003 -31.043558919467092 a53.97884607232184,53.97884607232184 0 0,0 0.871932315339672,0.3211400302791093 l -11.663830392710253 30.847355621381656" fill="#ff5407" stroke="none" /><path d="M 108.09893153111575 80.62456947434976 l 13.012972285747823 -31.131506605042755 a54.74178642587647,54.74178642587647 0 0,0 0.8662659408043999,0.3708898672777997 l -13.54692198434254 30.902897209802163" fill="#ff6809" stroke="none" /><path d="M 108.76106565485865 80.91482961587045 l 20.6289316913737 -44.9382177559756 a70.44690321760143,70.44690321760143 0 0,0 1.0977029371079832,0.51538624756163 l -21.39941283978128 44.57646652577397" fill="#3dff2e" stroke="none" /><line stroke="#e1ed5e" stroke-width="0.3" x1="143.23703022742887" x2="145.7803849466894" y1="26.81831364943548" y2="22.513508569990506" /><path d="M 143.74570117128098 25.957352633546492 a86.0,86.0 0 0,1 28.547481713284135,27.462654790039103" fill="none" id="id26" stroke="none" /><text fill="#e1ed5e" style="font-size:6.75px; font-family:Arial;" text-anchor="middle"><textPath startOffset="19.985693538727396" xlink:href="#id26">February</textPath></text><path d="M 112.19680574252982 82.90503203632743 l 22.64872387731349 -31.74431218090654 a59.99571834329561,59.99571834329561 0 0,0 0.8355251822959864,0.6070445781574623 l -23.191794375963266 31.349748367932403" fill="#ffe815" stroke="none" /><path d="M 112.77801427241765 83.33499621200491 l 18.13951861470851 -23.657443166193108 a50.81135274916275,50.81135274916275 0 0,0 0.689503874372465,0.53816871067694 l -18.544055044240405 23.341696066292943" fill="#ff0000" stroke="none" /><path d="M 113.6212207817346 84.01681056812373 l 21.3816229392088 -25.089273221133798 a53.96430539658316,53.96430539658316 0 0,0 0.7018088788346072,0.6086017439858401 l -21.81032561669017 24.717506483728286" fill="#ff5407" stroke="none" /><path d="M 114.16331599549186 84.49514656593476 l 22.248176353482005 -24.355504999378155 a53.98745177837127,53.98745177837127 0 0,0 0.6807357907104091,0.6326697281987459 l -22.66412002798726 23.96893068510477" fill="#ff5407" stroke="none" /><path d="M 114.68862486808459 84.99185889309783 l 27.71238532101937 -28.315202617121404 a60.61978040612149,60.61978040612149 0 0,0 0.7394579781793682,0.7362825106220944 l -28.195679099366057 27.83398425584919" fill="#fff617" stroke="none" /><path d="M 114.94478906791727 85.2469230424477 l 35.187104295890855 -34.73572328331577 a70.44393573275681,70.44393573275681 0 0,0 0.8444407633017335,0.8702704350211339 l -35.779809322895694 34.124888652744524" fill="#3dff2e" stroke="none" /><line stroke="#e1ed5e" stroke-width="0.3" x1="172.23445277983987" x2="176.4835382374775" y1="55.19839476539836" y2="52.563006222186495" /><path d="M 173.08426987136738 54.67131705675599 a86.0,86.0 0 0,1 12.851231095245387,41.99856678651699" fill="none" id="id27" stroke="none" /><text fill="#e1ed5e" style="font-size:6.75px; font-family:Arial;" text-anchor="middle"><textPath startOffset="22.20632615414155" xlink:href="#id27">March</textPath></text><line stroke="#e1ed5e" stroke-width="0.3" x1="184.98032266829074" x2="189.97916517819016" y1="98.17113171792111" y2="98.06355123074" /><path d="M 185.9800911702706 98.14961562048488 a86.0,86.0 0 0,1 -9.607161424134198,41.387399972396054" fill="none" id="id28" stroke="none" /><text fill="#e1ed5e" style="font-size:6.75px; font-family:Arial;" text-anchor="middle"><textPath startOffset="21.466115282336823" xlink:href="#id28">April</textPath></text><line stroke="#e1ed5e" stroke-width="0.3" x1="174.80103733775053" x2="179.2010983576182" y1="140.37084112569926" y2="142.7455964860345" /><path d="M 175.68104954172406 140.8457921977663 a86.0,86.0 0 0,1 -30.038265399797805,32.042727171017184" fill="none" id="id29" stroke="none" /><text fill="#e1ed5e" style="font-size:6.75px; font-family:Arial;" text-anchor="middle"><textPath startOffset="22.206326154141568" xlink:href="#id29">May</textPath></text><line stroke="#e1ed5e" stroke-width="0.3" x1="143.8653032363475" x2="146.44561519142675" y1="172.8068346515853" y2="177.08958963109032" /><path d="M 144.38136562736335 173.6633856474863 a86.0,86.0 0 0,1 -40.68145358897372,12.25698825130547" fill="none" id="id30" stroke="none" /><text fill="#e1ed5e" style="font-size:6.75px; font-family:Arial;" text-anchor="middle"><textPath startOffset="21.466115282336833" xlink:href="#id30">June</textPath></text><line stroke="#e1ed5e" stroke-width="0.3" x1="102.19456741930631" x2="102.32365962044197" y1="184.97166512339345" y2="189.96999836594603" /><path d="M 102.22038585953345 185.97133177190398 a86.0,86.0 0 0,1 -42.740103519485714,-10.115201625700543" fill="none" id="id31" stroke="none" /><text fill="#e1ed5e" style="font-size:6.75px; font-family:Arial;" text-anchor="middle"><textPath startOffset="22.20632615414155" xlink:href="#id31">July</textPath></text><line stroke="#e1ed5e" stroke-width="0.3" x1="58.666819895761336" x2="56.23545636021788" y1="174.27360380694188" y2="178.64263932499728" /><path d="M 58.180547188652646 175.14741091055294 a86.0,86.0 0 0,1 -31.652253787137756,-30.449443065178592" fill="none" id="id32" stroke="none" /><text fill="#e1ed5e" style="font-size:6.75px; font-family:Arial;" text-anchor="middle"><textPath startOffset="22.20632615414155" xlink:href="#id32">August</textPath></text><line stroke="#e1ed5e" stroke-width="0.3" x1="26.63291911575756" x2="22.317208475507996" y1="142.92168965132927" y2="145.44649492493687" /><path d="M 25.769776987707644 143.4266507060508 a86.0,86.0 0 0,1 -11.730757126820373,-40.83630448921669" fill="none" id="id33" stroke="none" /><text fill="#e1ed5e" style="font-size:6.75px; font-family:Arial;" text-anchor="middle"><textPath startOffset="21.46611528233685" xlink:href="#id33">September</textPath></text><line stroke="#e1ed5e" stroke-width="0.3" x1="15.007084014347285" x2="10.007500721073583" y1="101.09737516637583" y2="101.16192664675087" /><path d="M 14.007167355692545 101.11028546245083 a86.0,86.0 0 0,1 10.666146001902534,-42.60595125391555" fill="none" id="id34" stroke="none" /><text fill="#e1ed5e" style="font-size:6.75px; font-family:Arial;" text-anchor="middle"><textPath startOffset="22.20632615414155" xlink:href="#id34">October</textPath></text><line stroke="#e1ed5e" stroke-width="0.3" x1="26.266209847984243" x2="21.928928074336255" y1="57.711370442889674" y2="55.22380399835377" /><path d="M 25.398753493254645 57.213857153982495 a86.0,86.0 0 0,1 29.58750427330803,-30.492523968695096" fill="none" id="id35" stroke="none" /><text fill="#e1ed5e" style="font-size:6.75px; font-family:Arial;" text-anchor="middle"><textPath startOffset="21.46611528233685" xlink:href="#id35">November</textPath></text><line stroke="#e1ed5e" stroke-width="0.3" x1="56.762969772571076" x2="54.21961505331055" y1="26.818313649435495" y2="22.513508569990535" /><path d="M 56.25429882871897 25.957352633546506 a86.0,86.0 0 0,1 42.265352541879196,-11.944610805530505" fill="none" id="id36" stroke="none" /><text fill="#e1ed5e" style="font-size:6.75px; font-family:Arial;" text-anchor="middle"><textPath startOffset="22.20632615414155" xlink:href="#id36">December</textPath></text></svg>