<?xml version="1.0" encoding="utf-8" ?>
<svg baseProfile="full" height="200mm" version="1.1" viewBox="0,0,200,200" width="200mm" xmlns="http://www.w3.org/2000/svg" xmlns:ev="http://www.w3.org/2001/xml-events" xmlns:xlink="http://www.w3.org/1999/xlink"><defs /><rect fill="#1a1a1a" height="200" width="200" x="0" y="0" /><text alignment-baseline="middle" fill="#e1ed5e" style="dominant-baseline: central; font-size:9.0px; font-family:Arial;" text-anchor="middle" x="100.0" y="100.0">2023</text><line stroke="#e1ed5e" stroke-width="0.3" x1="100.0" x2="100.0" y1="15.0" y2="10.0" /><path d="M 100.0 14.0 a86.0,86.0 0 0,1 42.46469731375804,11.215312516191453" fill="none" id="id1" stroke="none" /><text fill="#e1ed5e" style="font-size:6.75px; font-family:Arial;" text-anchor="middle"><textPath startOffset="22.20632615414155" xlink:href="#id1">January</textPath></text><line stroke="#e1ed5e" stroke-width="0.3" x1="143.23703022742887" x2="145.7803849466894" y1="26.81831364943548" y2="22.513508569990506" /><path d="M 143.74570117128098 25.957352633546492 a86.0,86.0 0 0,1 28.547481713284135,27.462654790039103" fill="none" id="id2" stroke="none" /><text fill="#e1ed5e" style="font-size:6.75px; font-family:Arial;" text-anchor="middle"><textPath startOffset="19.985693538727396" xlink:href="#id2">February</textPath></text><line stroke="#e1ed5e" stroke-width="0.3" x1="172.23445277983987" x2="176.4835382374775" y1="55.19839476539836" y2="52.563006222186495" /><path d="M 173.08426987136738 54.67131705675599 a86.0,86.0 0 0,1 12.851231095245387,41.99856678651699" fill="none" id="id3" stroke="none" /><text fill="#e1ed5e" style="font-size:6.75px; font-family:Arial;" text-anchor="middle"><textPath startOffset="22.20632615414155" xlink:href="#id3">March</textPath></text><line stroke="#e1ed5e" stroke-width="0.3" x1="184.98032266829074" x2="189.97916517819016" y1="98.17113171792111" y2="98.06355123074" /><path d="M 185.9800911702706 98.14961562048488 a86.0,86.0 0 0,1 -9.607161424134198,41.387399972396054" fill="none" id="id4" stroke="none" /><text fill="#e1ed5e" style="font-size:6.75px; font-family:Arial;" text-anchor="middle"><textPath startOffset="21.466115282336823" xlink:href="#id4">April</textPath></text><path d="M 120.9904718944345 100.63252640178507 l 29.732441005464494 0.895956699785286 a50.74593731169547,50.74593731169547 0 0,0 -0.0338254708966802,0.8728851037421572 l -29.712613401716613 -1.4076190505414494" fill="#ffd714" stroke="none" /><path d="M 120.95626037817324 101.35467743843564 l 36.66687595183969 2.3702601844750273 a57.74340655695533,57.74340655695533 0 0,0 -0.07265616741328611,0.9913356787605208 l -36.62064322576207 -3.0010689997323183" fill="#b3ff20" stroke="none" /><path d="M 120.89721153311464 102.0752229133903 l 44.86912957012306 4.455783281910409 a66.08983026177681,66.08983026177681 0 0,0 -0.12216452880706236,1.1310918134329717 l -44.78578273981495 -5.227471417228172" fill="#39ff2e" stroke="none" /><path d="M 120.76222939487914 103.15116336523771 l 29.531988148282554 4.482183362180491 a50.8701906870798,50.8701906870798 0 0,0 -0.1388471469281018,0.8646013164612416 l -29.450459246993162 -4.989863908334938" fill="#ffda14" stroke="none" /><path d="M 120.64145759157962 103.86396538481128 l 29.424695545032655 5.508138392852522 a50.93580292012694,50.93580292012694 0 0,0 -0.16874320109959973,0.8604179469851199 l -29.32552241095739 -6.013820066905587" fill="#ffdb14" stroke="none" /><path d="M 120.5718875245553 104.21870165774334 l 32.34688205765684 6.633413914818448 a54.02003874948164,54.02003874948164 0 0,0 -0.1946418171486839,0.9093017701211816 l -32.22790620178372 -7.189229504355798" fill="#efff19" stroke="none" /><path d="M 120.49622156327973 104.57218783832717 l 26.355485480358467 5.879241196454986 a48.003279281440605,48.003279281440605 0 0,0 -0.1868457562829797,0.8049266278593094 l -26.250379158144934 -6.33203648166286" fill="#ffa70f" stroke="none" /><path d="M 120.23288151984713 105.62410040840565 l 26.50040461693795 7.366273374498663 a48.50515275887909,48.50515275887909 0 0,0 -0.23053197115717441,0.8025120345514687 l -26.369680008894676 -7.8213428845547135" fill="#ffb010" stroke="none" /><path d="M 120.02730092923936 106.31721596034902 l 28.44809960364881 8.973390348141855 a50.82978554061777,50.82978554061777 0 0,0 -0.27038480590806324,0.8321588658455784 l -28.2894225467245 -9.461748113965228" fill="#ffd914" stroke="none" /><path d="M 119.79798401119884 107.00284435728193 l 44.09665115040581 15.59764794784021 a67.77393787340714,67.77393787340714 0 0,0 -0.398497003024038,1.0964926046695085 l -43.82162988637655 -16.354388349515848" fill="#31ff40" stroke="none" /><path d="M 119.41010516605496 108.01547362559984 l 28.052044940581634 11.5841941319617 a51.34980690276937,51.34980690276937 0 0,0 -0.3444080913437842,0.8140789914312098 l -27.848485868045543 -12.065347649059074" fill="#ffe215" stroke="none" /><path d="M 119.12269723197855 108.67885076344098 l 27.619339713699766 12.535058451855118 a51.330770128900085,51.330770128900085 0 0,0 -0.37208791194182644,0.8014442598280748 l -27.39947718491811 -13.008622778962023" fill="#ffe215" stroke="none" /><path d="M 118.64920377521936 109.65438752849418 l 55.50526262736556 28.734165905114054 a83.50189172813447,83.50189172813447 0 0,0 -0.6717826269497555,1.270759562295957 l -55.00242749219092 -29.685340482496148" fill="#4cd8ff" stroke="none" /><line stroke="#e1ed5e" stroke-width="0.3" x1="174.80103733775053" x2="179.2010983576182" y1="140.37084112569926" y2="142.7455964860345" /><path d="M 175.68104954172406 140.8457921977663 a86.0,86.0 0 0,1 -30.038265399797805,32.042727171017184" fill="none" id="id5" stroke="none" /><text fill="#e1ed5e" style="font-size:6.75px; font-family:Arial;" text-anchor="middle"><textPath startOffset="22.206326154141568" xlink:href="#id5">May</textPath></text><path d="M 118.12598468904814 110.60418214915192 l 26.56494122030652 15.541195709596382 a51.77701847356754,51.77701847356754 0 0,0 -0.45667114383956625,0.7654071047502291 l -26.293489200768725 -15.996164908232716" fill="#ffe915" stroke="none" /><path d="M 117.35343817320211 111.8261652097733 l 28.028537435441823 19.101120538275826 a54.91830945946018,54.91830945946018 0 0,0 -0.5390862139124856,0.7765938980906647 l -27.6955903143672 -19.58075569855351" fill="#e0ff1b" stroke="none" /><path d="M 115.32070863581623 114.36230785411682 l 13.368443460326898 12.53216839191854 a39.324042271162746,39.324042271162746 0 0,0 -0.46719480571198907,0.4898518859688018 l -13.150742103235944 -12.76042739446985" fill="#ff0000" stroke="none" /><path d="M 114.81725581225074 114.88116024355365 l 20.765850353662813 20.855410112513372 a50.430743651356195,50.430743651356195 0 0,0 -0.620418334478666,0.6072099210373129 l -20.403782066808354 -21.209770136473256" fill="#ffd213" stroke="none" /><path d="M 114.29624159901734 115.38237550388516 l 26.269691684753177 28.265489154431908 a59.58801081101873,59.58801081101873 0 0,0 -0.7573365205635372,0.6918089552592028 l -25.779255614722775 -28.713490876277696" fill="#96ff23" stroke="none" /><path d="M 113.48314897796784 116.09983520530334 l 19.024113444926805 22.716139374474228 a50.630050294354604,50.630050294354604 0 0,0 -0.6729694966875726,0.5538080802438002 l -18.63027381969454 -23.040242573575206" fill="#ffd513" stroke="none" /><path d="M 112.34349029814194 116.9893568818739 l 37.03047089442582 50.96807064562168 a84.0,84.0 0 0,0 -1.1770906886044616,0.8398229526231229 l -36.14765287797247 -51.597937860089026" fill="#4dd2ff" stroke="none" /><path d="M 111.45004920935366 117.60387380957326 l 10.133481413697934 15.579717152015991 a39.585344551516464,39.585344551516464 0 0,0 -0.5743988027185456,0.36660849263371453 l -9.863800808932458 -15.751840073473515" fill="#ff0500" stroke="none" /><line stroke="#e1ed5e" stroke-width="0.3" x1="143.8653032363475" x2="146.44561519142675" y1="172.8068346515853" y2="177.08958963109032" /><path d="M 144.38136562736335 173.6633856474863 a86.0,86.0 0 0,1 -40.68145358897372,12.25698825130547" fill="none" id="id6" stroke="none" /><text fill="#e1ed5e" style="font-size:6.75px; font-family:Arial;" text-anchor="middle"><textPath startOffset="21.466115282336833" xlink:href="#id6">June</textPath></text><path d="M 110.8373102113329 117.98757091392108 l 11.985074399876028 19.89260909510083 a44.22408028278089,44.22408028278089 0 0,0 -0.6554264122962689,0.38723747720921864 l -11.640880116551378 -20.0959651446038" fill="#ff6008" stroke="none" /><path d="M 108.92500713936063 119.00905698771935 l 12.300220462380164 26.197804447655187 a49.941672054336074,49.941672054336074 0 0,0 -0.781306553082728,0.35865951785377664 l -11.847445913530017 -26.40565103584304" fill="#ffc912" stroke="none" /><path d="M 107.93186726928326 119.44442032107085 l 8.170419994035326 20.02921571556501 a42.63157980961096,42.63157980961096 0 0,0 -0.6818594834803537,0.2713259604528107 l -7.824439434513106 -20.16688852042389" fill="#ff4206" stroke="none" /><path d="M 106.91757812671514 119.82793768551818 l 9.592931758725102 27.496336094689163 a50.12169017003757,50.12169017003757 0 0,0 -0.8170557895974536,0.27718968514123193 l -9.11820623619042 -27.657388766728516" fill="#ffcc13" stroke="none" /><path d="M 106.2309692047433 120.05430185196036 l 9.66527667332645 31.107580461486968 a53.574516655505946,53.574516655505946 0 0,0 -0.8830229022256415,0.2660475568932664 l -9.128378796660563 -31.26934338748596" fill="#f6ff19" stroke="none" /><path d="M 105.53697534728816 120.25689768951611 l 10.11036478377238 36.98853835946206 a59.345422752009675,59.345422752009675 0 0,0 -0.9877044012961613,0.26086170948792387 l -9.47216993966472 -37.15709141825357" fill="#9aff23" stroke="none" /><path d="M 104.48393922423573 120.51570834832081 l 6.385694545500475 29.216954188151487 a50.90664653318685,50.90664653318685 0 0,0 -0.8576764863541934,0.17973444674779815 l -5.881826597716904 -29.322544615625826" fill="#ffda14" stroke="none" /><path d="M 103.7750983002368 120.6578951692458 l 5.293020522532145 28.964189641439717 a50.4438507644165,50.4438507644165 0 0,0 -0.8555061586979694,0.14874071162889996 l -4.793665392362126 -29.051008931589624" fill="#ffd213" stroke="none" /><path d="M 103.06178313531738 120.77559828337769 l 4.124180359582669 27.98444913049143 a49.28671519946121,49.28671519946121 0 0,0 -0.8403887403449778,0.11647022177217198 l -3.6418630280508615 -28.051293917756205" fill="#ffbe11" stroke="none" /><path d="M 101.98527174616119 120.90594882070398 l 3.3554944751145324 35.3351101180703 a56.49407486086485,56.49407486086485 0 0,0 -0.9688886702416761,0.08359979133935902 l -2.7467614871313146 -35.38763416168832" fill="#c7ff1e" stroke="none" /><path d="M 101.26447882468166 120.96189622390904 l 1.9791448276963528 32.809271045485225 a53.8689105506269,53.8689105506269 0 0,0 -0.9260628309687289,0.04786687049449329 l -1.4140939283141445 -32.83847772274192" fill="#f1ff19" stroke="none" /><line stroke="#e1ed5e" stroke-width="0.3" x1="102.19456741930631" x2="102.32365962044197" y1="184.97166512339345" y2="189.96999836594603" /><path d="M 102.22038585953345 185.97133177190398 a86.0,86.0 0 0,1 -42.740103519485714,-10.115201625700543" fill="none" id="id7" stroke="none" /><text fill="#e1ed5e" style="font-size:6.75px; font-family:Arial;" text-anchor="middle"><textPath startOffset="22.20632615414155" xlink:href="#id7">July</textPath></text><path d="M 100.54218724476979 120.99299961872073 l 0.8263371922440977 31.995028523919874 a53.0056976709106,53.0056976709106 0 0,0 -0.9123045620775913,0.01570615038529691 l -0.2754729402738386 -32.00451215158433" fill="#fffe18" stroke="none" /><path d="M 99.45781275523022 120.99299961872073 l -0.7875106205131389 30.491698791605927 a51.50186663428065,51.50186663428065 0 0,0 -0.88602744122535,-0.03051657656965662 l 1.3122584134131319 -30.473625416610176" fill="#ffe415" stroke="none" /><path d="M 98.73552117531835 120.96189622390904 l -1.9492001340260712 32.31286292150518 a53.371600073930104,53.371600073930104 0 0,0 -0.9165612620701526,-0.06321143093587614 l 2.5051241568751537 -32.27452314605302" fill="#faff18" stroke="none" /><path d="M 98.01472825383883 120.90594882070398 l -2.7740535868576677 29.21223375332738 a50.3436530473252,50.3436530473252 0 0,0 -0.8619969811245538,-0.08934951158656551 l 3.2764831645878147 -29.16015487328505" fill="#ffd013" stroke="none" /><path d="M 97.65516085044442 120.86867818915974 l -2.247754494486034 20.0046409164385 a41.130525538672046,41.130525538672046 0 0,0 -0.7028865567292324,-0.08510977335864478 l 2.5917684742666554 -19.962985614354505" fill="#ff2403" stroke="none" /><path d="M 96.93821686468263 120.77559828337769 l -4.627830814099913 31.401947710842933 a52.74112691884846,52.74112691884846 0 0,0 -0.8970113832516238,-0.14009473009307102 l 5.167678060960054 -31.317634673402754" fill="#fffa17" stroke="none" /><path d="M 96.22490169976321 120.6578951692458 l -5.865306492558603 32.09582294881494 a53.6273454484628,53.6273454484628 0 0,0 -0.9066402085121666,-0.17375975378323497 l 6.416914315642464 -31.990105996683237" fill="#f5ff19" stroke="none" /><path d="M 95.51606077576429 120.51570834832081 l -6.1692589440796395 28.22667991080561 a49.89299594549142,49.89299594549142 0 0,0 -0.8374417027242536,-0.1905990050639311 l 6.654220796196756 -28.116304172163993" fill="#ffc812" stroke="none" /><path d="M 94.46302465271185 120.25689768951611 l -7.734781141555261 28.29751992882218 a50.33558374107881,50.33558374107881 0 0,0 -0.8338181294657844,-0.23564533217120773 l 8.22073043912566 -28.16018580331245" fill="#ffd013" stroke="none" /><path d="M 93.76903079525671 120.05430185196036 l -8.807171436085596 28.34577874446426 a50.68247700807201,50.68247700807201 0 0,0 -0.8308997624665891,-0.26602786499212616 l 9.293792543643125 -28.189978032812423" fill="#ffd614" stroke="none" /><path d="M 93.08242187328487 119.8279376855182 l -10.208380841063594 29.260405228377735 a51.99003635888589,51.99003635888589 0 0,0 -0.8424377340513417,-0.30206819893188885 l 10.710538135744661 -29.080349488405886" fill="#ffed16" stroke="none" /><path d="M 92.7421414339146 119.70592522655815 l -9.951679960114765 27.019961795484683 a49.79434440055897,49.79434440055897 0 0,0 -0.8017595561689259,-0.3031568603049731 l 10.415309737043973 -26.844656685073076" fill="#ffc712" stroke="none" /><path d="M 91.40352486487194 119.15986991738527 l -14.966093084048126 33.35650858688491 a57.560095832851964,57.560095832851964 0 0,0 -0.9004920784660125,-0.41337174687637346 l 15.538053158281556 -33.09394976967446" fill="#b6ff1f" stroke="none" /><path d="M 90.7491055286396 118.85261126421891 l -13.569442206167 27.653479323230457 a51.80332255564066,51.80332255564066 0 0,0 -0.7971448215668949,-0.3997049619886813 l 14.043440935416657 -27.415806520332474" fill="#ffea16" stroke="none" /><path d="M 90.42595943632237 118.69057910512821 l -13.218452240801199 25.805251775448077 a49.99376655139184,49.99376655139184 0 0,0 -0.7625456306370187,-0.3989278338170911 l 13.660688773964713 -25.57389452268627" fill="#ffca12" stroke="none" /><line stroke="#e1ed5e" stroke-width="0.3" x1="58.666819895761336" x2="56.23545636021788" y1="174.27360380694188" y2="178.64263932499728" /><path d="M 58.180547188652646 175.14741091055294 a86.0,86.0 0 0,1 -31.652253787137756,-30.449443065178592" fill="none" id="id8" stroke="none" /><text fill="#e1ed5e" style="font-size:6.75px; font-family:Arial;" text-anchor="middle"><textPath startOffset="22.20632615414155" xlink:href="#id8">August</textPath></text><path d="M 89.7882731507175 118.34994917583269 l -15.812721031681294 28.41464832986207 a53.51821622007439,53.51821622007439 0 0,0 -0.8011198695694206,-0.45489676988579025 l 16.299489668171923 -28.138248394181648" fill="#f7ff18" stroke="none" /><path d="M 89.1626897886671 117.98757091392108 l -16.889397578468003 28.032715748821886 a53.72743348962469,53.72743348962469 0 0,0 -0.7880555737646603,-0.484088098283249 l 17.369432352164974 -27.73783918371026" fill="#f4ff19" stroke="none" /><path d="M 88.54995079064634 117.60387380957326 l -17.182781019591243 26.417660154622972 a52.51413542543059,52.51413542543059 0 0,0 -0.7535160798799199,-0.49938936976842796 l 17.634971798211122 -26.117972763763223" fill="#fff617" stroke="none" /><path d="M 87.65650970185807 116.9893568818739 l -19.20122488738762 26.428218785901475 a53.667074943611176,53.667074943611176 0 0,0 -0.7426885034422233,-0.5494231996720833 l 19.653298361248407 -26.093785637489624" fill="#f5ff19" stroke="none" /><path d="M 87.07902340077011 116.55440617244103 l -18.330985100273598 23.485730398194562 a50.792692847125,50.792692847125 0 0,0 -0.6845948159565415,-0.5438835256034569 l 18.7325374089475 -23.166712958585975" fill="#ffd814" stroke="none" /><path d="M 86.51685102203217 116.09983520530335 l -28.36177065546688 33.865963687693835 a65.17344826034639,65.17344826034639 0 0,0 -0.8538793155685841,-0.7276944772436972 l 28.940515447612523 -33.37274482022719" fill="#45ff2d" stroke="none" /><path d="M 85.70375840098266 115.38237550388516 l -20.84409653085805 22.42769315670542 a51.61825894003543,51.61825894003543 0 0,0 -0.6456317578420552,-0.6104851253421193 l 21.22706412309092 -22.06557339461737" fill="#ffe615" stroke="none" /><path d="M 85.18274418774928 114.88116024355367 l -20.666632541094724 20.755764389543575 a50.29012557130612,50.29012557130612 0 0,0 -0.6081737550460784,-0.6160768029583122 l 21.020846921196338 -20.3969470926046" fill="#ffcf13" stroke="none" /><path d="M 84.67929136418377 114.36230785411682 l -26.707591205575586 25.036873688704787 a57.60792908794892,57.60792908794892 0 0,0 -0.6719651980009722,-0.7292855076916366 l 27.13460281157229 -24.573436926211805" fill="#b5ff20" stroke="none" /><path d="M 83.95833913139862 113.55231037782056 l -22.41444972360759 18.93616765062985 a50.34256297096238,50.34256297096238 0 0,0 -0.5535380555050833,-0.6667722465911807 l 22.73708377900621 -18.54753414692491" fill="#ffd013" stroke="none" /><path d="M 83.50135304334701 112.99209946851258 l -22.99906745022656 18.110950114965732 a50.27394093125912,50.27394093125912 0 0,0 -0.5295358574083824,-0.6844964778522599 l 23.307410124853007 -17.71237564300022" fill="#ffcf13" stroke="none" /><path d="M 83.06392112726016 112.41649034213515 l -35.60643127506701 26.104443263805276 a65.15042362491326,65.15042362491326 0 0,0 -0.6552898097557766,-0.910140232484371 l 36.050500877198395 -25.48766942586977" fill="#46ff2d" stroke="none" /><path d="M 82.44556493220864 111.52570212397912 l -24.476837876820507 16.07073888824706 a50.28112431008023,50.28112431008023 0 0,0 -0.4687999811356147,-0.7275879814046644 l 24.749842721333167 -15.647029306920947" fill="#ffcf13" stroke="none" /><path d="M 82.05923443525364 110.91462005526583 l -27.92218431463092 16.987013837701195 a53.68343641697538,53.68343641697538 0 0,0 -0.4734856706029442,-0.7935892187754251 l 28.21045086093209 -16.503862525039658" fill="#f5ff19" stroke="none" /><line stroke="#e1ed5e" stroke-width="0.3" x1="26.63291911575756" x2="22.317208475507996" y1="142.92168965132927" y2="145.44649492493687" /><path d="M 25.769776987707644 143.4266507060508 a86.0,86.0 0 0,1 -11.730757126820373,-40.83630448921669" fill="none" id="id9" stroke="none" /><text fill="#e1ed5e" style="font-size:6.75px; font-family:Arial;" text-anchor="middle"><textPath startOffset="21.46611528233685" xlink:href="#id9">September</textPath></text><path d="M 81.51974371655577 109.97397251340807 l -54.316802221114905 29.3153019125043 a82.72278290671113,82.72278290671113 0 0,0 -0.6655146040355292,-1.2589028251083303 l 54.81336933337532 -28.375984072309844" fill="#4be2ff" stroke="none" /><path d="M 81.18737489456691 109.33194174019688 l -21.376630911753598 10.603808514345237 a44.86212698286219,44.86212698286219 0 0,0 -0.33720669740865433,-0.6947456739864087 l 21.555990865776973 -10.234273884393543" fill="#ff6d0a" stroke="none" /><path d="M 80.87730276802145 108.67885076344099 l -28.65217328706545 13.003810759020372 a52.46499846382391,52.46499846382391 0 0,0 -0.36615301259205235,-0.8255783818227985 l 28.871767384388786 -12.508684040704878" fill="#fff517" stroke="none" /><path d="M 80.58989483394504 108.01547362559985 l -40.99342892481286 16.92838578455382 a65.35122839656606,65.35122839656606 0 0,0 -0.4204181005449732,-1.0434432473151336 l 41.27874963961522 -16.220243169395882" fill="#43ff2d" stroke="none" /><path d="M 80.20201598880116 107.00284435728193 l -27.645014966929597 9.778457087278689 a50.32345606386656,50.32345606386656 0 0,0 -0.281833326273157,-0.8191395694055256 l 27.809239124145986 -9.301144814783866" fill="#ffd013" stroke="none" /><path d="M 79.97269907076064 106.31721596034903 l -27.912735558177086 8.804520348904312 a50.268419583486114,50.268419583486114 0 0,0 -0.25319299906482706,-0.8274493705927416 l 28.060155329748042 -8.322744005759523" fill="#ffcf13" stroke="none" /><path d="M 79.35854240842038 103.8639653848113 l -23.440779193074317 4.387982728118604 a44.84794585704884,44.84794585704884 0 0,0 -0.13551246278139006,-0.7600258570788446 l 23.512838098194898 -3.983838120306545" fill="#ff6c0a" stroke="none" /><path d="M 79.23777060512086 103.15116336523772 l -41.79530240394173 6.343433706922491 a63.27394533552621,63.27394533552621 0 0,0 -0.15416530757219224,-1.0782318020944126 l 41.89830176253052 -5.623056432847678" fill="#60ff29" stroke="none" /><path d="M 79.10278846688536 102.07522291339032 l -31.502326430246846 3.128376698946387 a52.65727896216508,52.65727896216508 0 0,0 -0.0818078564329192,-0.9027428787985462 l 31.551508882956842 -2.5856524315992746" fill="#fff817" stroke="none" /><path d="M 79.0095281055655 100.63252640178507 l -32.15959117531191 0.96909638769925 a53.174189226332516,53.174189226332516 0 0,0 -0.019694548122760298,-0.91512826302378 l 32.171507786119676 -0.41537830888534105" fill="#fdff18" stroke="none" /><line stroke="#e1ed5e" stroke-width="0.3" x1="15.007084014347285" x2="10.007500721073583" y1="101.09737516637583" y2="101.16192664675087" /><path d="M 14.007167355692545 101.11028546245083 a86.0,86.0 0 0,1 10.666146001902534,-42.60595125391555" fill="none" id="id10" stroke="none" /><text fill="#e1ed5e" style="font-size:6.75px; font-family:Arial;" text-anchor="middle"><textPath startOffset="22.20632615414155" xlink:href="#id10">October</textPath></text><path d="M 79.00486145842228 99.54816195383935 l -31.95494344468106 -0.687704879042618 a52.962342663725764,52.962342663725764 0 0,0 0.027460484250831963,-0.9112797841290933 l 31.938371265974585 1.2376548105967058" fill="#fffd18" stroke="none" /><path d="M 79.03285615573316 98.82574320788736 l -29.109534454321736 -1.6302682331037146 a50.15514998519492,50.15514998519492 0 0,0 0.05569468836856003,-0.8615721780090361 l 29.07715917494876 2.131099475365762" fill="#ffcd13" stroke="none" /><path d="M 79.12142395522702 97.74499172005258 l -31.030346266392684 -3.3514588164583787 a52.21081007616827,52.21081007616827 0 0,0 0.10419698188994644,-0.8926961088085533 l 30.96805893149915 3.8850986635917937" fill="#fff116" stroke="none" /><path d="M 79.21141760316559 97.0276538004421 l -28.515361555005956 -4.077119109379385 a49.80535965484164,49.80535965484164 0 0,0 0.12864986840052894,-0.8476418927748328 l 28.440955793166125 4.56736011454631" fill="#ffc712" stroke="none" /><path d="M 79.32604984820605 96.31383870115002 l -22.474763595724564 -4.007245986329981 a43.829214158149725,43.829214158149725 0 0,0 0.13882230720614155,-0.741594316094209 l 22.402455564608562 4.393518379886763" fill="#ff5908" stroke="none" /><path d="M 79.46518482838121 95.60439243477599 l -44.548758723051975 -9.535944649505678 a66.55794271170654,66.55794271170654 0 0,0 0.24945160385752993,-1.1182426275492026 l 44.37801273219241 10.30136544660484" fill="#33ff2f" stroke="none" /><path d="M 79.71946130924805 94.55025226153421 l -31.417515327024944 -8.442454892963204 a53.53206593414512,53.53206593414512 0 0,0 0.2467910562542426,-0.8878387366426015 l 31.26753750020434 8.982004933024749" fill="#f7ff18" stroke="none" /><path d="M 79.91906864156998 93.8553929516997 l -28.109732003895257 -8.601356894955863 a50.39626462265602,50.39626462265602 0 0,0 0.2609674960133482,-0.827338278161478 l 27.957509024113705 9.083945339543755" fill="#ffd113" stroke="none" /><path d="M 80.14247586403 93.16781622104843 l -20.226087262286093 -6.958991682892385 a42.389767908609414,42.389767908609414 0 0,0 0.24333123459857464,-0.6879301675466266 l 20.103302946877708 7.306119476865622" fill="#ff3d05" stroke="none" /><path d="M 80.52162464483688 92.15188598940014 l -30.166581713718497 -12.15454411789965 a53.52315475172149,53.52315475172149 0 0,0 0.3516683145319721,-0.8515927177196589 l 29.952891712300325 12.67201140607262" fill="#f7ff18" stroke="none" /><path d="M 80.803312248108 91.48605970444005 l -26.874969524052915 -11.919341968263668 a50.39956972261983,50.39956972261983 0 0,0 0.3585513782192103,-0.7900204341198086 l 26.665815828870354 12.380184411225548" fill="#ffd113" stroke="none" /><path d="M 81.10775173730289 90.83032412892265 l -38.64755603869838 -18.75825244070601 a63.95934848660516,63.95934848660516 0 0,0 0.4892585196379243,-0.9863153206305018 l 38.31893750610705 19.42072734983547" fill="#56ff2a" stroke="none" /><line stroke="#e1ed5e" stroke-width="0.3" x1="26.266209847984243" x2="21.928928074336255" y1="57.711370442889674" y2="55.22380399835377" /><path d="M 25.398753493254645 57.213857153982495 a86.0,86.0 0 0,1 29.58750427330803,-30.492523968695096" fill="none" id="id11" stroke="none" /><text fill="#e1ed5e" style="font-size:6.75px; font-family:Arial;" text-anchor="middle"><textPath startOffset="21.46611528233685" xlink:href="#id11">November</textPath></text><path d="M 81.78341655067845 89.55222093294921 l -20.784498405452155 -11.920558427640891 a44.960281450622475,44.960281450622475 0 0,0 0.39081259104297317,-0.6680254018551258 l 20.576226139938857 12.276563241849908" fill="#ff6e0a" stroke="none" /><path d="M 82.54541684631803 88.32363383020206 l -51.94036046150635 -34.74586946018874 a83.49061121013051,83.49061121013051 0 0,0 0.8093640851783702,-1.1876419247167318 l 51.334571910659236 35.63478940817589" fill="#4cd8ff" stroke="none" /><path d="M 85.83668400450813 84.49514656593479 l -18.994240276662865 -20.793358820407253 a49.16282895452461,49.16282895452461 0 0,0 0.629726705117417,-0.5653748535344808 l 18.633502583949475 21.117232682711013" fill="#ffbb11" stroke="none" /><path d="M 86.37877921826538 84.01681056812374 l -18.728125841416166 -21.97565018759296 a49.87337698814211,49.87337698814211 0 0,0 0.6581919304124062,-0.5512168131338027 l 18.347076374044647 22.294768158120576" fill="#ffc812" stroke="none" /><path d="M 86.93701828274178 83.55741782278169 l -19.828140988466348 -24.957995401126368 a52.87564445624816,52.87564445624816 0 0,0 0.7175160616664628,-0.5600326671818543 l 19.39559237164046 25.295606457531445" fill="#fffc17" stroke="none" /><path d="M 87.80319425747018 82.90503203632743 l -26.035257094933378 -36.49085632412061 a65.82652347959734,65.82652347959734 0 0,0 0.9280563710368483,-0.6501627960868432 l 25.40326958431287 36.93360396297139" fill="#3cff2e" stroke="none" /><path d="M 88.39885842347998 82.49532879139004 l -16.44333518473164 -24.81093555174391 a50.76517755616827,50.76517755616827 0 0,0 0.7325487019730678,-0.4764700529310949 l 16.013819456974286 25.090304528834537" fill="#ffd814" stroke="none" /><path d="M 89.00827224532344 82.1063720568725 l -17.02581379188603 -27.716623284393034 a53.52828832823723,53.52828832823723 0 0,0 0.7892565998505382,-0.4755182703575844 l 16.546195125817842 28.005588164209236" fill="#f7ff18" stroke="none" /><line stroke="#e1ed5e" stroke-width="0.3" x1="56.762969772571076" x2="54.21961505331055" y1="26.818313649435495" y2="22.513508569990535" /><path d="M 56.25429882871897 25.957352633546506 a86.0,86.0 0 0,1 42.265352541879196,-11.944610805530505" fill="none" id="id12" stroke="none" /><text fill="#e1ed5e" style="font-size:6.75px; font-family:Arial;" text-anchor="middle"><textPath startOffset="22.20632615414155" xlink:href="#id12">December</textPath></text><path d="M 89.63071344664047 81.73862282372117 l -22.336293885914326 -39.33650451956507 a66.23572274625107,66.23572274625107 0 0,0 0.9962985361163565,-0.5544390566792182 l 21.655871260725924 39.71515897380447" fill="#37ff2e" stroke="none" /><path d="M 90.58718382345135 81.22770947309562 l -14.664940355431341 -29.246775433451926 a53.7174930103626,53.7174930103626 0 0,0 0.8301366640966321,-0.40734445582826667 l 14.159332424324282 29.494875049415022" fill="#f4ff19" stroke="none" /><path d="M 91.23893434514133 80.91482961587045 l -13.70825716915076 -29.86216906131929 a53.85826312607512,53.85826312607512 0 0,0 0.8458770593952923,-0.37952037982621023 l 13.192197991288694 30.093709771662027" fill="#f2ff19" stroke="none" /><path d="M 91.90106846888425 80.62456947434976 l -15.97942082589842 -38.22827207055915 a62.433593561648124,62.433593561648124 0 0,0 0.9951205164117458,-0.40593464463248424 l 15.319016439898292 38.49766760137521" fill="#6cff28" stroke="none" /><path d="M 92.91201910852362 80.23233633223022 l -10.121605000032302 -28.228135273228705 a50.9879060419426,50.9879060419426 0 0,0 0.8287185670116836,-0.28912363571476446 l 9.634204428957332 28.39817976211568" fill="#ffdc14" stroke="none" /><path d="M 93.59665428221793 80.00007090966166 l -9.788315025639161 -30.572393722712157 a53.101127222851275,53.101127222851275 0 0,0 0.8729183734703229,-0.2712199877861379 l 9.260611279458109 30.736353845380822" fill="#feff18" stroke="none" /><path d="M 94.28887869178378 79.79150937346287 l -6.3305563139330685 -22.40032754107947 a44.27768496203008,44.27768496203008 0 0,0 0.7352248669784252,-0.20096472942545635 l 5.94403355773092 22.505978811331225" fill="#ff6109" stroke="none" /><path d="M 94.63758080256005 79.69619591428918 l -11.43571464199792 -43.29920901783818 a65.78389298557735,65.78389298557735 0 0,0 1.0973101419307125,-0.27972878780762833 l 10.688695611382208 43.489640801814666" fill="#3dff2e" stroke="none" /><path d="M 95.33964822691252 79.52364482259891 l -6.53926517239684 -28.731804547985373 a50.46656718348025,50.46656718348025 0 0,0 0.8486969232305335,-0.18549227542869967 l 6.0437255250127855 28.840110321509943" fill="#ffd213" stroke="none" /><path d="M 96.75951476605007 79.25152402106235 l -4.189031593165242 -26.821915580789586 a48.14706505520513,48.14706505520513 0 0,0 0.8199468554791042,-0.1208388523747606 l 3.7267157572574896 26.890048917325316" fill="#ffa90f" stroke="none" /><path d="M 97.11714578562143 79.19881850522333 l -6.458532589085299 -46.6014229597291 a68.04684118063447,68.04684118063447 0 0,0 1.161609063562973,-0.15081019485382877 l 5.655408797014468 46.70569147774707" fill="#32ff44" stroke="none" /><path d="M 98.55514903715128 79.0497635885617 l -2.2386267143734764 -32.45992846945031 a53.53703129986105,53.53703129986105 0 0,0 0.9199139374024208,-0.05549172088010378 l 1.6795507281314328 32.49365345971072" fill="#f7ff18" stroke="none" /><path d="M 99.63851952072746 79.00311137660856 l -1.0721281446796984 -62.275438190039374 a83.28466633546357,83.28466633546357 0 0,0 1.4336086239522188,-0.012339522032751984 l 1.5255343452737272e-14 62.28466633546357" fill="#4cdbff" stroke="none" /></svg>