<?xml version="1.0" encoding="utf-8" ?>
<svg baseProfile="full" height="200mm" version="1.1" viewBox="0,0,200,200" width="200mm" xmlns="http://www.w3.org/2000/svg" xmlns:ev="http://www.w3.org/2001/xml-events" xmlns:xlink="http://www.w3.org/1999/xlink"><defs /><rect fill="#1a1a1a" height="200" width="200" x="0" y="0" /><text alignment-baseline="middle" fill="#e1ed5e" style="dominant-baseline: central; font-size:9.0px; font-family:Arial;" text-anchor="middle" x="100.0" y="100.0">2024</text><line stroke="#e1ed5e" stroke-width="0.3" x1="100.0" x2="100.0" y1="15.0" y2="10.0" /><path d="M 100.0 14.0 a86.0,86.0 0 0,1 42.35913384403234,11.155469271406648" fill="none" id="id13" stroke="none" /><text fill="#e1ed5e" style="font-size:6.75px; font-family:Arial;" text-anchor="middle"><textPath startOffset="22.145653131862478" xlink:href="#id13">January</textPath></text><path d="M 100.36049292484886 79.00309439819443 l 0.7519189158727607 -43.795507230583844 a64.80196155014258,64.80196155014258 0 0,0 1.1120840078462442,0.028643339208568232 l -1.5036162377897462 43.77614617402523" fill="#62ff29" stroke="none" /><path d="M 101.08105385017728 79.02784411241856 l 2.25714893644387 -43.788086364825276 a64.84622251476958,64.84622251476958 0 0,0 1.111203781657853,0.06684726014212883 l -3.0084970702341853 43.742887126858456" fill="#61ff29" stroke="none" /><path d="M 102.15924093988457 79.11130261209362 l 5.3243100593380905 -51.507869999373405 a72.78232275091877,72.78232275091877 0 0,0 1.2416806304646542,0.13913290454151556 l -6.207726591403541 51.40888133432492" fill="#38ff81" stroke="none" /><path d="M 102.87502721639298 79.19773525538626 l 5.996170255370596 -43.385300978990024 a64.79769855561983,64.79769855561983 0 0,0 1.1005577280567125,0.1617440862375309 l -6.740053089034991 43.275975819453606" fill="#62ff29" stroke="none" /><path d="M 103.58742460773223 79.30868818359171 l 7.630798208668827 -44.01241626188951 a65.6690258066063,65.6690258066063 0 0,0 1.1090725016734646,0.20210995495377232 l -8.385205443893344 43.87493813300437" fill="#55ff2b" stroke="none" /><path d="M 104.29559338865022 79.4440306129975 l 12.88678016595065 -61.66790816100754 a84.0,84.0 0 0,0 1.4089503335234634,0.30707416746512495 l -13.943492916093248 61.4376025354087" fill="#4dd2ff" stroke="none" /><path d="M 104.64783097203109 79.52079915486377 l 8.698783576425848 -38.32844547101702 a60.30316231468177,60.30316231468177 0 0,0 1.0075447944774536,0.23777782809443512 l -9.355460524643187 38.17347149927636" fill="#abff21" stroke="none" /><path d="M 105.3480935250658 79.69241777938227 l 11.14782310728007 -42.330100113424386 a64.77340900185567,64.77340900185567 0 0,0 1.0728283988433143,0.2924041507607285 l -11.872832907058076 42.13249546851952" fill="#62ff29" stroke="none" /><path d="M 106.04205211174951 79.88797359093562 l 15.962661812685537 -53.134509600039834 a76.48047118205554,76.48047118205554 0 0,0 1.2541317454253416,0.3885332205646243 l -16.87243419098251 52.852659791668565" fill="#3fffbd" stroke="none" /><path d="M 106.72888874123014 80.10723608172694 l 13.170517022734472 -38.936293330205444 a62.10349689432688,62.10349689432688 0 0,0 1.0069467727780206,0.35026835786360716 l -13.83696956755751 38.70446653977324" fill="#8dff24" stroke="none" /><path d="M 107.06938296918511 80.22567764915836 l 14.751752204787921 -41.263276386176614 a64.82091020544263,64.82091020544263 0 0,0 1.0445761530083641,0.38358283227201095 l -15.457917509450409 41.00396270489588" fill="#62ff29" stroke="none" /><path d="M 107.74402155503746 80.48000691201159 l 16.115617641906717 -40.62188395821959 a64.70183735605625,64.70183735605625 0 0,0 1.0288995208493685,0.4184444778898258 l -16.810571623946526 40.33925222375047" fill="#63ff29" stroke="none" /><path d="M 108.4095320186766 80.7573450057729 l 21.85449955944138 -50.00737189178318 a75.5743199180414,75.5743199180414 0 0,0 1.1843093225394337,0.5297264961654528 l -22.709722284836445 49.62484164470787" fill="#3dffaf" stroke="none" /><path d="M 109.06512990194946 81.05736502329252 l 20.345819491077297 -42.51493757839881 a68.13249715492113,68.13249715492113 0 0,0 1.0506671855144085,0.5139339700391812 l -21.072646925853775 42.15940985826241" fill="#30ff2f" stroke="none" /><path d="M 110.02825361518725 81.54914285379988 l 28.25555200956492 -51.98703320845114 a80.16948403680591,80.16948403680591 0 0,0 1.2035188464347528,0.6675716164164375 l -29.143815044155772 51.494328676601555" fill="#46fff6" stroke="none" /><line stroke="#e1ed5e" stroke-width="0.3" x1="143.13028292997686" x2="145.6673583964461" y1="26.7553504044142" y2="22.446841604673864" /><path d="M 143.63769802327073 25.89364864446614 a86.0,86.0 0 0,1 29.32050498858742,28.57503671076993" fill="none" id="id14" stroke="none" /><text fill="#e1ed5e" style="font-size:6.75px; font-family:Arial;" text-anchor="middle"><textPath startOffset="20.669276256404974" xlink:href="#id14">February</textPath></text><path d="M 110.65571695917076 81.90426304109057 l 27.985721380050492 -47.52587316641077 a76.15350597551871,76.15350597551871 0 0,0 1.1207882938257394,0.6730011675790643 l -28.797442430433666 47.03845799829578" fill="#3effb8" stroke="none" /><path d="M 111.27062007382361 82.28071324371311 l 29.555045873863804 -46.465441076352505 a76.06848419038045,76.06848419038045 0 0,0 1.095800447620037,0.7102846110618917 l -30.348331953740846 45.95124262358672" fill="#3effb7" stroke="none" /><path d="M 117.01052211995028 87.68569379921539 l 32.16429868944346 -23.284471811172104 a60.70779190170366,60.70779190170366 0 0,0 0.6038543395167153,0.8493967512809945 l -32.559268127490135 22.728897833181605" fill="#a4ff21" stroke="none" /><path d="M 117.62189284568427 88.57770195909679 l 18.35555661301133 -11.897850031010453 a42.874306707502285,42.874306707502285 0 0,0 0.3950199919860539,0.6210370384787947 l -18.557094296623276 11.580999317852985" fill="#ff0000" stroke="none" /><line stroke="#e1ed5e" stroke-width="0.3" x1="172.87174338648825" x2="177.1583165268699" y1="56.24261187166439" y2="53.66864786411523" /><path d="M 173.72905801456457 55.72781907015455 a86.0,86.0 0 0,1 12.242430191666344,42.057860355516425" fill="none" id="id15" stroke="none" /><text fill="#e1ed5e" style="font-size:6.75px; font-family:Arial;" text-anchor="middle"><textPath startOffset="22.145653131862474" xlink:href="#id15">March</textPath></text><path d="M 118.18653347947321 89.5 l 40.83115699320545 -23.57387948135104 a68.14775896270207,68.14775896270207 0 0,0 0.5762270590638748,1.0181380003554725 l -41.2298174172907 22.86948471089645" fill="#30ff2f" stroke="none" /><path d="M 118.70294669586156 90.45014215332178 l 38.95059933828886 -19.888453556138554 a64.73442321177437,64.73442321177437 0 0,0 0.4968523786410448,0.9940375854957672 l -39.28627163014164 19.216884114479036" fill="#63ff29" stroke="none" /><path d="M 119.0197475246899 91.09779779509293 l 39.58570796035166 -18.528110125015747 a64.70719779998439,64.70719779998439 0 0,0 0.46224213836641415,1.0100824937546966 l -39.89793456357312 17.845838649046367" fill="#63ff29" stroke="none" /><path d="M 119.4528033332814 92.08871423366111 l 36.128600163445306 -14.693187163507886 a60.00212172167013,60.00212172167013 0 0,0 0.379845788882034,0.9574595216171189 l -36.37550462729346 14.070826624677203" fill="#b0ff20" stroke="none" /><path d="M 119.71291397450082 92.76114493625339 l 41.911835336056505 -15.39060647481009 a65.64832257654459,65.64832257654459 0 0,0 0.37938425070427684,1.0612052708079216 l -42.169859756804726 14.668866247621251" fill="#55ff2b" stroke="none" /><path d="M 119.94978838288452 93.4421083053983 l 41.52236978546427 -13.649227687542254 a64.7082212983691,64.7082212983691 0 0,0 0.33782401112356364,1.0582289032671652 l -41.75055851236509 12.934429750583702" fill="#63ff29" stroke="none" /><path d="M 120.16314734710363 94.1308016681162 l 56.98953954448016 -16.588824386949494 a80.35483730946382,80.35483730946382 0 0,0 0.3741531981533813,1.3277377058307842 l -57.26591123470812 15.608078757215695" fill="#46fff8" stroke="none" /><path d="M 120.43855184770803 95.1765574152323 l 45.44001263827365 -10.723719255892892 a67.68825230446816,67.68825230446816 0 0,0 0.25718034924003885,1.1331840717106472 l -45.61740384907136 9.942100850243218" fill="#36ff2e" stroke="none" /><path d="M 120.592083275326 95.88100663000786 l 43.7788686266044 -8.75699982404454 a65.64610155594555,65.64610155594555 0 0,0 0.21154833759585256,1.106910294120136 l -43.92274325648241 8.004186964891089" fill="#55ff2b" stroke="none" /><path d="M 120.7213421655516 96.59031103205396 l 52.35219251044823 -8.614533355248565 a74.05621778434383,74.05621778434383 0 0,0 0.19564421240757449,1.256176189344869 l -52.49235821499408 7.714568983972254" fill="#3aff96" stroke="none" /><path d="M 120.77682067341334 96.94652285012252 l 38.576520802766005 -5.669420102554496 a59.990899983784516,59.990899983784516 0 0,0 0.14099427957083702,1.0201643707527974 l -38.66815959889205 5.006367423601613" fill="#b0ff20" stroke="none" /><line stroke="#e1ed5e" stroke-width="0.3" x1="184.99686870605535" x2="189.99668451229388" y1="99.2704041080226" y2="99.22748670261217" /><path d="M 185.99683186730306 99.26182062694052 a86.0,86.0 0 0,1 -10.086455211305974,41.156179273409016" fill="none" id="id16" stroke="none" /><text fill="#e1ed5e" style="font-size:6.75px; font-family:Arial;" text-anchor="middle"><textPath startOffset="21.40746469413373" xlink:href="#id16">April</textPath></text><line stroke="#e1ed5e" stroke-width="0.3" x1="174.33088141563837" x2="178.70328620479359" y1="141.23008692659167" y2="143.65538615756765" /><path d="M 175.20536237346943 141.71514677278685 a86.0,86.0 0 0,1 -30.301960400862466,31.631185727798858" fill="none" id="id17" stroke="none" /><text fill="#e1ed5e" style="font-size:6.75px; font-family:Arial;" text-anchor="middle"><textPath startOffset="22.145653131862474" xlink:href="#id17">May</textPath></text><line stroke="#e1ed5e" stroke-width="0.3" x1="143.1302829299769" x2="145.66735839644613" y1="173.24464959558577" y2="177.55315839532614" /><path d="M 143.63769802327073 174.10635135553383 a86.0,86.0 0 0,1 -40.68552437913181,11.842963189579606" fill="none" id="id18" stroke="none" /><text fill="#e1ed5e" style="font-size:6.75px; font-family:Arial;" text-anchor="middle"><textPath startOffset="21.407464694133747" xlink:href="#id18">June</textPath></text><line stroke="#e1ed5e" stroke-width="0.3" x1="101.45913802915013" x2="101.54496967792366" y1="184.9874750549273" y2="189.98673829345242" /><path d="M 101.47630435890484 185.9873277026323 a86.0,86.0 0 0,1 -42.54439059252881,-10.42667462771756" fill="none" id="id19" stroke="none" /><text fill="#e1ed5e" style="font-size:6.75px; font-family:Arial;" text-anchor="middle"><textPath startOffset="22.145653131862474" xlink:href="#id19">July</textPath></text><line stroke="#e1ed5e" stroke-width="0.3" x1="58.13341422392154" x2="55.67067388415222" y1="173.97424548756322" y2="178.32567169271397" /><path d="M 57.64086615596768 174.84453072859336 a86.0,86.0 0 0,1 -31.369924170532247,-30.572349798747897" fill="none" id="id20" stroke="none" /><text fill="#e1ed5e" style="font-size:6.75px; font-family:Arial;" text-anchor="middle"><textPath startOffset="22.145653131862474" xlink:href="#id20">August</textPath></text><line stroke="#e1ed5e" stroke-width="0.3" x1="26.387840678322732" x2="22.057713659400548" y1="142.50000000000003" y2="145.00000000000006" /><path d="M 25.521815274538298 143.00000000000003 a86.0,86.0 0 0,1 -11.493303480769221,-40.785679425670985" fill="none" id="id21" stroke="none" /><text fill="#e1ed5e" style="font-size:6.75px; font-family:Arial;" text-anchor="middle"><textPath startOffset="21.40746469413373" xlink:href="#id21">September</textPath></text><line stroke="#e1ed5e" stroke-width="0.3" x1="15.003131293944662" x2="10.003315487706104" y1="100.72959589197737" y2="100.7725132973878" /><path d="M 14.003168132696942 100.73817937305945 a86.0,86.0 0 0,1 10.791469493833604,-42.45332614584628" fill="none" id="id22" stroke="none" /><text fill="#e1ed5e" style="font-size:6.75px; font-family:Arial;" text-anchor="middle"><textPath startOffset="22.145653131862435" xlink:href="#id22">October</textPath></text><line stroke="#e1ed5e" stroke-width="0.3" x1="26.387840678322718" x2="22.05771365940052" y1="57.49999999999999" y2="54.99999999999999" /><path d="M 25.521815274538284 56.99999999999999 a86.0,86.0 0 0,1 29.574782752854787,-30.34633250058573" fill="none" id="id23" stroke="none" /><text fill="#e1ed5e" style="font-size:6.75px; font-family:Arial;" text-anchor="middle"><textPath startOffset="21.40746469413373" xlink:href="#id23">November</textPath></text><line stroke="#e1ed5e" stroke-width="0.3" x1="56.869717070023135" x2="54.33264160355391" y1="26.7553504044142" y2="22.446841604673864" /><path d="M 56.362301976729285 25.89364864446614 a86.0,86.0 0 0,1 42.16139366436587,-11.88097634709845" fill="none" id="id24" stroke="none" /><text fill="#e1ed5e" style="font-size:6.75px; font-family:Arial;" text-anchor="middle"><textPath startOffset="22.145653131862474" xlink:href="#id24">December</textPath></text></svg>