<?xml version="1.0" encoding="utf-8" ?>
<svg baseProfile="full" height="200mm" version="1.1" viewBox="0,0,200,200" width="200mm" xmlns="http://www.w3.org/2000/svg" xmlns:ev="http://www.w3.org/2001/xml-events" xmlns:xlink="http://www.w3.org/1999/xlink"><defs /><rect fill="#1a1a1a" height="200" width="200" x="0" y="0" /><text alignment-baseline="middle" fill="#e1ed5e" style="dominant-baseline: central; font-size:9.0px; font-family:Arial;" text-anchor="middle" x="100.0" y="100.0">2024</text><line stroke="#e1ed5e" stroke-width="0.3" x1="100.0" x2="100.0" y1="15.0" y2="10.0" /><path d="M 100.0 14.0 a86.0,86.0 0 0,1 42.35913384403234,11.155469271406648" fill="none" id="id13" stroke="none" /><text fill="#e1ed5e" style="font-size:6.75px; font-family:Arial;" text-anchor="middle"><textPath startOffset="22.145653131862478" xlink:href="#id13">January</textPath></text><path d="M 100.36049292484886 79.00309439819443 l 0.5608477050620555 -32.66656710423558 a53.671381307251146,53.671381307251146 0 0,0 0.9210691065983715,0.023723472928924332 l -1.1215301257311683 32.65212591395661" fill="#ff5507" stroke="none" /><path d="M 101.08105385017728 79.02784411241856 l 1.682290643159346 -32.635989049733126 a53.67931888920517,53.67931888920517 0 0,0 0.9198479083791942,0.05533576598423604 l -2.242282903671003 32.60230130592419" fill="#ff5507" stroke="none" /><path d="M 102.15924093988457 79.11130261209362 l 3.9727465947662712 -38.43271951917718 a59.63750309150385,59.63750309150385 0 0,0 1.0174274417074918,0.11400486699388555 l -4.63190993807456 38.35885889167633" fill="#ffe615" stroke="none" /><path d="M 102.87502721639298 79.19773525538626 l 4.474238214312968 -32.37335887949525 a53.681082796306065,53.681082796306065 0 0,0 0.911747358916083,0.13399546401600915 l -5.029310678836733 32.291782342180355" fill="#ff5607" stroke="none" /><path d="M 103.58742460773223 79.30868818359171 l 5.7060436088417505 -32.91094321371755 a54.401932831537536,54.401932831537536 0 0,0 0.9187845715730925,0.16743315526502126 l -6.270162913965897 32.80814188452116" fill="#ff6809" stroke="none" /><path d="M 104.29559338865022 79.4440306129975 l 9.629379884895785 -46.08006862398437 a68.07544669314083,68.07544669314083 0 0,0 1.1418443252745183,0.2488596561680085 l -10.418986626789437 45.90797750968264" fill="#67ff28" stroke="none" /><path d="M 104.64783097203109 79.52079915486377 l 6.5129321008795555 -28.69718055309596 a50.426968179675875,50.426968179675875 0 0,0 0.842533415172868,0.19883559188124472 l -7.004597669792308 28.58114881756849" fill="#ff0000" stroke="none" /><path d="M 105.3480935250658 79.69241777938227 l 8.321730056571917 -31.598964481373894 a53.67637904403701,53.67637904403701 0 0,0 0.8890306172378747,0.24230924807173512 l -8.862942074744485 31.451454739158017" fill="#ff5507" stroke="none" /><path d="M 106.04205211174951 79.88797359093562 l 11.946344634619988 -39.76549595062858 a62.521197216946575,62.521197216946575 0 0,0 1.0252266621778914,0.31761784064368787 l -12.62721192966951 39.55456152217825" fill="#d8ff1c" stroke="none" /><path d="M 106.72888874123014 80.10723608172694 l 9.901495868372145 -29.27201315432578 a51.90130053150534,51.90130053150534 0 0,0 0.8415282502063997,0.2927272088895306 l -10.402529890623562 29.09772751286766" fill="#ff2703" stroke="none" /><path d="M 107.06938296918511 80.22567764915836 l 10.999691635809864 -30.768095195079425 a53.67520310596975,53.67520310596975 0 0,0 0.864965286582304,0.3176272342506321 l -11.526246074046291 30.574737111820074" fill="#ff5507" stroke="none" /><path d="M 107.74402155503746 80.48000691201159 l 12.045500893342595 -30.362530954792533 a53.6646196633644,53.6646196633644 0 0,0 0.8533838251663023,0.34706377243382397 l -12.564939179699337 30.151279925779416" fill="#ff5507" stroke="none" /><path d="M 108.4095320186766 80.7573450057729 l 16.309815205095312 -37.32004900085248 a61.72832097509531,61.72832097509531 0 0,0 0.9673315760537835,0.432675110007938 l -16.948060184004728 37.03457013993469" fill="#e9ff1a" stroke="none" /><path d="M 109.06512990194946 81.05736502329252 l 15.241687423722714 -31.8492646459003 a56.30842242308571,56.30842242308571 0 0,0 0.8683288324732528,0.42474314447535955 l -15.786176505458034 31.582927751327716" fill="#ff970d" stroke="none" /><path d="M 110.02825361518725 81.54914285379988 l 21.071560400353675 -38.76929779734069 a65.12560605141462,65.12560605141462 0 0,0 0.9776774194078431,0.5423011838504922 l -21.733982007917618 38.40186369805705" fill="#a1ff22" stroke="none" /><line stroke="#e1ed5e" stroke-width="0.3" x1="143.13028292997686" x2="145.6673583964461" y1="26.7553504044142" y2="22.446841604673864" /><path d="M 143.63769802327073 25.89364864446614 a86.0,86.0 0 0,1 29.32050498858742,28.57503671076993" fill="none" id="id14" stroke="none" /><text fill="#e1ed5e" style="font-size:6.75px; font-family:Arial;" text-anchor="middle"><textPath startOffset="20.669276256404974" xlink:href="#id14">February</textPath></text><path d="M 110.65571695917076 81.90426304109057 l 20.88768547610455 -35.47185642264242 a62.16488798256625,62.16488798256625 0 0,0 0.9149109794136968,0.5493777556103365 l -21.493529212075682 35.10806466649616" fill="#e0ff1b" stroke="none" /><path d="M 111.27062007382361 82.28071324371311 l 22.120650271305653 -34.777336368843244 a62.21633527300895,62.21633527300895 0 0,0 0.8962540632571598,0.580941055568895 l -22.714389966819823 34.39248147157045" fill="#dfff1b" stroke="none" /><path d="M 117.01052211995028 87.68569379921539 l 23.9811236680981 -17.360484164180736 a50.60541678138284,50.60541678138284 0 0,0 0.503367023725211,0.7080487572489197 l -24.27560579035327 16.946258180222312" fill="#ff0500" stroke="none" /><path d="M 117.62189284568427 88.57770195909679 l 27.395807374329966 -17.757631353286108 a53.6475685613891,53.6475685613891 0 0,0 0.4942788287578999,0.7770884163387122 l -27.696603894713757 17.284729262268723" fill="#ff5507" stroke="none" /><line stroke="#e1ed5e" stroke-width="0.3" x1="172.87174338648825" x2="177.1583165268699" y1="56.24261187166439" y2="53.66864786411523" /><path d="M 173.72905801456457 55.72781907015455 a86.0,86.0 0 0,1 12.242430191666344,42.057860355516425" fill="none" id="id15" stroke="none" /><text fill="#e1ed5e" style="font-size:6.75px; font-family:Arial;" text-anchor="middle"><textPath startOffset="22.145653131862474" xlink:href="#id15">March</textPath></text><path d="M 118.18653347947321 89.5 l 30.58893850251924 -17.660531878654396 a56.321063757308785,56.321063757308785 0 0,0 0.4762257985619933,0.84144535498436 l -30.88759766610261 17.132829753570917" fill="#ff970e" stroke="none" /><path d="M 118.70294669586156 90.45014215332178 l 29.101860814173534 -14.85961749068495 a53.6760850595202,53.6760850595202 0 0,0 0.41197695468322154,0.824229881787625 l -29.352657682068493 14.357855752733576" fill="#ff5507" stroke="none" /><path d="M 119.0197475246899 91.09779779509293 l 29.58521873909857 -13.847376215166426 a53.66550161691484,53.66550161691484 0 0,0 0.38336471161350394,0.8377210811904935 l -29.818567915567122 13.337466151761248" fill="#ff5507" stroke="none" /><path d="M 119.4528033332814 92.08871423366111 l 30.580725119495384 -12.436914680994489 a54.0129913157907,54.0129913157907 0 0,0 0.34193136355068715,0.8618904022463807 l -30.789715158012196 11.910123261534542" fill="#ff5e08" stroke="none" /><path d="M 119.71291397450082 92.76114493625339 l 31.33624495049222 -11.507103198040449 a54.382235868910904,54.382235868910904 0 0,0 0.31427709036577134,0.8790889557782434 l -31.529162210901934 10.96747928588129" fill="#ff6709" stroke="none" /><path d="M 119.94978838288452 93.4421083053983 l 31.036086600557038 -10.202178120613397 a53.66991138466707,53.66991138466707 0 0,0 0.28019599946987594,0.8777099775492304 l -31.206647315804172 9.667899109372778" fill="#ff5507" stroke="none" /><path d="M 120.16314734710363 94.1308016681162 l 42.57268705113294 -12.392288739595658 a65.33962677965627,65.33962677965627 0 0,0 0.30423843970470527,1.0796348927464385 l -42.779143982912224 11.659645922946206" fill="#9dff22" stroke="none" /><path d="M 120.43855184770803 95.1765574152323 l 34.34554540861509 -8.105455198361541 a56.2890194449759,56.2890194449759 0 0,0 0.2138691602513519,0.9423469815758121 l -34.47962543042411 7.5146738828467035" fill="#ff970d" stroke="none" /><path d="M 120.592083275326 95.88100663000786 l 32.71938539269485 -6.544793438370264 a54.36753664307013,54.36753664307013 0 0,0 0.17520251352963107,0.9167335843223055 l -32.82691419850664 5.982157289014644" fill="#ff6709" stroke="none" /><path d="M 120.7213421655516 96.59031103205396 l 39.09310457366033 -6.4327554809248175 a60.61882340863381,60.61882340863381 0 0,0 0.16014485100214307,1.0282448235983979 l -39.197770916800735 5.760722475394979" fill="#fffc17" stroke="none" /><path d="M 120.77682067341334 96.94652285012252 l 29.150588037128365 -4.284132585827445 a50.463716244277805,50.463716244277805 0 0,0 0.11860291007890025,0.8581515753573746 l -29.21983546376248 3.783092702269985" fill="#ff0100" stroke="none" /><path d="M 120.86939407059847 97.66154086499901 l 32.470232299187295 -3.638357255547338 a53.673439198868856,53.673439198868856 0 0,0 0.09474028468489669,0.9165263128684006 l -32.52790497635386 3.080426420396006" fill="#ff5507" stroke="none" /><path d="M 120.93736805541906 98.37931529534042 l 33.01858418143451 -2.5558472397639913 a54.11735581926018,54.11735581926018 0 0,0 0.06374519119948366,0.9268410898941255 l -33.05759333379906 1.9886627257155316" fill="#ff6108" stroke="none" /><path d="M 120.98066250479742 99.09900007780936 l 41.24035552012309 -1.7710383123625812 a62.27836600605701,62.27836600605701 0 0,0 0.03670067964999088,1.0685002440554863 l -41.26468088676993 1.062831803742975" fill="#ddff1b" stroke="none" /><path d="M 120.99303781780057 99.45929381324524 l 41.67171445295593 -1.0733155445604667 a62.68553456184641,62.68553456184641 0 0,0 0.018473034210008156,1.0759616312831057 l -41.68399891876461 0.35780699730829474" fill="#d4ff1c" stroke="none" /><line stroke="#e1ed5e" stroke-width="0.3" x1="184.99686870605535" x2="189.99668451229388" y1="99.2704041080226" y2="99.22748670261217" /><path d="M 185.99683186730306 99.26182062694052 a86.0,86.0 0 0,1 -10.086455211305974,41.156179273409016" fill="none" id="id16" stroke="none" /><text fill="#e1ed5e" style="font-size:6.75px; font-family:Arial;" text-anchor="middle"><textPath startOffset="21.40746469413373" xlink:href="#id16">April</textPath></text><path d="M 120.99922638620191 100.18025310272382 l 29.43646717960898 0.25267666745280837 a50.43755162228122,50.43755162228122 0 0,0 -0.014863630390961093,0.8657319539628786 l -29.42779211761935 -0.757955537384758" fill="#ff0000" stroke="none" /><path d="M 120.98066250479742 100.90099992219065 l 61.998872482876585 2.6624983491444243 a83.05601571650558,83.05601571650558 0 0,0 -0.07339941132229824,1.4239289708422658 l -61.944031482097714 -3.7263991133634202" fill="#4be2ff" stroke="none" /><path d="M 120.93736805541906 101.62068470465957 l 36.778569959325694 2.846893918784773 a57.888589200968745,57.888589200968745 0 0,0 -0.08519650377812513,0.990112516100228 l -36.724279832849824 -3.477827482260658" fill="#ffbd11" stroke="none" /><path d="M 120.82617615685814 102.69636545807757 l 32.413194784416525 4.196536999609525 a53.6837286569574,53.6837286569574 0 0,0 -0.12617078004681181,0.9129089125149349 l -32.336379487814504 -4.752334220324545" fill="#ff5607" stroke="none" /><path d="M 120.7213421655516 103.40968896794604 l 32.567966041549504 5.359046418572395 a54.00593568738713,54.00593568738713 0 0,0 -0.1583793050385901,0.9134897438001219 l -32.47117191901868 -5.917329195293105" fill="#ff5e08" stroke="none" /><path d="M 120.592083275326 104.11899336999214 l 45.27429391881046 9.056126764313658 a67.17115031941651,67.17115031941651 0 0,0 -0.23587401862449975,1.1287425664741393 l -45.11216218936159 -9.831985782073208" fill="#78ff26" stroke="none" /><path d="M 120.51834098615036 104.47187691870673 l 35.700115183199266 7.780673943896331 a57.538159656924734,57.538159656924734 0 0,0 -0.2186152469801712,0.9632591154147585 l -35.56128907466143 -8.392367393250106" fill="#ffb510" stroke="none" /><path d="M 120.35273937422433 105.17358676015961 l 31.660397203755995 8.047949162174582 a53.66726552401573,53.66726552401573 0 0,0 -0.2346295005500135,0.89092643041301 l -31.51757822240125 -8.590256096960395" fill="#ff5507" stroke="none" /><path d="M 120.16314734710363 105.8691983318838 l 33.94597586214502 9.881178839517268 a56.35487197674256,56.35487197674256 0 0,0 -0.27834927176914587,0.9265341975251485 l -33.771350270372245 -10.46245064063314" fill="#ff980e" stroke="none" /><path d="M 119.94978838288452 106.5578916946017 l 30.879409214273547 10.150675151733692 a53.50498607073361,53.50498607073361 0 0,0 -0.2943145671303465,0.8700887214494712 l -30.700609225570837 -10.679265547657325" fill="#ff5107" stroke="none" /><path d="M 119.83427380445688 106.89939002012753 l 34.73064207714441 12.081120171176986 a57.771877347793016,57.771877347793016 0 0,0 -0.33386596243668226,0.9338825173249815 l -34.51813594466378 -12.675537644882889" fill="#ffba11" stroke="none" /><path d="M 119.58574465831526 107.57618678355244 l 30.29426108356072 11.718470981970949 a53.48176129390518,53.48176129390518 0 0,0 -0.3385683910265331,0.8534135146292668 l -30.08863401756806 -12.23678551381378" fill="#ff5007" stroke="none" /><path d="M 119.31412917781788 108.2440532568976 l 32.53309170357126 13.886442311041694 a56.3728050322683,56.3728050322683 0 0,0 -0.38753919153919225,0.8867655112042552 l -32.2899186300151 -14.442869892021793" fill="#ff990e" stroke="none" /><path d="M 119.0197475246899 108.90220220490707 l 39.9886248803607 18.716695588047923 a65.15206465792801,65.15206465792801 0 0,0 -0.48281012607193097,1.008887471019248 l -39.661435496328856 -19.400395561132274" fill="#a1ff22" stroke="none" /><path d="M 118.8641267826498 109.22738970284198 l 29.343942914472674 14.353592923199884 a53.66638357046529,53.66638357046529 0 0,0 -0.4119024934047647,0.8240809093510663 l -29.093220507856177 -14.855205688714696" fill="#ff5507" stroke="none" /><path d="M 118.5362547648365 109.86951160357373 l 28.832886220019592 15.351887893385582 a53.66520763239803,53.66520763239803 0 0,0 -0.43993881227503456,0.8094378632449478 l -28.56510205812922 -15.844580590105133" fill="#ff5507" stroke="none" /><line stroke="#e1ed5e" stroke-width="0.3" x1="174.33088141563837" x2="178.70328620479359" y1="141.23008692659167" y2="143.65538615756765" /><path d="M 175.20536237346943 141.71514677278685 a86.0,86.0 0 0,1 -30.301960400862466,31.631185727798858" fill="none" id="id17" stroke="none" /><text fill="#e1ed5e" style="font-size:6.75px; font-family:Arial;" text-anchor="middle"><textPath startOffset="22.145653131862474" xlink:href="#id17">May</textPath></text><path d="M 118.18653347947321 110.5 l 33.46055001992235 19.3184575612351 a59.636915122470214,59.636915122470214 0 0,0 -0.5194837915552174,0.8821970480653393 l -33.12399251823737 -19.890005777593988" fill="#ffe615" stroke="none" /><path d="M 117.62189284568427 111.42229804090321 l 39.48872310290447 25.596113226085198 a68.05868957568235,68.05868957568235 0 0,0 -0.6438856351318467,0.9749249180114687 l -39.0435130288519 -26.270218022435728" fill="#67ff28" stroke="none" /><path d="M 117.21940702142032 112.02048342749411 l 27.10949542404601 18.924533235500093 a54.06149876106525,54.06149876106525 0 0,0 -0.5377443258108462,0.7564047378198526 l -26.780635999705204 -19.387115200029452" fill="#ff5f08" stroke="none" /><path d="M 116.79662413953412 112.60449989151573 l 26.699481763697296 20.035788870333278 a54.38105993084365,54.38105993084365 0 0,0 -0.5667232112020095,0.7418588755229147 l -26.35160657514098 -20.49116865909707" fill="#ff6709" stroke="none" /><path d="M 116.35404254752997 113.17365903436017 l 25.87691428745625 20.844610419324027 a54.22818798209961,54.22818798209961 0 0,0 -0.590191659534976,0.7199378608111706 l -25.515275808682645 -21.28575056183369" fill="#ff6309" stroke="none" /><path d="M 116.1254893667686 113.45245675266167 l 38.40711909287358 32.04058474380082 a71.0170557683962,71.0170557683962 0 0,0 -0.7889840568802509,0.9294212351327429 l -37.85144047248622 -32.69517276138312" fill="#30ff2f" stroke="none" /><path d="M 115.6541949942343 113.99807769240083 l 24.763632262912814 22.143792669630837 a54.22025040014559,54.22025040014559 0 0,0 -0.6263789241906811,0.6885001631225209 l -24.379855637880254 -22.56563040831103" fill="#ff6309" stroke="none" /><path d="M 115.16444852881244 114.52719865689866 l 21.252249603646597 20.359174374958137 a50.430495993877656,50.430495993877656 0 0,0 -0.6042370674557601,0.6200004615899091 l -20.89962573504003 -20.720997528615783" fill="#ff0000" stroke="none" /><path d="M 114.65682725009322 115.03919595460226 l 43.97048175027964 45.117587863806776 a84.0,84.0 0 0,0 -1.0413100565387516,0.9975514787776794 l -43.18949920787558 -45.86575147289004" fill="#4dd2ff" stroke="none" /><path d="M 113.86319453409587 115.77377054828091 l 19.888949062030907 22.62997306856899 a51.1278272677639,51.1278272677639 0 0,0 -0.6642247825612478,0.5737415471418555 l -19.4975447997068 -22.96805874817556" fill="#ff1302" stroke="none" /><path d="M 112.7482090630111 116.68781488649013 l 19.83001864460187 25.958130957934042 a53.665795601431654,53.665795601431654 0 0,0 -0.7368748456856458,0.5529646216613492 l -19.38149081000546 -26.294714606859408" fill="#ff5507" stroke="none" /><path d="M 112.45986205192187 116.90419585922612 l 26.3282954700778 35.71938930071242 a65.37402296812368,65.37402296812368 0 0,0 -0.9090693397590712,0.6580960965571472 l -25.71124511994476 -36.16608616864264" fill="#9cff22" stroke="none" /><line stroke="#e1ed5e" stroke-width="0.3" x1="143.1302829299769" x2="145.66735839644613" y1="173.24464959558577" y2="177.55315839532614" /><path d="M 143.63769802327073 174.10635135553383 a86.0,86.0 0 0,1 -40.68552437913181,11.842963189579606" fill="none" id="id18" stroke="none" /><text fill="#e1ed5e" style="font-size:6.75px; font-family:Arial;" text-anchor="middle"><textPath startOffset="21.407464694133747" xlink:href="#id18">June</textPath></text><line stroke="#e1ed5e" stroke-width="0.3" x1="101.45913802915013" x2="101.54496967792366" y1="184.9874750549273" y2="189.98673829345242" /><path d="M 101.47630435890484 185.9873277026323 a86.0,86.0 0 0,1 -42.54439059252881,-10.42667462771756" fill="none" id="id19" stroke="none" /><text fill="#e1ed5e" style="font-size:6.75px; font-family:Arial;" text-anchor="middle"><textPath startOffset="22.145653131862474" xlink:href="#id19">July</textPath></text><line stroke="#e1ed5e" stroke-width="0.3" x1="58.13341422392154" x2="55.67067388415222" y1="173.97424548756322" y2="178.32567169271397" /><path d="M 57.64086615596768 174.84453072859336 a86.0,86.0 0 0,1 -31.369924170532247,-30.572349798747897" fill="none" id="id20" stroke="none" /><text fill="#e1ed5e" style="font-size:6.75px; font-family:Arial;" text-anchor="middle"><textPath startOffset="22.145653131862474" xlink:href="#id20">August</textPath></text><line stroke="#e1ed5e" stroke-width="0.3" x1="26.387840678322732" x2="22.057713659400548" y1="142.50000000000003" y2="145.00000000000006" /><path d="M 25.521815274538298 143.00000000000003 a86.0,86.0 0 0,1 -11.493303480769221,-40.785679425670985" fill="none" id="id21" stroke="none" /><text fill="#e1ed5e" style="font-size:6.75px; font-family:Arial;" text-anchor="middle"><textPath startOffset="21.40746469413373" xlink:href="#id21">September</textPath></text><line stroke="#e1ed5e" stroke-width="0.3" x1="15.003131293944662" x2="10.003315487706104" y1="100.72959589197737" y2="100.7725132973878" /><path d="M 14.003168132696942 100.73817937305945 a86.0,86.0 0 0,1 10.791469493833604,-42.45332614584628" fill="none" id="id22" stroke="none" /><text fill="#e1ed5e" style="font-size:6.75px; font-family:Arial;" text-anchor="middle"><textPath startOffset="22.145653131862435" xlink:href="#id22">October</textPath></text><line stroke="#e1ed5e" stroke-width="0.3" x1="26.387840678322718" x2="22.05771365940052" y1="57.49999999999999" y2="54.99999999999999" /><path d="M 25.521815274538284 56.99999999999999 a86.0,86.0 0 0,1 29.574782752854787,-30.34633250058573" fill="none" id="id23" stroke="none" /><text fill="#e1ed5e" style="font-size:6.75px; font-family:Arial;" text-anchor="middle"><textPath startOffset="21.40746469413373" xlink:href="#id23">November</textPath></text><line stroke="#e1ed5e" stroke-width="0.3" x1="56.869717070023135" x2="54.33264160355391" y1="26.7553504044142" y2="22.446841604673864" /><path d="M 56.362301976729285 25.89364864446614 a86.0,86.0 0 0,1 42.16139366436587,-11.88097634709845" fill="none" id="id24" stroke="none" /><text fill="#e1ed5e" style="font-size:6.75px; font-family:Arial;" text-anchor="middle"><textPath startOffset="22.145653131862474" xlink:href="#id24">December</textPath></text></svg>