<?xml version="1.0" encoding="utf-8" ?>
<svg baseProfile="full" height="200mm" version="1.1" viewBox="0,0,200,200" width="200mm" xmlns="http://www.w3.org/2000/svg" xmlns:ev="http://www.w3.org/2001/xml-events" xmlns:xlink="http://www.w3.org/1999/xlink"><defs /><rect fill="#1a1a1a" height="200" width="200" x="0" y="0" /><text alignment-baseline="middle" fill="#e1ed5e" style="dominant-baseline: central; font-size:9.0px; font-family:Arial;" text-anchor="middle" x="100.0" y="100.0">2024</text><line stroke="#e1ed5e" stroke-width="0.3" x1="100.0" x2="100.0" y1="15.0" y2="10.0" /><path d="M 100.0 14.0 a86.0,86.0 0 0,1 42.35913384403234,11.155469271406648" fill="none" id="id13" stroke="none" /><text fill="#e1ed5e" style="font-size:6.75px; font-family:Arial;" text-anchor="middle"><textPath startOffset="22.145653131862478" xlink:href="#id13">January</textPath></text><path d="M 100.36049292484886 79.00309439819443 l 0.7505697322264133 -43.71692404708937 a64.72336678552917,64.72336678552917 0 0,0 1.11073522181051,0.028608599264761166 l -1.5009182681076647 43.69759773047456" fill="#ff9e0e" stroke="none" /><path d="M 101.08105385017728 79.02784411241856 l 2.2513713191059606 -43.676002131972716 a64.73398947098902,64.73398947098902 0 0,0 1.1092805581015768,0.06673156378876864 l -3.00079622934 43.63091859035926" fill="#ff9f0e" stroke="none" /><path d="M 102.15924093988457 79.11130261209362 l 5.316636443234065 -51.43363472451032 a72.70769192338678,72.70769192338678 0 0,0 1.2404074139818668,0.13899023797894378 l -6.198779758816729 51.3347887260244" fill="#69ff28" stroke="none" /><path d="M 102.87502721639298 79.19773525538626 l 5.987771275737851 -43.3245301463145 a64.73635006775788,64.73635006775788 0 0,0 1.0995157535124604,0.16159095186188996 l -6.730612134857993 43.21535812115373" fill="#ff9f0e" stroke="none" /><path d="M 103.58742460773223 79.30868818359171 l 7.636268428853988 -44.043967038263084 a65.70104728062998,65.70104728062998 0 0,0 1.109613306655212,0.2022085076366085 l -8.391216469060254 43.906390356695105" fill="#ffbf11" stroke="none" /><path d="M 104.29559338865022 79.4440306129975 l 12.88678016595065 -61.66790816100754 a84.0,84.0 0 0,0 1.4089503335234634,0.30707416746512495 l -13.943492916093248 61.4376025354087" fill="#4dd2ff" stroke="none" /><path d="M 104.64783097203109 79.52079915486377 l 8.716108952295874 -38.40478427384675 a60.38144246201501,60.38144246201501 0 0,0 1.0088526986060125,0.23808648990753672 l -9.374093804641772 38.24950164029298" fill="#ff0000" stroke="none" /><path d="M 105.3480935250658 79.69241777938227 l 11.136782131488935 -42.28817572997384 a64.73005514304091,64.73005514304091 0 0,0 1.0721103379653607,0.2922084400753674 l -11.861073870388989 42.09076679575433" fill="#ff9e0e" stroke="none" /><path d="M 106.04205211174951 79.88797359093562 l 15.98752141189391 -53.21725912065805 a76.56687420767007,76.56687420767007 0 0,0 1.2555485878643222,0.3889721619739761 l -16.89871063262986 52.93497037087743" fill="#35ff63" stroke="none" /><path d="M 106.72888874123014 80.10723608172694 l 13.250946799796075 -39.17406967465327 a62.35450792798307,62.35450792798307 0 0,0 1.0110166684024466,0.35168407882878894 l -13.92146924024354 38.94082716325589" fill="#ff4a06" stroke="none" /><path d="M 107.06938296918511 80.22567764915836 l 14.720637226730616 -41.176242254806674 a64.7284814118617,64.7284814118617 0 0,0 1.043086681272778,0.38303587761937047 l -15.425313059657519 40.91747552817858" fill="#ff9e0e" stroke="none" /><path d="M 107.74402155503746 80.48000691201159 l 16.12021997852131 -40.63348485295715 a64.71431783124856,64.71431783124856 0 0,0 1.029097987469021,0.41852519253625736 l -16.81537242718077 40.3507724038416" fill="#ff9e0e" stroke="none" /><path d="M 108.4095320186766 80.7573450057729 l 21.827054868301868 -49.9445730675623 a75.50578596006969,75.50578596006969 0 0,0 1.1832353412528742,0.5292461179964653 l -22.681203612410375 49.56252319865598" fill="#31ff42" stroke="none" /><path d="M 109.06512990194946 81.05736502329252 l 20.397603743491228 -42.623146749323965 a68.25245895496755,68.25245895496755 0 0,0 1.0525171092965566,0.5148388604618926 l -21.12628110204985 42.26671413876485" fill="#ecff1a" stroke="none" /><path d="M 110.02825361518725 81.54914285379988 l 28.199590199867558 -51.88406978171798 a80.05229533688464,80.05229533688464 0 0,0 1.2017595883998664,0.666595785640275 l -29.086093976423527 51.39234108064456" fill="#40ffc7" stroke="none" /><line stroke="#e1ed5e" stroke-width="0.3" x1="143.13028292997686" x2="145.6673583964461" y1="26.7553504044142" y2="22.446841604673864" /><path d="M 143.63769802327073 25.89364864446614 a86.0,86.0 0 0,1 29.32050498858742,28.57503671076993" fill="none" id="id14" stroke="none" /><text fill="#e1ed5e" style="font-size:6.75px; font-family:Arial;" text-anchor="middle"><textPath startOffset="20.669276256404974" xlink:href="#id14">February</textPath></text><path d="M 110.65571695917076 81.90426304109057 l 27.95351456933334 -47.471178960731685 a76.09003366036134,76.09003366036134 0 0,0 1.1198541408028535,0.6724402355292176 l -28.764301466693627 46.98432472466655" fill="#33ff55" stroke="none" /><path d="M 111.27062007382361 82.28071324371311 l 29.60356332200906 -46.541718563370786 a76.15888439945294,76.15888439945294 0 0,0 1.0971027029577227,0.7111287172383769 l -30.39815165722379 46.026676004428516" fill="#33ff57" stroke="none" /><path d="M 117.01052211995028 87.68569379921539 l 32.093392569131254 -23.23314124819014 a60.620256168464174,60.620256168464174 0 0,0 0.6029836303256279,0.8481719897618305 l -32.48749129798684 22.678792031718807" fill="#ff0901" stroke="none" /><path d="M 117.62189284568427 88.57770195909679 l 36.66318613678215 -23.76463430181387 a64.69149872914963,64.69149872914963 0 0,0 0.5960314526807942,0.9370604418071138 l -37.06573528108884 23.131760185328087" fill="#ff9d0e" stroke="none" /><line stroke="#e1ed5e" stroke-width="0.3" x1="172.87174338648825" x2="177.1583165268699" y1="56.24261187166439" y2="53.66864786411523" /><path d="M 173.72905801456457 55.72781907015455 a86.0,86.0 0 0,1 12.242430191666344,42.057860355516425" fill="none" id="id15" stroke="none" /><text fill="#e1ed5e" style="font-size:6.75px; font-family:Arial;" text-anchor="middle"><textPath startOffset="22.145653131862474" xlink:href="#id15">March</textPath></text><path d="M 118.18653347947321 89.5 l 40.93648092646782 -23.63468828257218 a68.26937656514436,68.26937656514436 0 0,0 0.5772554032743437,1.0199549860413317 l -41.33616969476354 22.928476526431734" fill="#ebff1a" stroke="none" /><path d="M 118.70294669586156 90.45014215332178 l 38.94635866641862 -19.886288238865625 a64.72966171024612,64.72966171024612 0 0,0 0.4968158329634464,0.9939644696595915 l -39.2819944125938 19.214791913042284" fill="#ff9e0e" stroke="none" /><path d="M 119.0197475246899 91.09779779509293 l 39.593225587698704 -18.53162875420142 a64.71549812963298,64.71549812963298 0 0,0 0.46230143257565764,1.0102120623027946 l -39.90551148512941 17.84922770968394" fill="#ff9e0e" stroke="none" /><path d="M 119.4528033332814 92.08871423366111 l 40.92548914270684 -16.64404015133471 a65.18053569309744,65.18053569309744 0 0,0 0.4126279419741997,1.0400919622967548 l -41.205175759647155 15.939047171824392" fill="#ffae10" stroke="none" /><path d="M 119.71291397450082 92.76114493625339 l 41.93658415499773 -15.399694583932169 a65.67468728337778,65.67468728337778 0 0,0 0.3795366133870443,1.0616314563486422 l -42.194760938428715 14.67752817120261" fill="#ffbf11" stroke="none" /><path d="M 119.94978838288452 93.4421083053983 l 41.53488905969296 -13.653343021645608 a64.72139962155512,64.72139962155512 0 0,0 0.3378928115620436,1.0584444196607892 l -41.76314658703226 12.938329568293431" fill="#ff9e0e" stroke="none" /><path d="M 120.16314734710363 94.1308016681162 l 56.97405914604247 -16.584318268578023 a80.33871441150572,80.33871441150572 0 0,0 0.3740781257117398,1.327471300219585 l -57.25035576382879 15.603839044455427" fill="#41ffcf" stroke="none" /><path d="M 120.43855184770803 95.1765574152323 l 45.963862538515755 -10.847346405980701 a68.22649239051016,68.22649239051016 0 0,0 0.2592253831800588,1.14219486858446 l -46.14329878325348 10.056717203457215" fill="#edff1a" stroke="none" /><path d="M 120.592083275326 95.88100663000786 l 43.787609561655465 -8.758748255858915 a65.65501564363731,65.65501564363731 0 0,0 0.21157706375609178,1.1070606015290276 l -43.931512917693716 8.005785089296573" fill="#ffbe11" stroke="none" /><path d="M 120.7213421655516 96.59031103205396 l 52.31741302838142 -8.608810404709615 a74.02097059245983,74.02097059245983 0 0,0 0.1955510951879535,1.2555783099971163 l -52.45748561570764 7.709443912781057" fill="#46ff2c" stroke="none" /><path d="M 120.77682067341334 96.94652285012252 l 39.011569201034774 -5.73335723538562 a60.43062156136615,60.43062156136615 0 0,0 0.1420277400966773,1.0276419762999929 l -39.10424145768666 5.062826950885542" fill="#ff0200" stroke="none" /><path d="M 120.86939407059847 97.66154086499901 l 43.45417364137002 -4.869130793248118 a64.72612081509283,64.72612081509283 0 0,0 0.1142496401218155,1.1052616292600432 l -43.53135567397351 4.122464641705143" fill="#ff9e0e" stroke="none" /><path d="M 120.93736805541906 98.37931529534042 l 44.18802049802891 -3.420432251120684 a65.3202043352547,65.3202043352547 0 0,0 0.07694110053060377,1.1187067154646153 l -44.24022555972458 2.6613821115017346" fill="#ffb310" stroke="none" /><line stroke="#e1ed5e" stroke-width="0.3" x1="184.99686870605535" x2="189.99668451229388" y1="99.2704041080226" y2="99.22748670261217" /><path d="M 185.99683186730306 99.26182062694052 a86.0,86.0 0 0,1 -10.086455211305974,41.156179273409016" fill="none" id="id16" stroke="none" /><text fill="#e1ed5e" style="font-size:6.75px; font-family:Arial;" text-anchor="middle"><textPath startOffset="21.40746469413373" xlink:href="#id16">April</textPath></text><line stroke="#e1ed5e" stroke-width="0.3" x1="174.33088141563837" x2="178.70328620479359" y1="141.23008692659167" y2="143.65538615756765" /><path d="M 175.20536237346943 141.71514677278685 a86.0,86.0 0 0,1 -30.301960400862466,31.631185727798858" fill="none" id="id17" stroke="none" /><text fill="#e1ed5e" style="font-size:6.75px; font-family:Arial;" text-anchor="middle"><textPath startOffset="22.145653131862474" xlink:href="#id17">May</textPath></text><line stroke="#e1ed5e" stroke-width="0.3" x1="143.1302829299769" x2="145.66735839644613" y1="173.24464959558577" y2="177.55315839532614" /><path d="M 143.63769802327073 174.10635135553383 a86.0,86.0 0 0,1 -40.68552437913181,11.842963189579606" fill="none" id="id18" stroke="none" /><text fill="#e1ed5e" style="font-size:6.75px; font-family:Arial;" text-anchor="middle"><textPath startOffset="21.407464694133747" xlink:href="#id18">June</textPath></text><line stroke="#e1ed5e" stroke-width="0.3" x1="101.45913802915013" x2="101.54496967792366" y1="184.9874750549273" y2="189.98673829345242" /><path d="M 101.47630435890484 185.9873277026323 a86.0,86.0 0 0,1 -42.54439059252881,-10.42667462771756" fill="none" id="id19" stroke="none" /><text fill="#e1ed5e" style="font-size:6.75px; font-family:Arial;" text-anchor="middle"><textPath startOffset="22.145653131862474" xlink:href="#id19">July</textPath></text><line stroke="#e1ed5e" stroke-width="0.3" x1="58.13341422392154" x2="55.67067388415222" y1="173.97424548756322" y2="178.32567169271397" /><path d="M 57.64086615596768 174.84453072859336 a86.0,86.0 0 0,1 -31.369924170532247,-30.572349798747897" fill="none" id="id20" stroke="none" /><text fill="#e1ed5e" style="font-size:6.75px; font-family:Arial;" text-anchor="middle"><textPath startOffset="22.145653131862474" xlink:href="#id20">August</textPath></text><line stroke="#e1ed5e" stroke-width="0.3" x1="26.387840678322732" x2="22.057713659400548" y1="142.50000000000003" y2="145.00000000000006" /><path d="M 25.521815274538298 143.00000000000003 a86.0,86.0 0 0,1 -11.493303480769221,-40.785679425670985" fill="none" id="id21" stroke="none" /><text fill="#e1ed5e" style="font-size:6.75px; font-family:Arial;" text-anchor="middle"><textPath startOffset="21.40746469413373" xlink:href="#id21">September</textPath></text><line stroke="#e1ed5e" stroke-width="0.3" x1="15.003131293944662" x2="10.003315487706104" y1="100.72959589197737" y2="100.7725132973878" /><path d="M 14.003168132696942 100.73817937305945 a86.0,86.0 0 0,1 10.791469493833604,-42.45332614584628" fill="none" id="id22" stroke="none" /><text fill="#e1ed5e" style="font-size:6.75px; font-family:Arial;" text-anchor="middle"><textPath startOffset="22.145653131862435" xlink:href="#id22">October</textPath></text><line stroke="#e1ed5e" stroke-width="0.3" x1="26.387840678322718" x2="22.05771365940052" y1="57.49999999999999" y2="54.99999999999999" /><path d="M 25.521815274538284 56.99999999999999 a86.0,86.0 0 0,1 29.574782752854787,-30.34633250058573" fill="none" id="id23" stroke="none" /><text fill="#e1ed5e" style="font-size:6.75px; font-family:Arial;" text-anchor="middle"><textPath startOffset="21.40746469413373" xlink:href="#id23">November</textPath></text><line stroke="#e1ed5e" stroke-width="0.3" x1="56.869717070023135" x2="54.33264160355391" y1="26.7553504044142" y2="22.446841604673864" /><path d="M 56.362301976729285 25.89364864446614 a86.0,86.0 0 0,1 42.16139366436587,-11.88097634709845" fill="none" id="id24" stroke="none" /><text fill="#e1ed5e" style="font-size:6.75px; font-family:Arial;" text-anchor="middle"><textPath startOffset="22.145653131862474" xlink:href="#id24">December</textPath></text></svg>