<?xml version="1.0" encoding="utf-8" ?>
<svg baseProfile="full" height="200mm" version="1.1" viewBox="0,0,200,200" width="200mm" xmlns="http://www.w3.org/2000/svg" xmlns:ev="http://www.w3.org/2001/xml-events" xmlns:xlink="http://www.w3.org/1999/xlink"><defs /><rect fill="#1a1a1a" height="200" width="200" x="0" y="0" /><rect fill="#1a1a1a" height="200" width="180" x="10" y="0" /><text alignment-baseline="middle" fill="#e1ed5e" style="dominant-baseline: central; font-size:9.0px; font-family:Arial;" text-anchor="middle" x="100.0" y="100.0">2025</text><line stroke="#e1ed5e" stroke-width="0.3" x1="100.0" x2="100.0" y1="15.0" y2="10.0" /><path d="M 100.0 14.0 a86.0,86.0 0 0,1 42.46469731375804,11.215312516191453" fill="none" id="id25" stroke="none" /><text fill="#e1ed5e" style="font-size:6.75px; font-family:Arial;" text-anchor="middle"><textPath startOffset="22.20632615414155" xlink:href="#id25">January</textPath></text><path d="M 100.0 79.0 l 0.0 -38.2792921458554 a59.2792921458554,59.2792921458554 0 0,0 1.0203955683723827,0.008782866807359142 l -0.6589150890998543 38.2736206556566" fill="#6dff28" stroke="none" /><path d="M 101.08401301168833 79.027996857942 l 1.625760946039197 -31.453002225006696 a52.49499083378089,52.49499083378089 0 0,0 0.9020088066021357,0.05441163449344357 l -2.1669318014809447 31.420357321132947" fill="#c7ff1e" stroke="none" /><path d="M 101.44485096284872 79.0497635885617 l 1.8390919711400953 -26.666703049979056 a47.73004509599777,47.73004509599777 0 0,0 0.8191607864178796,0.06358264272825248 l -2.297842946920316 26.63109514506234" fill="#fff216" stroke="none" /><path d="M 102.16513564639614 79.11191278185805 l 2.7821254754997593 -26.84047980124624 a47.984283909759995,47.984283909759995 0 0,0 0.8208358327918253,0.09223046992445014 l -3.2437280118013097 26.78861337785119" fill="#fff617" stroke="none" /><path d="M 102.88285421437855 79.19881850522331 l 2.883260750892145 -20.804114851503893 a42.00296139386539,42.00296139386539 0 0,0 0.7153124718239947,0.10541846414431343 l -3.2409422031447956 20.751401903198612" fill="#ff9a0e" stroke="none" /><path d="M 103.59715602781102 79.31037775812273 l 5.139667008787673 -29.561622581483014 a51.00509467759212,51.00509467759212 0 0,0 0.8636981198076296,0.15783531077539675 l -5.647760249698203 29.46877178935688" fill="#dcff1b" stroke="none" /><path d="M 103.95276090670814 79.375362276772 l 4.67505010539257 -24.39338402634643 a45.83733636573665,45.83733636573665 0 0,0 0.773632938503388,0.15518348950296137 l -5.094249453363083 24.309296580766258" fill="#ffd614" stroke="none" /><path d="M 104.66035177308747 79.52364482259891 l 5.358532704297418 -23.543977842303963 a45.146071427499855,45.146071427499855 0 0,0 0.7562532645186887,0.1789807141485568 l -5.76300965577863 23.448251216014537" fill="#ffcb12" stroke="none" /><path d="M 105.36241919743992 79.69619591428918 l 5.3628375217744635 -20.305387993089195 a42.00163821788298,42.00163821788298 0 0,0 0.6974314239351357,0.19063435378614163 l -5.7115668349333095 20.210067098476756" fill="#ff9a0e" stroke="none" /><path d="M 106.0581310904928 79.89281104454417 l 11.576865320872061 -38.42409730683185 a61.13022632010057,61.13022632010057 0 0,0 1.0049070616763314,0.3122295156997608 l -12.23655775525911 38.21912765624957" fill="#56ff2b" stroke="none" /><path d="M 106.40334571778207 80.00007090966166 l 6.401309182984687 -19.9935682668981 a41.99332111170786,41.99332111170786 0 0,0 0.68652516613045,0.22633655345810488 l -6.744517171357555 19.88041798918076" fill="#ff990e" stroke="none" /><path d="M 107.08798089147638 80.2323363322302 l 7.090384036616892 -19.774365797136365 a42.00711994695294,42.00711994695294 0 0,0 0.6785503585427518,0.24991582357333594 l -7.429716720932221 19.649386705756704" fill="#ff9a0e" stroke="none" /><path d="M 108.09893153111575 80.62456947434976 l 8.289103538480266 -19.83038739279479 a42.49310358277651,42.49310358277651 0 0,0 0.6724356429740563,0.28790184933730795 l -8.629222939244636 19.68476601549469" fill="#ffa10e" stroke="none" /><path d="M 108.76106565485865 80.91482961587045 l 13.140376151059074 -28.62509284078195 a52.49707011032468,52.49707011032468 0 0,0 0.8180088182395644,0.38406610846422456 l -13.631163180598238 28.394661749677724" fill="#c7ff1e" stroke="none" /><line stroke="#e1ed5e" stroke-width="0.3" x1="143.23703022742887" x2="145.7803849466894" y1="26.81831364943548" y2="22.513508569990506" /><path d="M 143.74570117128098 25.957352633546492 a86.0,86.0 0 0,1 28.547481713284135,27.462654790039103" fill="none" id="id26" stroke="none" /><text fill="#e1ed5e" style="font-size:6.75px; font-family:Arial;" text-anchor="middle"><textPath startOffset="19.985693538727396" xlink:href="#id26">February</textPath></text><path d="M 112.19680574252982 82.90503203632743 l 14.426958969175491 -20.220737018979438 a45.83979369256111,45.83979369256111 0 0,0 0.6383839220364548,0.4638130685543403 l -14.772888207565735 19.969404715608423" fill="#ffd614" stroke="none" /><path d="M 112.77801427241765 83.33499621200491 l 11.55465059279253 -15.06950076848009 a39.98946559892465,39.98946559892465 0 0,0 0.5426521824888295,0.4235486358388233 l -11.81233533044079 14.868373743418044" fill="#ff790b" stroke="none" /><path d="M 113.6212207817346 84.01681056812373 l 13.619831232404813 -15.98155892969743 a41.99785771507611,41.99785771507611 0 0,0 0.5461845421684821,0.4736458527766553 l -13.89290957322006 15.744748083501102" fill="#ff9a0e" stroke="none" /><path d="M 114.16331599549186 84.49514656593476 l 14.171815115472107 -15.51415758357756 a42.01260167602291,42.01260167602291 0 0,0 0.529743128813251,0.4923385047401005 l -14.436766128080205 15.26791449276282" fill="#ff9a0e" stroke="none" /><path d="M 114.68862486808459 84.99185889309783 l 17.652449123846665 -18.03643633848549 a46.23731356270383,46.23731356270383 0 0,0 0.5640164014858396,0.5615943358140373 l -17.960301325499827 17.729906152021332" fill="#ffdc14" stroke="none" /><path d="M 114.94478906791727 85.2469230424477 l 22.413753316556868 -22.126229154791247 a52.49517985892124,52.49517985892124 0 0,0 0.6292815597058694,0.6485299626876508 l -22.791299139965847 21.737134996553483" fill="#c7ff1e" stroke="none" /><path d="M 115.4437574822437 85.77008943001954 l 17.744920857949776 -16.350207335897736 a45.12905916486893,45.12905916486893 0 0,0 0.5214691999700297,0.5758193150654402 l -18.023733698535843 16.042335233562746" fill="#ffcb12" stroke="none" /><path d="M 115.9244219780498 86.31012108654704 l 16.58072284693685 -14.254086483325327 a42.86548310925353,42.86548310925353 0 0,0 0.47619344081600457,0.5636628347830981 l -16.823626901239972 13.966564698913123" fill="#ffa70f" stroke="none" /><path d="M 116.38621287248628 86.86637796730983 l 21.040827730093028 -16.864316411145133 a47.965192370585285,47.965192370585285 0 0,0 0.5108199784384251,0.6486894980358054 l -21.328001789125416 16.49963451915629" fill="#fff617" stroke="none" /><path d="M 116.60985879189232 87.15038557335679 l 23.936927099458376 -18.5179348988111 a51.26368106958225,51.26368106958225 0 0,0 0.5339333544092995,0.7025937074383348 l -24.25213639409179 18.10315641549173" fill="#d9ff1c" stroke="none" /><path d="M 117.04232023915458 87.72973835380427 l 19.195562936245686 -13.820569990969496 a44.65328288662391,44.65328288662391 0 0,0 0.4437417439412216,0.627641227681868 l -19.43061729999079 13.488102262955834" fill="#ffc312" stroke="none" /><path d="M 117.45458315368197 88.32363383020206 l 20.647049555109252 -13.81198902367164 a45.84092784340317,45.84092784340317 0 0,0 0.433094967735513,0.6596333487990153 l -20.88174115820269 13.454537610894949" fill="#ffd614" stroke="none" /><line stroke="#e1ed5e" stroke-width="0.3" x1="172.23445277983987" x2="176.4835382374775" y1="55.19839476539836" y2="52.563006222186495" /><path d="M 173.08426987136738 54.67131705675599 a86.0,86.0 0 0,1 12.851231095245387,41.99856678651699" fill="none" id="id27" stroke="none" /><text fill="#e1ed5e" style="font-size:6.75px; font-family:Arial;" text-anchor="middle"><textPath startOffset="22.20632615414155" xlink:href="#id27">March</textPath></text><path d="M 117.84615892207809 88.93136811851018 l 21.110405687521066 -13.093198959189301 a45.84111686854352,45.84111686854352 0 0,0 0.4101343642149626,0.6741530571993675 l -21.332655850022253 12.727878128782852" fill="#ffd614" stroke="none" /><path d="M 118.21658344932153 89.55222093294921 l 21.704357192433683 -12.448126146692323 a46.02069075187,46.02069075187 0 0,0 0.3882006528160841,0.6905656447669316 l -21.9154154865422 12.072676991990596" fill="#ffd814" stroke="none" /><path d="M 118.3937258080291 89.86733742301442 l 17.9340606457973 -9.87944405911157 a41.47520320202587,41.47520320202587 0 0,0 0.33909316538363027,0.6282881361292822 l -18.101461910399394 9.56927493964983" fill="#ff910d" stroke="none" /><path d="M 118.73160827565052 90.50648371742162 l 25.9764219250089 -13.165318262007805 a50.122158247046855,50.122158247046855 0 0,0 0.38341061197870646,0.7729323977164003 l -26.199192549941014 12.716226275792454" fill="#e9ff1a" stroke="none" /><path d="M 119.04729006885535 91.15688171328212 l 28.562791303653245 -13.260896494144772 a52.49102130583368,52.49102130583368 0 0,0 0.3734303315866257,0.8228042355848958 l -28.786823952203218 12.767270249717813" fill="#c7ff1e" stroke="none" /><path d="M 119.196687751892 91.48605970444005 l 19.201813949306022 -8.51621381999761 a42.0056077458302,42.0056077458302 0 0,0 0.28745695579904995,0.6634902867357857 l -19.34556161494775 8.184424388675222" fill="#ff9a0e" stroke="none" /><path d="M 119.47837535516314 92.15188598940014 l 17.98854897459306 -7.247841807322181 a40.39379037411976,40.39379037411976 0 0,0 0.2543009348659578,0.647168141304937 l -18.110643459340718 6.93712466112146" fill="#ff800b" stroke="none" /><path d="M 119.7369772167798 92.82701384747503 l 23.679469342853917 -8.605801376262773 a46.19478290612651,46.19478290612651 0 0,0 0.2651732743806297,0.7496805552911985 l -23.824095698044356 8.19692319454496" fill="#ffdb14" stroke="none" /><path d="M 119.97218684219823 93.5106431181261 l 29.047277588536037 -9.438032610460038 a51.542115101308475,51.542115101308475 0 0,0 0.2669010653454869,0.8461493144384021 l -29.205434137649732 8.936633129595217" fill="#d5ff1c" stroke="none" /><path d="M 120.08093135843002 93.85539295169968 l 31.044409282109935 -9.499345059266528 a53.46525687916492,53.46525687916492 0 0,0 0.2617101484088641,0.8823565173507856 l -31.203325327630502 8.96355915516921" fill="#baff1f" stroke="none" /><path d="M 120.28053869075195 94.5502522615342 l 20.281938234060874 -5.450123821078739 a42.00144919274263,42.00144919274263 0 0,0 0.18161360254591166,0.6998312954604285 l -20.372748168477088 5.10019610006946" fill="#ff9a0e" stroke="none" /><path d="M 120.45610955862082 95.25157060432595 l 24.196270212837547 -5.616624237128724 a45.839604667420765,45.839604667420765 0 0,0 0.17180162785398145,0.7701530107554959 l -24.289366227693566 5.199293056823263" fill="#ffd614" stroke="none" /><path d="M 120.6074358757038 95.95851677861258 l 28.440313045492726 -5.577649188266095 a49.9820906180522,49.9820906180522 0 0,0 0.15831059880626455,0.8457015490879386 l -28.53210936820885 5.087269561715594" fill="#ebff1a" stroke="none" /><path d="M 120.67395015179393 96.31383870115 l 23.110368437612436 -4.120574206255367 a44.4748431541395,44.4748431541395 0 0,0 0.12789299939326368,0.7548317220266374 l -23.177873298525924 3.7221566959128918" fill="#ffc111" stroke="none" /><path d="M 120.78858239683441 97.02765380044208 l 22.10660829816181 -3.1607972061703657 a43.33143008020066,43.33143008020066 0 0,0 0.09921659641912732,0.7392788861830175 l -22.157740893638774 2.779799977922684" fill="#ffaf10" stroke="none" /><path d="M 120.87857604477298 97.74499172005257 l 24.504101005366454 -2.6465861724129995 a45.64660999912988,45.64660999912988 0 0,0 0.07764895771577336,0.7819144074799347 l -24.546027088764454 2.22439623422863" fill="#ffd313" stroke="none" /><path d="M 120.96714384426684 98.82574320788733 l 43.51477055715378 -2.437027916796309 a64.58295953361798,64.58295953361798 0 0,0 0.052608638439157765,1.1104852090002717 l -43.55027280382644 1.687631601173038" fill="#30ff33" stroke="none" /><line stroke="#e1ed5e" stroke-width="0.3" x1="184.98032266829074" x2="189.97916517819016" y1="98.17113171792111" y2="98.06355123074" /><path d="M 185.9800911702706 98.14961562048488 a86.0,86.0 0 0,1 -9.607161424134198,41.387399972396054" fill="none" id="id28" stroke="none" /><text fill="#e1ed5e" style="font-size:6.75px; font-family:Arial;" text-anchor="middle"><textPath startOffset="21.466115282336823" xlink:href="#id28">April</textPath></text><path d="M 120.99513854157772 99.54816195383933 l 26.506906517635798 -0.5704572430886184 a47.51304423488324,47.51304423488324 0 0,0 0.010559192345707916,0.8178210838133169 l -26.512798717099223 0.11409990121483887" fill="#ffef16" stroke="none" /><path d="M 120.99824983174949 100.27111621757518 l 27.500676760436615 0.3550714713744397 a48.50296889486302,48.50296889486302 0 0,0 -0.017964431031203702,0.8347365201437511 l -27.490490266720407 -0.8283978073083056" fill="#fffe18" stroke="none" /><path d="M 120.95626037817324 101.35467743843564 l 56.78485157809371 3.670748305736867 a77.90337214849575,77.90337214849575 0 0,0 -0.09802262780076416,1.3374408770010493 l -56.71325239162861 -4.647662319234687" fill="#44ffe6" stroke="none" /><path d="M 120.89721153311464 102.0752229133903 l 23.28451303158396 2.3122967814967645 a44.399044072861685,44.399044072861685 0 0,0 -0.08206993840294544,0.7598657021231305 l -23.241260791679963 -2.7127588055046865" fill="#ffbf11" stroke="none" /><path d="M 120.8583938346157 102.4346265915055 l 24.671544217464525 2.879703877566073 a45.83903759199974,45.83903759199974 0 0,0 -0.09822321472461817,0.7829356640382378 l -24.618319493493058 -3.3039572958917054" fill="#ffd614" stroke="none" /><path d="M 120.81339534386255 102.79330883721812 l 21.183714899530763 2.8430084114755996 a42.37363969407931,42.37363969407931 0 0,0 -0.10324226127753229,0.7220761349141401 l -21.13163858723663 -3.207230018370149" fill="#ffa00e" stroke="none" /><path d="M 120.70491114924044 103.5080841355445 l 31.24401526476027 5.293750525707356 a52.689308678054175,52.689308678054175 0 0,0 -0.15920590887196168,0.8929112854928095 l -31.148262913549118 -5.830780561933384" fill="#c4ff1e" stroke="none" /><path d="M 120.64145759157962 103.86396538481128 l 26.11592870328775 4.888755750604957 a47.56956275184599,47.56956275184599 0 0,0 -0.1575913175697275,0.8035547331236839 l -26.027907452742358 -5.337574210796586" fill="#fff016" stroke="none" /><path d="M 120.49622156327973 104.57218783832717 l 20.50187927290658 4.573449930028742 a42.00579677097054,42.00579677097054 0 0,0 -0.1635014312235878,0.7043598864811987 l -20.420117275752443 -4.925678473858506" fill="#ff9a0e" stroke="none" /><path d="M 120.41448212921028 104.9243191809786 l 21.19041730742749 5.111487900572218 a42.79819015929118,42.79819015929118 0 0,0 -0.17891413641115395,0.7146730387161784 l -21.09929185672128 -5.475488778685793" fill="#ffa60f" stroke="none" /><path d="M 120.32669344350535 105.2749913415812 l 24.038800723170734 6.23832233359319 a45.83506806405252,45.83506806405252 0 0,0 -0.2047559955283019,0.7619732304607908 l -23.927856651300655 -6.651186497229529" fill="#ffd614" stroke="none" /><path d="M 120.13307415673323 105.97154293290107 l 30.839777137292774 9.147189931491647 a53.167731308264,53.167731308264 0 0,0 -0.26779631138103904,0.875173840184114 l -30.6777540534056 -9.676690744227818" fill="#beff1f" stroke="none" /><path d="M 120.02730092923936 106.31721596034902 l 22.49837767078531 7.096668243314951 a44.59109361545085,44.59109361545085 0 0,0 -0.23719860440503884,0.7300222398183388 l -22.372886815364023 -7.482889383111084" fill="#ffc212" stroke="none" /><path d="M 119.79798401119884 107.00284435728193 l 20.17340371887228 7.135635947577495 a42.39821296232398,42.39821296232398 0 0,0 -0.2492928894086061,0.685946964616799 l -20.047586568458446 -7.481830709200426" fill="#ffa00e" stroke="none" /><path d="M 119.54520255179757 107.68017299344265 l 20.261531771094354 7.961650369278339 a42.76964736309929,42.76964736309929 0 0,0 -0.27514607370894867,0.6828899903803397 l -20.121483083128012 -8.309239727501492" fill="#ffa60f" stroke="none" /><path d="M 119.26925614724726 108.34839909993367 l 27.7699785528534 12.031334379710225 a51.264248145003286,51.264248145003286 0 0,0 -0.35777298096183513,0.8066836227603802 l -27.55876448716029 -12.507566338963292" fill="#d9ff1c" stroke="none" /><path d="M 118.81262510543309 109.33194174019688 l 20.673234250500553 10.25489087917869 a44.07694523371608,44.07694523371608 0 0,0 -0.34300538199293573,0.6767821596010835 l -20.493650198721348 -10.609227250482467" fill="#ffba11" stroke="none" /><line stroke="#e1ed5e" stroke-width="0.3" x1="174.80103733775053" x2="179.2010983576182" y1="140.37084112569926" y2="142.7455964860345" /><path d="M 175.68104954172406 140.8457921977663 a86.0,86.0 0 0,1 -30.038265399797805,32.042727171017184" fill="none" id="id29" stroke="none" /><text fill="#e1ed5e" style="font-size:6.75px; font-family:Arial;" text-anchor="middle"><textPath startOffset="22.206326154141568" xlink:href="#id29">May</textPath></text><path d="M 118.48025628344425 109.97397251340804 l 25.258570028050055 13.632293801761639 a49.702522435483914,49.702522435483914 0 0,0 -0.4128234486911431,0.7493944720508922 l -25.020170169907402 -14.065058792210335" fill="#efff19" stroke="none" /><path d="M 118.12598468904814 110.60418214915192 l 20.13421211517919 11.779048496494877 a44.326647444110066,44.326647444110066 0 0,0 -0.39095918203959434,0.6552700770284954 l -19.92847205744137 -12.123880667409477" fill="#ffbe11" stroke="none" /><path d="M 117.55443506779139 111.5257021239791 l 19.917909904335644 13.077487005596293 a44.82737504088043,44.82737504088043 0 0,0 -0.4290553893240913,0.6413795920398347 l -19.689851409600834 -13.418403511841936" fill="#ffc612" stroke="none" /><path d="M 117.14729908036423 112.12312394758627 l 17.88486821590757 12.64458461659304 a42.903288137322264,42.903288137322264 0 0,0 -0.43152578229212124,0.5993515692922613 l -17.664562641239847 -12.950569791336433" fill="#ffa80f" stroke="none" /><path d="M 116.71984013943494 112.70617746262583 l 12.412520683311199 9.432846800292186 a36.59003747498417,36.59003747498417 0 0,0 -0.3854031832000904,0.49818556715803475 l -12.24831068289304 -9.645110361563473" fill="#ff4006" stroke="none" /><path d="M 116.498646956653 112.99209946851258 l 23.776656646465725 18.72327403520731 a51.26368106958225,51.26368106958225 0 0,0 -0.551895240569772,0.6885741703833669 l -23.4508434938411 -19.129776039168927" fill="#d9ff1c" stroke="none" /><path d="M 116.0416608686014 113.55231037782055 l 17.359931347165418 14.666011186842534 a43.725736522957554,43.725736522957554 0 0,0 -0.49068082553188186,0.5707726541415166 l -17.104908012062758 -14.962660940145579" fill="#ffb510" stroke="none" /><path d="M 115.56566222782051 114.09645910891815 l 16.18097686422176 14.65369576767376 a42.83013540800926,42.83013540800926 0 0,0 -0.49959026258197536,0.5422065597575325 l -15.926340193644062 -14.930053582232627" fill="#ffa70f" stroke="none" /><path d="M 115.07121518719521 114.62390073753431 l 23.289662253245357 22.598423867740152 a53.451458043919835,53.451458043919835 0 0,0 -0.646404708319245,0.6548045567805736 l -22.897216919870576 -22.99596891850139" fill="#baff1f" stroke="none" /><path d="M 114.81725581225074 114.88116024355365 l 16.45436543192112 16.525330452617318 a44.32022058933838,44.32022058933838 0 0,0 -0.5452443380938513,0.5336363435458626 l -16.167471141451472 -16.80611689908575" fill="#ffbe11" stroke="none" /><path d="M 114.29624159901734 115.38237550388516 l 15.554335223766964 16.736050763281508 a43.8480357887599,43.8480357887599 0 0,0 -0.5572885955720519,0.5090699188700023 l -15.263947078728048 -17.001313448738095" fill="#ffb711" stroke="none" /><path d="M 113.75828350139079 115.86535959552629 l 14.250014920875286 16.43239950233962 a42.750555823924586,42.750555823924586 0 0,0 -0.560102562032468,0.4773315545296509 l -13.96504688226577 -16.67525544709222" fill="#ffa60f" stroke="none" /><path d="M 113.20401910651253 116.32954008644616 l 15.61465418475716 19.310796159044045 a45.83393391321046,45.83393391321046 0 0,0 -0.6177595987343962,0.49078558689577884 l -15.279937093305412 -19.57671565994495" fill="#ffd513" stroke="none" /><path d="M 112.92097659922987 116.55440617244103 l 16.917966260996693 21.67536508911296 a48.49616398981064,48.49616398981064 0 0,0 -0.6624836298545248,0.5079641976212608 l -16.542353902648674 -21.963368628561593" fill="#fffd18" stroke="none" /><path d="M 112.34349029814194 116.9893568818739 l 12.959203766653081 17.83681376812323 a43.047514319404485,43.047514319404485 0 0,0 -0.6032241461064077,0.43038441165248137 l -12.65025229269779 -18.05724244161993" fill="#ffaa0f" stroke="none" /><path d="M 111.7513745106137 117.40417183066458 l 12.172646807787666 18.028089946872377 a42.752824125608704,42.752824125608704 0 0,0 -0.6134527433031606,0.40656302770566105 l -11.860519365744542 -18.234950995669355" fill="#ffa60f" stroke="none" /><path d="M 111.1453310114006 117.79835938074945 l 14.623638441741333 23.352987199215267 a48.55381665761546,48.55381665761546 0 0,0 -0.7121707358675575,0.43747343291053586 l -14.219488505941467 -23.60124909895418" fill="#fffe18" stroke="none" /><line stroke="#e1ed5e" stroke-width="0.3" x1="143.8653032363475" x2="146.44561519142675" y1="172.8068346515853" y2="177.08958963109032" /><path d="M 144.38136562736335 173.6633856474863 a86.0,86.0 0 0,1 -40.68145358897372,12.25698825130547" fill="none" id="id30" stroke="none" /><text fill="#e1ed5e" style="font-size:6.75px; font-family:Arial;" text-anchor="middle"><textPath startOffset="21.466115282336833" xlink:href="#id30">June</textPath></text><path d="M 110.8373102113329 117.98757091392108 l 17.17716708766136 28.51035036041274 a54.2850589128354,54.2850589128354 0 0,0 -0.8045359265138792,0.47533400647667107 l -16.6838632901191 -28.801802939183162" fill="#aeff20" stroke="none" /><path d="M 110.21172684928248 118.3499491758327 l 11.133999081160088 20.00722505394971 a43.89661524982823,43.89661524982823 0 0,0 -0.6634183007844895,0.3617485535755901 l -10.78795796850695 -20.19591425928507" fill="#ffb811" stroke="none" /><path d="M 109.57404056367764 118.69057910512821 l 9.757829142137796 19.049373800166478 a42.40312761597292,42.40312761597292 0 0,0 -0.6524954757681368,0.3271747771340233 l -9.4284797586869 -19.214516418209804" fill="#ffa00e" stroke="none" /><path d="M 108.92500713936063 119.00905698771935 l 12.209346783418194 26.004255813452577 a49.72785180428997,49.72785180428997 0 0,0 -0.7779614675925777,0.3571239531713312 l -11.759917320058197 -26.210566836957984" fill="#efff19" stroke="none" /><path d="M 108.59647513512805 119.15986991738527 l 11.616380077223939 25.890650259782475 a49.37721016895247,49.37721016895247 0 0,0 -0.7784654014294802,0.341256354997358 l -11.168994001136705 -26.086771168074286" fill="#f4ff19" stroke="none" /><path d="M 107.93186726928326 119.44442032107085 l 8.225496457070486 20.164231829765612 a42.77739739385338,42.77739739385338 0 0,0 -0.684191724113188,0.2722540071325766 l -7.877183656915433 -20.30283268130426" fill="#ffa60f" stroke="none" /><path d="M 107.2578585660854 119.70592522655815 l 8.584023932527247 23.3066175397523 a45.8371473405963,45.8371473405963 0 0,0 -0.742737363644652,0.26631919327332415 l -8.181567008252859 -23.45092427406558" fill="#ffd614" stroke="none" /><path d="M 106.57524785965236 119.94407469862006 l 8.93233401769444 27.093600223816 a49.52805223094671,49.52805223094671 0 0,0 -0.811973866777904,0.25996839085269646 l -8.464638805825597 -27.243341461328402" fill="#f1ff19" stroke="none" /><path d="M 106.2309692047433 120.05430185196036 l 7.300121402628204 23.495355755059194 a45.603323241991184,45.603323241991184 0 0,0 -0.7516405439401871,0.22646313008777794 l -6.894605884247771 -23.617534254252696" fill="#ffd213" stroke="none" /><path d="M 105.18746579009965 120.34920634021253 l 6.135839920426046 24.06945465540394 a45.839226617140085,45.839226617140085 0 0,0 -0.766271901612314,0.18833099011356533 l -5.720614734070521 -24.17150690383154" fill="#ffd614" stroke="none" /><path d="M 104.83641907484287 120.43548508189849 l 4.834489086943613 20.42733023875668 a41.99161988544476,41.99161988544476 0 0,0 -0.7048190430463472,0.16041451950355431 l -4.482149894504404 -20.50752149183792" fill="#ff990e" stroke="none" /><path d="M 104.13013068566511 120.58985236759428 l 8.261240342505882 41.184585179298736 a63.004977662029056,63.004977662029056 0 0,0 -1.065181310152698,0.20414453324364948 l -7.55109141778148 -41.320686910890856" fill="#3fff2d" stroke="none" /><path d="M 103.7750983002368 120.6578951692458 l 4.214555539607409 23.062670054634754 a44.44459913168451,44.44459913168451 0 0,0 -0.7537614139648512,0.13105108358561712 l -3.8169451541705084 -23.13179971674138" fill="#ffc011" stroke="none" /><path d="M 103.06178313531738 120.77559828337769 l 3.6204920237707383 24.566693508237993 a45.83204366180702,45.83204366180702 0 0,0 -0.7814830687033304,0.10830643243234207 l -3.197080363880578 -24.625374506162938" fill="#ffd513" stroke="none" /><path d="M 102.34483914955558 120.86867818915974 l 2.7731856799887633 24.680891022072924 a45.836202214894584,45.836202214894584 0 0,0 -0.7848192481842938,0.08134972400660412 l -2.347933835198867 -24.724970114535285" fill="#ffd614" stroke="none" /><path d="M 101.62511606390274 120.93702456842531 l 1.9461955705529101 25.07362112818648 a46.14903882216335,46.14903882216335 0 0,0 -0.7925267596919502,0.05465728545187752 l -1.5143060500820296 -25.103406758154645" fill="#ffda14" stroke="none" /><path d="M 101.26447882468166 120.96189622390904 l 2.0923547051751252 34.68600765578704 a55.749058624797094,55.749058624797094 0 0,0 -0.9583845399175316,0.0495375336554309 l -1.4949820968441139 -34.71688499620467" fill="#9bff22" stroke="none" /><line stroke="#e1ed5e" stroke-width="0.3" x1="102.19456741930631" x2="102.32365962044197" y1="184.97166512339345" y2="189.96999836594603" /><path d="M 102.22038585953345 185.97133177190398 a86.0,86.0 0 0,1 -42.740103519485714,-10.115201625700543" fill="none" id="id31" stroke="none" /><text fill="#e1ed5e" style="font-size:6.75px; font-family:Arial;" text-anchor="middle"><textPath startOffset="22.20632615414155" xlink:href="#id31">July</textPath></text><path d="M 100.54218724476979 120.99299961872073 l 0.5861476692524934 22.695107485157042 a43.702675455835625,43.702675455835625 0 0,0 -0.7521861223465389,0.012949566237402316 l -0.1954018570132865 -22.701834528673604" fill="#ffb510" stroke="none" /><path d="M 99.81925306533755 120.99922214144158 l -0.21373908416970674 24.832257969796967 a45.83317781264908,45.83317781264908 0 0,0 -0.788855142943256,-0.01358085668131068 l 0.6411539170056306 -24.8248996358365" fill="#ffd513" stroke="none" /><path d="M 98.73552117531835 120.96189622390904 l -2.4026687330258896 39.8302380862722 a60.9026400511268,60.9026400511268 0 0,0 -1.0458933318720445,-0.07213092768572947 l 3.0879248256768643 -39.782978814070184" fill="#58ff2a" stroke="none" /><path d="M 98.01472825383883 120.90594882070398 l -1.9853730084881207 20.907015165917755 a42.00107114246195,42.00107114246195 0 0,0 -0.7191531471656567,-0.07454316414352762 l 2.344958752259371 -20.869742633318467" fill="#ff9a0e" stroke="none" /><path d="M 97.2962882734958 120.8252237178851 l -2.71436306362273 20.907265185625043 a42.082730003090404,42.082730003090404 0 0,0 -0.7175534485195617,-0.09944636960289302 l 3.0738451033291225 -20.857444250529543" fill="#ff9b0e" stroke="none" /><path d="M 96.58105272829116 120.7198165907248 l -4.351223305421843 26.36968097743321 a47.72626459319089,47.72626459319089 0 0,0 -0.809417058222001,-0.14072753073775965 l 4.804489335115894 -26.290874868174445" fill="#fff216" stroke="none" /><path d="M 96.22490169976321 120.6578951692458 l -6.520839545998587 35.68299658535028 a57.273924431949446,57.273924431949446 0 0,0 -0.9682903816150232,-0.1855751561870458 l 7.134097542185305 -35.56546423081477" fill="#87ff25" stroke="none" /><path d="M 95.51606077576429 120.51570834832081 l -4.484692626227851 20.519155445787298 a42.003528469286415,42.003528469286415 0 0,0 -0.7050189257060341,-0.16046001214613256 l 4.837231701326747 -20.43891870006348" fill="#ff9a0e" stroke="none" /><path d="M 94.81253420990036 120.34920634021253 l -6.134812665574693 24.065424976601303 a45.83506806405252,45.83506806405252 0 0,0 -0.7628473496558212,-0.2014749184557707 l 6.548150458042004 -23.95625870884195" fill="#ffd614" stroke="none" /><path d="M 94.11515582081647 120.15858648285463 l -6.960713246347506 23.8439856156592 a45.839226617140085,45.839226617140085 0 0,0 -0.7555287373569988,-0.22763461086892633 l 7.3701169581447505 -23.72063563568455" fill="#ffd614" stroke="none" /><path d="M 93.08242187328487 119.8279376855182 l -8.93131774911537 25.599943872714128 a48.11319905547438,48.11319905547438 0 0,0 -0.7796181197193449,-0.2795433202472576 l 9.370655429464442 -25.442413011426915" fill="#fff817" stroke="none" /><path d="M 92.40401165467489 119.57807347666478 l -8.985920041924757 23.160515108545457 a45.842629069666266,45.842629069666266 0 0,0 -0.7332177582538925,-0.29176247789919435 l 9.383258876220507 -23.002405786240196" fill="#ffd614" stroke="none" /><path d="M 92.06813273071674 119.44442032107085 l -7.374809529087471 18.078832058466002 a40.5251628466586,40.5251628466586 0 0,0 -0.6436332579939862,-0.26903875404169003 l 7.684914246578919 -17.94920826140434" fill="#ff820c" stroke="none" /><path d="M 91.7346041902142 119.30500536409082 l -9.776998865373809 22.835568904914034 a45.840549793122484,45.840549793122484 0 0,0 -0.7227075380392913,-0.3168137462596542 l 10.168627078070843 -22.663890605359928" fill="#ffd614" stroke="none" /><path d="M 91.40352486487194 119.15986991738527 l -16.608226228018424 37.01650375129007 a61.571600022803025,61.571600022803025 0 0,0 -0.9632495790142038,-0.44218063731702373 l 17.24294380280005 -36.72513604363897" fill="#50ff2b" stroke="none" /><path d="M 90.7491055286396 118.85261126421891 l -8.781228849783053 17.89546885867343 a40.93383520008161,40.93383520008161 0 0,0 -0.6298861375459162,-0.3158379855872397 l 9.08796889501173 -17.741663032176884" fill="#ff880c" stroke="none" /><path d="M 90.10565033884886 118.52300852407294 l -13.972779044654951 26.15815230033216 a50.65615426851771,50.65615426851771 0 0,0 -0.765576562061453,-0.41745338295554435 l 14.420978418585046 -25.91375826561685" fill="#e1ff1b" stroke="none" /><line stroke="#e1ed5e" stroke-width="0.3" x1="58.666819895761336" x2="56.23545636021788" y1="174.27360380694188" y2="178.64263932499728" /><path d="M 58.180547188652646 175.14741091055294 a86.0,86.0 0 0,1 -31.652253787137756,-30.449443065178592" fill="none" id="id32" stroke="none" /><text fill="#e1ed5e" style="font-size:6.75px; font-family:Arial;" text-anchor="middle"><textPath startOffset="22.20632615414155" xlink:href="#id32">August</textPath></text><path d="M 89.4739219176387 118.17145234162733 l -10.534384262690255 18.185791524636215 a42.01657120397013,42.01657120397013 0 0,0 -0.6227098527571047,-0.3679079571574933 l 10.845861986475741 -18.00176499518497" fill="#ff9a0e" stroke="none" /><path d="M 88.24862548938628 117.40417183066458 l -13.902514688935051 20.590081126767494 a45.84414127078901,45.84414127078901 0 0,0 -0.6502077075181013,-0.4472187901413631 l 14.254879281076043 -20.347721547261028" fill="#ffd614" stroke="none" /><path d="M 87.95078237400918 117.19931262002967 l -15.336524766381649 21.891685597315693 a47.72928899543639,47.72928899543639 0 0,0 -0.6688297815504658,-0.4771922906041633 l 15.711081875781002 -21.624449044867312" fill="#fff216" stroke="none" /><path d="M 87.65650970185807 116.9893568818739 l -14.603908694359012 20.10055589512753 a45.84565347191176,45.84565347191176 0 0,0 -0.6344493304723755,-0.46935044714215246 l 14.947742995249952 -19.846195499245614" fill="#ffd614" stroke="none" /><path d="M 87.36589467227662 116.77436683061367 l -18.20133150335702 24.166001748691507 a51.25366273714404,51.25366273714404 0 0,0 -0.7001525427985957,-0.5368471137819223 l 18.614612774649107 -23.849115293082217" fill="#d9ff1c" stroke="none" /><path d="M 87.07902340077011 116.55440617244103 l -20.94965335969156 26.840778498805463 a55.048720479823814,55.048720479823814 0 0,0 -0.7419584698719357,-0.5894566815868375 l 21.408569322280854 -26.476187903213496" fill="#a4ff21" stroke="none" /><path d="M 86.51685102203217 116.09983520530335 l -14.718720317211236 17.575194928667678 a43.92440194545875,43.92440194545875 0 0,0 -0.5754818759953143,-0.49043813953588644 l 15.019067669783608 -17.319232398908838" fill="#ffb811" stroke="none" /><path d="M 85.97065885151581 115.62618273729859 l -16.597978143892988 18.48718601972145 a45.84489737135039,45.84489737135039 0 0,0 -0.5826677982409157,-0.5322532187729188 l 16.91374549160076 -18.198740034361954" fill="#ffd614" stroke="none" /><path d="M 85.44109423537348 115.13401014063109 l -27.799909687551743 28.898058818559118 a61.09903717194386,61.09903717194386 0 0,0 -0.751663769674515,-0.7356612028788617 l 28.293223409602053 -28.415247512757688" fill="#56ff2a" stroke="none" /><path d="M 85.18274418774928 114.88116024355367 l -22.908820374431013 23.007622416887397 a53.46790323112974,53.46790323112974 0 0,0 -0.6466035849604258,-0.6550060177680981 l 23.301464584446972 -22.609875905138633" fill="#baff1f" stroke="none" /><path d="M 84.67929136418377 114.36230785411682 l -18.126472081367442 16.992554230360053 a45.84584249705211,45.84584249705211 0 0,0 -0.5347668475292844,-0.5803837952579293 l 18.416285336892454 -16.67801918030078" fill="#ffd614" stroke="none" /><path d="M 84.19399662182784 113.82643327865904 l -16.43992423111369 14.380960831731096 a42.84223301699126,42.84223301699126 0 0,0 -0.4807663389127659,-0.5592398663340622 l 16.685033079597236 -14.095843866235505" fill="#ffa70f" stroke="none" /><path d="M 83.72743513129214 113.27417163493432 l -26.891484037926993 21.936441951076688 a55.70388161625497,55.70388161625497 0 0,0 -0.5996976124977034,-0.7482149793141522 l 27.26509956247956 -21.470299138184277" fill="#9bff22" stroke="none" /><path d="M 83.50135304334701 112.99209946851258 l -17.828928303070473 14.039648859633619 a43.69322419881844,43.69322419881844 0 0,0 -0.4602211107876744,-0.5948978241231208 l 18.067956231076213 -13.730673041397246" fill="#ffb410" stroke="none" /><path d="M 83.06392112726016 112.41649034213515 l -17.27476081449852 12.66479109052567 a42.419950853463504,42.419950853463504 0 0,0 -0.4266643250802423,-0.5925994304200239 l 17.49020493195437 -12.365558054654507" fill="#ffa00e" stroke="none" /><path d="M 82.6465618267979 111.8261652097733 l -20.539432555909702 13.997383129314677 a45.85548277920963,45.85548277920963 0 0,0 -0.43889569707204124,-0.6560895169725317 l 20.777331358392473 -13.641756698136323" fill="#ffd614" stroke="none" /><path d="M 82.24976979558568 111.22182372390057 l -34.31403697972136 21.693581987802954 a61.596362316188056,61.596362316188056 0 0,0 -0.558870718526573,-0.9010775465755887 l 34.682372337915886 -21.0997081098621" fill="#50ff2b" stroke="none" /><path d="M 82.05923443525364 110.91462005526583 l -18.22363935608884 11.086711928656257 a42.33110903750199,42.33110903750199 0 0,0 -0.3733586165070848,-0.6257705168133731 l 18.41177884829416 -10.771379317956772" fill="#ff9f0e" stroke="none" /><line stroke="#e1ed5e" stroke-width="0.3" x1="26.63291911575756" x2="22.317208475507996" y1="142.92168965132927" y2="145.44649492493687" /><path d="M 25.769776987707644 143.4266507060508 a86.0,86.0 0 0,1 -11.730757126820373,-40.83630448921669" fill="none" id="id33" stroke="none" /><text fill="#e1ed5e" style="font-size:6.75px; font-family:Arial;" text-anchor="middle"><textPath startOffset="21.46611528233685" xlink:href="#id33">September</textPath></text><path d="M 81.69416730710424 110.29060199501025 l -18.320113141695902 10.298629732255407 a42.01638217882978,42.01638217882978 0 0,0 -0.34898324959470484,-0.6335059670515162 l 18.494672800742123 -9.981753246806068" fill="#ff9a0e" stroke="none" /><path d="M 81.51974371655577 109.97397251340807 l -10.464561769532091 5.647824892324573 a32.891382553879666,32.891382553879666 0 0,0 -0.2646150754044624,-0.500551999870385 l 10.56022935316144 -5.466857877368063" fill="#ff0000" stroke="none" /><path d="M 81.35079622478065 109.6543875284942 l -19.231304195196024 9.95573138760423 a42.65547617833171,42.65547617833171 0 0,0 -0.33194355514110385,-0.6549561257866433 l 19.399826420123393 -9.623221050114902" fill="#ffa40f" stroke="none" /><path d="M 81.02952815118164 109.00673069616217 l -24.144009222553013 11.463003699970475 a47.727020693752266,47.727020693752266 0 0,0 -0.3459649529619028,-0.7451777301928343 l 24.337748792354745 -11.045705902498813" fill="#fff216" stroke="none" /><path d="M 80.87730276802145 108.67885076344099 l -20.28208845991163 9.205041358920749 a43.27321033697482,43.27321033697482 0 0,0 -0.3020035603420093,-0.6809383019597524 l 20.43753310498492 -8.8545547204683" fill="#ffae10" stroke="none" /><path d="M 80.58989483394504 108.01547362559985 l -22.961112707243036 9.48187512354105 a45.84187296910489,45.84187296910489 0 0,0 -0.2949103426509996,-0.731943285038604 l 23.120925664151425 -9.08523247065964" fill="#ffd614" stroke="none" /><path d="M 80.32549172779594 107.34259656027581 l -20.82644654326548 7.772504025800392 a43.22954552955543,43.22954552955543 0 0,0 -0.2541809562223883,-0.6993968251471818 l 20.95715176049309 -7.412859403647093" fill="#ffad10" stroke="none" /><path d="M 80.0844068197444 106.66101706037122 l -18.184558496126144 6.082051048225928 a40.17471023646145,40.17471023646145 0 0,0 -0.21370602126616928,-0.6577195034461166 l 18.286556768408563 -5.768132644802008" fill="#ff7c0b" stroke="none" /><path d="M 79.97269907076064 106.31721596034903 l -29.144560389019606 9.193075127665912 a51.56007248964112,51.56007248964112 0 0,0 -0.25969882271653427,-0.8487107787109581 l 29.29848598424227 -8.690037376402907" fill="#d4ff1c" stroke="none" /><path d="M 79.76711848015287 105.62410040840567 l -21.26817389805184 5.9118789080409755 a43.07454491447363,43.07454491447363 0 0,0 -0.19242409138711372,-0.7160816275704869 l 21.36678606578073 -5.544906347294949" fill="#ffab0f" stroke="none" /><path d="M 79.58551787078972 104.9243191809786 l -21.371415764297712 5.155147796877804 a42.9843799225297,42.9843799225297 0 0,0 -0.16731042327112308,-0.7207689245313986 l 21.45698675349939 -4.786510214997831" fill="#ffa90f" stroke="none" /><path d="M 79.4281124754447 104.21870165774334 l -18.887319614062704 3.8732452951177176 a40.28037528991356,40.28037528991356 0 0,0 -0.1334432575564093,-0.6804242953641897 l 18.951192804594783 -3.547557272685573" fill="#ff7e0b" stroke="none" /><path d="M 79.35854240842038 103.8639653848113 l -39.72822087905253 7.436900693457707 a61.418300633984316,61.418300633984316 0 0,0 -0.18558141336702697,-1.0408391217840662 l 39.85034873475875 -6.751942820940427" fill="#52ff2b" stroke="none" /><path d="M 79.23777060512086 103.15116336523772 l -25.51072603849492 3.8718609540528677 a46.80287678261209,46.80287678261209 0 0,0 -0.11403398122550155,-0.7975533990952912 l 25.57359407073702 -3.4321620829771757" fill="#ffe415" stroke="none" /><path d="M 79.1416061653843 102.43462659150553 l -19.739713680773963 2.3040523741651406 a40.87372520545232,40.87372520545232 0 0,0 -0.07555352102638592,-0.6995317703385835 l 19.7764495033014 -1.9639242819417753" fill="#ff870c" stroke="none" /><path d="M 79.07016306316243 101.71520430193888 l -28.643172844346918 2.347313714486395 a49.73919331271058,49.73919331271058 0 0,0 -0.06258479317055675,-0.8539197789625164 l 28.67933419618181 -1.8539207990271183" fill="#eeff19" stroke="none" /><path d="M 79.0235259727143 100.99374915477108 l -21.872519383497483 1.0361988207260784 a42.897050307690925,42.897050307690925 0 0,0 -0.028593676727733844,-0.7378757431963425 l 21.88711519307642 -0.6595458305157391" fill="#ffa80f" stroke="none" /><path d="M 79.0095281055655 100.63252640178507 l -21.002878913457643 0.6329002746136168 a42.01241265088257,42.01241265088257 0 0,0 -0.015560472002388779,-0.7230339902503138 l 21.01066144814504 -0.271276468573174" fill="#ff9a0e" stroke="none" /><line stroke="#e1ed5e" stroke-width="0.3" x1="15.007084014347285" x2="10.007500721073583" y1="101.09737516637583" y2="101.16192664675087" /><path d="M 14.007167355692545 101.11028546245083 a86.0,86.0 0 0,1 10.666146001902534,-42.60595125391555" fill="none" id="id34" stroke="none" /><text fill="#e1ed5e" style="font-size:6.75px; font-family:Arial;" text-anchor="middle"><textPath startOffset="22.20632615414155" xlink:href="#id34">October</textPath></text><path d="M 79.00175016825051 100.2711162175752 l -19.09391725727371 0.2465286710542327 a40.095508702657455,40.095508702657455 0 0,0 -0.0029703186460704628,-0.6901974458387008 l 19.095331873209282 0.08217825298814352" fill="#ff7b0b" stroke="none" /><path d="M 79.00019446554 99.90962569577889 l -19.281897959061304 -0.08298115471846983 a40.282076516176645,40.282076516176645 0 0,0 0.008952198304030188,-0.6933576243157903 l 19.277612753639556 0.4148750370947321" fill="#ff7e0b" stroke="none" /><path d="M 79.08570108090925 98.10471618934814 l -29.202671305008884 -2.646388022198977 a50.3223358706708,50.3223358706708 0 0,0 0.08560278474688802,-0.8620083602281173 l 29.15279139457977 3.1486719131315244" fill="#e6ff1a" stroke="none" /><path d="M 79.16333360222342 97.38593545837743 l -21.26854291178046 -2.668245621266741 a42.435261889831345,42.435261889831345 0 0,0 0.09716462727103416,-0.7239893326099595 l 21.219462285451595 3.0339532959413598" fill="#ffa10e" stroke="none" /><path d="M 79.26566170972629 96.67025291283419 l -20.744914209399 -3.331445484067053 a42.01071142461947,42.01071142461947 0 0,0 0.12080707900685092,-0.7130102187950947 l 20.684495268871924 3.6880414911779758" fill="#ff9a0e" stroke="none" /><path d="M 79.32604984820605 96.31383870115002 l -32.085875853590686 -5.720905436204131 a53.59190372319518,53.59190372319518 0 0,0 0.16974412764003424,-0.9067799173031629 l 31.98264600204079 6.272363430969866" fill="#b8ff1f" stroke="none" /><path d="M 79.46518482838121 95.60439243477599 l -21.006829606627964 -4.4966452519078794 a42.482707200057604,42.482707200057604 0 0,0 0.1592203577139755,-0.7137536436570214 l 20.926314861911948 4.85757706511486" fill="#ffa10e" stroke="none" /><path d="M 79.62865764111835 94.90015583598534 l -24.105172644367702 -6.0345863255961225 a45.84905592443795,45.84905592443795 0 0,0 0.19825059324868485,-0.7639404072938514 l 23.99772571924871 6.4486231584388385" fill="#ffd614" stroke="none" /><path d="M 79.81627453868168 94.20196356495316 l -22.780747513300753 -6.544064640239783 a44.702051372832585,44.702051372832585 0 0,0 0.218814631816034,-0.7377341599033475 l 22.66472698437301 6.9352281868896695" fill="#ffc412" stroke="none" /><path d="M 79.91906864156998 93.8553929516997 l -32.85663306807006 -10.05387128365069 a55.36042293625052,55.36042293625052 0 0,0 0.2866734481233426,-0.9088331711350321 l 32.67870413617852 10.617954621212135" fill="#a0ff22" stroke="none" /><path d="M 80.14247586403 93.16781622104843 l -23.492887717367356 -8.082967709583869 a45.8445193210697,45.8445193210697 0 0,0 0.2631626459957197,-0.7439962380929354 l 23.350271990561826 8.486161574103415" fill="#ffd614" stroke="none" /><path d="M 80.38941819471856 92.48833698450439 l -19.61228815284272 -7.512316617106979 a42.00182724302332,42.00182724302332 0 0,0 0.2644244037277424,-0.6729312653386396 l 19.480070199233285 7.848796887341382" fill="#ff9a0e" stroke="none" /><path d="M 80.65960295795068 91.81776055985345 l -22.879348084557243 -9.679444731940682 a45.842629069666266,45.842629069666266 0 0,0 0.31371484202604893,-0.7240971084194062 l 22.709342532688513 10.071840984946688" fill="#ffd614" stroke="none" /><path d="M 80.803312248108 91.48605970444005 l -54.10551616407094 -23.996386263872637 a80.18811901982963,80.18811901982963 0 0,0 0.5704723423156924,-1.2569601873181162 l 53.6844415047919 24.924168460032824" fill="#47fdff" stroke="none" /><path d="M 81.10775173730289 90.83032412892265 l -19.08962293888118 -9.26547504651695 a42.21939517955889,42.21939517955889 0 0,0 0.32295824260757555,-0.6510641099177767 l 18.927304683320195 9.592698744933688" fill="#ff9d0e" stroke="none" /><path d="M 81.43458229118936 90.18545643968196 l -19.00152167636516 -10.045088407383895 a42.49329260791686,42.49329260791686 0 0,0 0.34741686563423363,-0.6437106885426674 l 18.825796711512456 10.370680079259035" fill="#ffa10e" stroke="none" /><line stroke="#e1ed5e" stroke-width="0.3" x1="26.266209847984243" x2="21.928928074336255" y1="57.711370442889674" y2="55.22380399835377" /><path d="M 25.398753493254645 57.213857153982495 a86.0,86.0 0 0,1 29.58750427330803,-30.492523968695096" fill="none" id="id35" stroke="none" /><text fill="#e1ed5e" style="font-size:6.75px; font-family:Arial;" text-anchor="middle"><textPath startOffset="21.46611528233685" xlink:href="#id35">November</textPath></text><path d="M 81.78341655067845 89.55222093294921 l -36.98908344633306 -21.214393621894367 a63.640858234145135,63.640858234145135 0 0,0 0.553191570430893,-0.9455837135486013 l 36.61843220143185 21.847956747796857" fill="#37ff2e" stroke="none" /><path d="M 81.96595687620814 89.24020034530311 l -24.600480369808867 -14.677587181725212 a49.64638196880185,49.64638196880185 0 0,0 0.44417956400885183,-0.730114414077963 l 24.3441850075138 15.098869369010249" fill="#f0ff19" stroke="none" /><path d="M 82.34701348167596 88.62581576622439 l -37.66693266644173 -24.26958357582225 a65.8085985436063,65.8085985436063 0 0,0 0.6217451130205408,-0.9469604626106397 l 37.24359091806327 24.914362102410553" fill="#32ff45" stroke="none" /><path d="M 82.7489923806493 88.02491185347247 l -18.06679551240624 -12.541381556383293 a42.993075078985505,42.993075078985505 0 0,0 0.42724343832422174,-0.6043055444077343 l 17.84823945427814 12.850513601122813" fill="#ffa90f" stroke="none" /><path d="M 83.39014120810768 87.1503855733568 l -27.034895085441732 -20.91456539547742 a55.18047100264335,55.18047100264335 0 0,0 0.5876612938401854,-0.746270165238286 l 26.670879711007576 21.376827954668755" fill="#a2ff22" stroke="none" /><path d="M 83.84228863543731 86.58626213691792 l -17.05152941564881 -14.155763807477616 a43.161685504172056,43.161685504172056 0 0,0 0.4794839586728563,-0.5675577700428492 l 16.80533484348883 14.44718052714958" fill="#ffac0f" stroke="none" /><path d="M 84.07557802195018 86.31012108654704 l -14.372157663227293 -12.355431073469463 a39.95298374683833,39.95298374683833 0 0,0 0.45281596219474746,-0.5176469219424457 l 14.157349837454703 12.600993551614852" fill="#ff780b" stroke="none" /><path d="M 84.31358615837235 86.03803664274999 l -16.126476278189376 -14.353648523548001 a42.58912835407109,42.58912835407109 0 0,0 0.4921201350349935,-0.5434113445282128 l 15.877012502538339 14.62911265534577" fill="#ffa30f" stroke="none" /><path d="M 84.80347519578584 85.50635884689758 l -19.328811937846304 -18.434797939148513 a47.710386481402026,47.710386481402026 0 0,0 0.5719242509478346,-0.5894182141627162 l 19.008623423195353 18.76478034886135" fill="#fff216" stroke="none" /><path d="M 85.05521093208273 85.24692304244772 l -28.536610829544014 -28.170542505666447 a61.098848146803526,61.098848146803526 0 0,0 0.745301787915465,-0.7421012251820278 l 28.047473241461233 28.657579581498585" fill="#56ff2a" stroke="none" /><path d="M 85.57189188830299 84.74124197986013 l -15.154948587066418 -16.02744389683591 a43.05791070212338,43.05791070212338 0 0,0 0.5429235854374934,-0.5045883027142818 l 14.876817117834069 16.285936785624838" fill="#ffaa0f" stroke="none" /><path d="M 86.10567301691215 84.25364557470407 l -14.571390326109457 -16.513666104412955 a43.02331910144049,43.02331910144049 0 0,0 0.5595207261620059,-0.4852108601188972 l 14.284975801300677 16.762041957951535" fill="#ffaa0f" stroke="none" /><path d="M 86.65592168130627 83.78471172551755 l -25.35987054843468 -30.81648666362746 a60.90963398131952,60.90963398131952 0 0,0 0.8153091003251968,-0.6592565915155819 l 24.825658049544984 31.248449352407178" fill="#58ff2a" stroke="none" /><path d="M 86.93701828274178 83.55741782278169 l -13.066822744739754 -16.44741693940178 a42.00617482125122,42.00617482125122 0 0,0 0.570018681254211,-0.4449086222054115 l 12.781771508326118 16.669903950830413" fill="#ff9a0e" stroke="none" /><path d="M 87.51073957382395 83.11751280151077 l -13.13337978644758 -17.753182218291364 a43.08305104578909,43.08305104578909 0 0,0 0.5999923840052439,-0.43591998345913446 l 12.825842086088556 17.976621436567168" fill="#ffab0f" stroke="none" /><path d="M 88.39885842347998 82.49532879139004 l -8.473811946851956 -12.785922060760614 a36.33901208860779,36.33901208860779 0 0,0 0.5243770911081695,-0.34106944655448845 l 8.2524678299595 12.929890431474638" fill="#ff3c05" stroke="none" /><path d="M 89.00827224532344 82.1063720568725 l -21.131824084946626 -34.40087003381047 a61.37293460030184,61.37293460030184 0 0,0 0.9049232695141337,-0.5452061446267014 l 20.536538749214845 34.75952278789579" fill="#53ff2b" stroke="none" /><line stroke="#e1ed5e" stroke-width="0.3" x1="56.762969772571076" x2="54.21961505331055" y1="26.818313649435495" y2="22.513508569990535" /><path d="M 56.25429882871897 25.957352633546506 a86.0,86.0 0 0,1 42.265352541879196,-11.944610805530505" fill="none" id="id36" stroke="none" /><text fill="#e1ed5e" style="font-size:6.75px; font-family:Arial;" text-anchor="middle"><textPath startOffset="22.20632615414155" xlink:href="#id36">December</textPath></text><path d="M 89.63071344664047 81.73862282372117 l -10.376908992760685 -18.274801073881775 a42.01543705312807,42.01543705312807 0 0,0 0.6319840215329979,-0.35169842374853366 l 10.060800882155641 18.450714895190494" fill="#ff9a0e" stroke="none" /><path d="M 90.26544431104013 81.39251694778311 l -11.51344162349747 -22.007801560464298 a45.83752539087698,45.83752539087698 0 0,0 0.702273479495163,-0.3597317526473504 l 11.132907656413545 22.202725838424154" fill="#ffd614" stroke="none" /><path d="M 90.91171255644093 81.06846463323043 l -9.722743378046221 -20.25315124181683 a43.46601598012536,43.46601598012536 0 0,0 0.6772870236522106,-0.31799533903220323 l 9.372678143094403 20.41751156348904" fill="#ffb110" stroke="none" /><path d="M 91.90106846888425 80.62456947434976 l -8.34319539746231 -19.95979372888778 a42.633360236911514,42.633360236911514 0 0,0 0.6795273030925537,-0.2771962488459155 l 7.9983842247813755 20.100450863917274" fill="#ffa40f" stroke="none" /><path d="M 92.57280143429618 80.3572730644239 l -7.796609709256923 -20.61970932746737 a43.044489917158984,43.044489917158984 0 0,0 0.695307226571655,-0.2560875194854071 l 7.440520156912698 20.750860114759096" fill="#ffaa0f" stroke="none" /><path d="M 93.59665428221793 80.00007090966166 l -12.269296012756675 -38.32138089343992 a61.23759259981578,61.23759259981578 0 0,0 1.0066720335922685,-0.3127779010654815 l 11.607838606453678 38.52689892938793" fill="#54ff2b" stroke="none" /><path d="M 94.28887869178378 79.79150937346287 l -6.0178493172926455 -21.293830923441647 a43.127850004050536,43.127850004050536 0 0,0 0.7161320156978623,-0.19574593193384296 l 5.65041941237106 21.394263396201787" fill="#ffac0f" stroke="none" /><path d="M 94.98787191387505 79.60689891045804 l -5.239538534469725 -21.318377575342737 a42.95281272409231,42.95281272409231 0 0,0 0.7195134330795214,-0.1702855830632522 l 4.87180141442767 21.405409070546863" fill="#ffa90f" stroke="none" /><path d="M 95.692805502759 79.44645832069477 l -9.892684517286831 -47.20699371168779 a69.23241091065111,69.23241091065111 0 0,0 1.168490094300413,-0.2343881203325834 l 9.078628013519282 47.370285788097576" fill="#37ff75" stroke="none" /><path d="M 96.04723909329186 79.375362276772 l -5.344302009792489 -27.885393383756227 a49.392899255600994,49.392899255600994 0 0,0 0.8363979027697611,-0.15284637061032433 l 4.863508985919835 27.973255235717286" fill="#f3ff19" stroke="none" /><path d="M 96.75951476605007 79.25152402106235 l -3.322292442584032 -21.272278675356617 a42.53015251028387,42.53015251028387 0 0,0 0.7242905621322802,-0.10674160127462727 l 2.955632900023103 21.32631476079221" fill="#ffa20f" stroke="none" /><path d="M 97.47563105711357 79.15227682838746 l -2.9855113109774742 -24.656108019538692 a45.836202214894584,45.836202214894584 0 0,0 0.7840900009643689,-0.08810164756824103 l 2.5606546065033875 24.703845620577532" fill="#ffd614" stroke="none" /><path d="M 98.19473922651362 79.07773832637324 l -1.8668247433487108 -21.635763847963275 a42.716153248382035,42.716153248382035 0 0,0 0.7331105096866135,-0.056903485116236024 l 1.4941240442997632 21.664692595267972" fill="#ffa50f" stroke="none" /><path d="M 98.55514903715128 79.0497635885617 l -4.334552888546145 -62.8507092343149 a84.0,84.0 0 0,0 1.4433518046415081,-0.08706692247877434 l 3.2520390350650135 62.91600942617398" fill="#4dd2ff" stroke="none" /><path d="M 99.27714615592234 79.0124445844662 l -0.741772722534165 -21.53685180962332 a42.54962209973927,42.54962209973927 0 0,0 0.732204767112815,-0.01891068892004354 l 0.3709413202264709 21.546429290685722" fill="#ffa20f" stroke="none" /></svg>