<?xml version="1.0" encoding="utf-8" ?>
<svg baseProfile="full" height="200mm" version="1.1" viewBox="0,0,200,200" width="200mm" xmlns="http://www.w3.org/2000/svg" xmlns:ev="http://www.w3.org/2001/xml-events" xmlns:xlink="http://www.w3.org/1999/xlink"><defs /><rect fill="#1a1a1a" height="200" width="200" x="0" y="0" /><rect fill="#1a1a1a" height="200" width="180" x="10" y="0" /><text alignment-baseline="middle" fill="#e1ed5e" style="dominant-baseline: central; font-size:9.0px; font-family:Arial;" text-anchor="middle" x="100.0" y="100.0">2026</text><line stroke="#e1ed5e" stroke-width="0.3" x1="100.0" x2="100.0" y1="15.0" y2="10.0" /><path d="M 100.0 14.0 a86.0,86.0 0 0,1 42.46469731375804,11.215312516191453" fill="none" id="id37" stroke="none" /><text fill="#e1ed5e" style="font-size:6.75px; font-family:Arial;" text-anchor="middle"><textPath startOffset="22.20632615414155" xlink:href="#id37">January</textPath></text><path d="M 100.0 79.0 l 0.0 -20.298392865658826 a41.298392865658826,41.298392865658826 0 0,0 0.7108839450601676,0.006118802549204065 l -0.3494034657876392 20.29538543971818" fill="#ffc412" stroke="none" /><path d="M 100.72285384407766 79.0124445844662 l 0.97248619519616 -28.235456005029206 a49.25219823680605,49.25219823680605 0 0,0 0.8470420437238336,0.0364754122030181 l -1.4583690713093251 28.214532866301994" fill="#ceff1d" stroke="none" /><path d="M 101.08401301168833 79.027996857942 l 0.932950990643326 -18.049461488183177 a39.07355685979796,39.07355685979796 0 0,0 0.6713915334208773,0.04050017078669494 l -1.2435045729038152 18.030728048016176" fill="#ffa40f" stroke="none" /><path d="M 101.80526077348638 79.07773832637324 l 1.3745621484306891 -15.930634165716286 a36.989825703296,36.989825703296 0 0,0 0.633890896377508,0.06019557866136218 l -1.6485781718984411 15.904613042539745" fill="#ff860c" stroke="none" /><path d="M 102.88285421437855 79.19881850522331 l 1.8042972428685566 -13.018873528963535 a34.14330843067188,34.14330843067188 0 0,0 0.5814622002666694,0.08569241348998567 l -2.028128423563882 12.98588663131258" fill="#ff5a08" stroke="none" /><path d="M 103.59715602781102 79.31037775812273 l 10.791468083433088 -62.06886672563182 a84.0,84.0 0 0,0 1.4224195155883965,0.2599380745970459 l -11.858282720124386 61.87391316968404" fill="#4dd2ff" stroke="none" /><path d="M 104.307194497241 79.44645832069477 l 1.6839071985173193 -8.035452499527848 a29.209996365735297,29.209996365735297 0 0,0 0.49122489257182983,0.10736273524302105 l -1.821974815242677 8.005276266188956" fill="#ff0d01" stroke="none" /><path d="M 105.01212808612495 79.60689891045804 l 4.140613618167836 -16.84712573922152 a38.34849638464663,38.34849638464663 0 0,0 0.6396732102779127,0.1630669442179975 l -4.429995717130774 16.773355798834654" fill="#ff9a0e" stroke="none" /><path d="M 105.71112130821622 79.79150937346287 l 6.118062350141921 -21.648429263364534 a43.4963369571831,43.4963369571831 0 0,0 0.7187454484447884,0.209821505698943 l -6.489798016310136 21.53990942874689" fill="#ffe315" stroke="none" /><path d="M 106.0581310904928 79.89281104454417 l 7.3314025016789275 -24.333229705296553 a46.413687857773624,46.413687857773624 0 0,0 0.7629849502353516,0.23706313805855198 l -7.749172824624997 24.20342643235548" fill="#f3ff19" stroke="none" /><path d="M 106.74666289553966 80.11325718540242 l 5.556095277447684 -16.377376422505275 a38.294179749745524,38.294179749745524 0 0,0 0.6224044137249481,0.21714467871761078 l -5.837181695235906 16.27931089061546" fill="#ff990e" stroke="none" /><path d="M 107.4271985657038 80.35727306442388 l 7.872896050079254 -20.82146396596687 a43.26018539683375,43.26018539683375 0 0,0 0.694257655427073,0.2693611843658873 l -8.230136870505994 20.682860077710437" fill="#ffe015" stroke="none" /><path d="M 108.09893153111575 80.62456947434976 l 9.970219813568644 -23.85219588301022 a46.85212818265387,46.85212818265387 0 0,0 0.7414153893898096,0.3174353768464678 l -10.379318960748767 23.677040978200964" fill="#edff1a" stroke="none" /><path d="M 108.76106565485865 80.91482961587045 l 6.861244853871369 -14.946586664459813 a37.446189037676305,37.446189037676305 0 0,0 0.5834861408058013,0.27395456680329194 l -7.117509205976769 14.826267115016519" fill="#ff8c0c" stroke="none" /><path d="M 109.08828744355905 81.06846463323043 l 4.278412045237889 -8.91223010397159 a30.885982756153993,30.885982756153993 0 0,0 0.47730423099963365,0.23421111324200397 l -4.431187543247955 8.837263830594754" fill="#ff2803" stroke="none" /><path d="M 109.73455568895987 81.39251694778311 l 8.053117319431056 -15.393434361752464 a38.37269466749767,38.37269466749767 0 0,0 0.582634465370871,0.3112231534917882 l -8.316896831330238 15.252532481758921" fill="#ff9a0e" stroke="none" /><path d="M 110.36928655335952 81.73862282372117 l 9.972417848046522 -17.562450680238072 a41.19625687180255,41.19625687180255 0 0,0 0.6136344647475004,0.35545668934582025 l -10.273249045259352 17.388189833502203" fill="#ffc312" stroke="none" /><line stroke="#e1ed5e" stroke-width="0.3" x1="143.23703022742887" x2="145.7803849466894" y1="26.81831364943548" y2="22.513508569990506" /><path d="M 143.74570117128098 25.957352633546492 a86.0,86.0 0 0,1 28.547481713284135,27.462654790039103" fill="none" id="id38" stroke="none" /><text fill="#e1ed5e" style="font-size:6.75px; font-family:Arial;" text-anchor="middle"><textPath startOffset="19.985693538727396" xlink:href="#id38">February</textPath></text><path d="M 110.68208982089419 81.91981866633111 l 9.89097103768775 -16.74115766913592 a40.44473368733155,40.44473368733155 0 0,0 0.596343989110631,0.3592905809007186 l -10.177677093016019 16.568420478776588" fill="#ffb811" stroke="none" /><path d="M 111.2981086023043 82.29822771554956 l 10.460085309261771 -16.38876512328026 a40.442350859478935,40.442350859478935 0 0,0 0.5835888507249322,0.37958242209148263 l -10.740641185770984 16.206283777029245" fill="#ffb811" stroke="none" /><path d="M 111.90073688211348 82.69761687909136 l 9.841353914482216 -14.308263222990034 a38.36601978947576,38.36601978947576 0 0,0 0.5409039884657706,0.3789378108169559 l -10.086189042531638 14.136740569409143" fill="#ff9a0e" stroke="none" /><path d="M 112.48926042617603 83.11751280151076 l 15.232735696219024 -20.591008323471023 a46.61300178753201,46.61300178753201 0 0,0 0.6409373119532019,0.48274069533916647 l -15.584919161930609 20.325751038626006" fill="#f0ff19" stroke="none" /><path d="M 112.77801427241765 83.33499621200491 l 12.733685889759219 -16.607190997277446 a41.927148615114916,41.927148615114916 0 0,0 0.568946305252387,0.44407161572624426 l -13.017664750171036 16.38554099232798" fill="#ffcd13" stroke="none" /><path d="M 113.34407831869373 83.78471172551755 l 11.076300342741217 -13.459558523475412 a38.4311257504921,38.4311257504921 0 0,0 0.5071855641869176,0.424753324130562 l -11.30634344388725 13.26690404195103" fill="#ff9b0e" stroke="none" /><path d="M 114.68862486808459 84.99185889309783 l 12.515859665825362 -12.788112544628357 a38.89364595683941,38.89364595683941 0 0,0 0.4744361759575818,0.4723987962426997 l -12.734131641950265 12.570777897735539" fill="#ffa20e" stroke="none" /><path d="M 116.38621287248628 86.86637796730983 l 15.989159577411073 -12.815382061994564 a41.49115031877928,41.49115031877928 0 0,0 0.44187268858368733,0.5611334416271968 l -16.207386346588724 12.538256226414328" fill="#ffc712" stroke="none" /><path d="M 117.2510076193507 88.02491185347247 l 18.853743429045366 -13.087655193055346 a43.95104267218768,43.95104267218768 0 0,0 0.4260646188765194,0.6251972545886962 l -19.07623251359062 12.761179915196243" fill="#ffea16" stroke="none" /><line stroke="#e1ed5e" stroke-width="0.3" x1="172.23445277983987" x2="176.4835382374775" y1="55.19839476539836" y2="52.563006222186495" /><path d="M 173.08426987136738 54.67131705675599 a86.0,86.0 0 0,1 12.851231095245387,41.99856678651699" fill="none" id="id39" stroke="none" /><text fill="#e1ed5e" style="font-size:6.75px; font-family:Arial;" text-anchor="middle"><textPath startOffset="22.20632615414155" xlink:href="#id39">March</textPath></text><path d="M 117.84615892207809 88.93136811851018 l 22.866062570785996 -14.182101049320437 a47.90704011340222,47.90704011340222 0 0,0 0.4286179041988773,0.7045351370133182 l -23.106796273271097 13.786398139100037" fill="#dfff1b" stroke="none" /><path d="M 118.21658344932153 89.55222093294921 l 15.999176931106364 -9.176027233420692 a39.44378318733237,39.44378318733237 0 0,0 0.33272213286447294,0.5918755482326269 l -16.15475670526327 8.89926817525327" fill="#ffaa0f" stroke="none" /><path d="M 118.56541770881063 90.18545643968196 l 23.78871286987297 -12.57582039721443 a47.90825372758802,47.90825372758802 0 0,0 0.37913808777603913,0.7323741083537271 l -24.001660390809125 12.164473566600359" fill="#dfff1b" stroke="none" /><path d="M 119.04729006885535 91.15688171328212 l 28.80955272809414 -13.375460847238648 a52.76308047511844,52.76308047511844 0 0,0 0.3753658082313886,0.8270688018144795 l -29.035520853288876 12.877570036582105" fill="#a1ff22" stroke="none" /><path d="M 119.34039704204932 91.81776055985345 l 16.13982035036331 -6.828188394504094 a38.52478124522078,38.52478124522078 0 0,0 0.25312306329970585,0.6129575753215203 l -16.254965100549214 6.549356248729271" fill="#ff9c0e" stroke="none" /><path d="M 119.61058180528143 92.48833698450437 l 16.225038127407718 -6.214859917813952 a38.37458908964136,38.37458908964136 0 0,0 0.23097009424125056,0.6188850214603862 l -16.329612810150596 5.934651759324232" fill="#ff9a0e" stroke="none" /><path d="M 119.85752413597 93.16781622104841 l 13.908641030767017 -4.785409852053795 a35.70885593018265,35.70885593018265 0 0,0 0.19497495510803428,0.5829502988923164 l -13.988953279646822 4.545286450239165" fill="#ff720a" stroke="none" /><path d="M 119.97218684219823 93.5106431181261 l 26.575731569702572 -8.63497862879502 a48.9433778270386,48.9433778270386 0 0,0 0.2534439973595818,0.8034867314476403 l -26.72043105083036 8.17624173092096" fill="#d2ff1c" stroke="none" /><path d="M 120.18372546131832 94.20196356495316 l 34.454682203357905 -9.897553509429333 a56.84810582452586,56.84810582452586 0 0,0 0.26207851009797584,0.9428358419393144 l -34.61994748402224 9.303006364071067" fill="#70ff27" stroke="none" /><path d="M 120.37134235888165 94.90015583598534 l 21.750912644187274 -5.44521136389858 a43.42214368994624,43.42214368994624 0 0,0 0.1752749298699558,0.7266277412216399 l -21.841420374318048 5.069998391017535" fill="#ffe215" stroke="none" /><path d="M 120.53481517161879 95.60439243477599 l 33.34135593113918 -7.136928924897103 a55.096653351992515,55.096653351992515 0 0,0 0.1905313218642401,0.9290983912317289 l -33.459266548918414 6.561954877501963" fill="#85ff25" stroke="none" /><path d="M 120.6074358757038 95.95851677861258 l 19.080720133887922 -3.7420672197270006 a40.44420088110363,40.44420088110363 0 0,0 0.12810079731670662,0.6843195815506693 l -19.14230665511449 3.4130695607137684" fill="#ffb811" stroke="none" /><path d="M 120.73433829027371 96.67025291283417 l 17.242424665993326 -2.7689773603336745 a38.463345727107836,38.463345727107836 0 0,0 0.09935284877629937,0.654611138249455 l -17.287533408208926 2.4717671096921374" fill="#ff9b0e" stroke="none" /><path d="M 120.83666639777658 97.38593545837742 l 17.304067439798917 -2.170882244630595 a38.4397098508307,38.4397098508307 0 0,0 0.07671403192822765,0.6572389770912669 l -17.338871824730735 1.8726995292144755" fill="#ff9b0e" stroke="none" /><path d="M 120.91429891909075 98.10471618934814 l 14.847919152241486 -1.3455397620535905 a35.908761866860935,35.908761866860935 0 0,0 0.050486891881995836,0.6160679595681131 l -14.868880527942975 1.0897578852777086" fill="#ff750a" stroke="none" /><path d="M 120.94382443527127 98.46500227214037 l 26.832671843212754 -1.9665983373299445 a47.9046424853766,47.9046424853766 0 0,0 0.05319561670970238,0.8229126455618361 l -26.862548050926872 1.5044266275150733" fill="#dfff1b" stroke="none" /><path d="M 120.98425023603335 99.18683210126433 l 9.849626164274307 -0.381686251414471 a30.857018817597734,30.857018817597734 0 0,0 0.01599907852732924,0.5309315266793628 l -9.85473693725728 0.2120845773101091" fill="#ff2703" stroke="none" /><line stroke="#e1ed5e" stroke-width="0.3" x1="184.98032266829074" x2="189.97916517819016" y1="98.17113171792111" y2="98.06355123074" /><path d="M 185.9800911702706 98.14961562048488 a86.0,86.0 0 0,1 -9.607161424134198,41.387399972396054" fill="none" id="id40" stroke="none" /><text fill="#e1ed5e" style="font-size:6.75px; font-family:Arial;" text-anchor="middle"><textPath startOffset="21.466115282336823" xlink:href="#id40">April</textPath></text><path d="M 120.99980553446 99.90962569577887 l 22.548727962913347 -0.09704021293796403 a43.54893677201649,43.54893677201649 0 0,0 -0.0032261523321660927,0.7496441846376659 l -22.54705751329168 -0.29111344990338656" fill="#ffe415" stroke="none" /><path d="M 120.9904718944345 100.63252640178507 l 20.91627777204749 0.6302906377916223 a41.92577219902615,41.92577219902615 0 0,0 -0.027946256635842215,0.7211687073712318 l -20.902329382560442 -0.9902365921768604" fill="#ffcd13" stroke="none" /><path d="M 120.95626037817324 101.35467743843564 l 15.11737150176733 0.9772336157468234 a36.14892427409262,36.14892427409262 0 0,0 -0.04548471332875172,0.6206027755978275 l -15.098310229774242 -1.2373095278414212" fill="#ff790b" stroke="none" /><path d="M 120.76222939487914 103.15116336523771 l 14.642242257254527 2.2223093921395556 a35.80992631158311,35.80992631158311 0 0,0 -0.09774105488721341,0.6086336420838007 l -14.601819448006024 -2.4740222639165608" fill="#ff740a" stroke="none" /><path d="M 120.70491114924044 103.5080841355445 l 22.98314319200994 3.894090606604484 a44.310701676201816,44.310701676201816 0 0,0 -0.13388912684770854,0.7509213270673514 l -22.912707622823042 -4.289130684405054" fill="#ffef16" stroke="none" /><path d="M 120.5718875245553 104.21870165774334 l 21.966648282897765 4.504726919953783 a43.423786509148975,43.423786509148975 0 0,0 -0.15646202611615795,0.7309384971241313 l -21.885852218057163 -4.882179236494083" fill="#ffe215" stroke="none" /><path d="M 120.49622156327973 104.57218783832717 l 9.62569682825605 2.147249132612045 a30.862287679184874,30.862287679184874 0 0,0 -0.1201269489992878,0.5175037522745816 l -9.58730931332621 -2.3126215422351915" fill="#ff2703" stroke="none" /><path d="M 120.41448212921028 104.9243191809786 l 21.807289738464398 5.2602879889185905 a43.432755413985504,43.432755413985504 0 0,0 -0.18156688163513654,0.7252694372355594 l -21.713511542534203 -5.634885265551546" fill="#ffe215" stroke="none" /><path d="M 120.23288151984713 105.62410040840565 l 17.244820607258056 4.793514088688992 a38.89864841531259,38.89864841531259 0 0,0 -0.18487483462033608,0.643573552613138 l -17.15975313575162 -5.089645116806713" fill="#ffa20f" stroke="none" /><path d="M 120.13307415673323 105.97154293290107 l 22.37813975393094 6.6374375447461205 a44.34173763897773,44.34173763897773 0 0,0 -0.22334136679814146,0.7298925091413253 l -22.26057161462667 -7.021657026439503" fill="#ffef16" stroke="none" /><path d="M 119.9155931802556 106.66101706037122 l 20.315962989783767 6.794925707107822 a42.422170001364904,42.422170001364904 0 0,0 -0.23758267444978706,0.6905264619358445 l -20.195989484390747 -7.143624872132968" fill="#ffd413" stroke="none" /><path d="M 119.79798401119884 107.00284435728193 l 12.498466705824518 4.420895430365554 a34.25729936309922,34.25729936309922 0 0,0 -0.20142596927732628,0.5542377584396867 l -12.420516475541966 -4.635380985811371" fill="#ff5c08" stroke="none" /><path d="M 119.41010516605496 108.01547362559984 l 30.396306029315816 12.552265287038697 a53.88608800182864,53.88608800182864 0 0,0 -0.3614191724972599,0.8542881622858884 l -30.17573587562625 -13.073627974990748" fill="#93ff23" stroke="none" /><path d="M 119.26925614724726 108.34839909993367 l 16.327900723790563 7.07405779780308 a38.79445519740964,38.79445519740964 0 0,0 -0.2707463462939804,0.6104615359449482 l -16.20371329276531 -7.354067670240716" fill="#ffa00e" stroke="none" /><path d="M 118.97047184881838 109.00673069616215 l 15.745505851096807 7.475593227508874 a38.43001573751729,38.43001573751729 0 0,0 -0.2888596586863039,0.5951364542985187 l -15.614492935795788 -7.745518637772668" fill="#ff9b0e" stroke="none" /><path d="M 118.81262510543309 109.33194174019688 l 13.553407446109826 6.723123857484414 a36.12928444452484,36.12928444452484 0 0,0 -0.28115693921878604,0.5547493144443999 l -13.43567183710477 -6.955427383631509" fill="#ff790b" stroke="none" /><path d="M 118.64920377521936 109.65438752849418 l 10.567098062342371 5.470413695678182 a32.89911708745751,32.89911708745751 0 0,0 -0.2646773006448337,0.5006697065749813 l -10.471368253472644 -5.651498417339298" fill="#ff4706" stroke="none" /><line stroke="#e1ed5e" stroke-width="0.3" x1="174.80103733775053" x2="179.2010983576182" y1="140.37084112569926" y2="142.7455964860345" /><path d="M 175.68104954172406 140.8457921977663 a86.0,86.0 0 0,1 -30.038265399797805,32.042727171017184" fill="none" id="id41" stroke="none" /><text fill="#e1ed5e" style="font-size:6.75px; font-family:Arial;" text-anchor="middle"><textPath startOffset="22.206326154141568" xlink:href="#id41">May</textPath></text><path d="M 118.48025628344425 109.97397251340804 l 20.206236532446542 10.905500696686339 a43.961313992247995,43.961313992247995 0 0,0 -0.3651376300836899,0.6628308599960382 l -20.015522492911344 -11.251702075080184" fill="#ffea16" stroke="none" /><path d="M 117.94076556474637 110.91462005526583 l 38.44641954436022 23.389640776345008 a66.00224962629562,66.00224962629562 0 0,0 -0.5988458292986333,0.9655301534925248 l -38.03810907539362 -24.047967261202807" fill="#34ff5c" stroke="none" /><path d="M 117.55443506779139 111.5257021239791 l 17.958544781409902 11.791028132283369 a42.48342791740188,42.48342791740188 0 0,0 -0.4066208134716789,0.607842945103702 l -17.752920862527503 -12.098407991592877" fill="#ffd513" stroke="none" /><path d="M 117.14729908036423 112.12312394758627 l 17.080791823036726 12.076103380661028 a41.91854971460333,41.91854971460333 0 0,0 -0.42162117971581575,0.5855949425947949 l -16.87039085094531 -12.368331928706954" fill="#ffcd13" stroke="none" /><path d="M 116.71984013943494 112.70617746262583 l 20.061984059211877 15.246026731289763 a46.19770893321997,46.19770893321997 0 0,0 -0.4866008702939142,0.6289972193123029 l -19.796576371699896 -15.589101944715319" fill="#f6ff19" stroke="none" /><path d="M 116.27256486870786 113.27417163493432 l 16.22573549575791 13.235971072262773 a41.9395659602599,41.9395659602599 0 0,0 -0.4611435020453617,0.5554770549228949 l -15.995495993819004 -13.513309384299438" fill="#ffce13" stroke="none" /><path d="M 115.80600337817218 113.82643327865902 l 15.700340566019666 13.7340038524905 a41.85961542572697,41.85961542572697 0 0,0 -0.4790756249855897,0.5382465433171408 l -15.461606091385738 -14.00222456554851" fill="#ffcc13" stroke="none" /><path d="M 115.07121518719521 114.62390073753431 l 22.81726605365347 22.140048411891733 a52.79322842751451,52.79322842751451 0 0,0 -0.6384445377500911,0.6467409460203959 l -22.43278089084784 -22.529529851892793" fill="#a1ff22" stroke="none" /><path d="M 114.0293411484842 115.62618273729858 l 14.857373141788349 16.548462629330295 a43.23945035446414,43.23945035446414 0 0,0 -0.5581135083187363,0.49247028034637264 l -14.570317280563026 -16.801756051448958" fill="#ffe015" stroke="none" /><path d="M 113.48314897796784 116.09983520530334 l 13.70812749362751 16.368475493471422 a42.350403962499655,42.350403962499655 0 0,0 -0.5629172768634729,0.46324259564554593 l -13.424340088219346 -16.602013207974146" fill="#ffd313" stroke="none" /><path d="M 113.20401910651253 116.32954008644616 l 14.099308259977633 17.43675297386603 a43.42389011035996,43.42389011035996 0 0,0 -0.5852765110858336,0.46497905751372204 l -13.797074256174449 -17.67686594538488" fill="#ffe215" stroke="none" /><path d="M 112.92097659922987 116.55440617244103 l 4.573967198924554 5.860184812573108 a28.433904894088318,28.433904894088318 0 0,0 -0.3884224024220089,0.29782573499626624 l -4.472416068009052 -5.938049889396746" fill="#ff0000" stroke="none" /><path d="M 112.34349029814194 116.9893568818739 l 12.297702859211409 16.926335878745235 a41.92210175612275,41.92210175612275 0 0,0 -0.5874537574269147,0.41913265805945255 l -12.00452177393561 -17.135512798648907" fill="#ffcd13" stroke="none" /><path d="M 112.04921762599082 117.19931262002967 l 6.878861469874007 9.81903494174054 a32.98883573616883,32.98883573616883 0 0,0 -0.4678808384916421,0.32181270707981524 l -6.708823746759481 -9.935988438185449" fill="#ff4906" stroke="none" /><path d="M 111.1453310114006 117.79835938074945 l 8.218790319253188 13.124866693278234 a36.48582061203649,36.48582061203649 0 0,0 -0.5351615074307496,0.32873990747753273 l -7.9916496118901295 -13.264395067584145" fill="#ff7e0b" stroke="none" /><line stroke="#e1ed5e" stroke-width="0.3" x1="143.8653032363475" x2="146.44561519142675" y1="172.8068346515853" y2="177.08958963109032" /><path d="M 144.38136562736335 173.6633856474863 a86.0,86.0 0 0,1 -40.68145358897372,12.25698825130547" fill="none" id="id42" stroke="none" /><text fill="#e1ed5e" style="font-size:6.75px; font-family:Arial;" text-anchor="middle"><textPath startOffset="21.466115282336833" xlink:href="#id42">June</textPath></text><path d="M 110.5260780823613 118.17145234162733 l 10.442677219796922 18.02747518437266 a41.83361152177024,41.83361152177024 0 0,0 -0.6262117793337146,0.3555793914292068 l -10.130816673542009 -18.204557741596492" fill="#ffcc13" stroke="none" /><path d="M 109.89434966115114 118.52300852407294 l 10.467645472860983 19.59626382338901 a43.21677648943185,43.21677648943185 0 0,0 -0.6591774606211467,0.34485049274620944 l -10.12877710971334 -19.773543735079933" fill="#ffdf14" stroke="none" /><path d="M 108.92500713936063 119.00905698771935 l 13.2793622433956 28.28324389030787 a52.24553322556615,52.24553322556615 0 0,0 -0.8173490353711965,0.37520485370028994 l -12.790545212256983 -28.507635814342233" fill="#a8ff21" stroke="none" /><path d="M 108.2653958097858 119.30500536409082 l 8.240374616077874 19.246564813890473 a41.93642832358441,41.93642832358441 0 0,0 -0.6660474158406877,0.2784078738394523 l -7.907855740739724 -19.3855577307499" fill="#ffcd13" stroke="none" /><path d="M 107.59598834532513 119.57807347666477 l 4.752225367286327 12.24849396664255 a34.138083969603734,34.138083969603734 0 0,0 -0.5496715617290149,0.20783875112002906 l -4.540683584797037 -12.32848096786921" fill="#ff5a08" stroke="none" /><path d="M 106.57524785965236 119.94407469862006 l 7.243117827348562 21.969861225457112 a44.13304039953889,44.13304039953889 0 0,0 -0.7235268469428779,0.23165044816634944 l -6.863869635314743 -22.091284520283168" fill="#ffec16" stroke="none" /><path d="M 104.83641907484287 120.43548508189849 l 5.16369118823804 21.818319010785395 a43.42103367697142,43.42103367697142 0 0,0 -0.7288114030317329,0.16587510252381027 l -4.787359635813446 -21.90397084688689" fill="#ffe215" stroke="none" /><path d="M 104.13013068566511 120.58985236759428 l 6.251075973138942 31.16335564689755 a52.78412632112099,52.78412632112099 0 0,0 -0.8923844895493368,0.17102761131511612 l -5.713723869017901 -31.26634045656113" fill="#a1ff22" stroke="none" /><path d="M 103.41894727170886 120.7198165907248 l 3.648949750073902 22.11369862177287 a43.412730779919784,43.412730779919784 0 0,0 -0.738355737971714,0.11531598121849175 l -3.267758148493671 -22.173232910338466" fill="#ffe215" stroke="none" /><path d="M 103.06178313531738 120.77559828337769 l 2.418496126230506 16.410601844686738 a37.58785629360912,37.58785629360912 0 0,0 -0.6409112693961705,0.08882446194152217 l -2.1356562656475053 -16.449800872120864" fill="#ff8f0d" stroke="none" /><path d="M 102.70371172650421 120.8252237178851 l 2.1455457862515006 16.525974480801818 a37.66466919146655,37.66466919146655 0 0,0 -0.6436579472694708,0.07793801359284491 l -1.8607604159306494 -16.560458023120013" fill="#ff900d" stroke="none" /><path d="M 101.98527174616119 120.90594882070398 l 2.3320769339379064 24.557988658793718 a45.66846954699959,45.66846954699959 0 0,0 -0.7832266098761554,0.06758008754581438 l -1.9090060063202092 -24.594492998618197" fill="#fdff18" stroke="none" /><path d="M 101.62511606390274 120.93702456842531 l 1.0366984186895354 13.356203131747273 a34.39637658875746,34.39637658875746 0 0,0 -0.5906959186751297,0.0407378489716043 l -0.8066397392354752 -13.372069325235163" fill="#ff5e08" stroke="none" /><path d="M 101.26447882468166 120.96189622390904 l 1.099675919950966 18.229876265225 a39.263013874339954,39.263013874339954 0 0,0 -0.6749722132706579,0.0348883536187396 l -0.7857156382668284 -18.24610442560594" fill="#ffa70f" stroke="none" /><path d="M 100.90346689309514 120.98055641714683 l 0.787955040506411 18.298108439684732 a39.31506608277243,39.31506608277243 0 0,0 -0.6763682499177062,0.023295490102827658 l -0.47286643891405244 -18.308960728213655" fill="#ffa80f" stroke="none" /><line stroke="#e1ed5e" stroke-width="0.3" x1="102.19456741930631" x2="102.32365962044197" y1="184.97166512339345" y2="189.96999836594603" /><path d="M 102.22038585953345 185.97133177190398 a86.0,86.0 0 0,1 -42.740103519485714,-10.115201625700543" fill="none" id="id43" stroke="none" /><text fill="#e1ed5e" style="font-size:6.75px; font-family:Arial;" text-anchor="middle"><textPath startOffset="22.20632615414155" xlink:href="#id43">July</textPath></text><path d="M 100.18074693466247 120.99922214144158 l 0.19307508927168535 22.431510095406356 a43.43234100914157,43.43234100914157 0 0,0 -0.7476440478682662,0.0 l 0.1930750892716699 -22.431510095406356" fill="#ffe215" stroke="none" /><path d="M 99.45781275523022 120.99299961872073 l -0.5401783263207282 20.915216113775134 a41.92219055716073,41.92219055716073 0 0,0 -0.7212206791199823,-0.024840298453450413 l 0.9001193571153535 -20.90281901689559" fill="#ffcd13" stroke="none" /><path d="M 99.09653310690486 120.98055641714683 l -0.7287640162836041 16.923558212569286 a37.93924200091761,37.93924200091761 0 0,0 -0.6522151922704456,-0.033712075572986125 l 1.0199672769675385 -16.9085063302341" fill="#ff940d" stroke="none" /><path d="M 98.01472825383883 120.90594882070398 l -1.321916811895338 13.920474750194956 a34.98309984690043,34.98309984690043 0 0,0 -0.5989896368874882,-0.06208772498424566 l 1.5613390453884195 -13.895657656754949" fill="#ff6709" stroke="none" /><path d="M 97.65516085044442 120.86867818915974 l -2.7535908687757296 24.506500463360396 a45.66071425634887,45.66071425634887 0 0,0 -0.7803037233566706,-0.09448391409678943 l 3.1750220151837896 -24.45547102053826" fill="#fdff18" stroke="none" /><path d="M 96.93821686468263 120.77559828337769 l -4.618828964351057 31.340866045054028 a52.67938549681715,52.67938549681715 0 0,0 -0.8959612965049859,-0.13993072813937085 l 5.15762612446456 -31.25671700956755" fill="#a2ff22" stroke="none" /><path d="M 96.58105272829116 120.7198165907248 l -2.463717448148121 14.9308455498593 a36.13274768500627,36.13274768500627 0 0,0 -0.6127959643598043,-0.10654243326654342 l 2.7203623839799755 -14.88622453807175" fill="#ff790b" stroke="none" /><path d="M 95.86986931433489 120.58985236759428 l -3.8254279258423183 19.070824201603127 a40.450712957222564,40.450712957222564 0 0,0 -0.6815146493111564,-0.1428180210059743 l 4.153134036582862 -19.00215019987061" fill="#ffb811" stroke="none" /><path d="M 95.16358092515715 120.4354850818985 l -4.819470559631579 20.36387194738709 a41.926408606465046,41.926408606465046 0 0,0 -0.7008632392292162,-0.172255132284649 l 5.169287083604005 -20.277895556788412" fill="#ffcd13" stroke="none" /><path d="M 94.46302465271185 120.25689768951611 l -8.279639584392658 30.29087208221977 a52.402059855188526,52.402059855188526 0 0,0 -0.8680496833684065,-0.2453195112338387 l 8.799820435865678 -30.14386377764741" fill="#a6ff21" stroke="none" /><path d="M 94.11515582081647 120.15858648285463 l -4.957192307931767 16.980906683148334 a38.68968477275979,38.68968477275979 0 0,0 -0.6376889586128721,-0.19213045218776592 l 5.248756240984885 -16.893060861854842" fill="#ff9f0e" stroke="none" /><path d="M 93.42475214034765 119.94407469862007 l -6.515694287846485 19.763436506719476 a41.80979804341713,41.80979804341713 0 0,0 -0.6815599680973162,-0.2312221458645317 l 6.854923988881027 -19.64835137395682" fill="#ffcc13" stroke="none" /><line stroke="#e1ed5e" stroke-width="0.3" x1="58.666819895761336" x2="56.23545636021788" y1="174.27360380694188" y2="178.64263932499728" /><path d="M 58.180547188652646 175.14741091055294 a86.0,86.0 0 0,1 -31.652253787137756,-30.449443065178592" fill="none" id="id44" stroke="none" /><text fill="#e1ed5e" style="font-size:6.75px; font-family:Arial;" text-anchor="middle"><textPath startOffset="22.20632615414155" xlink:href="#id44">August</textPath></text><line stroke="#e1ed5e" stroke-width="0.3" x1="26.63291911575756" x2="22.317208475507996" y1="142.92168965132927" y2="145.44649492493687" /><path d="M 25.769776987707644 143.4266507060508 a86.0,86.0 0 0,1 -11.730757126820373,-40.83630448921669" fill="none" id="id45" stroke="none" /><text fill="#e1ed5e" style="font-size:6.75px; font-family:Arial;" text-anchor="middle"><textPath startOffset="21.46611528233685" xlink:href="#id45">September</textPath></text><line stroke="#e1ed5e" stroke-width="0.3" x1="15.007084014347285" x2="10.007500721073583" y1="101.09737516637583" y2="101.16192664675087" /><path d="M 14.007167355692545 101.11028546245083 a86.0,86.0 0 0,1 10.666146001902534,-42.60595125391555" fill="none" id="id46" stroke="none" /><text fill="#e1ed5e" style="font-size:6.75px; font-family:Arial;" text-anchor="middle"><textPath startOffset="22.20632615414155" xlink:href="#id46">October</textPath></text><line stroke="#e1ed5e" stroke-width="0.3" x1="26.266209847984243" x2="21.928928074336255" y1="57.711370442889674" y2="55.22380399835377" /><path d="M 25.398753493254645 57.213857153982495 a86.0,86.0 0 0,1 29.58750427330803,-30.492523968695096" fill="none" id="id47" stroke="none" /><text fill="#e1ed5e" style="font-size:6.75px; font-family:Arial;" text-anchor="middle"><textPath startOffset="21.46611528233685" xlink:href="#id47">November</textPath></text><line stroke="#e1ed5e" stroke-width="0.3" x1="56.762969772571076" x2="54.21961505331055" y1="26.818313649435495" y2="22.513508569990535" /><path d="M 56.25429882871897 25.957352633546506 a86.0,86.0 0 0,1 42.265352541879196,-11.944610805530505" fill="none" id="id48" stroke="none" /><text fill="#e1ed5e" style="font-size:6.75px; font-family:Arial;" text-anchor="middle"><textPath startOffset="22.20632615414155" xlink:href="#id48">December</textPath></text></svg>