<?xml version="1.0" encoding="utf-8" ?>
<svg baseProfile="full" height="200mm" version="1.1" viewBox="0,0,200,200" width="200mm" xmlns="http://www.w3.org/2000/svg" xmlns:ev="http://www.w3.org/2001/xml-events" xmlns:xlink="http://www.w3.org/1999/xlink"><defs /><rect fill="#1a1a1a" height="200" width="200" x="0" y="0" /><rect fill="#1a1a1a" height="200" width="180" x="10" y="0" /><text alignment-baseline="middle" fill="#e1ed5e" style="dominant-baseline: central; font-size:9.0px; font-family:Arial;" text-anchor="middle" x="100.0" y="100.0">2023</text><line stroke="#e1ed5e" stroke-width="0.3" x1="100.0" x2="100.0" y1="15.0" y2="10.0" /><path d="M 100.0 14.0 a86.0,86.0 0 0,1 42.46469731375804,11.215312516191453" fill="none" id="id1" stroke="none" /><text fill="#e1ed5e" style="font-size:6.75px; font-family:Arial;" text-anchor="middle"><textPath startOffset="22.20632615414155" xlink:href="#id1">January</textPath></text><line stroke="#e1ed5e" stroke-width="0.3" x1="143.23703022742887" x2="145.7803849466894" y1="26.81831364943548" y2="22.513508569990506" /><path d="M 143.74570117128098 25.957352633546492 a86.0,86.0 0 0,1 28.547481713284135,27.462654790039103" fill="none" id="id2" stroke="none" /><text fill="#e1ed5e" style="font-size:6.75px; font-family:Arial;" text-anchor="middle"><textPath startOffset="19.985693538727396" xlink:href="#id2">February</textPath></text><line stroke="#e1ed5e" stroke-width="0.3" x1="172.23445277983987" x2="176.4835382374775" y1="55.19839476539836" y2="52.563006222186495" /><path d="M 173.08426987136738 54.67131705675599 a86.0,86.0 0 0,1 12.851231095245387,41.99856678651699" fill="none" id="id3" stroke="none" /><text fill="#e1ed5e" style="font-size:6.75px; font-family:Arial;" text-anchor="middle"><textPath startOffset="22.20632615414155" xlink:href="#id3">March</textPath></text><line stroke="#e1ed5e" stroke-width="0.3" x1="184.98032266829074" x2="189.97916517819016" y1="98.17113171792111" y2="98.06355123074" /><path d="M 185.9800911702706 98.14961562048488 a86.0,86.0 0 0,1 -9.607161424134198,41.387399972396054" fill="none" id="id4" stroke="none" /><text fill="#e1ed5e" style="font-size:6.75px; font-family:Arial;" text-anchor="middle"><textPath startOffset="21.466115282336823" xlink:href="#id4">April</textPath></text><path d="M 120.9904718944345 100.63252640178507 l 29.740543938429706 0.8962008733826289 a50.75404392278669,50.75404392278669 0 0,0 -0.033830874480731715,0.8730245462362409 l -29.72071093109777 -1.408002666632876" fill="#ffd513" stroke="none" /><path d="M 120.95626037817324 101.35467743843564 l 36.95617717384247 2.3889615095820202 a58.03331160453652,58.03331160453652 0 0,0 -0.07302094308079439,0.9963127529280541 l -36.90957967209734 -3.024747399006845" fill="#b0ff20" stroke="none" /><path d="M 120.89721153311464 102.0752229133903 l 45.196432041654205 4.4882864504529865 a66.41874265715848,66.41874265715848 0 0,0 -0.12277251081641913,1.1367209717509648 l -45.11247722933673 -5.265603744088742" fill="#35ff2f" stroke="none" /><path d="M 120.76222939487914 103.15116336523771 l 29.455073464965484 4.470509725033539 a50.79239517105218,50.79239517105218 0 0,0 -0.13863480871394648,0.8632790861990038 l -29.37375690189025 -4.976868040925748" fill="#ffd513" stroke="none" /><path d="M 120.64145759157962 103.86396538481128 l 29.586933040073475 5.538508344304591 a51.100858482736385,51.100858482736385 0 0,0 -0.16929000712595585,0.8632060991330617 l -29.487213099971854 -6.046978170505597" fill="#ffdb14" stroke="none" /><path d="M 120.5718875245553 104.21870165774334 l 32.52449293727237 6.6698367910067855 a54.20134581075514,54.20134581075514 0 0,0 -0.19529509205712703,0.9123536530070125 l -32.4048638064908 -7.228704263429967" fill="#eeff19" stroke="none" /><path d="M 120.49622156327973 104.57218783832717 l 23.426211291174166 5.2257943266714895 a45.00200620371989,45.00200620371989 0 0,0 -0.17516373900389592,0.7546008031678141 l -23.332786986239718 -5.628263787187869" fill="#ff6c09" stroke="none" /><path d="M 120.23288151984713 105.62410040840565 l 27.1175650010539 7.537824419511876 a49.14571243663541,49.14571243663541 0 0,0 -0.23357637936450526,0.8131100189100222 l -26.983795984803297 -8.00349191392648" fill="#ffb811" stroke="none" /><path d="M 120.02730092923936 106.31721596034902 l 29.158551301063003 9.19748828414528 a51.57474292146563,51.57474292146563 0 0,0 -0.2743475445796512,0.8443549214172524 l -28.995911505467102 -9.698042105540326" fill="#ffe315" stroke="none" /><path d="M 119.79798401119884 107.00284435728193 l 44.51521567612238 15.745700508414794 a68.21791515084487,68.21791515084487 0 0,0 -0.40110749933015766,1.1036755693403986 l -44.237583915787 -16.509623874761324" fill="#32ff46" stroke="none" /><path d="M 119.41010516605496 108.01547362559984 l 28.321923296899588 11.69564138217907 a51.64179117767111,51.64179117767111 0 0,0 -0.3463664579450787,0.818707991584528 l -28.1164058577622 -12.181423899429761" fill="#ffe415" stroke="none" /><path d="M 119.12269723197855 108.67885076344098 l 27.834163029414313 12.632556177985315 a51.56668295935903,51.56668295935903 0 0,0 -0.37379800341844605,0.8051276447318338 l -27.612590409156034 -13.109803889995979" fill="#ffe315" stroke="none" /><path d="M 118.64920377521936 109.65438752849418 l 55.94761132565807 28.96316258548255 a84.0,84.0 0 0,0 -0.6757899671004277,1.2783399396554627 l -55.44076885033275 -29.921917540224147" fill="#4dd2ff" stroke="none" /><line stroke="#e1ed5e" stroke-width="0.3" x1="174.80103733775053" x2="179.2010983576182" y1="140.37084112569926" y2="142.7455964860345" /><path d="M 175.68104954172406 140.8457921977663 a86.0,86.0 0 0,1 -30.038265399797805,32.042727171017184" fill="none" id="id5" stroke="none" /><text fill="#e1ed5e" style="font-size:6.75px; font-family:Arial;" text-anchor="middle"><textPath startOffset="22.206326154141568" xlink:href="#id5">May</textPath></text><path d="M 118.12598468904814 110.60418214915192 l 26.74196481439559 15.644759210759013 a51.98211053006236,51.98211053006236 0 0,0 -0.45848004722552915,0.7684389308730313 l -26.468703891471836 -16.102760235518147" fill="#ffea16" stroke="none" /><path d="M 117.75023020441432 111.22182372390056 l 25.009081745395154 15.810922090106128 a50.587825656632205,50.587825656632205 0 0,0 -0.47165953504277436,0.7320260725709461 l -24.73321734697533 -16.239069762598525" fill="#ffd213" stroke="none" /><path d="M 117.35343817320211 111.8261652097733 l 28.280769165657517 19.273013513195583 a55.22354386209915,55.22354386209915 0 0,0 -0.5420824397631,0.7809101848975584 l -27.94482581873228 -19.75696496028016" fill="#ddff1b" stroke="none" /><path d="M 115.32070863581623 114.36230785411682 l 13.519864960765318 12.674117583481703 a39.531594779652664,39.531594779652664 0 0,0 -0.4696606624316604,0.4924373268810119 l -13.299697746954692 -12.904962026945222" fill="#ff0000" stroke="none" /><path d="M 114.81725581225074 114.88116024355365 l 20.873060175266694 20.96308231276324 a50.5826885379269,50.5826885379269 0 0,0 -0.6222876187016086,0.6090394090816387 l -20.509122604189294 -21.31927182476745" fill="#ffd213" stroke="none" /><path d="M 114.29624159901734 115.38237550388516 l 26.41747079099109 28.424495539993856 a59.8050861317946,59.8050861317946 0 0,0 -0.7600954491785231,0.6943291711354265 l -25.9242757923457 -28.875017477715865" fill="#95ff23" stroke="none" /><path d="M 113.48314897796784 116.09983520530334 l 19.254915694489796 22.991733613553645 a50.989524720450675,50.989524720450675 0 0,0 -0.6777475943231758,0.5577401293066708 l -18.85629797162193 -23.319768861717495" fill="#ffd914" stroke="none" /><path d="M 112.92097659922987 116.55440617244103 l 18.386152101172357 23.556410577295576 a50.8823537957365,50.8823537957365 0 0,0 -0.6950802633631826,0.5329579062039402 l -17.97794310931568 -23.86940782532689" fill="#ffd714" stroke="none" /><path d="M 112.34349029814194 116.9893568818739 l 36.68690475237392 50.49519241921542 a83.41549036708233,83.41549036708233 0 0,0 -1.168899964243664,0.8339790882689136 l -35.81227746028137 -51.119215769328555" fill="#4cd9ff" stroke="none" /><path d="M 111.45004920935366 117.60387380957326 l 10.24209823741077 15.746710046393721 a39.78455359038297,39.78455359038297 0 0,0 -0.5772894036394677,0.3684534109054961 l -9.969527031724372 -15.920677886123027" fill="#ff0500" stroke="none" /><line stroke="#e1ed5e" stroke-width="0.3" x1="143.8653032363475" x2="146.44561519142675" y1="172.8068346515853" y2="177.08958963109032" /><path d="M 144.38136562736335 173.6633856474863 a86.0,86.0 0 0,1 -40.68145358897372,12.25698825130547" fill="none" id="id6" stroke="none" /><text fill="#e1ed5e" style="font-size:6.75px; font-family:Arial;" text-anchor="middle"><textPath startOffset="21.466115282336833" xlink:href="#id6">June</textPath></text><path d="M 110.8373102113329 117.98757091392108 l 11.476681148341738 19.048787197803012 a43.238941159324256,43.238941159324256 0 0,0 -0.6408260814997621,0.37861134442300487 l -11.147087195813594 -19.243517114519765" fill="#ff4a06" stroke="none" /><path d="M 108.92500713936063 119.00905698771935 l 12.268273730511117 26.12976223354962 a49.86650333359732,49.86650333359732 0 0,0 -0.7801305849646375,0.3581196885683552 l -11.81667514977906 -26.33706899245205" fill="#ffc512" stroke="none" /><path d="M 107.93186726928326 119.44442032107085 l 11.204695837350892 27.46753167125181 a50.664971008223986,50.664971008223986 0 0,0 -0.8103474259339197,0.32245396444400803 l -10.730227335375107 -27.656332480101884" fill="#ffd313" stroke="none" /><path d="M 106.91757812671514 119.82793768551818 l 9.7502152753389 27.947159736901998 a50.59916274618875,50.59916274618875 0 0,0 -0.8248392807645482,0.279830267942768 l -9.267706261637125 -28.110852991742888" fill="#ffd213" stroke="none" /><path d="M 106.2309692047433 120.05430185196036 l 9.731444933744786 31.320542237391475 a53.79752104264483,53.79752104264483 0 0,0 -0.8866984926636597,0.2671549821409132 l -9.19087146664088 -31.483412588638114" fill="#f5ff19" stroke="none" /><path d="M 105.53697534728816 120.25689768951611 l 10.23097054293014 37.429771771350325 a59.80284233281987,59.80284233281987 0 0,0 -0.99531737820751,0.26287236588348145 l -9.585162721911132 -37.60033548653739" fill="#95ff23" stroke="none" /><path d="M 104.48393922423573 120.51570834832081 l 6.319693610151783 28.914975086157543 a50.597538944299146,50.597538944299146 0 0,0 -0.852468633769172,0.1786430906036047 l -5.821033514953234 -29.01947415748769" fill="#ffd213" stroke="none" /><path d="M 103.7750983002368 120.6578951692458 l 5.328758182466731 29.159751392103676 a50.64265111315954,50.64265111315954 0 0,0 -0.8588777276825669,0.1493269021138851 l -4.826031483312115 -29.247156872738564" fill="#ffd313" stroke="none" /><path d="M 103.06178313531738 120.77559828337769 l 4.3139242646170635 29.271948268573038 a50.58812089333941,50.58812089333941 0 0,0 -0.8625790341661418,0.11954559429736752 l -3.809416639264091 -29.34186842836301" fill="#ffd213" stroke="none" /><path d="M 101.98527174616119 120.90594882070398 l 3.3808979270968487 35.602621741120615 a56.76278995876527,56.76278995876527 0 0,0 -0.9734972068806034,0.08399743527227653 l -2.7675564024747037 -35.65554342867156" fill="#c4ff1e" stroke="none" /><path d="M 101.26447882468166 120.96189622390904 l 1.9956135211406616 33.082280791623035 a54.142416563997706,54.142416563997706 0 0,0 -0.9307646849776585,0.04810990264026468 l -1.4258607677495234 -33.1117305010255" fill="#efff19" stroke="none" /><line stroke="#e1ed5e" stroke-width="0.3" x1="102.19456741930631" x2="102.32365962044197" y1="184.97166512339345" y2="189.96999836594603" /><path d="M 102.22038585953345 185.97133177190398 a86.0,86.0 0 0,1 -42.740103519485714,-10.115201625700543" fill="none" id="id7" stroke="none" /><text fill="#e1ed5e" style="font-size:6.75px; font-family:Arial;" text-anchor="middle"><textPath startOffset="22.20632615414155" xlink:href="#id7">July</textPath></text><path d="M 100.54218724476979 120.99299961872073 l 0.8391453270227535 32.49094791545592 a53.501782433041015,53.501782433041015 0 0,0 -0.9208428968520646,0.015853145561669252 l -0.279742740278021 -32.50057853829675" fill="#faff18" stroke="none" /><path d="M 99.45781275523022 120.99299961872073 l -0.7922193768467132 30.6740175769867 a51.6842462161667,51.6842462161667 0 0,0 -0.889165061758946,-0.030624642564912468 l 1.3201047902803023 -30.655836135995692" fill="#ffe515" stroke="none" /><path d="M 98.73552117531835 120.96189622390904 l -1.9648892386802208 32.57294903539414 a53.632158962941226,53.632158962941226 0 0,0 -0.9210358924695564,-0.06352002764638585 l 2.5252878919287074 -32.53430066323147" fill="#f8ff18" stroke="none" /><path d="M 98.01472825383883 120.90594882070398 l -2.796896839554898 29.452785140164032 a50.58528662095028,50.58528662095028 0 0,0 -0.8661342933455672,-0.08977836091472256 l 3.303463729506058 -29.40027741079355" fill="#ffd213" stroke="none" /><path d="M 97.65516085044442 120.86867818915974 l -2.31888624448065 20.637701653227523 a41.767569981643774,41.767569981643774 0 0,0 -0.7137731177235208,-0.08642798428473009 l 2.67378678525556 -20.594728140217445" fill="#ff2d04" stroke="none" /><path d="M 96.93821686468263 120.77559828337769 l -4.6612608915965605 31.628786069393282 a52.97041540741962,52.97041540741962 0 0,0 -0.9009110796804346,-0.14070378247394355 l 5.205007834885513 -31.543863979572233" fill="#fffb17" stroke="none" /><path d="M 96.22490169976321 120.6578951692458 l -5.89869005444682 32.278502727463234 a53.81305049344363,53.81305049344363 0 0,0 -0.9097797944695769,-0.1743614629042502 l 6.4534374634880916 -32.17218406621052" fill="#f5ff19" stroke="none" /><path d="M 95.51606077576429 120.51570834832081 l -6.311914571391814 28.879383058155288 a50.56110673463047,50.56110673463047 0 0,0 -0.8486557784930512,-0.1931512921990132 l 6.808090499277728 -28.766455032378587" fill="#ffd113" stroke="none" /><path d="M 94.46302465271185 120.25689768951611 l -7.79217312950366 28.507487204301935 a50.5532534382189,50.5532534382189 0 0,0 -0.8374238677173629,-0.2366643498178497 l 8.281728165325637 -28.369134061145566" fill="#ffd113" stroke="none" /><path d="M 93.76903079525671 120.05430185196036 l -8.768662705377977 28.22183884295446 a50.55269248847522,50.55269248847522 0 0,0 -0.8287720462839796,-0.26534663746151704 l 9.253156096752896 -28.06671935883324" fill="#ffd113" stroke="none" /><path d="M 93.08242187328487 119.8279376855182 l -10.289398269502867 29.492626461460887 a52.23598457458499,52.23598457458499 0 0,0 -0.8464230372370762,-0.30349718686399757 l 10.795540867369668 -29.31114173355693" fill="#ffef16" stroke="none" /><path d="M 92.7421414339146 119.70592522655815 l -10.024301072096646 27.217136511629135 a50.004467446872624,50.004467446872624 0 0,0 -0.8051428351814599,-0.3044361269318362 l 10.49131412803839 -27.040552134590666" fill="#ffc812" stroke="none" /><path d="M 92.06813273071674 119.44442032107085 l -12.62543047453501 30.95036370969167 a54.42643427632562,54.42643427632562 0 0,0 -0.8644175804257227,-0.36132661872429495 l 13.156319514458195 -30.728452047947403" fill="#eaff1a" stroke="none" /><path d="M 91.40352486487194 119.15986991738527 l -15.031867659984917 33.50310731473679 a57.720774026292936,57.720774026292936 0 0,0 -0.9030057893673284,-0.4145256682614335 l 15.606341445119664 -33.23939457614128" fill="#b5ff1f" stroke="none" /><path d="M 90.7491055286396 118.85261126421891 l -13.672080190414379 27.862647639218636 a52.03631598950457,52.03631598950457 0 0,0 -0.8007301033615948,-0.40150269670977295 l 14.149664201458734 -27.623177101599563" fill="#ffeb16" stroke="none" /><path d="M 90.42595943632237 118.69057910512821 l -13.56382945974609 26.479502128667708 a50.751327745080445,50.751327745080445 0 0,0 -0.7741005707432733,-0.4049728323604879 l 14.01762093301586 -26.242099877362502" fill="#ffd513" stroke="none" /><line stroke="#e1ed5e" stroke-width="0.3" x1="58.666819895761336" x2="56.23545636021788" y1="174.27360380694188" y2="178.64263932499728" /><path d="M 58.180547188652646 175.14741091055294 a86.0,86.0 0 0,1 -31.652253787137756,-30.449443065178592" fill="none" id="id8" stroke="none" /><text fill="#e1ed5e" style="font-size:6.75px; font-family:Arial;" text-anchor="middle"><textPath startOffset="22.20632615414155" xlink:href="#id8">August</textPath></text><path d="M 89.7882731507175 118.34994917583269 l -15.828260123684439 28.44257128086779 a53.550171729351355,53.550171729351355 0 0,0 -0.8015982149858432,-0.4551683868972835 l 16.31550710559149 -28.165899728175873" fill="#f9ff18" stroke="none" /><path d="M 89.1626897886671 117.98757091392108 l -16.93243858996267 28.104154438992214 a53.81083621813962,53.81083621813962 0 0,0 -0.789278896391565,-0.48483956295624936 l 17.413696686286542 -27.808526409207587" fill="#f5ff19" stroke="none" /><path d="M 88.54995079064634 117.60387380957326 l -17.418556537738265 26.780153135479015 a52.94656028147774,52.94656028147774 0 0,0 -0.7597208679761454,-0.5035015649818526 l 17.876952104454375 -26.476353549405843" fill="#fffb17" stroke="none" /><path d="M 87.65650970185807 116.9893568818739 l -19.149795066029984 26.357431709611763 a53.57957730538863,53.57957730538863 0 0,0 -0.7414776401698256,-0.5485274319708159 l 19.600657676618376 -26.023894328901182" fill="#f9ff18" stroke="none" /><path d="M 87.07902340077011 116.55440617244103 l -18.19788527447338 23.315202376503905 a50.576370472392796,50.576370472392796 0 0,0 -0.6816791765600873,-0.5415671653311166 l 18.596521943750826 -22.998501297167657" fill="#ffd213" stroke="none" /><path d="M 86.51685102203217 116.09983520530335 l -28.579905128547242 34.12643170409922 a65.51319262882981,65.51319262882981 0 0,0 -0.8583305253261229,-0.7314878947660053 l 29.16310113045042 -33.629419419110256" fill="#42ff2d" stroke="none" /><path d="M 85.70375840098266 115.38237550388516 l -20.927448067926978 22.517377192410887 a51.74069547458363,51.74069547458363 0 0,0 -0.6471631716604925,-0.6119331726934828 l 21.311947073978285 -22.153809382971474" fill="#ffe615" stroke="none" /><path d="M 85.18274418774928 114.88116024355367 l -20.903161574522834 20.993313534492966 a50.625350242117534,50.625350242117534 0 0,0 -0.6122277287539465,-0.620183456921095 l 21.261429928332312 -20.630389583591207" fill="#ffd313" stroke="none" /><path d="M 84.67929136418377 114.36230785411682 l -26.94452658239835 25.258987358793416 a57.93269493472223,57.93269493472223 0 0,0 -0.6757534151784689,-0.73339686925583 l 27.375326405572547 -24.79143923473624" fill="#b2ff20" stroke="none" /><path d="M 83.95833913139862 113.55231037782056 l -22.609538705316915 19.100982656574324 a50.597952275689224,50.597952275689224 0 0,0 -0.5563461703644088,-0.6701548018370528 l 22.934980875574862 -18.70896659762351" fill="#ffd213" stroke="none" /><path d="M 83.50135304334701 112.99209946851258 l -23.362969407595255 18.39751000313972 a50.73712685946404,50.73712685946404 0 0,0 -0.5344145988216895,-0.6908029087899201 l 23.67619082363501 -17.992629100236545" fill="#ffd513" stroke="none" /><path d="M 83.06392112726016 112.41649034213515 l -35.87075824729671 26.298231526278393 a65.4781775553557,65.4781775553557 0 0,0 -0.658586393243289,-0.9147188986211862 l 36.31812443291561 -25.676879022206066" fill="#42ff2d" stroke="none" /><path d="M 82.44556493220864 111.52570212397912 l -24.708266282899757 16.22268766137453 a50.55797722553413,50.55797722553413 0 0,0 -0.47138124086922234,-0.7315941538334841 l 24.983852387146026 -15.794971907619596" fill="#ffd113" stroke="none" /><path d="M 82.05923443525364 110.91462005526583 l -28.148007794363206 17.124398024119596 a53.94776700293971,53.94776700293971 0 0,0 -0.4758170553485864,-0.7974967537101215 l 28.438605725410024 -16.637339176523362" fill="#f2ff19" stroke="none" /><line stroke="#e1ed5e" stroke-width="0.3" x1="26.63291911575756" x2="22.317208475507996" y1="142.92168965132927" y2="145.44649492493687" /><path d="M 25.769776987707644 143.4266507060508 a86.0,86.0 0 0,1 -11.730757126820373,-40.83630448921669" fill="none" id="id9" stroke="none" /><text fill="#e1ed5e" style="font-size:6.75px; font-family:Arial;" text-anchor="middle"><textPath startOffset="21.46611528233685" xlink:href="#id9">September</textPath></text><path d="M 81.51974371655577 109.97397251340807 l -55.097167605443396 29.736472635157114 a83.60954945472591,83.60954945472591 0 0,0 -0.6726487461344421,-1.272397933387827 l 55.60086885980272 -28.783659686683162" fill="#4cd7ff" stroke="none" /><path d="M 81.18737489456691 109.33194174019688 l -21.57446190269545 10.701941936529982 a45.082960108834556,45.082960108834556 0 0,0 -0.3388665921594319,-0.6981655488175955 l 21.755481751469603 -10.328987431747102" fill="#ff6d0a" stroke="none" /><path d="M 80.87730276802145 108.67885076344099 l -29.882215955231814 13.562066564682995 a53.815796194820614,53.815796194820614 0 0,0 -0.3755802245064488,-0.8468342559785009 l 30.11123726446954 -13.0456839722118" fill="#f5ff19" stroke="none" /><path d="M 80.58989483394504 108.01547362559985 l -41.36348523559506 17.0812018859446 a65.75159626989509,65.75159626989509 0 0,0 -0.42299375068888184,-1.049835799744784 l 41.65138160054133 -16.36666671835701" fill="#3fff2d" stroke="none" /><path d="M 80.20201598880116 107.00284435728193 l -27.921473773117793 9.87624472009225 a50.61669980659653,50.61669980659653 0 0,0 -0.28347561926904125,-0.8239128415918763 l 28.087340223330063 -9.394159175411078" fill="#ffd213" stroke="none" /><path d="M 79.97269907076064 106.31721596034903 l -28.205296222274175 8.896802823868581 a50.575189525563985,50.575189525563985 0 0,0 -0.25473814415395485,-0.8324989941455078 l 28.35426113893426 -8.409976857171026" fill="#ffd213" stroke="none" /><path d="M 79.35854240842038 103.8639653848113 l -23.515597454786857 4.40198828814877 a44.924063713018676,44.924063713018676 0 0,0 -0.13574246034152337,-0.7613158055395138 l 23.587886357467568 -3.996553731876042" fill="#ff6a09" stroke="none" /><path d="M 79.23777060512086 103.15116336523772 l -42.150824214786546 6.397392618779687 a63.633538608760276,63.633538608760276 0 0,0 -0.15504144714710025,-1.084359520240708 l 42.25469971295025 -5.670887626558579" fill="#5cff2a" stroke="none" /><path d="M 79.10278846688536 102.07522291339032 l -31.781260542389905 3.156076588949806 a52.93758508557882,52.93758508557882 0 0,0 -0.08224333740636591,-0.9075483750524865 l 31.830878476073345 -2.6085468253487534" fill="#fffb17" stroke="none" /><path d="M 79.0095281055655 100.63252640178507 l -32.8323944980303 0.9893706276957764 a53.847297951479014,53.847297951479014 0 0,0 -0.0199438527642062,-0.9267124700879928 l 32.84456041347951 -0.4240683418176547" fill="#f4ff19" stroke="none" /><line stroke="#e1ed5e" stroke-width="0.3" x1="15.007084014347285" x2="10.007500721073583" y1="101.09737516637583" y2="101.16192664675087" /><path d="M 14.007167355692545 101.11028546245083 a86.0,86.0 0 0,1 10.666146001902534,-42.60595125391555" fill="none" id="id10" stroke="none" /><text fill="#e1ed5e" style="font-size:6.75px; font-family:Arial;" text-anchor="middle"><textPath startOffset="22.20632615414155" xlink:href="#id10">October</textPath></text><path d="M 79.00486145842228 99.54816195383935 l -32.482599184518456 -0.6990606001807013 a53.49012058310655,53.49012058310655 0 0,0 0.02773413221491682,-0.9203608278339601 l 32.465753357847895 1.2580915754396558" fill="#faff18" stroke="none" /><path d="M 79.03285615573316 98.82574320788736 l -29.501207979819146 -1.6522037576092041 a50.547437275087034,50.547437275087034 0 0,0 0.05613030302364406,-0.8683109439155756 l 29.46839708579109 2.1597737657777913" fill="#ffd113" stroke="none" /><path d="M 79.12142395522702 97.74499172005258 l -31.31388674079395 -3.3820828454201215 a52.49599954261741,52.49599954261741 0 0,0 0.10476613378832636,-0.8975722546986654 l 31.251030254002035 3.9205988384436488" fill="#fff316" stroke="none" /><path d="M 79.21141760316559 97.0276538004421 l -29.257888670680426 -4.183285446660747 a50.5554381898522,50.5554381898522 0 0,0 0.1305873607806244,-0.8604075467838048 l 29.181545416460498 4.686292105836644" fill="#ffd113" stroke="none" /><path d="M 79.32604984820605 96.31383870115002 l -23.2852427977112 -4.151754270714459 a44.65247546606395,44.65247546606395 0 0,0 0.14142986101228133,-0.7555239727931975 l 23.210327212789057 4.55195632097023" fill="#ff6509" stroke="none" /><path d="M 79.46518482838121 95.60439243477599 l -44.77980667477931 -9.585401930521083 a66.79422470137743,66.79422470137743 0 0,0 0.25033716189740735,-1.1222124106014912 l 44.60817512587986 10.354792510672535" fill="#30ff2f" stroke="none" /><path d="M 79.71946130924805 94.55025226153421 l -31.683883704917754 -8.514032896247807 a53.80788385106761,53.80788385106761 0 0,0 0.24806261926723905,-0.892413225346346 l 31.532634315084156 9.058157425013096" fill="#f5ff19" stroke="none" /><path d="M 79.91906864156998 93.8553929516997 l -28.29395390380085 -8.657727347322156 a50.58891803244886,50.58891803244886 0 0,0 0.26196511514898285,-0.8305010034454525 l 28.140733304883664 9.143478517194024" fill="#ffd213" stroke="none" /><path d="M 80.14247586403 93.16781622104843 l -20.59684405119976 -7.0865543388311325 a42.781855689234774,42.781855689234774 0 0,0 0.2455819476465035,-0.6942932364174003 l 20.471809022743447 7.440045201675144" fill="#ff4106" stroke="none" /><path d="M 80.52162464483688 92.15188598940014 l -30.433363496544015 -12.262034286324335 a53.81077717079818,53.81077717079818 0 0,0 0.35355810768425366,-0.8561690017349569 l 30.21778370197356 12.784077858512603" fill="#f5ff19" stroke="none" /><path d="M 80.803312248108 91.48605970444005 l -27.067732667184558 -12.004834523699204 a50.61044078840385,50.61044078840385 0 0,0 0.3600515519643342,-0.7933258681116235 l 26.85707879825687 12.468982400652898" fill="#ffd213" stroke="none" /><path d="M 81.10775173730289 90.83032412892265 l -39.868496773795954 -19.3508569122842 a65.31650593449213,65.31650593449213 0 0,0 0.49964012701167393,-1.007244007601712 l 39.52949663383087 20.034260508384875" fill="#45ff2d" stroke="none" /><line stroke="#e1ed5e" stroke-width="0.3" x1="26.266209847984243" x2="21.928928074336255" y1="57.711370442889674" y2="55.22380399835377" /><path d="M 25.398753493254645 57.213857153982495 a86.0,86.0 0 0,1 29.58750427330803,-30.492523968695096" fill="none" id="id11" stroke="none" /><text fill="#e1ed5e" style="font-size:6.75px; font-family:Arial;" text-anchor="middle"><textPath startOffset="21.46611528233685" xlink:href="#id11">November</textPath></text><path d="M 81.78341655067845 89.55222093294921 l -20.94572324807958 -12.013025906000786 a45.1461407641757,45.1461407641757 0 0,0 0.39242815388100777,-0.6707869224377153 l 20.735835419728247 12.371792240792393" fill="#ff6e0a" stroke="none" /><path d="M 82.54541684631803 88.32363383020206 l -51.920424131393844 -34.73253291193514 a83.46662536476964,83.46662536476964 0 0,0 0.8091315646409547,-1.1873007295196019 l 51.314868101084144 35.621111664725156" fill="#4cd9ff" stroke="none" /><path d="M 85.83668400450813 84.49514656593479 l -20.00557822679338 -21.900489854839638 a50.66234340152988,50.66234340152988 0 0,0 0.6489339865548228,-0.5826193404543168 l 19.625633252642587 22.241608204063233" fill="#ffd313" stroke="none" /><path d="M 86.37877921826538 84.01681056812374 l -19.18343794912085 -22.50991505156385 a50.57533714391758,50.57533714391758 0 0,0 0.6674558811994624,-0.558975105501 l 18.79312453096228 22.83679131445866" fill="#ffd213" stroke="none" /><path d="M 86.93701828274178 83.55741782278169 l -20.41306951110661 -25.69425420554656 a53.81597333684493,53.81597333684493 0 0,0 0.7302762101623418,-0.5699921654810094 l 19.96776074578484 26.04182476025079" fill="#f5ff19" stroke="none" /><path d="M 87.80319425747018 82.90503203632743 l -26.25457402424065 -36.79824958425309 a66.20413509469365,66.20413509469365 0 0,0 0.9333801348731121,-0.6538924328734795 l 25.617262749783876 37.24472685989051" fill="#38ff2e" stroke="none" /><path d="M 88.39885842347998 82.49532879139004 l -16.50335391095036 -24.901496300605434 a50.873821454898376,50.873821454898376 0 0,0 0.7341164488189047,-0.4774897590893428 l 16.072270436347168 25.181884983854314" fill="#ffd714" stroke="none" /><path d="M 89.00827224532344 82.1063720568725 l -17.173873751939603 -27.957652711031237 a53.81116097851754,53.81116097851754 0 0,0 0.7934274618960778,-0.4780311680719282 l 16.690084223825874 28.249130488561786" fill="#f5ff19" stroke="none" /><line stroke="#e1ed5e" stroke-width="0.3" x1="56.762969772571076" x2="54.21961505331055" y1="26.818313649435495" y2="22.513508569990535" /><path d="M 56.25429882871897 25.957352633546506 a86.0,86.0 0 0,1 42.265352541879196,-11.944610805530505" fill="none" id="id12" stroke="none" /><text fill="#e1ed5e" style="font-size:6.75px; font-family:Arial;" text-anchor="middle"><textPath startOffset="22.20632615414155" xlink:href="#id12">December</textPath></text><path d="M 89.63071344664047 81.73862282372117 l -22.445033007221124 -39.528005265328254 a66.45594248226588,66.45594248226588 0 0,0 0.9996110175314991,-0.5562824490003976 l 21.761297900617578 39.90850311188884" fill="#35ff2f" stroke="none" /><path d="M 90.58718382345135 81.22770947309562 l -14.707322088404368 -29.331298724832624 a53.81204668863914,53.81204668863914 0 0,0 0.8315978729257077,-0.40806146465473386 l 14.200252948468234 29.58011534962219" fill="#f5ff19" stroke="none" /><path d="M 91.23893434514133 80.91482961587045 l -13.798622671585772 -30.059021941866213 a54.07486640538999,54.07486640538999 0 0,0 0.849278946762758,-0.38104670752535547 l 13.27916160635624 30.292088979908097" fill="#f0ff19" stroke="none" /><path d="M 91.90106846888425 80.62456947434976 l -16.055622863742645 -38.41057356113125 a62.63118046414022,62.63118046414022 0 0,0 0.998269827050897,-0.4072193275166749 l 15.392069167103367 38.681253774831504" fill="#6bff28" stroke="none" /><path d="M 92.91201910852362 80.23233633223022 l -10.235173406437537 -28.544866101863278 a51.324382193758694,51.324382193758694 0 0,0 0.8341873939554153,-0.2910316020522006 l 9.742304008418838 28.716818557087688" fill="#ffdf14" stroke="none" /><path d="M 93.59665428221793 80.00007090966166 l -10.007331055843446 -31.25645878288359 a53.81939808264846,53.81939808264846 0 0,0 0.8847258785730672,-0.2748886370975502 l 9.46781980455965 31.424087554863664" fill="#f5ff19" stroke="none" /><path d="M 94.28887869178378 79.79150937346287 l -6.400270486063493 -22.647007329163767 a44.53402649913467,44.53402649913467 0 0,0 0.7394813829340445,-0.20212819602694887 l 6.009491213905726 22.753822066017012" fill="#ff6309" stroke="none" /><path d="M 94.63758080256005 79.69619591428918 l -11.476523624908303 -43.45372465032456 a65.94370679527115,65.94370679527115 0 0,0 1.099975920835528,-0.2804083542065091 l 10.726838815387776 43.64483600069993" fill="#3cff2e" stroke="none" /><path d="M 95.33964822691252 79.52364482259891 l -6.561955588360177 -28.831500244578777 a50.56881241268843,50.56881241268843 0 0,0 0.8504163825931743,-0.18586808264674565 l 6.064696481613481 28.940181825321392" fill="#ffd213" stroke="none" /><path d="M 96.75951476605007 79.25152402106235 l -4.567079325329366 -29.242514263826322 a50.59700751822618,50.59700751822618 0 0,0 0.8616694945715501,-0.12698768481711634 l 4.063040850329167 29.31679643280441" fill="#ffd213" stroke="none" /><path d="M 97.11714578562143 79.19881850522333 l -6.4972930698911275 -46.88109849519167 a68.32918986578915,68.32918986578915 0 0,0 1.166428960946455,-0.1514359558661859 l 5.6893493804368145 46.98599277422199" fill="#32ff48" stroke="none" /><path d="M 98.55514903715128 79.0497635885617 l -2.2569532695726506 -32.725662219091156 a53.80339625311814,53.80339625311814 0 0,0 0.9244908223545264,-0.05576781107934541 l 1.6933003983785013 32.75966329955081" fill="#f5ff19" stroke="none" /><path d="M 99.63851952072746 79.00311137660856 l -1.0750224319740391 -62.4435552294039 a83.4528082868726,83.4528082868726 0 0,0 1.4365029112465595,-0.012364434077253482 l 1.5296526353256365e-14 62.452808286872596" fill="#4cd9ff" stroke="none" /></svg>