<?xml version="1.0" encoding="utf-8" ?>
<svg baseProfile="full" height="200mm" version="1.1" viewBox="0,0,200,200" width="200mm" xmlns="http://www.w3.org/2000/svg" xmlns:ev="http://www.w3.org/2001/xml-events" xmlns:xlink="http://www.w3.org/1999/xlink"><defs /><rect fill="#1a1a1a" height="200" width="200" x="0" y="0" /><rect fill="#1a1a1a" height="200" width="180" x="10" y="0" /><text alignment-baseline="middle" fill="#e1ed5e" style="dominant-baseline: central; font-size:9.0px; font-family:Arial;" text-anchor="middle" x="100.0" y="100.0">2024</text><line stroke="#e1ed5e" stroke-width="0.3" x1="100.0" x2="100.0" y1="15.0" y2="10.0" /><path d="M 100.0 14.0 a86.0,86.0 0 0,1 42.35913384403234,11.155469271406648" fill="none" id="id13" stroke="none" /><text fill="#e1ed5e" style="font-size:6.75px; font-family:Arial;" text-anchor="middle"><textPath startOffset="22.145653131862478" xlink:href="#id13">January</textPath></text><path d="M 100.36049292484886 79.00309439819443 l 0.5408603271868323 -31.50240254636073 a52.507045181776085,52.507045181776085 0 0,0 0.9010876190951491,0.02320882069005705 l -1.0815612603527227 31.488476008320628" fill="#f0ff19" stroke="none" /><path d="M 101.08105385017728 79.02784411241856 l 1.6223579406622664 -31.47331063243996 a52.515096818091614,52.515096818091614 0 0,0 0.8998978184905153,0.05413561811697654 l -2.162400111285244 31.440823036498294" fill="#f0ff19" stroke="none" /><path d="M 102.15924093988457 79.11130261209362 l 3.8316608917256243 -37.06784332489122 a58.26535433814983,58.26535433814983 0 0,0 0.9940183161841599,0.11138182565223291 l -4.467415109510581 36.996605738732015" fill="#99ff23" stroke="none" /><path d="M 102.87502721639298 79.19773525538626 l 4.314797859073981 -31.21972789411006 a52.51648600886436,52.51648600886436 0 0,0 0.8919672429079687,0.1310884681285204 l -4.850090207589632 31.141058352682656" fill="#f0ff19" stroke="none" /><path d="M 103.58742460773223 79.30868818359171 l 5.503027275980922 -31.739998955267318 a53.213519566799285,53.213519566799285 0 0,0 0.8987136712307184,0.16377556862577267 l -6.047075680762694 31.64085521271018" fill="#e5ff1a" stroke="none" /><path d="M 104.29559338865022 79.4440306129975 l 9.286681586408115 -44.44013320754032 a66.40008694255177,66.40008694255177 0 0,0 1.113743150520182,0.2427351359225714 l -10.048187153547431 44.27416661348403" fill="#30ff36" stroke="none" /><path d="M 104.64783097203109 79.52079915486377 l 6.280861313894836 -27.67463384570741 a49.37841745655235,49.37841745655235 0 0,0 0.8250142373673043,0.1947011136213797 l -6.755007705002025 27.562736588439805" fill="#ffdb14" stroke="none" /><path d="M 105.3480935250658 79.69241777938227 l 8.025154695284634 -30.472819527901564 a52.51183647240046,52.51183647240046 0 0,0 0.8697425426750872,0.23705219757938964 l -8.547078638894416 30.330566836178033" fill="#f0ff19" stroke="none" /><path d="M 106.04205211174951 79.88797359093562 l 11.520585361301466 -38.34828180045026 a61.04141111541623,61.04141111541623 0 0,0 1.0009610333489225,0.31010028680428037 l -12.177187027522018 38.144864925839336" fill="#71ff27" stroke="none" /><path d="M 106.72888874123014 80.10723608172694 l 9.548690460534672 -28.22900665546698 a50.800240037045086,50.800240037045086 0 0,0 0.8236756433972103,0.28651714551806984 l -10.031871875976902 28.060931077380317" fill="#fff216" stroke="none" /><path d="M 107.06938296918511 80.22567764915836 l 10.607677293816698 -29.671561311073496 a52.510702439116585,52.510702439116585 0 0,0 0.8461995885552033,0.31073621000307877 l -11.115466034026026 29.485094252061696" fill="#f0ff19" stroke="none" /><path d="M 107.74402155503746 80.48000691201159 l 11.6183271470963 -29.28577406370748 a52.506223007645275,52.506223007645275 0 0,0 0.8349628063401444,0.339572104444177 l -12.119344414626884 29.082014702684006" fill="#f0ff19" stroke="none" /><path d="M 108.4095320186766 80.7573450057729 l 15.72865715808889 -35.9902456573576 a60.27707268208322,60.27707268208322 0 0,0 0.9445893683224064,0.42250280975889715 l -16.344159929266926 35.714939096688845" fill="#7cff26" stroke="none" /><path d="M 109.06512990194946 81.05736502329252 l 14.698571383207618 -30.71436100781126 a55.05025657503048,55.05025657503048 0 0,0 0.8489267317770058,0.4152526047731606 l -15.22365836424669 30.457514652940876" fill="#c9ff1d" stroke="none" /><path d="M 110.02825361518725 81.54914285379988 l 20.32316230902745 -37.3923296031342 a63.55839798898098,63.55839798898098 0 0,0 0.954150207500661,0.5292510360034713 l -20.96205670468421 37.037945651697584" fill="#4fff2b" stroke="none" /><line stroke="#e1ed5e" stroke-width="0.3" x1="143.13028292997686" x2="145.6673583964461" y1="26.7553504044142" y2="22.446841604673864" /><path d="M 143.63769802327073 25.89364864446614 a86.0,86.0 0 0,1 29.32050498858742,28.57503671076993" fill="none" id="id14" stroke="none" /><text fill="#e1ed5e" style="font-size:6.75px; font-family:Arial;" text-anchor="middle"><textPath startOffset="20.669276256404974" xlink:href="#id14">February</textPath></text><path d="M 110.65571695917076 81.90426304109057 l 20.143406254972664 -34.20790759018087 a60.69808253872252,60.69808253872252 0 0,0 0.8933232882139192,0.5364149673096179 l -20.72766229974402 33.85707862233533" fill="#76ff27" stroke="none" /><path d="M 111.27062007382361 82.28071324371311 l 21.3323309182561 -33.53796740948511 a60.74749803906745,60.74749803906745 0 0,0 0.8750948076789132,0.567225881741949 l -21.904911358192024 33.16682768603927" fill="#75ff27" stroke="none" /><path d="M 117.01052211995028 87.68569379921539 l 23.13001932516223 -16.744350255190493 a49.55470293053101,49.55470293053101 0 0,0 0.49291567804862096,0.6933476306969185 l -23.41405010174081 16.344825397784074" fill="#ffde14" stroke="none" /><path d="M 117.62189284568427 88.57770195909679 l 26.42414393084086 -17.127810848521147 a52.48963777086857,52.48963777086857 0 0,0 0.483610299125168,0.7603157157603855 l -26.714271921591916 16.671681458082087" fill="#f1ff19" stroke="none" /><line stroke="#e1ed5e" stroke-width="0.3" x1="172.87174338648825" x2="177.1583165268699" y1="56.24261187166439" y2="53.66864786411523" /><path d="M 173.72905801456457 55.72781907015455 a86.0,86.0 0 0,1 12.242430191666344,42.057860355516425" fill="none" id="id15" stroke="none" /><text fill="#e1ed5e" style="font-size:6.75px; font-family:Arial;" text-anchor="middle"><textPath startOffset="22.145653131862474" xlink:href="#id15">March</textPath></text><path d="M 118.18653347947321 89.5 l 29.502652225567648 -17.033364204239398 a55.06672840847879,55.06672840847879 0 0,0 0.46561969822739896,0.8227053919500374 l -29.790705288816422 16.524402042190243" fill="#c9ff1d" stroke="none" /><path d="M 118.70294669586156 90.45014215332178 l 28.066022289727346 -14.330710959461031 a52.51302720734853,52.51302720734853 0 0,0 0.40305020394261204,0.8063704005131501 l -28.307892406881695 13.84680870278413" fill="#f0ff19" stroke="none" /><path d="M 119.0197475246899 91.09779779509293 l 28.53089231896797 -13.35389821448348 a52.501403366188796,52.501403366188796 0 0,0 0.3750488629447437,0.8195494510775121 l -28.755925646767768 12.862159781191284" fill="#f1ff19" stroke="none" /><path d="M 119.4528033332814 92.08871423366111 l 29.49084367903575 -11.993669387286438 a52.83642514907813,52.83642514907813 0 0,0 0.334483065208173,0.8431158248346513 l -29.692385419210044 11.485652545238223" fill="#ebff1a" stroke="none" /><path d="M 119.71291397450082 92.76114493625339 l 30.219678175990264 -11.09708441238198 a53.192766757704334,53.192766757704334 0 0,0 0.30740310136224697,0.8598611851249438 l -30.405721447396452 10.576688270876119" fill="#e6ff1a" stroke="none" /><path d="M 119.94978838288452 93.4421083053983 l 29.936142567869435 -9.840604669404398 a52.512063279057244,52.512063279057244 0 0,0 0.2741511896534332,0.8587746968945553 l -30.100658473300125 9.325260938818456" fill="#f0ff19" stroke="none" /><path d="M 120.16314734710363 94.1308016681162 l 41.058214228968666 -11.951447773227045 a63.76229717342204,63.76229717342204 0 0,0 0.2968939793526582,1.053571993948512 l -41.25732670039591 11.24486785537552" fill="#4cff2c" stroke="none" /><path d="M 120.43855184770803 95.1765574152323 l 33.12649151237985 -7.817761798161692 a55.036478070631375,55.036478070631375 0 0,0 0.20911015086457446,0.9213779081215092 l -33.25581252480209 7.247949556101157" fill="#c9ff1d" stroke="none" /><path d="M 120.592083275326 95.88100663000786 l 31.562291925673023 -6.313342338673374 a53.18752185376641,53.18752185376641 0 0,0 0.1713998480080086,0.8968364314596768 l -31.66601806596319 5.770603342180383" fill="#e6ff1a" stroke="none" /><path d="M 120.7213421655516 96.59031103205396 l 37.70843449863911 -6.204908547008836 a59.21553247587817,59.21553247587817 0 0,0 0.15643758971427713,1.0044415467204928 l -37.809393580491644 5.556678818356902" fill="#8bff24" stroke="none" /><path d="M 120.77682067341334 96.94652285012252 l 28.111773072498007 -4.13146255958476 a49.41374259334512,49.41374259334512 0 0,0 0.11613519783384925,0.8402964388416649 l -28.17855278688707 3.648277812543009" fill="#ffdb14" stroke="none" /><path d="M 120.86939407059847 97.66154086499901 l 31.31357182814832 -3.5087510372045516 a52.50954005500061,52.50954005500061 0 0,0 0.09268585817747607,0.8966516000345949 l -31.369190078807463 2.970694914887025" fill="#f0ff19" stroke="none" /><path d="M 120.93736805541906 98.37931529534042 l 31.841932199743116 -2.464766934713851 a52.93718400635059,52.93718400635059 0 0,0 0.062355059018720516,0.9066288730779047 l -31.879551219926903 1.9177946374816124" fill="#eaff1a" stroke="none" /><path d="M 120.98066250479742 99.09900007780936 l 39.77066239828943 -1.707923366010746 a60.807318294791955,60.807318294791955 0 0,0 0.03583379032287301,1.0432617071556725 l -39.79412087560915 1.0249553942909535" fill="#75ff27" stroke="none" /><path d="M 120.99303781780057 99.45929381324524 l 40.187188208153714 -1.0350794144714832 a61.200515985144165,61.200515985144165 0 0,0 0.018035408541476085,1.0504721300537936 l -40.19903504829385 0.34506036844862314" fill="#6fff27" stroke="none" /><line stroke="#e1ed5e" stroke-width="0.3" x1="184.99686870605535" x2="189.99668451229388" y1="99.2704041080226" y2="99.22748670261217" /><path d="M 185.99683186730306 99.26182062694052 a86.0,86.0 0 0,1 -10.086455211305974,41.156179273409016" fill="none" id="id16" stroke="none" /><text fill="#e1ed5e" style="font-size:6.75px; font-family:Arial;" text-anchor="middle"><textPath startOffset="21.40746469413373" xlink:href="#id16">April</textPath></text><path d="M 120.99922638620191 100.18025310272382 l 28.387918152081085 0.2436761351430018 a49.388963966092405,49.388963966092405 0 0,0 -0.01455461817976507,0.847733541841449 l -28.37955210230265 -0.7309565929535219" fill="#ffdb14" stroke="none" /><path d="M 120.98066250479742 100.90099992219065 l 59.793949174015296 2.5678094550608317 a80.84906016991599,80.84906016991599 0 0,0 -0.07144905003255045,1.3860924828643644 l -59.74105853452617 -3.593873731301927" fill="#48f9ff" stroke="none" /><path d="M 120.93736805541906 101.62068470465957 l 35.4734420717998 2.745868766084627 a56.57955716000264,56.57955716000264 0 0,0 -0.08326995910389443,0.9677231466989942 l -35.421078489998166 -3.3544129601592783" fill="#b2ff20" stroke="none" /><path d="M 120.82617615685814 102.69636545807757 l 31.261433829829365 4.047418484980588 a52.52235463110842,52.52235463110842 0 0,0 -0.12344124783224049,0.8931593771252488 l -31.187348065441917 -4.583466170305922" fill="#f0ff19" stroke="none" /><path d="M 120.7213421655516 103.40968896794604 l 31.411680310668117 5.1687800415741885 a52.83410038084618,52.83410038084618 0 0,0 -0.15494274831371543,0.893668597840456 l -31.31832274486217 -5.707241672335233" fill="#ebff1a" stroke="none" /><path d="M 120.592083275326 104.11899336999214 l 43.667635417030084 8.734750066861949 a65.53266488371435,65.53266488371435 0 0,0 -0.23012041544308945,1.101209492423294 l -43.51125729076263 -9.483076010570652" fill="#35ff2f" stroke="none" /><path d="M 120.51834098615036 104.47187691870673 l 34.42793458524332 7.50340810372603 a56.23611517998054,56.23611517998054 0 0,0 -0.21366815140736267,0.9414612995205722 l -34.294055572278296 -8.09330373718562" fill="#b7ff1f" stroke="none" /><path d="M 120.35273937422433 105.17358676015961 l 30.53206283933156 7.7611309790551 a52.50304771445042,52.50304771445042 0 0,0 -0.22953962238084344,0.8715993339572548 l -30.394333736145985 -8.284110817385159" fill="#f1ff19" stroke="none" /><path d="M 120.16314734710363 105.8691983318838 l 32.73633158356631 9.529069019567617 a55.09502253891152,55.09502253891152 0 0,0 -0.27212659462947,0.9058209291432235 l -32.56792866893321 -10.089627552301565" fill="#c8ff1d" stroke="none" /><path d="M 119.94978838288452 106.5578916946017 l 29.78162791932847 9.789812635378095 a52.349414555317196,52.349414555317196 0 0,0 -0.2879581215852841,0.8512970196618492 l -29.609184376170823 -10.299611329514104" fill="#f3ff19" stroke="none" /><path d="M 119.83427380445688 106.89939002012753 l 33.493812154901995 11.650886520767413 a56.462354820113966,56.462354820113966 0 0,0 -0.32629817999464633,0.9127140829450417 l -33.2888738048634 -12.224135560093377" fill="#b3ff20" stroke="none" /><path d="M 119.58574465831526 107.57618678355244 l 29.214851363071105 11.300932113723757 a52.32440912140771,52.32440912140771 0 0,0 -0.3312417276292641,0.8349455367373824 l -29.016550960475715 -11.800778667674702" fill="#f3ff19" stroke="none" /><path d="M 119.31412917781788 108.2440532568976 l 31.37363823351114 13.391540570038103 a55.112146441498055,55.112146441498055 0 0,0 -0.3788726969272178,0.8669348755092864 l -31.139131654566956 -13.928137515323234" fill="#c8ff1d" stroke="none" /><path d="M 119.0197475246899 108.90220220490707 l 38.56359672184459 18.049710455972484 a63.57866883393027,63.57866883393027 0 0,0 -0.4711504581836784,0.9845232495303413 l -38.248067005700996 -18.70904620756793" fill="#4fff2b" stroke="none" /><path d="M 118.8641267826498 109.22738970284198 l 28.302060390917184 13.843955971529837 a52.50653486679835,52.50653486679835 0 0,0 -0.4030003736562743,0.8062707065604775 l -28.06024010404918 -14.327758534254059" fill="#f0ff19" stroke="none" /><path d="M 118.5362547648365 109.86951160357373 l 27.814629753062345 14.809723678254437 a52.51160966574369,52.51160966574369 0 0,0 -0.43048180014961396,0.7920380260996484 l -27.556302603297393 -15.285016537828689" fill="#f0ff19" stroke="none" /><line stroke="#e1ed5e" stroke-width="0.3" x1="174.33088141563837" x2="178.70328620479359" y1="141.23008692659167" y2="143.65538615756765" /><path d="M 175.20536237346943 141.71514677278685 a86.0,86.0 0 0,1 -30.301960400862466,31.631185727798858" fill="none" id="id17" stroke="none" /><text fill="#e1ed5e" style="font-size:6.75px; font-family:Arial;" text-anchor="middle"><textPath startOffset="22.145653131862474" xlink:href="#id17">May</textPath></text><path d="M 118.18653347947321 110.5 l 32.2681522127341 18.630026366273842 a58.2600527325477,58.2600527325477 0 0,0 -0.507490252095675,0.861829396024864 l -31.94358825050866 -19.181206930592253" fill="#99ff23" stroke="none" /><path d="M 117.62189284568427 111.42229804090321 l 38.081582300075226 24.68402155828415 a66.38180065584925,66.38180065584925 0 0,0 -0.6280210233692058,0.9509038737792747 l -37.65223683778529 -25.33410531040249" fill="#30ff36" stroke="none" /><path d="M 117.21940702142032 112.02048342749411 l 26.143559478458627 18.25023492711408 a52.88348753035901,52.88348753035901 0 0,0 -0.5260267658176713,0.7399225222592118 l -25.826417614110998 -18.696334676082795" fill="#eaff1a" stroke="none" /><path d="M 116.79662413953412 112.60449989151573 l 25.748992897347925 19.322524305188352 a53.19271005604015,53.19271005604015 0 0,0 -0.5543390197585807,0.7256475713855802 l -25.41350190023504 -19.76169278981481" fill="#e6ff1a" stroke="none" /><path d="M 116.35404254752997 113.17365903436017 l 24.95681660941744 20.10344486019318 a53.046703270741,53.046703270741 0 0,0 -0.5773329886396454,0.7042523731095088 l -24.608036801539168 -20.528899515001182" fill="#e8ff1a" stroke="none" /><path d="M 116.1254893667686 113.45245675266167 l 37.038560960511646 30.898884875327827 a69.2348015914267,69.2348015914267 0 0,0 -0.76918360027553,0.9060963470399216 l -36.502682796729 -31.530148004817306" fill="#35ff62" stroke="none" /><path d="M 115.6541949942343 113.99807769240083 l 23.884282042378977 21.357472280086938 a53.040607841840156,53.040607841840156 0 0,0 -0.61275111481784,0.6735208133809458 l -23.514133226719256 -21.764330669025558" fill="#e8ff1a" stroke="none" /><path d="M 115.16444852881244 114.52719865689866 l 20.494941998460117 19.633690820180576 a49.38176285473979,49.38176285473979 0 0,0 -0.5916715865092061,0.6071071711802917 l -20.154883610800102 -19.982620683428607" fill="#ffdb14" stroke="none" /><path d="M 114.65682725009322 115.03919595460226 l 42.40360480689642 43.50983408557086 a81.75501100957314,81.75501100957314 0 0,0 -1.0134799421036293,0.9708908586914897 l -41.650452378927476 -44.23133707456793" fill="#49edff" stroke="none" /><path d="M 113.86319453409587 115.77377054828091 l 19.181400281263166 21.824912438993536 a50.05603069450088,50.05603069450088 0 0,0 -0.6503005873847715,0.5617141589850155 l -18.80392021411554 -22.15097073044327" fill="#ffe615" stroke="none" /><path d="M 112.7482090630111 116.68781488649013 l 19.12416373265848 25.03414421995307 a52.50304771445042,52.50304771445042 0 0,0 -0.7209093753112952,0.5409838350503153 l -18.69160136843642 -25.3587470822674" fill="#f1ff19" stroke="none" /><path d="M 112.45986205192187 116.90419585922612 l 25.391124424536287 34.44793678852462 a63.79450371868415,63.79450371868415 0 0,0 -0.8871050723630616,0.6421956607984379 l -24.796038341799257 -34.87873322069614" fill="#4cff2c" stroke="none" /><path d="M 111.8722381534696 117.32195027204791 l 19.99990463660181 29.180458569193423 a56.3764801496924,56.3764801496924 0 0,0 -0.8029721179427908,0.5402754764589445 l -19.496036230562012 -29.519483719709488" fill="#b5ff20" stroke="none" /><path d="M 111.27062007382361 117.71928675628689 l 16.90943734887433 26.584444095321494 a52.50653486679835,52.50653486679835 0 0,0 -0.7646848492962135,0.47721990180775997 l -16.450588370788402 -26.8707997939708" fill="#f0ff19" stroke="none" /><line stroke="#e1ed5e" stroke-width="0.3" x1="143.1302829299769" x2="145.66735839644613" y1="173.24464959558577" y2="177.55315839532614" /><path d="M 143.63769802327073 174.10635135553383 a86.0,86.0 0 0,1 -40.68552437913181,11.842963189579606" fill="none" id="id18" stroke="none" /><text fill="#e1ed5e" style="font-size:6.75px; font-family:Arial;" text-anchor="middle"><textPath startOffset="21.407464694133747" xlink:href="#id18">June</textPath></text><path d="M 110.34350942703117 118.27599006163325 l 22.821899627652318 40.32410988987528 a67.33436026347374,67.33436026347374 0 0,0 -1.0108356385643538,0.5606934890689538 l -22.126319800931867 -40.70993629437738" fill="#32ff45" stroke="none" /><path d="M 109.71004243097381 118.62028667847754 l 13.467419157995431 25.825551981233357 a50.126113951444474,50.126113951444474 0 0,0 -0.7663871748138971,0.39132275218479173 l -13.022104761467952 -26.052932685090983" fill="#ffe715" stroke="none" /><path d="M 109.06512990194946 118.94263497670748 l 14.846605673260907 31.023695738901253 a55.39318824007485,55.39318824007485 0 0,0 -0.861261958810695,0.40311408438909724 l -14.311855000578706 -31.273986054860885" fill="#c4ff1e" stroke="none" /><path d="M 108.07796709384702 119.3841803445677 l 18.003218742376266 43.20117114004321 a67.80231909806554,67.80231909806554 0 0,0 -1.078203903987674,0.4384961412854568 l -17.25896037719815 -43.503854537907955" fill="#32ff4c" stroke="none" /><path d="M 107.74402155503746 119.51999308798841 l 11.743993073164825 29.60253428845886 a52.84700000945028,52.84700000945028 0 0,0 -0.8461251070086618,0.3272993682284797 l -11.234095703662634 -29.79977354482538" fill="#ebff1a" stroke="none" /><path d="M 107.407793817531 119.65005319985036 l 10.055039597485212 26.67218714289758 a49.50455030855156,49.50455030855156 0 0,0 -0.7977560412808514,0.2929470684308913 l -9.595694404550233 -26.840865060337194" fill="#ffdd14" stroke="none" /><path d="M 106.72888874123015 119.89276391827305 l 10.09645355736182 29.848370920112583 a52.509738510825294,52.509738510825294 0 0,0 -0.8563519758105137,0.281499903760458 l -9.58257884390357 -30.01729174527506" fill="#f0ff19" stroke="none" /><path d="M 105.69591212413111 120.21278271476187 l 11.546272014571944 40.973646065805504 a63.56942646266668,63.56942646266668 0 0,0 -1.0528870883633163,0.28696905791433813 l -10.841203525273931 -41.165815617863984" fill="#4fff2b" stroke="none" /><path d="M 104.9986988182912 120.39639698878246 l 7.499785951115702 30.601685988783252 a52.50730033926496,52.50730033926496 0 0,0 -0.8772915896652956,0.2070384264198576 l -6.973362207710527 -30.725920558849335" fill="#f0ff19" stroke="none" /><path d="M 104.29559338865022 120.5559693870025 l 6.964998141558202 33.330037465065594 a55.05000141754161,55.05000141754161 0 0,0 -0.9266842367917459,0.18536280066403324 l -6.3918174192354975 -33.44468966239249" fill="#c9ff1d" stroke="none" /><path d="M 103.58742460773223 120.69131181640829 l 8.032094328649373 46.32698564164324 a68.01812563198729,68.01812563198729 0 0,0 -1.1521703565457306,0.18958919371735256 l -7.23564646905057 -46.458040833856266" fill="#33ff50" stroke="none" /><path d="M 103.2317021107853 120.74984581791261 l 4.37289955004605 28.077152017772413 a49.41564209909561,49.41564209909561 0 0,0 -0.8393009012868256,0.123348329575293 l -3.890273543151539 -28.14808142064659" fill="#ffdb14" stroke="none" /><path d="M 102.51750503828377 120.84855314841334 l 3.779093798907841 31.296317870760333 a52.52365876938488,52.52365876938488 0 0,0 -0.8960638692209975,0.100405825556587 l -3.241294028086044 -31.35657945682389" fill="#f0ff19" stroke="none" /><path d="M 101.80034050326958 120.92268563240118 l 2.7351008570514486 31.786017867770887 a52.90347486698735,52.90347486698735 0 0,0 -0.9054832929202054,0.07009013354860215 l -2.1890485693560073 -31.828285768314544" fill="#eaff1a" stroke="none" /><path d="M 101.08105385017728 120.97215588758144 l 2.4922548580519526 48.34907843497002 a69.41327007947683,69.41327007947683 0 0,0 -1.190517702623084,0.05112595263302979 l -1.661911394828039 -48.38473695602888" fill="#35ff65" stroke="none" /><path d="M 100.72087961077811 120.9876233191556 l 1.1144160605944549 32.445007669627245 a53.46414092253608,53.46414092253608 0 0,0 -0.9175125982441668,0.023631869889523826 l -0.5572901482795444 -32.45935725686682" fill="#e1ff1b" stroke="none" /><line stroke="#e1ed5e" stroke-width="0.3" x1="101.45913802915013" x2="101.54496967792366" y1="184.9874750549273" y2="189.98673829345242" /><path d="M 101.47630435890484 185.9873277026323 a86.0,86.0 0 0,1 -42.54439059252881,-10.42667462771756" fill="none" id="id19" stroke="none" /><text fill="#e1ed5e" style="font-size:6.75px; font-family:Arial;" text-anchor="middle"><textPath startOffset="22.145653131862474" xlink:href="#id19">July</textPath></text><path d="M 100.0 121.0 l 4.171981406213309e-15 34.06681346097508 a55.06681346097508,55.06681346097508 0 0,0 -0.94529507841205,-0.008114221340329778 l 0.5848021535631936 -34.06179363782918" fill="#c9ff1d" stroke="none" /><path d="M 99.27912038922189 120.98762331915562 l -1.0817607696405915 31.49428450355354 a52.51285710235595,52.51285710235595 0 0,0 -0.9006561126437095,-0.03867804876166342 l 1.6222426428851398 -31.47107388636605" fill="#f0ff19" stroke="none" /><path d="M 98.55909050195518 120.95050786540614 l -2.054119716979627 29.866449867574445 a50.93700445108064,50.93700445108064 0 0,0 -0.8718256529995327,-0.06748481935295024 l 2.5665143647543958 -29.82678728122644" fill="#fff417" stroke="none" /><path d="M 98.19965949673042 120.92268563240118 l -3.194133375169657 37.12067153700431 a58.25784136764414,58.25784136764414 0 0,0 -0.9956554620520953,-0.09428960743541487 l 3.8308884006067676 -37.06037017406371" fill="#99ff23" stroke="none" /><path d="M 97.48249496171623 120.84855314841334 l -4.082423792679776 33.80832535455593 a55.05391383237098,55.05391383237098 0 0,0 -0.9372854850850388,-0.12135037115339693 l 4.662187099655609 -33.73326338720214" fill="#c9ff1d" stroke="none" /><path d="M 96.76829788921471 120.74984581791261 l -4.37532969977313 28.092755322292184 a49.43143351257359,49.43143351257359 0 0,0 -0.8373272836551977,-0.1377818858850596 l 4.856934486481391 -28.013507437911457" fill="#ffdc14" stroke="none" /><path d="M 96.05791012581884 120.62667999033965 l -8.178990693646945 42.79593542165608 a64.570494344009,64.570494344009 0 0,0 -1.086947461029075,-0.2174199339448651 l 8.912434640206978 -42.649226091048355" fill="#42ff2d" stroke="none" /><path d="M 95.70440661134978 120.55596938700252 l -7.622241287090972 36.47518384113689 a58.26308627158207,58.26308627158207 0 0,0 -0.9772594623148969,-0.21298915131898588 l 8.247263166025006 -36.33896323168419" fill="#99ff23" stroke="none" /><path d="M 95.00130118170881 120.39639698878247 l -7.500305581108982 30.6038062564801 a52.50948335333642,52.50948335333642 0 0,0 -0.8736445494821827,-0.22207702811793764 l 8.024555423816544 -30.4705439965269" fill="#f0ff19" stroke="none" /><path d="M 94.30408787586889 120.21278271476187 l -8.546317357895433 30.32786531847866 a52.50902974002287,52.50902974002287 0 0,0 -0.8654988049554931,-0.25193408820781077 l 9.065676175232532 -30.176687535968338" fill="#f0ff19" stroke="none" /><path d="M 93.27111125876986 119.89276391827306 l -14.617565776797047 43.214235847878236 a66.61955073381404,66.61955073381404 0 0,0 -1.080170118753215,-0.3757392385947259 l 15.357241667595284 -42.95693817671492" fill="#30ff3a" stroke="none" /><path d="M 92.59220618246901 119.65005319985036 l -11.114685970442173 29.4830250407284 a52.508491074213026,52.508491074213026 0 0,0 -0.8407052930362579,-0.3252028677530878 l 11.619163525971958 -29.28788228483727" fill="#f0ff19" stroke="none" /><path d="M 91.92203290615298 119.3841803445677 l -11.952151034254875 28.680811454404203 a52.07157640076736,52.07157640076736 0 0,0 -0.8221480150036944,-0.350926099662177 l 12.442734124429002 -28.471410705082622" fill="#f7ff18" stroke="none" /><path d="M 91.26138138417905 119.09545874513695 l -18.350581183791093 40.099331639208934 a65.09875539847094,65.09875539847094 0 0,0 -1.0121656357390494,-0.4737446247648979 l 19.036235533401634 -39.77841078287351" fill="#3bff2e" stroke="none" /><path d="M 90.93487009805054 118.94263497670748 l -6.998585409215669 14.624351795728128 a37.21270684294584,37.21270684294584 0 0,0 -0.5738549384906316,-0.2807012066534537 l 7.24860059696837 -14.502056838977452" fill="#ff0000" stroke="none" /><path d="M 90.28995756902619 118.62028667847754 l -15.745477994898767 30.194030174312168 a55.05289320241549,55.05289320241549 0 0,0 -0.8342117304912653,-0.4441707593240185 l 16.261478541176594 -29.919288947265578" fill="#c9ff1d" stroke="none" /><line stroke="#e1ed5e" stroke-width="0.3" x1="58.13341422392154" x2="55.67067388415222" y1="173.97424548756322" y2="178.32567169271397" /><path d="M 57.64086615596768 174.84453072859336 a86.0,86.0 0 0,1 -31.369924170532247,-30.572349798747897" fill="none" id="id20" stroke="none" /><text fill="#e1ed5e" style="font-size:6.75px; font-family:Arial;" text-anchor="middle"><textPath startOffset="22.145653131862474" xlink:href="#id20">August</textPath></text><path d="M 89.65649057296885 118.27599006163327 l -15.519236940531586 27.421004649356806 a52.50806581173157,52.50806581173157 0 0,0 -0.7806387449764015,-0.45070198955198043 l 15.987668153368388 -27.150555762528654" fill="#f0ff19" stroke="none" /><path d="M 89.03521579738668 117.91015095944536 l -22.26732601796646 36.37200359583117 a63.646880935955465,63.646880935955465 0 0,0 -0.9269285371840654,-0.578471962541049 l 22.88841868394024 -35.98439583644857" fill="#4eff2c" stroke="none" /><path d="M 88.72937992617639 117.7192867562869 l -17.121332352442572 26.917578235755386 a52.90134855458008,52.90134855458008 0 0,0 -0.762067524320969,-0.4939629622262301 l 17.58088550902055 -26.619701431825263" fill="#eaff1a" stroke="none" /><path d="M 88.1277618465304 117.32195027204791 l -17.8099520154013 25.985252247334902 a52.50282090779365,52.50282090779365 0 0,0 -0.7390519803604031,-0.515915679960861 l 18.25339908693547 -25.675691751568912" fill="#f1ff19" stroke="none" /><path d="M 87.54013794807813 116.9041958592261 l -18.690592089987895 25.357377802214433 a52.501346664524604,52.501346664524604 0 0,0 -0.720886018517875,-0.5409663076770953 l 19.123131097416536 -25.03279246727332" fill="#f1ff19" stroke="none" /><path d="M 86.96720088162412 116.46651593811092 l -23.1266516176723 29.219768830826272 a58.264418760690624,58.264418760690624 0 0,0 -0.7789376515601105,-0.6274570339935907 l 23.624840039587674 -28.818463503039272" fill="#99ff23" stroke="none" /><path d="M 86.68645165197938 116.24036423190432 l -23.997041858618662 29.27248920308784 a58.85150779175369,58.85150779175369 0 0,0 -0.7757908490489893,-0.6471923182343405 l 24.496007041829543 -28.85623470094163" fill="#90ff24" stroke="none" /><path d="M 86.13680546590413 115.77377054828092 l -20.796541734234392 23.6626469250477 a52.50265080280106,52.50265080280106 0 0,0 -0.6718713550091746,-0.6007915086135677 l 21.199678116066938 -23.302159886550747" fill="#f1ff19" stroke="none" /><path d="M 85.60350026404147 115.28858382429668 l -21.594001323901985 22.932081088977846 a52.49890849296426,52.49890849296426 0 0,0 -0.6508052544170342,-0.6234567119210723 l 21.984479064184335 -22.558012246751193" fill="#f1ff19" stroke="none" /><path d="M 84.83555147118756 114.52719865689866 l -20.627174563100137 19.760366625884103 a49.564880879253806,49.564880879253806 0 0,0 -0.5833176743269104,-0.6194631558854385 l 20.963348071163303 -19.403362010054174" fill="#ffde14" stroke="none" /><path d="M 84.3458050057657 113.99807769240083 l -23.48732618654606 21.00251190604986 a52.508094162563665,52.508094162563665 0 0,0 -0.5950640696814555,-0.6770736768928753 l 23.84440132018611 -20.596225951345687" fill="#f0ff19" stroke="none" /><path d="M 83.8745106332314 113.45245675266167 l -22.00100805225821 18.35402341016049 a49.651606074638295,49.651606074638295 0 0,0 -0.5403824999175785,-0.6591787849340138 l 22.31283737141442 -17.973642343527985" fill="#ffdf14" stroke="none" /><path d="M 83.4222238831116 112.89097897827486 l -35.849265444390525 27.87660564190163 a66.41227780035345,66.41227780035345 0 0,0 -0.6921045560002189,-0.9059870806589942 l 36.32252197774504 -27.257097648001764" fill="#30ff36" stroke="none" /><path d="M 83.20337586046588 112.60449989151573 l -23.5288885306703 17.656516599325734 a50.417021839590994,50.417021839590994 0 0,0 -0.5135285309564966,-0.6967000782524957 l 23.828519081210626 -17.25001021180436" fill="#ffec16" stroke="none" /><path d="M 82.78059297857968 112.02048342749411 l -25.83658440462111 18.03594248468981 a52.509114792519156,52.509114792519156 0 0,0 -0.5096141193075067,-0.743542230072122 l 26.142388260743942 -17.589765519547637" fill="#f0ff19" stroke="none" /><path d="M 82.37810715431573 111.42229804090323 l -26.441320493929677 17.138944489193975 a52.51010707164255,52.51010707164255 0 0,0 -0.48379889186633723,-0.7606122148739253 l 26.731637077421905 -16.682518599641377" fill="#f0ff19" stroke="none" /><path d="M 81.99639281039703 110.81064883170644 l -36.71171170462982 22.044328065477668 a63.82174886832929,63.82174886832929 0 0,0 -0.5559369396910964,-0.9441024630194466 l 37.08472235445069 -21.41087443416466" fill="#4bff2c" stroke="none" /><line stroke="#e1ed5e" stroke-width="0.3" x1="26.387840678322732" x2="22.057713659400548" y1="142.50000000000003" y2="145.00000000000006" /><path d="M 25.521815274538298 143.00000000000003 a86.0,86.0 0 0,1 -11.493303480769221,-40.785679425670985" fill="none" id="id21" stroke="none" /><text fill="#e1ed5e" style="font-size:6.75px; font-family:Arial;" text-anchor="middle"><textPath startOffset="21.40746469413373" xlink:href="#id21">September</textPath></text><path d="M 81.81346652052679 110.50000000000001 l -29.576629031041314 17.076074732793423 a55.15214946558682,55.15214946558682 0 0,0 -0.4663419805924876,-0.8239815956813912 l 29.86540437665518 -16.56583636701291" fill="#c7ff1e" stroke="none" /><path d="M 81.4637452351635 109.86951160357371 l -31.302369231980524 16.666748503070963 a56.46292183675591,56.46292183675591 0 0,0 -0.44818635582311184,-0.8594564328769443 l 31.583863656778586 -16.126945827089518" fill="#b3ff20" stroke="none" /><path d="M 81.1358732173502 109.22738970284198 l -28.302111325554424 13.843980886213284 a52.50659156846254,52.50659156846254 0 0,0 -0.38910070199428426,-0.813070816058943 l 28.535591285508623 -13.356097568089236" fill="#f0ff19" stroke="none" /><path d="M 80.83023694016515 108.57439118712176 l -35.01035655569996 15.659687173607184 a59.35297730988405,59.35297730988405 0 0,0 -0.4080266154744258,-0.9336447465327654 l 35.27401705319135 -15.05638035729857" fill="#89ff24" stroke="none" /><path d="M 80.68587082218212 108.24405325689762 l -28.9911801313466 12.374610875939908 a52.5217309128023,52.5217309128023 0 0,0 -0.3468288894197533,-0.8322630759835001 l 29.199334865302838 -11.875115290515126" fill="#f0ff19" stroke="none" /><path d="M 80.41425534168474 107.57618678355246 l -29.385478564857618 11.366934380864574 a52.50735704092915,52.50735704092915 0 0,0 -0.31796784236220105,-0.8434474787179382 l 29.576277091034257 -10.860818621952491" fill="#f0ff19" stroke="none" /><path d="M 80.16572619554312 106.89939002012753 l -23.736172784013036 8.25667303157039 a46.13122655149929,46.13122655149929 0 0,0 -0.25375377083076456,-0.7501779343709573 l 23.874411976416166 -7.847993422725271" fill="#ffa40f" stroke="none" /><path d="M 79.94057633289273 106.21446072829308 l -33.42883419231973 10.356338284107347 a55.99629549127267,55.99629549127267 0 0,0 -0.27657818259614103,-0.9206388176837509 l 33.601688694919496 -9.780961862832871" fill="#baff1f" stroke="none" /><path d="M 79.73907114497094 105.5222062557868 l -35.95228339970251 9.798954713291817 a58.2637383407203,58.2637383407203 0 0,0 -0.25472495558660657,-0.9672321463665197 l 36.11519783609385 -9.180342062552494" fill="#99ff23" stroke="none" /><path d="M 79.64726062577567 105.17358676015961 l -22.41172871432159 5.6969737987971465 a44.12446960318286,44.12446960318286 0 0,0 -0.18030618465741624,-0.7357107630386399 l 22.5062224254953 -5.3114072111504065" fill="#ff800b" stroke="none" /><path d="M 79.48165901384964 104.47187691870673 l -30.772539226310457 6.70673169867978 a52.4949110256386,52.4949110256386 0 0,0 -0.18433785281437032,-0.8821233567706692 l 30.883134789949192 -6.177491890623702" fill="#f1ff19" stroke="none" /><path d="M 79.34024301695615 103.76489593502545 l -44.676812682671155 8.141603533716905 a66.41258965950651,66.41258965950651 0 0,0 -0.19476340261876476,-1.1233435499448816 l 44.809990902782154 -7.373466950851432" fill="#30ff36" stroke="none" /><path d="M 79.17382384314188 102.69636545807758 l -31.236269863925443 4.044160505794192 a52.49698063638168,52.49698063638168 0 0,0 -0.10803857051292254,-0.8947143481995654 l 31.301090520698025 -3.507352480671227" fill="#f1ff19" stroke="none" /><path d="M 79.0935383218832 101.97986365728391 l -31.35880344379804 2.969711289752686 a52.49910694878895,52.49910694878895 0 0,0 -0.07726462892337758,-0.8979321070275771 l 31.405161695419157 -2.4309581353494467" fill="#f1ff19" stroke="none" /><path d="M 79.06263194458094 101.62068470465958 l -37.14542059246161 2.8752904779150583 a58.25653722936768,58.25653722936768 0 0,0 -0.06862076034735297,-0.9977307952637808 l 37.18930531397403 -2.2372162584969337" fill="#99ff23" stroke="none" /><path d="M 79.03789590574601 101.26102812881392 l -37.61685674529413 2.262936690901288 a58.68486160068798,58.68486160068798 0 0,0 -0.05186179782237054,-1.0061050227633548 l 37.65016013257307 -1.6168598747612024" fill="#93ff23" stroke="none" /><path d="M 79.00696218219943 100.54070618675478 l -31.483194075020407 0.8108954007947443 a52.493635238194244,52.493635238194244 0 0,0 -0.01546954534791621,-0.9010234625525115 l 31.492475051966988 -0.2703250222731804" fill="#f1ff19" stroke="none" /><line stroke="#e1ed5e" stroke-width="0.3" x1="15.003131293944662" x2="10.003315487706104" y1="100.72959589197737" y2="100.7725132973878" /><path d="M 14.003168132696942 100.73817937305945 a86.0,86.0 0 0,1 10.791469493833604,-42.45332614584628" fill="none" id="id22" stroke="none" /><text fill="#e1ed5e" style="font-size:6.75px; font-family:Arial;" text-anchor="middle"><textPath startOffset="22.145653131862435" xlink:href="#id22">October</textPath></text><path d="M 79.00077361379809 100.18025310272382 l -28.672124773649696 0.2461157071734238 a49.673181057864056,49.673181057864056 0 0,0 0.0,-0.8527376197944722 l 28.672124773649696 0.24611570717341327" fill="#ffe015" stroke="none" /><path d="M 79.00696218219943 99.45929381324524 l -45.3914121612742 -1.1691217628505977 a66.40646587977358,66.40646587977358 0 0,0 0.039133371461674664,-1.139325411853224 l 45.36465410281567 1.94815343926796" fill="#30ff36" stroke="none" /><path d="M 79.03789590574601 98.7389718711861 l -34.01147864427612 -2.0460460972876473 a55.07296559154011,55.07296559154011 0 0,0 0.06487081026797352,-0.943207344110476 l 33.97134387284308 2.629596865552448" fill="#c8ff1d" stroke="none" /><path d="M 79.0935383218832 98.0201363427161 l -62.7193850343504 -5.9395909718517155 a84.0,84.0 0 0,0 0.14827043007334506,-1.4343819108683489 l 62.608182211795395 7.015377405002977" fill="#4dd2ff" stroke="none" /><path d="M 79.17382384314186 97.30363454192245 l -32.05790849589232 -4.150538076480743 a53.325477002750034,53.325477002750034 0 0,0 0.12532879511404155,-0.9068167289757374 l 31.98193518422307 4.700243113656548" fill="#e4ff1b" stroke="none" /><path d="M 79.22317932658666 96.9465228501225 l -31.8288688926674 -4.677747639925102 a53.17076651199712,53.17076651199712 0 0,0 0.1404683232357226,-0.9019074003493748 l 31.74387907729341 5.223443222205927" fill="#e6ff1a" stroke="none" /><path d="M 79.34024301695615 96.23510406497455 l -30.99692909934259 -5.648673043935932 a52.50741374259334,52.50741374259334 0 0,0 0.16920816050647605,-0.8853685963327045 l 30.895394646553953 6.17994420530195" fill="#f0ff19" stroke="none" /><path d="M 79.407916724674 95.88100663000787 l -44.67508426850349 -8.936268052407263 a66.56007068807469,66.56007068807469 0 0,0 0.23372818953479,-1.118473997481039 l 44.51509836814433 9.70185850117371" fill="#30ff39" stroke="none" /><path d="M 79.56144815229197 95.17655741523228 l -35.325145372114875 -8.336638122435097 a57.29552907377832,57.29552907377832 0 0,0 0.2341271937799175,-0.9553188467228443 l 35.17683065181866 8.941812793766058" fill="#a7ff21" stroke="none" /><path d="M 79.73907114497095 94.47779374421319 l -30.383228395098783 -8.281084007299496 a52.49153727661907,52.49153727661907 0 0,0 0.2444143651538619,-0.8673403570064965 l 30.236595537870336 8.801432288209005" fill="#f1ff19" stroke="none" /><path d="M 79.94057633289273 93.78553927170692 l -36.10481778426423 -11.185364841284283 a58.797754614097926,58.797754614097926 0 0,0 0.30696707327503403,-0.9615699849474325 l 35.907485995211935 11.803503859923108" fill="#91ff24" stroke="none" /><path d="M 80.05021161711548 93.44210830539832 l -45.825942075094574 -15.063897378950964 a69.23834544543882,69.23834544543882 0 0,0 0.38085896595984897,-1.125941858656996 l 45.56059768756236 15.848340912082122" fill="#35ff63" stroke="none" /><path d="M 80.28708602549916 92.7611449362534 l -27.040197384308662 -9.92953502527862 a49.80569284708507,49.80569284708507 0 0,0 0.301607423881526,-0.8000495249633038 l 26.8657592766127 10.392252830436068" fill="#ffe215" stroke="none" /><path d="M 80.5471966667186 92.08871423366112 l -29.18289481869052 -11.868429266679154 a52.50398329190962,52.50398329190962 0 0,0 0.34671169245125755,-0.8319818459231703 l 28.974857281702786 12.36764362204359" fill="#f0ff19" stroke="none" /><path d="M 80.83023694016515 91.42560881287825 l -28.34666028024116 -12.679100588389204 a52.05306330740807,52.05306330740807 0 0,0 0.3718461022854739,-0.812550841030742 l 28.124829713100638 13.163840411634617" fill="#f8ff18" stroke="none" /><path d="M 80.9802524753101 91.09779779509293 l -28.54709476643872 -13.361481778009313 a52.519292741241955,52.519292741241955 0 0,0 0.38919482418157375,-0.8132674952302714 l 28.313520684297238 13.849561775304672" fill="#f0ff19" stroke="none" /><path d="M 81.29705330413844 90.45014215332179 l -31.449762398539335 -16.058472769123245 a56.312350567489155,56.312350567489155 0 0,0 0.4469911646026145,-0.857164496119767 l 31.16946316496178 16.5959835083475" fill="#b6ff1f" stroke="none" /><path d="M 81.63589988554816 89.8137432299009 l -27.54303874269543 -15.27765929794148 a52.49644197057184,52.49644197057184 0 0,0 0.4438865023364483,-0.7843049172453381 l 27.276718875337615 15.748220985285922" fill="#f1ff19" stroke="none" /><line stroke="#e1ed5e" stroke-width="0.3" x1="26.387840678322718" x2="22.05771365940052" y1="57.49999999999999" y2="54.99999999999999" /><path d="M 25.521815274538284 56.99999999999999 a86.0,86.0 0 0,1 29.574782752854787,-30.34633250058573" fill="none" id="id23" stroke="none" /><text fill="#e1ed5e" style="font-size:6.75px; font-family:Arial;" text-anchor="middle"><textPath startOffset="21.40746469413373" xlink:href="#id23">November</textPath></text><path d="M 81.99639281039701 89.18935116829357 l -36.493155901620995 -21.91309158538908 a63.56681818611376,63.56681818611376 0 0,0 0.569776741917435,-0.9306874875375895 l 36.111611195248166 22.536316189051213" fill="#4fff2b" stroke="none" /><path d="M 82.18462484594161 88.88188828441811 l -40.94590702837171 -25.553274331894226 a69.2652787359309,69.2652787359309 0 0,0 0.6381717152382892,-1.0033119338590641 l 40.50121762150753 26.25239994043196" fill="#35ff63" stroke="none" /><path d="M 82.576782715395 88.27688183743585 l -33.274762843082485 -22.388745446309148 a61.10568245177996,61.10568245177996 0 0,0 0.5930459629798649,-0.8652717833809467 l 32.885527143287305 22.95665196476013" fill="#70ff27" stroke="none" /><path d="M 82.98947788004972 87.6856937992154 l -25.51822893952627 -18.473229842516304 a52.50301936361832,52.50301936361832 0 0,0 0.5347757051252199,-0.7255259506503207 l 25.197351214817232 18.908562102435486" fill="#f1ff19" stroke="none" /><path d="M 83.42222388311158 87.10902102172516 l -29.417490536162834 -22.875218571021012 a58.26478732150788,58.26478732150788 0 0,0 0.6207518493024402,-0.7842996832306153 l 29.02047225621883 23.37683819816631" fill="#99ff23" stroke="none" /><path d="M 83.64595745247003 86.82634096563983 l -29.008174472985285 -23.366931974507764 a58.248995908029904,58.248995908029904 0 0,0 0.6339520614731555,-0.7733184358339316 l 28.6027755922735 23.86145269204019" fill="#99ff23" stroke="none" /><path d="M 84.10781606972428 86.27271002978789 l -29.69537273479494 -25.650155704999367 a60.239592882051085,60.239592882051085 0 0,0 0.6826836484555657,-0.7767686734335824 l 29.250678022380782 26.15613665624425" fill="#7dff26" stroke="none" /><path d="M 84.58840730492382 85.73525988315684 l -23.123121167465246 -21.402415744451154 a52.507810654242704,52.507810654242704 0 0,0 0.6179523374512632,-0.6562439678963135 l 22.752312996277713 21.79620117229198" fill="#f0ff19" stroke="none" /><path d="M 85.08716467003674 85.21462403516908 l -26.461137835735226 -26.23497562348003 a58.26212234329078,58.26212234329078 0 0,0 0.7102654319170603,-0.7041948236776115 l 26.00688048368819 26.685350457386313" fill="#99ff23" stroke="none" /><path d="M 86.40962598614128 83.9905735841838 l -18.49197528090385 -21.78350038349429 a49.57400984718902,49.57400984718902 0 0,0 0.6534932516291514,-0.5451673128019379 l 18.11530769511279 22.09772988020811" fill="#ffde14" stroke="none" /><path d="M 86.96720088162412 83.53348406188908 l -23.12812958047053 -29.221636188540604 a58.26680023058677,58.26680023058677 0 0,0 0.7896262811214204,-0.6140181722118808 l 22.623093354713866 29.61435541237329" fill="#99ff23" stroke="none" /><path d="M 87.83215693770416 82.88440491214696 l -20.62867131242541 -29.0168096002107 a56.60220947484809,56.60220947484809 0 0,0 0.7967567129131381,-0.5561980648580515 l 20.127519508338505 29.366652480873878" fill="#b1ff20" stroke="none" /><path d="M 88.4268655584334 82.4767994020092 l -23.478048559186682 -35.548757912493976 a63.602029919578136,63.602029919578136 0 0,0 0.916215612775757,-0.5938798907982515 l 22.8643473141539 35.946551644996134" fill="#4eff2b" stroke="none" /><path d="M 89.03521579738668 82.08984904055464 l -27.15900126713704 -44.362187491684466 a73.01552680571174,73.01552680571174 0 0,0 1.0746051237308618,-0.6452695008873377 l 26.393463386848744 44.82187099310773" fill="#3bff9b" stroke="none" /><line stroke="#e1ed5e" stroke-width="0.3" x1="56.869717070023135" x2="54.33264160355391" y1="26.7553504044142" y2="22.446841604673864" /><path d="M 56.362301976729285 25.89364864446614 a86.0,86.0 0 0,1 42.16139366436587,-11.88097634709845" fill="none" id="id24" stroke="none" /><text fill="#e1ed5e" style="font-size:6.75px; font-family:Arial;" text-anchor="middle"><textPath startOffset="22.145653131862474" xlink:href="#id24">December</textPath></text><path d="M 89.34428304082924 81.90426304109057 l -18.908816234799026 -32.1113038287672 a58.26498577733256,58.26498577733256 0 0,0 0.8662270199852338,-0.5001164031677994 l 18.354796746953394 32.431167129211175" fill="#99ff23" stroke="none" /><path d="M 89.97174638481275 81.54914285379989 l -19.850058037930427 -36.52187103116025 a62.56767816135403,62.56767816135403 0 0,0 0.9480826172004637,-0.5048005926934591 l 19.220186604943404 36.85724209157629" fill="#5cff2a" stroke="none" /><path d="M 90.61103034731259 81.2157712731953 l -16.128231394362558 -32.26726666262294 a57.073485356795224,57.073485356795224 0 0,0 0.8801268224614489,-0.43051413258340443 l 15.571944322639057 32.53937454530355" fill="#aaff21" stroke="none" /><path d="M 91.5904679813234 80.7573450057729 l -23.985306966151878 -54.88307623483251 a80.89530037706606,80.89530037706606 0 0,0 1.277240199456538,-0.545177891751049 l 23.03963169152491 55.28672877624296" fill="#48f8ff" stroke="none" /><path d="M 92.25597844496254 80.48000691201159 l -11.61878715547792 -29.28693358532886 a52.507470444257535,52.507470444257535 0 0,0 0.8406889518885994,-0.32519654664612685 l 11.11432594109579 29.482070020113028" fill="#f0ff19" stroke="none" /><path d="M 92.93061703081487 80.22567764915836 l -12.546205657702352 -35.093970157901445 a58.26921005131501,58.26921005131501 0 0,0 0.9447776042842846,-0.3286426938794317 l 11.941922281373062 35.30417128434946" fill="#99ff23" stroke="none" /><path d="M 93.61358852112211 79.99465700312896 l -13.807520958964306 -43.25186274547719 a66.40232665828742,66.40232665828742 0 0,0 1.0888696754238127,-0.3373346088325752 l 13.063010650668877 43.48251394211641" fill="#30ff36" stroke="none" /><path d="M 93.95794788825049 79.88797359093562 l -14.808259987696262 -49.291881373496174 a72.46818564124857,72.46818564124857 0 0,0 1.1944827085994254,-0.3476965078957775 l 13.959917266715212 49.53882157569447" fill="#3aff93" stroke="none" /><path d="M 94.6519064749342 79.69241777938228 l -8.02529187790987 -30.473340432674075 a52.5123751382103,52.5123751382103 0 0,0 0.8736926625454254,-0.22208925827046888 l 7.500993922139067 30.60661492277981" fill="#f0ff19" stroke="none" /><path d="M 95.35216902796891 79.52079915486377 l -6.970419347157643 -30.71295377225904 a52.494003799011494,52.494003799011494 0 0,0 0.8804933828643157,-0.1918994346844469 l 6.442163547674209 30.828084665077203" fill="#f1ff19" stroke="none" /><path d="M 96.41257539226777 79.30868818359171 l -8.805635014790495 -50.78856275886732 a72.5462638328435,72.5462638328435 0 0,0 1.2288732435614114,-0.20221062458691907 l 7.93248426817601 50.93223938194991" fill="#3aff94" stroke="none" /><path d="M 97.12497278360702 79.19773525538626 l -4.312597104899063 -31.203804333204772 a52.5004110870654,52.5004110870654 0 0,0 0.8938124439750633,-0.11572191562111231 l 3.7763068390332055 31.27323784502628" fill="#f1ff19" stroke="none" /><path d="M 98.1996594967304 79.07731436759882 l -2.770547721381508 -32.1979641621996 a53.316943402288864,53.316943402288864 0 0,0 0.9125601220284543,-0.07063792487857228 l 2.2174186045778366 32.240779854073224" fill="#e4ff1b" stroke="none" /><path d="M 98.9189461498227 79.02784411241856 l -3.1288518315865903 -60.69888965329264 a81.77947777767278,81.77947777767278 0 0,0 1.4026124384302585,-0.060234213176077384 l 2.086413632555512 60.74365643489455" fill="#49edff" stroke="none" /><path d="M 99.63950707515114 79.00309439819443 l -0.540872494180151 -31.50311121272415 a52.50775395257851,52.50775395257851 0 0,0 0.9013654190289955,-0.007737138048794833 l 7.717174005269528e-15 31.50775395257851" fill="#f0ff19" stroke="none" /></svg>