<?xml version="1.0" encoding="utf-8" ?>
<svg baseProfile="full" height="200mm" version="1.1" viewBox="0,0,200,200" width="200mm" xmlns="http://www.w3.org/2000/svg" xmlns:ev="http://www.w3.org/2001/xml-events" xmlns:xlink="http://www.w3.org/1999/xlink"><defs /><rect fill="#1a1a1a" height="200" width="200" x="0" y="0" /><text alignment-baseline="middle" fill="#e1ed5e" style="dominant-baseline: central; font-size:9.0px; font-family:Arial;" text-anchor="middle" x="100.0" y="100.0">2023</text><line stroke="#e1ed5e" stroke-width="0.3" x1="100.0" x2="100.0" y1="15.0" y2="10.0" /><path d="M 100.0 14.0 a86.0,86.0 0 0,1 42.46469731375804,11.215312516191453" fill="none" id="id1" stroke="none" /><text fill="#e1ed5e" style="font-size:6.75px; font-family:Arial;" text-anchor="middle"><textPath startOffset="22.20632615414155" xlink:href="#id1">January</textPath></text><line stroke="#e1ed5e" stroke-width="0.3" x1="143.23703022742887" x2="145.7803849466894" y1="26.81831364943548" y2="22.513508569990506" /><path d="M 143.74570117128098 25.957352633546492 a86.0,86.0 0 0,1 28.547481713284135,27.462654790039103" fill="none" id="id2" stroke="none" /><text fill="#e1ed5e" style="font-size:6.75px; font-family:Arial;" text-anchor="middle"><textPath startOffset="19.985693538727396" xlink:href="#id2">February</textPath></text><path d="M 111.90073688211348 82.69761687909136 l 3.891459939194973 -5.657761484401607 a27.86685703016581,27.86685703016581 0 0,0 0.39288136210983415,0.2752385015517509 l -3.988272440888458 5.58993814008592" fill="#ff1101" stroke="none" /><path d="M 113.6212207817346 84.01681056812373 l 4.740009593976325 -5.56194429731479 a28.30772983336276,28.30772983336276 0 0,0 0.3681436458915891,0.31925054196945896 l -4.835047038514678 5.47952876192566" fill="#ff1802" stroke="none" /><path d="M 113.89432698308785 84.25364557470407 l 3.825811243849518 -4.335768107607084 a26.782362558375954,26.782362558375954 0 0,0 0.3430552978296991,0.3079984335879928 l -3.8998775292752077 4.269270665249794" fill="#ff0000" stroke="none" /><path d="M 115.4437574822437 85.77008943001954 l 10.901217864826677 -10.044405028938622 a35.8231785836164,35.8231785836164 0 0,0 0.4139391474600931,0.45708194536310465 l -11.072500652902805 9.855270296305967" fill="#ff890c" stroke="none" /><path d="M 115.9244219780498 86.31012108654704 l 8.497910724618404 -7.305468857690139 a32.20644287516181,32.20644287516181 0 0,0 0.35778196667184303,0.4235009982979695 l -8.622403304777364 7.158108909763063" fill="#ff5407" stroke="none" /><path d="M 117.04232023915458 87.72973835380427 l 11.914874016502944 -8.578563224510955 a35.681824471981294,35.681824471981294 0 0,0 0.3545879271274036,0.5015394763781612 l -12.060774563434231 8.372197247801001" fill="#ff870c" stroke="none" /><path d="M 117.2510076193507 88.02491185347247 l 10.737713429800365 -7.453771260861084 a34.071235431655026,34.071235431655026 0 0,0 0.33028904563455025,0.48465841894111217 l -10.864426941103648 7.267834818649566" fill="#ff6f0a" stroke="none" /><line stroke="#e1ed5e" stroke-width="0.3" x1="172.23445277983987" x2="176.4835382374775" y1="55.19839476539836" y2="52.563006222186495" /><path d="M 173.08426987136738 54.67131705675599 a86.0,86.0 0 0,1 12.851231095245387,41.99856678651699" fill="none" id="id3" stroke="none" /><text fill="#e1ed5e" style="font-size:6.75px; font-family:Arial;" text-anchor="middle"><textPath startOffset="22.20632615414155" xlink:href="#id3">March</textPath></text><path d="M 117.84615892207809 88.93136811851018 l 12.575499663940683 -7.799637844407922 a35.79788979218633,35.79788979218633 0 0,0 0.3202789498401268,0.5264543818575426 l -12.707894412067033 7.582015689343298" fill="#ff890c" stroke="none" /><path d="M 118.56541770881063 90.18545643968196 l 14.001942852394404 -7.402078434717458 a36.83809233447728,36.83809233447728 0 0,0 0.29153064030317866,0.5631444047266333 l -14.127282925857699 7.159961307730479" fill="#ff980e" stroke="none" /><path d="M 119.61058180528143 92.48833698450437 l 6.850712426819245 -2.624105887183594 a28.33608836248087,28.33608836248087 0 0,0 0.1705500737538132,0.45698940549831607 l -6.894867089074684 2.505793344655945" fill="#ff1802" stroke="none" /><path d="M 119.85752413597 93.16781622104841 l 7.369900526888356 -2.5356894690151535 a28.79391781195463,28.79391781195463 0 0,0 0.15721850186818814,0.4700633094372533 l -7.412456322528314 2.408453056655586" fill="#ff2003" stroke="none" /><path d="M 119.97218684219823 93.5106431181261 l 7.072404779617773 -2.2979636126295615 a28.436366460290255,28.436366460290255 0 0,0 0.1472523292435367,0.46683012402963914 l -7.110912592629515 2.175883322173503" fill="#ff1a02" stroke="none" /><path d="M 120.67395015179393 96.31383870115 l 18.980366555725848 -3.384195672428489 a40.27970681672831,40.27970681672831 0 0,0 0.11582935777016218,0.6836314262834948 l -19.03580777501623 3.0569784578291563" fill="#ffc812" stroke="none" /><path d="M 120.78858239683441 97.02765380044208 l 16.003363283580562 -2.288156793381865 a37.16611573314239,37.16611573314239 0 0,0 0.08509978780614227,0.6340922649469913 l -16.04037907044454 2.012346186370209" fill="#ff9c0e" stroke="none" /><path d="M 120.91429891909075 98.10471618934814 l 17.498160246200285 -1.585708416959799 a38.56986292448866,38.56986292448866 0 0,0 0.05422833865985045,0.6617230869951111 l -17.52286306867963 1.2842714127569193" fill="#ffb010" stroke="none" /><line stroke="#e1ed5e" stroke-width="0.3" x1="184.98032266829074" x2="189.97916517819016" y1="98.17113171792111" y2="98.06355123074" /><path d="M 185.9800911702706 98.14961562048488 a86.0,86.0 0 0,1 -9.607161424134198,41.387399972396054" fill="none" id="id4" stroke="none" /><text fill="#e1ed5e" style="font-size:6.75px; font-family:Arial;" text-anchor="middle"><textPath startOffset="21.466115282336823" xlink:href="#id4">April</textPath></text><path d="M 120.99980553446 99.90962569577887 l 9.310282013381622 -0.040067526229285284 a30.310368229847597,30.310368229847597 0 0,0 -0.0022454248576826504,0.5217576584402889 l -9.309592291234436 -0.12019961041468825" fill="#ff3705" stroke="none" /><path d="M 120.9904718944345 100.63252640178507 l 29.52743159742661 0.8897789509547476 a50.54083484470724,50.54083484470724 0 0,0 -0.03368875674978535,0.8693571190864569 l -29.50774070782562 -1.3979133170552107" fill="#b1ff20" stroke="none" /><path d="M 120.95626037817324 101.35467743843564 l 36.55321334622497 2.3629126823615088 a57.629506716295055,57.629506716295055 0 0,0 -0.07251285190100858,0.9893802524601985 l -36.50712393565963 -2.9917660713184775" fill="#5eff2a" stroke="none" /><path d="M 120.89721153311464 102.0752229133903 l 44.718183999962164 4.440793449158021 a65.93814222587041,65.93814222587041 0 0,0 -0.12188413926212367,1.1284957544791225 l -44.63511755919899 -5.209885525521935" fill="#35ff62" stroke="none" /><path d="M 120.76222939487914 103.15116336523771 l 29.26376960763109 4.441474803234174 a50.59890048762415,50.59890048762415 0 0,0 -0.13810667653325542,0.859990406605699 l -29.182981176736547 -4.944544439533077" fill="#b0ff20" stroke="none" /><path d="M 120.64145759157962 103.86396538481128 l 29.29807470324707 5.484435679636438 a50.80698267254026,50.80698267254026 0 0,0 -0.16831643761109036,0.8582418891514492 l -29.19932833266032 -5.9879412958558325" fill="#aeff20" stroke="none" /><path d="M 120.5718875245553 104.21870165774334 l 32.207397554211695 6.604809660337123 a53.87765149557255,53.87765149557255 0 0,0 -0.19412877579437826,0.9069050117141271 l -32.088934739692874 -7.15822849146742" fill="#89ff24" stroke="none" /><path d="M 120.49622156327973 104.57218783832717 l 24.721393193937796 5.514716600757685 a46.329022496652854,46.329022496652854 0 0,0 -0.18032895618414718,0.7768524235940434 l -24.622803671823096 -5.939437681700294" fill="#e6ff1a" stroke="none" /><path d="M 120.23288151984713 105.62410040840565 l 26.621187831885205 7.3998472837733775 a48.63051540242565,48.63051540242565 0 0,0 -0.23112778615171584,0.8045861447110513 l -26.489867408847388 -7.8569909039890105" fill="#c8ff1d" stroke="none" /><path d="M 120.02730092923936 106.31721596034902 l 28.59948115480546 9.021140664295192 a50.9885194901161,50.9885194901161 0 0,0 -0.2712291779169089,0.8347575756764544 l -28.439959725872306 -9.512097139949441" fill="#abff21" stroke="none" /><path d="M 119.79798401119884 107.00284435728193 l 43.99628211503112 15.562145912248003 a67.66747502639825,67.66747502639825 0 0,0 -0.3978710230854709,1.0947701767262576 l -43.72188683094042 -16.317163885980392" fill="#37ff78" stroke="none" /><path d="M 119.41010516605496 108.01547362559984 l 27.989990162441167 11.558568385306952 a51.28266917580699,51.28266917580699 0 0,0 -0.3439577921548494,0.813014617164798 l -27.78688138909401 -12.038657528137913" fill="#a8ff21" stroke="none" /><path d="M 119.12269723197855 108.67885076344098 l 27.53309757857173 12.495917392870767 a51.23606147897908,51.23606147897908 0 0,0 -0.37140138525026417,0.7999655424107314 l -27.313921576481633 -12.96800300256033" fill="#a8ff21" stroke="none" /><path d="M 118.64920377521936 109.65438752849418 l 55.44436861796008 28.702642073209475 a83.43332181957814,83.43332181957814 0 0,0 -0.6712309738991917,1.2697160426201703 l -54.942085135835995 -29.65277313091578" fill="#4cd8ff" stroke="none" /><line stroke="#e1ed5e" stroke-width="0.3" x1="174.80103733775053" x2="179.2010983576182" y1="140.37084112569926" y2="142.7455964860345" /><path d="M 175.68104954172406 140.8457921977663 a86.0,86.0 0 0,1 -30.038265399797805,32.042727171017184" fill="none" id="id5" stroke="none" /><text fill="#e1ed5e" style="font-size:6.75px; font-family:Arial;" text-anchor="middle"><textPath startOffset="22.206326154141568" xlink:href="#id5">May</textPath></text><path d="M 118.12598468904814 110.60418214915192 l 26.46416927415972 15.482241446377188 a51.66026835458716,51.66026835458716 0 0,0 -0.45564141265862945,0.7636812160609522 l -26.19374698580286 -15.935484756324245" fill="#a3ff21" stroke="none" /><path d="M 117.75023020441432 111.22182372390056 l 12.382492241448292 7.828301018966067 a35.64951913726428,35.64951913726428 0 0,0 -0.33238107000110084,0.5158628018572102 l -12.245906308070142 -8.04028542074473" fill="#ff860c" stroke="none" /><path d="M 117.35343817320211 111.8261652097733 l 27.957936413043445 19.05300676701455 a54.8328727030337,54.8328727030337 0 0,0 -0.5382475541284492,0.775385746121558 l -27.62582795175286 -19.53143377532313" fill="#7eff26" stroke="none" /><path d="M 115.32070863581623 114.36230785411682 l 13.35021930458003 12.515084264712701 a39.29906253427319,39.29906253427319 0 0,0 -0.46689803044045475,0.4895407182830899 l -13.13281472276061 -12.743032099578299" fill="#ffba11" stroke="none" /><path d="M 114.81725581225074 114.88116024355365 l 20.674110154020077 20.7632742522058 a50.30072334146153,50.30072334146153 0 0,0 -0.6188187747999326,0.605644415228987 l -20.313641426844352 -21.11606877035736" fill="#b4ff20" stroke="none" /><path d="M 114.29624159901734 115.38237550388516 l 26.158924591759348 28.146306710143758 a59.42530308558197,59.42530308558197 0 0,0 -0.7552685793623803,0.6899199400023588 l -25.670556462930104 -28.5924194167327" fill="#4aff2c" stroke="none" /><path d="M 113.48314897796784 116.09983520530334 l 19.00571338583166 22.6941684002097 a50.601392208500215,50.601392208500215 0 0,0 -0.6725885763151587,0.5534946087102306 l -18.61225468097181 -23.01795812777711" fill="#b0ff20" stroke="none" /><path d="M 112.92097659922987 116.55440617244103 l 9.103384703013852 11.663292380442817 a35.79540476643887,35.79540476643887 0 0,0 -0.4889844418780178,0.3749324186657876 l -8.90127153264234 -11.818264140935975" fill="#ff890c" stroke="none" /><path d="M 112.34349029814194 116.9893568818739 l 37.03047089442582 50.96807064562168 a84.0,84.0 0 0,0 -1.1770906886044616,0.8398229526231229 l -36.14765287797247 -51.597937860089026" fill="#4dd2ff" stroke="none" /><path d="M 111.45004920935366 117.60387380957326 l 10.116551603378056 15.553688421567594 a39.55429437782577,39.55429437782577 0 0,0 -0.5739482525769666,0.3663209302163167 l -9.84732154875416 -15.72552378060772" fill="#ffbe11" stroke="none" /><line stroke="#e1ed5e" stroke-width="0.3" x1="143.8653032363475" x2="146.44561519142675" y1="172.8068346515853" y2="177.08958963109032" /><path d="M 144.38136562736335 173.6633856474863 a86.0,86.0 0 0,1 -40.68145358897372,12.25698825130547" fill="none" id="id6" stroke="none" /><text fill="#e1ed5e" style="font-size:6.75px; font-family:Arial;" text-anchor="middle"><textPath startOffset="21.466115282336833" xlink:href="#id6">June</textPath></text><path d="M 110.8373102113329 117.98757091392108 l 11.649782700568336 19.33609801434951 a43.574368726300904,43.574368726300904 0 0,0 -0.6457973117752818,0.38154843489480006 l -11.315217517764673 -19.53376502153806" fill="#fff417" stroke="none" /><path d="M 108.92500713936063 119.00905698771935 l 12.19860828718829 25.98138427020233 a49.70258477454907,49.70258477454907 0 0,0 -0.7775661805486832,0.3569424962770845 l -11.749574110872187 -26.187513836813487" fill="#bbff1f" stroke="none" /><path d="M 107.93186726928326 119.44442032107085 l 9.615129186504362 23.57081970695671 a46.45651686564811,46.45651686564811 0 0,0 -0.7430364236036562,0.29566952747602626 l -9.20797168685884 -23.732836078838805" fill="#e4ff1a" stroke="none" /><path d="M 106.91757812671514 119.82793768551818 l 9.603288300685458 27.526021175922192 a50.15312998570478,50.15312998570478 0 0,0 -0.8175683039066803,0.27736355782142547 l -9.12805026384155 -27.687247720641743" fill="#b6ff1f" stroke="none" /><path d="M 106.2309692047433 120.05430185196036 l 9.629850696578124 30.99356236770942 a53.455121825059905,53.455121825059905 0 0,0 -0.8810550194285063,0.2654546499492783 l -9.094920702709373 -31.154732386764426" fill="#8eff24" stroke="none" /><path d="M 105.53697534728816 120.25689768951611 l 10.099271139845456 36.947952516842825 a59.303348061794644,59.303348061794644 0 0,0 -0.9870041390892137,0.26067676387448485 l -9.461776557944745 -37.116320630020894" fill="#4cff2c" stroke="none" /><path d="M 104.48393922423573 120.51570834832081 l 6.3084725124224255 28.86363434382115 a50.54498625780356,50.54498625780356 0 0,0 -0.8515832247593166,0.17845754453691895 l -5.8106978262337305 -28.96794786908461" fill="#b1ff20" stroke="none" /><path d="M 103.7750983002368 120.6578951692458 l 5.273798583777606 28.859004355081474 a50.33692355835673,50.33692355835673 0 0,0 -0.8536927189638833,0.1484254218863286 l -4.776256893341673 -28.94550835548881" fill="#b3ff20" stroke="none" /><path d="M 103.06178313531738 120.77559828337769 l 4.188865739883819 28.42336900709624 a49.73037594429164,49.73037594429164 0 0,0 -0.8479536083419554,0.11751864354531891 l -3.6989835403550333 -28.491262216134164" fill="#bbff1f" stroke="none" /><path d="M 101.98527174616119 120.90594882070398 l 3.34453655032038 35.21971744431133 a56.378163061322965,56.378163061322965 0 0,0 -0.966900751515685,0.08342826534695474 l -2.7377914810631534 -35.27206996193695" fill="#6cff28" stroke="none" /><path d="M 101.26447882468166 120.96189622390904 l 1.9733886894329071 32.71384867021595 a53.773314720018355,53.773314720018355 0 0,0 -0.9244194388039856,0.04778192589107028 l -1.409981182215442 -32.742970402869226" fill="#8aff24" stroke="none" /><line stroke="#e1ed5e" stroke-width="0.3" x1="102.19456741930631" x2="102.32365962044197" y1="184.97166512339345" y2="189.96999836594603" /><path d="M 102.22038585953345 185.97133177190398 a86.0,86.0 0 0,1 -42.740103519485714,-10.115201625700543" fill="none" id="id7" stroke="none" /><text fill="#e1ed5e" style="font-size:6.75px; font-family:Arial;" text-anchor="middle"><textPath startOffset="22.20632615414155" xlink:href="#id7">July</textPath></text><path d="M 100.54218724476979 120.99299961872073 l 0.8269146910353598 32.01738875467359 a53.02806535796611,53.02806535796611 0 0,0 -0.9126895422559592,0.01571277816819765 l -0.2756654588867326 -32.02687901012095" fill="#93ff23" stroke="none" /><path d="M 99.45781275523022 120.99299961872073 l -0.7843344006232514 30.368718430889967 a51.37884526420774,51.37884526420774 0 0,0 -0.883911007067424,-0.03044368229795589 l 1.3069657593653186 -30.35071795016592" fill="#a7ff21" stroke="none" /><path d="M 98.73552117531835 120.96189622390904 l -1.9432518922323918 32.214255950190164 a53.272813858432414,53.272813858432414 0 0,0 -0.9148647864496676,-0.06309443204452383 l 2.4974794394609896 -32.17603317362936" fill="#90ff24" stroke="none" /><path d="M 98.01472825383883 120.90594882070398 l -2.766020149128382 29.127637456448873 a50.25867617066274,50.25867617066274 0 0,0 -0.8605419851774068,-0.08919869530752424 l 3.266994730911382 -29.07570939268559" fill="#b4ff20" stroke="none" /><path d="M 97.65516085044442 120.86867818915974 l -2.2672946401088825 20.178544960496204 a41.305523921037675,41.305523921037675 0 0,0 -0.7058771338931081,-0.08547189060529325 l 2.61429919705338 -20.136527541165563" fill="#ffd614" stroke="none" /><path d="M 96.93821686468263 120.77559828337769 l -4.611692273329181 31.292440333894795 a52.6304367291103,52.6304367291103 0 0,0 -0.8951287848694887,-0.1398007069433727 l 5.149656921807187 -31.20842131960432" fill="#98ff23" stroke="none" /><path d="M 96.22490169976321 120.6578951692458 l -5.840940693763144 31.962489700989323 a53.49180413694978,53.49180413694978 0 0,0 -0.9043487058859501,-0.1733205818510984 l 6.390257014220788 -31.85721192078976" fill="#8dff24" stroke="none" /><path d="M 95.51606077576429 120.51570834832081 l -6.196869246493325 28.353007428508455 a50.02230553727926,50.02230553727926 0 0,0 -0.8396121325145129,-0.19109298781788142 l 6.6840015284007 -28.242137707112885" fill="#b7ff1f" stroke="none" /><path d="M 94.46302465271185 120.25689768951611 l -7.709050131126504 28.203383615580602 a50.237994139335584,50.237994139335584 0 0,0 -0.8322015399056153,-0.2351884678138273 l 8.193382839136733 -28.066506354428256" fill="#b4ff20" stroke="none" /><path d="M 93.76903079525671 120.05430185196036 l -8.726665907671736 28.086672638413514 a50.411152268510776,50.411152268510776 0 0,0 -0.8264516045437467,-0.2646037052934294 l 9.208838857306423 -27.93229608646038" fill="#b2ff20" stroke="none" /><path d="M 93.08242187328487 119.8279376855182 l -10.176486515251462 29.168986137311414 a51.89321333357474,51.89321333357474 0 0,0 -0.8408688301659115,-0.30150564581750017 l 10.6770749060471 -28.989492950453954" fill="#a0ff22" stroke="none" /><path d="M 92.7421414339146 119.70592522655815 l -9.918207560976171 26.929080361440093 a49.69749484424561,49.69749484424561 0 0,0 -0.8002001409738926,-0.3025672229120655 l 10.380277922710347 -26.754364888421396" fill="#bbff1f" stroke="none" /><path d="M 92.06813273071674 119.44442032107085 l -6.251114150978219 15.324171081042042 a37.55012530011798,37.55012530011798 0 0,0 -0.5963827850969413,-0.24928805253859834 l 6.513968395572622 -15.214297985483471" fill="#ffa20e" stroke="none" /><path d="M 91.40352486487194 119.15986991738527 l -14.893296414983949 33.19425898018401 a57.38226363694404,57.38226363694404 0 0,0 -0.8977100038117882,-0.41209463285476394 l 15.462474414563157 -32.932977276995175" fill="#61ff29" stroke="none" /><path d="M 90.7491055286396 118.85261126421891 l -13.525587561792879 27.564106931720048 a51.70377028697003,51.70377028697003 0 0,0 -0.795612920300122,-0.3989368348917727 l 13.998054389775762 -27.327202255918973" fill="#a3ff22" stroke="none" /><path d="M 90.42595943632237 118.69057910512821 l -13.296190196302206 25.95701292551828 a50.16427941423834,50.16427941423834 0 0,0 -0.7651464316468275,-0.4002884499839762 l 13.74102753047553 -25.72429505658959" fill="#b5ff1f" stroke="none" /><line stroke="#e1ed5e" stroke-width="0.3" x1="58.666819895761336" x2="56.23545636021788" y1="174.27360380694188" y2="178.64263932499728" /><path d="M 58.180547188652646 175.14741091055294 a86.0,86.0 0 0,1 -31.652253787137756,-30.449443065178592" fill="none" id="id8" stroke="none" /><text fill="#e1ed5e" style="font-size:6.75px; font-family:Arial;" text-anchor="middle"><textPath startOffset="22.20632615414155" xlink:href="#id8">August</textPath></text><path d="M 89.7882731507175 118.34994917583269 l -15.709339200904173 28.228876484564623 a53.3056156992847,53.3056156992847 0 0,0 -0.7979374297663999,-0.45308969750905825 l 16.19292539759178 -27.95428362126093" fill="#90ff24" stroke="none" /><path d="M 89.1626897886671 117.98757091392108 l -16.792912218104043 27.87257109780995 a53.54046896354474,53.54046896354474 0 0,0 -0.7853132421976402,-0.4824035342533303 l 17.27020466023399 -27.57937909672824" fill="#8dff24" stroke="none" /><path d="M 88.54995079064634 117.60387380957326 l -17.178592455024248 26.41122044761976 a52.506453374960884,52.506453374960884 0 0,0 -0.7534058514907732,-0.49931631640267193 l 17.630673005254984 -26.11160611012577" fill="#99ff23" stroke="none" /><path d="M 87.65650970185807 116.9893568818739 l -19.040148409446736 26.20651603385047 a53.393035271277355,53.393035271277355 0 0,0 -0.7388961202288051,-0.5466176852338744 l 19.488429500094107 -25.87488839987683" fill="#8fff24" stroke="none" /><path d="M 87.07902340077011 116.55440617244103 l -18.13566027059329 23.23547945615018 a50.475238404592304,50.475238404592304 0 0,0 -0.680316096844043,-0.5404842523665992 l 18.532933860154692 -22.91986128977845" fill="#b2ff20" stroke="none" /><path d="M 86.51685102203217 116.09983520530335 l -28.27194443314347 33.75870481375534 a65.03354394927825,65.03354394927825 0 0,0 -0.8520463390947485,-0.7261323749271191 l 28.848856248815274 -33.26704804860527" fill="#33ff57" stroke="none" /><path d="M 85.70375840098266 115.38237550388516 l -20.73996763766121 22.3156532387407 a51.465302182695524,51.465302182695524 0 0,0 -0.6437186026496279,-0.6086761176945531 l 21.121022074701656 -21.955342484300218" fill="#a6ff21" stroke="none" /><path d="M 85.18274418774928 114.88116024355367 l -20.636054680919614 20.725054651995915 a50.24678859502564,50.24678859502564 0 0,0 -0.6076496678361654,-0.6155459053816319 l 20.989744973811312 -20.366768252633616" fill="#b4ff20" stroke="none" /><path d="M 84.67929136418377 114.36230785411682 l -26.637861787229657 24.971506257172834 a57.51235140808617,57.51235140808617 0 0,0 -0.6708503362867906,-0.7280755454887551 l 27.06375853151218 -24.509279456882734" fill="#5fff29" stroke="none" /><path d="M 83.95833913139862 113.55231037782056 l -22.354086505684478 18.88517161777522 a50.263542002574596,50.263542002574596 0 0,0 -0.5526691860911297,-0.6657256374097982 l 22.67585169166914 -18.497584723251663" fill="#b4ff20" stroke="none" /><path d="M 83.50135304334701 112.99209946851258 l -23.018835007322078 18.126516365259423 a50.29910170353921,50.29910170353921 0 0,0 -0.5298008760418054,-0.6848390501608305 l 23.32744270058195 -17.72759932098534" fill="#b4ff20" stroke="none" /><path d="M 83.06392112726016 112.41649034213515 l -35.48700952707456 26.016890590501667 a65.00234585988359,65.00234585988359 0 0,0 -0.6538004280284373,-0.908071611530104 l 35.9295897474786 -25.402185373520425" fill="#33ff57" stroke="none" /><path d="M 82.44556493220864 111.52570212397912 l -24.420683738924108 16.033869808500356 a50.213948300640425,50.213948300640425 0 0,0 -0.46817366037627894,-0.7266159176774154 l 24.693062262677433 -15.611132290901491" fill="#b5ff20" stroke="none" /><path d="M 82.05923443525364 110.91462005526583 l -27.83790103200292 16.93573843345073 a53.584781266012044,53.584781266012044 0 0,0 -0.4726155362853591,-0.7921308236091199 l 28.12529744398651 -16.4540455159555" fill="#8cff24" stroke="none" /><line stroke="#e1ed5e" stroke-width="0.3" x1="26.63291911575756" x2="22.317208475507996" y1="142.92168965132927" y2="145.44649492493687" /><path d="M 25.769776987707644 143.4266507060508 a86.0,86.0 0 0,1 -11.730757126820373,-40.83630448921669" fill="none" id="id9" stroke="none" /><text fill="#e1ed5e" style="font-size:6.75px; font-family:Arial;" text-anchor="middle"><textPath startOffset="21.46611528233685" xlink:href="#id9">September</textPath></text><path d="M 81.51974371655577 109.97397251340807 l -54.32066365153597 29.317385963736672 a82.72717083497352,82.72717083497352 0 0,0 -0.665549905439054,-1.2589696020601178 l 54.81726606519991 -28.37800134659043" fill="#4bdfff" stroke="none" /><path d="M 81.18737489456691 109.33194174019688 l -21.323040150837276 10.577224990999548 a44.80230513594101,44.80230513594101 0 0,0 -0.3367570458029495,-0.6938192584962505 l 21.501950453254942 -10.208616776538014" fill="#f9ff18" stroke="none" /><path d="M 80.87730276802145 108.67885076344099 l -29.060585679876883 13.189169035844563 a52.9135052902928,52.9135052902928 0 0,0 -0.3692831399243331,-0.8326359926276092 l 29.283309904532498 -12.686984706724257" fill="#94ff23" stroke="none" /><path d="M 80.58989483394504 108.01547362559985 l -40.88916033125131 16.885327689065882 a65.23841909202804,65.23841909202804 0 0,0 -0.41969237472923376,-1.0416420553568093 l 41.17375532023793 -16.178986265866268" fill="#34ff5a" stroke="none" /><path d="M 80.20201598880116 107.00284435728193 l -27.5890704001694 9.758668653595965 a50.26411487532435,50.26411487532435 0 0,0 -0.281500989707667,-0.8181736437829137 l 27.752962220820297 -9.282322306723755" fill="#b4ff20" stroke="none" /><path d="M 79.97269907076064 106.31721596034903 l -27.859912661794105 8.78785841101855 a50.21303115006906,50.21303115006906 0 0,0 -0.25291401747585796,-0.8265376426182238 l 28.007053451776095 -8.30699379584828" fill="#b5ff20" stroke="none" /><path d="M 79.35854240842038 103.8639653848113 l -23.31440635434931 4.364326439688034 a44.71937792033938,44.71937792033938 0 0,0 -0.13512398216304125,-0.7578470514630439 l 23.38607677885154 -3.9623606374917766" fill="#faff18" stroke="none" /><path d="M 79.23777060512086 103.15116336523772 l -41.67944980481655 6.325850312616055 a63.15676598376407,63.15676598376407 0 0,0 -0.1538798031562794,-1.0762349848744848 l 41.78216365898943 -5.6074698557611695" fill="#31ff3f" stroke="none" /><path d="M 79.10278846688536 102.07522291339032 l -31.420689132108212 3.120269608131131 a52.57524010936433,52.57524010936433 0 0,0 -0.08168040163798633,-0.9013364257570988 l 31.469744130023273 -2.5789517938254662" fill="#98ff23" stroke="none" /><path d="M 79.0095281055655 100.63252640178507 l -32.268484941619995 0.9723777899719612 a53.28313242227258,53.28313242227258 0 0,0 -0.019734898282232523,-0.9170031763815473 l 32.280441902587235 -0.4167847978002851" fill="#90ff24" stroke="none" /><line stroke="#e1ed5e" stroke-width="0.3" x1="15.007084014347285" x2="10.007500721073583" y1="101.09737516637583" y2="101.16192664675087" /><path d="M 14.007167355692545 101.11028546245083 a86.0,86.0 0 0,1 10.666146001902534,-42.60595125391555" fill="none" id="id10" stroke="none" /><text fill="#e1ed5e" style="font-size:6.75px; font-family:Arial;" text-anchor="middle"><textPath startOffset="22.20632615414155" xlink:href="#id10">October</textPath></text><path d="M 79.00486145842228 99.54816195383935 l -31.99336966209997 -0.6885318527234784 a53.00077777879771,53.00077777879771 0 0,0 0.027480412502095576,-0.9119411057701718 l 31.976777555142228 1.2391431059186446" fill="#93ff23" stroke="none" /><path d="M 79.03285615573316 98.82574320788736 l -29.09715071390973 -1.6295746865053526 a50.1427468390829,50.1427468390829 0 0,0 0.055680915319178216,-0.8613591150311953 l 29.06478920758614 2.1301928657895597" fill="#b6ff1f" stroke="none" /><path d="M 79.12142395522702 97.74499172005258 l -30.95176729280422 -3.342971827896909 a52.13177410926042,52.13177410926042 0 0,0 0.10403925001027367,-0.8913447583887527 l 30.88963768979036 3.8752603246105237" fill="#9eff22" stroke="none" /><path d="M 79.21141760316559 97.0276538004421 l -28.681863429861888 -4.100925504904588 a49.97355483550518,49.97355483550518 0 0,0 0.12908432541495318,-0.850504421672953 l 28.607023211007633 4.594029038969633" fill="#b8ff1f" stroke="none" /><path d="M 79.32604984820605 96.31383870115002 l -22.719355407836762 -4.05085665894957 a44.07766343932933,44.07766343932933 0 0,0 0.13960923216246426,-0.7457981006771508 l 22.646260451764437 4.441332837089293" fill="#fffb17" stroke="none" /><path d="M 79.46518482838121 95.60439243477599 l -44.352419527244095 -9.493916998064435 a66.35715575173117,66.35715575173117 0 0,0 0.24869907715434617,-1.1148691978944878 l 44.18242606308771 10.255964365508882" fill="#35ff68" stroke="none" /><path d="M 79.71946130924805 94.55025226153421 l -31.328018358843433 -8.41840543809497 a53.43939402042181,53.43939402042181 0 0,0 0.24636382448065453,-0.8863017566406793 l 31.17846776379642 8.95641849815459" fill="#8eff24" stroke="none" /><path d="M 79.91906864156998 93.8553929516997 l -28.004891569978057 -8.56927654680388 a50.28662582787288,50.28662582787288 0 0,0 0.2603997523133992,-0.825538375482683 l 27.853236333896454 9.050065088712978" fill="#b4ff20" stroke="none" /><path d="M 80.14247586403 93.16781622104843 l -20.268644360913957 -6.973633886871774 a42.43477347249873,42.43477347249873 0 0,0 0.2435895813639687,-0.6886605486417452 l 20.145601698740176 7.3214920619401305" fill="#ffe515" stroke="none" /><path d="M 80.52162464483688 92.15188598940014 l -30.08640175479236 -12.122238473946098 a53.436711241585385,53.436711241585385 0 0,0 0.35110034645062854,-0.8502173379598613 l 29.873279721455532 12.63833038235927" fill="#8eff24" stroke="none" /><path d="M 80.803312248108 91.48605970444005 l -26.782983312069764 -11.87854508043795 a50.29894244375732,50.29894244375732 0 0,0 0.3578354981090988,-0.7884430871906823 l 26.574545496997313 12.337810176470704" fill="#b4ff20" stroke="none" /><path d="M 81.10775173730289 90.83032412892265 l -38.98238914630426 -18.920769417243616 a64.33153792440791,64.33153792440791 0 0,0 0.49210559137447246,-0.9920548435207105 l 38.65092354197637 19.588983849263286" fill="#33ff4e" stroke="none" /><line stroke="#e1ed5e" stroke-width="0.3" x1="26.266209847984243" x2="21.928928074336255" y1="57.711370442889674" y2="55.22380399835377" /><path d="M 25.398753493254645 57.213857153982495 a86.0,86.0 0 0,1 29.58750427330803,-30.492523968695096" fill="none" id="id11" stroke="none" /><text fill="#e1ed5e" style="font-size:6.75px; font-family:Arial;" text-anchor="middle"><textPath startOffset="21.46611528233685" xlink:href="#id11">November</textPath></text><path d="M 81.78341655067845 89.55222093294921 l -20.716229783339706 -11.881404242498155 a44.88158167311755,44.88158167311755 0 0,0 0.39012850137607497,-0.6668560708634732 l 20.508641607493306 12.236239725715519" fill="#f8ff18" stroke="none" /><path d="M 82.54541684631803 88.32363383020206 l -51.56828986953644 -34.496970220682265 a83.0429647460143,83.0429647460143 0 0,0 0.805024567648658,-1.1812742182102176 l 50.96684083621905 35.379522462162896" fill="#4cdbff" stroke="none" /><path d="M 85.83668400450813 84.49514656593479 l -19.362528618916304 -21.196531126238177 a49.708891415447184,49.708891415447184 0 0,0 0.636721219501916,-0.5716545976100373 l 18.99479641181842 21.526684732617493" fill="#bbff1f" stroke="none" /><path d="M 86.37877921826538 84.01681056812374 l -18.82294039109266 -22.08690592102984 a50.019553720397745,50.019553720397745 0 0,0 0.6601210627751012,-0.552832406008683 l 18.439961791358453 22.407639484432334" fill="#b7ff1f" stroke="none" /><path d="M 86.93701828274178 83.55741782278169 l -19.979422909074287 -25.148416352893996 a53.11884469961752,53.11884469961752 0 0,0 0.7208162593777757,-0.5626085238424028 l 19.543574094537085 25.48860326595962" fill="#92ff23" stroke="none" /><path d="M 87.80319425747018 82.90503203632743 l -25.962303928971718 -36.38860561509977 a65.70091547062063,65.70091547062063 0 0,0 0.9262854843665197,-0.6489221768043664 l 25.332087305021535 36.830112634668076" fill="#34ff5f" stroke="none" /><path d="M 88.39885842347998 82.49532879139004 l -16.358366935455198 -24.682729094047918 a50.611370861970464,50.611370861970464 0 0,0 0.730329249592256,-0.4750264593645305 l 15.931070660078657 24.960654477571985" fill="#b0ff20" stroke="none" /><path d="M 89.00827224532344 82.1063720568725 l -16.979142269099288 -27.640645887306405 a53.43912109262183,53.43912109262183 0 0,0 0.787941858964965,-0.4747261536847628 l 16.500838343916673 27.928818650449788" fill="#8eff24" stroke="none" /><line stroke="#e1ed5e" stroke-width="0.3" x1="56.762969772571076" x2="54.21961505331055" y1="26.818313649435495" y2="22.513508569990535" /><path d="M 56.25429882871897 25.957352633546506 a86.0,86.0 0 0,1 42.265352541879196,-11.944610805530505" fill="none" id="id12" stroke="none" /><text fill="#e1ed5e" style="font-size:6.75px; font-family:Arial;" text-anchor="middle"><textPath startOffset="22.20632615414155" xlink:href="#id12">December</textPath></text><path d="M 89.63071344664047 81.73862282372117 l -22.234174200344086 -39.15666127907549 a66.02890876865102,66.02890876865102 0 0,0 0.9931877002322114,-0.552707879877722 l 21.55686241103983 39.533584556513404" fill="#35ff64" stroke="none" /><path d="M 90.58718382345135 81.22770947309562 l -14.582719301920836 -29.082799267873256 a53.53405777787369,53.53405777787369 0 0,0 0.8273019020211428,-0.4059534503890606 l 14.079946132889267 29.329507878397145" fill="#8dff24" stroke="none" /><path d="M 91.23893434514133 80.91482961587045 l -13.657371887864914 -29.751320187261808 a53.73629270043288,53.73629270043288 0 0,0 0.8439614390431479,-0.37866089681319604 l 13.143228330354992 29.982001414591533" fill="#8bff24" stroke="none" /><path d="M 91.90106846888425 80.62456947434976 l -15.905729058910637 -38.05197601149277 a62.24251562738014,62.24251562738014 0 0,0 0.9920749513276875,-0.4046922821651117 l 15.24837023799457 38.32012917984146" fill="#30ff33" stroke="none" /><path d="M 92.91201910852362 80.23233633223022 l -10.106841896093615 -28.186962465651977 a50.94416647951161,50.94416647951161 0 0,0 0.8280076574977743,-0.28887561334443573 l 9.620152234532554 28.356758932168624" fill="#acff21" stroke="none" /><path d="M 93.59665428221793 80.00007090966166 l -9.828485474780575 -30.69786034122133 a53.232867639369324,53.232867639369324 0 0,0 0.8750840267459044,-0.271892866800721 l 9.298616075323942 30.86249334290458" fill="#90ff24" stroke="none" /><path d="M 94.28887869178378 79.79150937346287 l -6.320904627450135 -22.36617557594085 a44.24219536109129,44.24219536109129 0 0,0 0.7346355670375698,-0.20080365149068632 l 5.934971171188843 22.471665768257832" fill="#fffd17" stroke="none" /><path d="M 94.63758080256005 79.69619591428918 l -11.376146189069063 -43.073664137174276 a65.55061441009724,65.55061441009724 0 0,0 1.0934189318616216,-0.2787368317196107 l 10.63301836852244 43.26310396506275" fill="#34ff5e" stroke="none" /><path d="M 95.33964822691252 79.52364482259891 l -6.504894518336053 -28.580788969227466 a50.31168966126301,50.31168966126301 0 0,0 0.8460923459050051,-0.1849230157066269 l 6.011959448277527 28.688525483029963" fill="#b4ff20" stroke="none" /><path d="M 96.75951476605007 79.25152402106235 l -4.34698546478342 -27.833277112918882 a49.170686847778,49.170686847778 0 0,0 0.8373791843044989,-0.12340792449864757 l 3.8672373000502724 27.9039795215785" fill="#c2ff1e" stroke="none" /><path d="M 97.11714578562143 79.19881850522333 l -6.432672375557912 -46.41482906524984 a67.8584638144234,67.8584638144234 0 0,0 1.1583933249311087,-0.15039269968709607 l 5.632764322118946 46.51868008810107" fill="#37ff7a" stroke="none" /><path d="M 98.55514903715128 79.0497635885617 l -2.2318276961986383 -32.36134318848286 a53.438211846960456,53.438211846960456 0 0,0 0.9182159465014951,-0.05538929343194794 l 1.67444970085752 32.39496575129512" fill="#8eff24" stroke="none" /><path d="M 99.63851952072746 79.00311137660856 l -1.066084315668276 -61.92437744986596 a82.93355357414575,82.93355357414575 0 0,0 1.4275647949407964,-0.012287500888345756 l 1.516934562887974e-14 61.93355357414575" fill="#4cddff" stroke="none" /></svg>