<?xml version="1.0" encoding="utf-8" ?>
<svg baseProfile="full" height="200mm" version="1.1" viewBox="0,0,200,200" width="200mm" xmlns="http://www.w3.org/2000/svg" xmlns:ev="http://www.w3.org/2001/xml-events" xmlns:xlink="http://www.w3.org/1999/xlink"><defs /><rect fill="#1a1a1a" height="200" width="200" x="0" y="0" /><text alignment-baseline="middle" fill="#e1ed5e" style="dominant-baseline: central; font-size:9.0px; font-family:Arial;" text-anchor="middle" x="100.0" y="100.0">2024</text><line stroke="#e1ed5e" stroke-width="0.3" x1="100.0" x2="100.0" y1="15.0" y2="10.0" /><path d="M 100.0 14.0 a86.0,86.0 0 0,1 42.35913384403234,11.155469271406648" fill="none" id="id13" stroke="none" /><text fill="#e1ed5e" style="font-size:6.75px; font-family:Arial;" text-anchor="middle"><textPath startOffset="22.145653131862478" xlink:href="#id13">January</textPath></text><path d="M 100.36049292484886 79.00309439819443 l 0.5693792134565216 -33.163484696930986 a54.168372132685256,54.168372132685256 0 0,0 0.9295981007181546,0.023943149563024988 l -1.1385906282454177 33.14882383001791" fill="#ff5808" stroke="none" /><path d="M 101.08105385017728 79.02784411241856 l 1.7078813277863922 -33.13244149489146 a54.17643045962309,54.17643045962309 0 0,0 0.9283664039142032,0.05584821752233173 l -2.276392083833058 33.09824129954444" fill="#ff5808" stroke="none" /><path d="M 102.15924093988457 79.11130261209362 l 4.033179258779017 -39.01735072340711 a60.22524942440523,60.22524942440523 0 0,0 1.027454508852461,0.11512842078193995 l -4.702369669232275 38.9423665421182" fill="#ffec16" stroke="none" /><path d="M 102.87502721639298 79.19773525538626 l 4.542299473260312 -32.86581624456001 a54.178221198942616,54.178221198942616 0 0,0 0.9201910154522144,0.13523639075353847 l -5.105815594320208 32.78299878050758" fill="#ff5808" stroke="none" /><path d="M 103.58742460773223 79.30868818359171 l 5.792842856674344 -33.41157820921345 a54.9100366675194,54.9100366675194 0 0,0 0.9273658469241515,0.16899694949130628 l -6.365543437149549 33.30721308579078" fill="#ff6b09" stroke="none" /><path d="M 104.29559338865022 79.4440306129975 l 9.775860176390246 -46.781029845247794 a68.79154941587788,68.79154941587788 0 0,0 1.1538556725368687,0.2514774733990084 l -10.57747826554625 46.60632091371507" fill="#5dff2a" stroke="none" /><path d="M 104.64783097203109 79.52079915486377 l 6.612005582663873 -29.133716594121857 a50.87460561098321,50.87460561098321 0 0,0 0.850012538098021,0.20060064452698492 l -7.111150274501779 29.015919805948645" fill="#ff0000" stroke="none" /><path d="M 105.3480935250658 79.69241777938227 l 8.448318628109833 -32.07964190645036 a54.17344589409056,54.17344589409056 0 0,0 0.8972634313058475,0.24455313815565913 l -8.997763460350374 31.929888274150564" fill="#ff5808" stroke="none" /><path d="M 106.04205211174951 79.88797359093562 l 12.12807015228466 -40.37040109591282 a63.15280975526563,63.15280975526563 0 0,0 1.0355838857000768,0.3208265349661632 l -12.819294670856367 40.15625797314001" fill="#d0ff1d" stroke="none" /><path d="M 106.72888874123014 80.10723608172694 l 10.052115536343225 -29.717293439321196 a52.37136522554789,52.37136522554789 0 0,0 0.8491498842581574,0.295378408849367 l -10.560771192646401 29.540356597903237" fill="#ff2803" stroke="none" /><path d="M 107.06938296918511 80.22567764915836 l 11.167016848484252 -31.23613359493257 a54.17225206787755,54.17225206787755 0 0,0 0.8729751323379543,0.3205685605600311 l -11.701581132476331 31.03983418536382" fill="#ff5808" stroke="none" /><path d="M 107.74402155503746 80.48000691201159 l 12.228734757116237 -30.824399988721066 a54.16150763196043,54.16150763196043 0 0,0 0.8612854213758637,0.35027728282371773 l -12.756074639682542 30.609935449318055" fill="#ff5708" stroke="none" /><path d="M 108.4095320186766 80.7573450057729 l 16.55791700542106 -37.887754473227425 a62.34787243114181,62.34787243114181 0 0,0 0.9770404370264589,0.43701776002928966 l -17.205870845303153 37.59793296228828" fill="#e2ff1b" stroke="none" /><path d="M 109.06512990194946 81.05736502329252 l 15.473541067818365 -32.33374958937351 a56.84552741536625,56.84552741536625 0 0,0 0.8766114966075494,0.4287946105530368 l -16.02631281368798 32.06336122872326" fill="#ff9b0e" stroke="none" /><path d="M 110.02825361518725 81.54914285379988 l 21.392096961023434 -39.35904896618781 a65.79683636053552,65.79683636053552 0 0,0 0.9877540506476593,0.5478905213375818 l -22.064595199827195 38.98602552941708" fill="#98ff23" stroke="none" /><line stroke="#e1ed5e" stroke-width="0.3" x1="143.13028292997686" x2="145.6673583964461" y1="26.7553504044142" y2="22.446841604673864" /><path d="M 143.63769802327073 25.89364864446614 a86.0,86.0 0 0,1 29.32050498858742,28.57503671076993" fill="none" id="id14" stroke="none" /><text fill="#e1ed5e" style="font-size:6.75px; font-family:Arial;" text-anchor="middle"><textPath startOffset="20.669276256404974" xlink:href="#id14">February</textPath></text><path d="M 110.65571695917076 81.90426304109057 l 21.20542496647233 -36.01144754177446 a62.79108041272278,62.79108041272278 0 0,0 0.9241269588543196,0.5549116864678337 l -21.820484681884082 35.6421218547707" fill="#d8ff1c" stroke="none" /><path d="M 111.27062007382361 82.28071324371311 l 22.45714538714073 -35.30636258128914 a62.84331030954208,62.84331030954208 0 0,0 0.9052859183413245,0.5867953949146731 l -23.059916937739064 34.91565334467058" fill="#d7ff1c" stroke="none" /><path d="M 117.01052211995028 87.68569379921539 l 24.345919950647694 -17.624568540459524 a51.05576873880788,51.05576873880788 0 0,0 0.5078466296420475,0.7143498839673685 l -24.6448816788197 17.204041429782652" fill="#ff0500" stroke="none" /><path d="M 117.62189284568427 88.57770195909679 l 27.81254717459609 -18.027757056911184 a54.14419715187176,54.14419715187176 0 0,0 0.4988544880955745,0.7842821128143518 l -28.117919354317554 17.54766126941816" fill="#ff5708" stroke="none" /><line stroke="#e1ed5e" stroke-width="0.3" x1="172.87174338648825" x2="177.1583165268699" y1="56.24261187166439" y2="53.66864786411523" /><path d="M 173.72905801456457 55.72781907015455 a86.0,86.0 0 0,1 12.242430191666344,42.057860355516425" fill="none" id="id15" stroke="none" /><text fill="#e1ed5e" style="font-size:6.75px; font-family:Arial;" text-anchor="middle"><textPath startOffset="22.145653131862474" xlink:href="#id15">March</textPath></text><path d="M 118.18653347947321 89.5 l 31.054251604911578 -17.929180523578072 a56.85836104715614,56.85836104715614 0 0,0 0.4807689448353899,0.8494726591335837 l -31.357453914768342 17.39345109434537" fill="#ff9c0e" stroke="none" /><path d="M 118.70294669586156 90.45014215332178 l 29.54455277420078 -15.085659159779963 a54.17314743753731,54.17314743753731 0 0,0 0.41579202883693483,0.8318625857119112 l -29.799164716249454 14.576264717904301" fill="#ff5808" stroke="none" /><path d="M 119.0197475246899 91.09779779509293 l 30.035263447754026 -14.058019862906681 a54.16240300162019,54.16240300162019 0 0,0 0.3869143748106868,0.8454777358885504 l -30.272162287419764 13.540353144803447" fill="#ff5808" stroke="none" /><path d="M 119.4528033332814 92.08871423366111 l 31.0459132814706 -12.626102656704264 a54.51517864756545,54.51517864756545 0 0,0 0.3451104801840853,0.8699038529152355 l -31.25808243662081 12.091297786575463" fill="#ff6108" stroke="none" /><path d="M 119.71291397450082 92.76114493625339 l 31.81292593613803 -11.682147058689228 a54.89004007845144,54.89004007845144 0 0,0 0.31721171096200035,0.8872976118802259 l -32.00877781714397 11.134314490428086" fill="#ff6a09" stroke="none" /><path d="M 119.94978838288452 93.4421083053983 l 31.508201634592403 -10.357371709696944 a54.166879849918985,54.166879849918985 0 0,0 0.28279053656214426,0.885837328037153 l -31.681356886931805 9.814965347968403" fill="#ff5808" stroke="none" /><path d="M 120.16314734710363 94.1308016681162 l 43.22029465240061 -12.580797873990367 a66.01411273130383,66.01411273130383 0 0,0 0.30737902320121047,1.0907797156350307 l -43.4298921676764 11.837010234452324" fill="#94ff23" stroke="none" /><path d="M 120.43855184770803 95.1765574152323 l 34.86800329927133 -8.228753837977335 a56.825829282851544,56.825829282851544 0 0,0 0.2159087599880884,0.9513338343472804 l -35.00412292081709 7.628985669691027" fill="#ff9b0e" stroke="none" /><path d="M 120.592083275326 95.88100663000786 l 33.21710644712738 -6.6443515887478695 a54.87511725078878,54.87511725078878 0 0,0 0.17683822122915474,0.9252922981904962 l -33.326270960638695 6.073156725524059" fill="#ff6a09" stroke="none" /><path d="M 120.7213421655516 96.59031103205396 l 39.68778142947277 -6.530609331247671 a61.22149739916433,61.22149739916433 0 0,0 0.16173701546508168,1.0384676615921842 l -39.794039937076114 5.848353487724046" fill="#fbff18" stroke="none" /><path d="M 120.77682067341334 96.94652285012252 l 29.59402122638402 -4.349301994187506 a50.91191268013985,50.91191268013985 0 0,0 0.11965628873462415,0.8657732985702026 l -29.664322031673855 3.840640387417218" fill="#ff0100" stroke="none" /><path d="M 120.86939407059847 97.66154086499901 l 32.9641632842488 -3.693703252664924 a54.170461328558034,54.170461328558034 0 0,0 0.09561759045781311,0.9250134503937266 l -33.02271326718828 3.1272852799882656" fill="#ff5808" stroke="none" /><path d="M 120.93736805541906 98.37931529534042 l 33.520856590815455 -2.5947263008428036 a54.621130723970325,54.621130723970325 0 0,0 0.064338590990292,0.9354689926191267 l -33.560459142970814 2.0189138840693426" fill="#ff6309" stroke="none" /><path d="M 120.98066250479742 99.09900007780936 l 41.86769594807718 -1.7979790096186583 a62.90628464227851,62.90628464227851 0 0,0 0.03707071249112199,1.079273346483774 l -41.892391347565145 1.0789993985707642" fill="#d6ff1c" stroke="none" /><path d="M 120.99303781780057 99.45929381324524 l 42.30561663078129 -1.08964261605542 a63.31964696853416,63.31964696853416 0 0,0 0.018659903162528232,1.086845810931338 l -42.31808796554248 0.3632498891550157" fill="#cdff1d" stroke="none" /><line stroke="#e1ed5e" stroke-width="0.3" x1="184.99686870605535" x2="189.99668451229388" y1="99.2704041080226" y2="99.22748670261217" /><path d="M 185.99683186730306 99.26182062694052 a86.0,86.0 0 0,1 -10.086455211305974,41.156179273409016" fill="none" id="id16" stroke="none" /><text fill="#e1ed5e" style="font-size:6.75px; font-family:Arial;" text-anchor="middle"><textPath startOffset="21.40746469413373" xlink:href="#id16">April</textPath></text><path d="M 120.99922638620191 100.18025310272382 l 29.88424910789283 0.2565203367591147 a50.885350046900314,50.885350046900314 0 0,0 -0.014995593780521274,0.8734181598285045 l -29.875442082513644 -0.7694854125566902" fill="#ff0000" stroke="none" /><path d="M 120.98066250479742 100.90099992219065 l 62.94198751439227 2.702999766571932 a84.0,84.0 0 0,0 -0.07423364217370931,1.4401128264930774 l -62.886312282761985 -3.7830843864417396" fill="#4dd2ff" stroke="none" /><path d="M 120.93736805541906 101.62068470465957 l 37.338038555724296 2.890200326472719 a58.44973138910207,58.44973138910207 0 0,0 -0.08602235483463293,0.9997101572148498 l -37.28292257819192 -3.5307315310632266" fill="#ffc212" stroke="none" /><path d="M 120.82617615685814 102.69636545807757 l 32.90625812567441 4.260373920607347 a54.18090730792189,54.18090730792189 0 0,0 -0.12733927969808712,0.9213635939041125 l -32.82827432942111 -4.824625822711544" fill="#ff5808" stroke="none" /><path d="M 120.7213421655516 103.40968896794604 l 33.06338373367222 5.440567211282645 a54.50801569028737,54.50801569028737 0 0,0 -0.15985171878202395,0.9219822349935228 l -32.965117197397966 -6.0073424791967565" fill="#ff6008" stroke="none" /><path d="M 120.592083275326 104.11899336999214 l 45.96299784883565 9.193886838597177 a67.87349705807111,67.87349705807111 0 0,0 -0.23834033559132983,1.1405447859772133 l -45.79839980241996 -9.981548075859799" fill="#6fff28" stroke="none" /><path d="M 120.51834098615036 104.47187691870673 l 36.24317853109185 7.89903207297098 a58.09397117762429,58.09397117762429 0 0,0 -0.22072704328364465,0.9725640795804302 l -36.10224062625054 -8.520030486490427" fill="#ffba11" stroke="none" /><path d="M 120.35273937422433 105.17358676015961 l 32.142009131696554 8.170373030928278 a54.16419374093971,54.16419374093971 0 0,0 -0.23680203567375493,0.8991759001438175 l -31.997017615218066 -8.7209294354449" fill="#ff5808" stroke="none" /><path d="M 120.16314734710363 105.8691983318838 l 34.46235557701644 10.031489448717737 a56.892683550780255,56.892683550780255 0 0,0 -0.2810056429883759,0.9353763933760485 l -34.285073614024434 -10.621603445684508" fill="#ff9c0e" stroke="none" /><path d="M 119.94978838288452 106.5578916946017 l 31.349140901770745 10.305085287470867 a53.999445723543964,53.999445723543964 0 0,0 -0.2970344384800543,0.8781295378054153 l -31.167621041718327 -10.841716499750444" fill="#ff5307" stroke="none" /><path d="M 119.83427380445688 106.89939002012753 l 35.258957984924706 12.264895868616179 a58.331244137460565,58.331244137460565 0 0,0 -0.337098565221307,0.9429246826418176 l -35.04321924965946 -12.868355507638919" fill="#ffbf11" stroke="none" /><path d="M 119.58574465831526 107.57618678355244 l 30.75509160922 11.896730129063172 a53.97586765583696,53.97586765583696 0 0,0 -0.3416963507628606,0.8612980164993451 l -30.546336583491016 -12.422929162776082" fill="#ff5307" stroke="none" /><path d="M 119.31412917781788 108.2440532568976 l 33.02797889391154 14.097680224786592 a56.9108894005287,56.9108894005287 0 0,0 -0.3912382939864831,0.8952297815136414 l -32.78110671790809 -14.662572076076078" fill="#ff9d0e" stroke="none" /><path d="M 119.0197475246899 108.90220220490707 l 40.5969242203967 19.001410394019054 a65.8236974503283,65.8236974503283 0 0,0 -0.4877872686210638,1.019287784699804 l -40.264757693815724 -19.69551068078396" fill="#98ff23" stroke="none" /><path d="M 118.8641267826498 109.22738970284198 l 29.79031738126996 14.571937043020217 a54.16329837127996,54.16329837127996 0 0,0 -0.41571643486770193,0.8317113471350409 l -29.535781033190528 -15.081180246319004" fill="#ff5808" stroke="none" /><path d="M 118.5362547648365 109.86951160357373 l 29.271486589785866 15.58541788602205 a54.162104545066946,54.162104545066946 0 0,0 -0.4440122939073077,0.8169326106425321 l -28.99962894626322 -16.085605330139185" fill="#ff5708" stroke="none" /><line stroke="#e1ed5e" stroke-width="0.3" x1="174.33088141563837" x2="178.70328620479359" y1="141.23008692659167" y2="143.65538615756765" /><path d="M 175.20536237346943 141.71514677278685 a86.0,86.0 0 0,1 -30.301960400862466,31.631185727798858" fill="none" id="id17" stroke="none" /><text fill="#e1ed5e" style="font-size:6.75px; font-family:Arial;" text-anchor="middle"><textPath startOffset="22.145653131862474" xlink:href="#id17">May</textPath></text><path d="M 118.18653347947321 110.5 l 33.96954552940176 19.61232625564935 a60.224652511298714,60.224652511298714 0 0,0 -0.5246034401245706,0.8908913305981856 l -33.62786837914743 -20.192568754541085" fill="#ffec16" stroke="none" /><path d="M 117.62189284568427 111.42229804090321 l 40.089418032380735 25.985476421981467 a68.77453739234247,68.77453739234247 0 0,0 -0.6506580859233858,0.9851792716923455 l -39.63743550753662 -26.669835572012875" fill="#5dff2a" stroke="none" /><path d="M 117.21940702142032 112.02048342749411 l 27.52187990149412 19.212409628151388 a54.564423978852226,54.564423978852226 0 0,0 -0.5427468726948571,0.7634414464983239 l -27.188017930269304 -19.682028301359217" fill="#ff6209" stroke="none" /><path d="M 116.79662413953412 112.60449989151573 l 27.10562919149086 20.34056947190155 a54.88884625223843,54.88884625223843 0 0,0 -0.5720150222669513,0.7487860260763409 l -26.752462191869604 -20.80287641121877" fill="#ff6a09" stroke="none" /><path d="M 116.35404254752997 113.17365903436017 l 26.27054897557873 21.16169466013796 a54.73364884454678,54.73364884454678 0 0,0 -0.595692835147485,0.7266484005797887 l -25.90340932119262 -21.609545342416244" fill="#ff6609" stroke="none" /><path d="M 116.1254893667686 113.45245675266167 l 38.99136086829789 32.52798001213858 a71.77790568772917,71.77790568772917 0 0,0 -0.7974369341438488,0.9393787032948036 l -38.42722937064693 -33.19252549788294" fill="#31ff3b" stroke="none" /><line stroke="#e1ed5e" stroke-width="0.3" x1="143.1302829299769" x2="145.66735839644613" y1="173.24464959558577" y2="177.55315839532614" /><path d="M 143.63769802327073 174.10635135553383 a86.0,86.0 0 0,1 -40.68552437913181,11.842963189579606" fill="none" id="id18" stroke="none" /><text fill="#e1ed5e" style="font-size:6.75px; font-family:Arial;" text-anchor="middle"><textPath startOffset="21.407464694133747" xlink:href="#id18">June</textPath></text><line stroke="#e1ed5e" stroke-width="0.3" x1="101.45913802915013" x2="101.54496967792366" y1="184.9874750549273" y2="189.98673829345242" /><path d="M 101.47630435890484 185.9873277026323 a86.0,86.0 0 0,1 -42.54439059252881,-10.42667462771756" fill="none" id="id19" stroke="none" /><text fill="#e1ed5e" style="font-size:6.75px; font-family:Arial;" text-anchor="middle"><textPath startOffset="22.145653131862474" xlink:href="#id19">July</textPath></text><line stroke="#e1ed5e" stroke-width="0.3" x1="58.13341422392154" x2="55.67067388415222" y1="173.97424548756322" y2="178.32567169271397" /><path d="M 57.64086615596768 174.84453072859336 a86.0,86.0 0 0,1 -31.369924170532247,-30.572349798747897" fill="none" id="id20" stroke="none" /><text fill="#e1ed5e" style="font-size:6.75px; font-family:Arial;" text-anchor="middle"><textPath startOffset="22.145653131862474" xlink:href="#id20">August</textPath></text><line stroke="#e1ed5e" stroke-width="0.3" x1="26.387840678322732" x2="22.057713659400548" y1="142.50000000000003" y2="145.00000000000006" /><path d="M 25.521815274538298 143.00000000000003 a86.0,86.0 0 0,1 -11.493303480769221,-40.785679425670985" fill="none" id="id21" stroke="none" /><text fill="#e1ed5e" style="font-size:6.75px; font-family:Arial;" text-anchor="middle"><textPath startOffset="21.40746469413373" xlink:href="#id21">September</textPath></text><line stroke="#e1ed5e" stroke-width="0.3" x1="15.003131293944662" x2="10.003315487706104" y1="100.72959589197737" y2="100.7725132973878" /><path d="M 14.003168132696942 100.73817937305945 a86.0,86.0 0 0,1 10.791469493833604,-42.45332614584628" fill="none" id="id22" stroke="none" /><text fill="#e1ed5e" style="font-size:6.75px; font-family:Arial;" text-anchor="middle"><textPath startOffset="22.145653131862435" xlink:href="#id22">October</textPath></text><line stroke="#e1ed5e" stroke-width="0.3" x1="26.387840678322718" x2="22.05771365940052" y1="57.49999999999999" y2="54.99999999999999" /><path d="M 25.521815274538284 56.99999999999999 a86.0,86.0 0 0,1 29.574782752854787,-30.34633250058573" fill="none" id="id23" stroke="none" /><text fill="#e1ed5e" style="font-size:6.75px; font-family:Arial;" text-anchor="middle"><textPath startOffset="21.40746469413373" xlink:href="#id23">November</textPath></text><line stroke="#e1ed5e" stroke-width="0.3" x1="56.869717070023135" x2="54.33264160355391" y1="26.7553504044142" y2="22.446841604673864" /><path d="M 56.362301976729285 25.89364864446614 a86.0,86.0 0 0,1 42.16139366436587,-11.88097634709845" fill="none" id="id24" stroke="none" /><text fill="#e1ed5e" style="font-size:6.75px; font-family:Arial;" text-anchor="middle"><textPath startOffset="22.145653131862474" xlink:href="#id24">December</textPath></text></svg>