<?xml version="1.0" encoding="utf-8" ?>
<svg baseProfile="full" height="200mm" version="1.1" viewBox="0,0,200,200" width="200mm" xmlns="http://www.w3.org/2000/svg" xmlns:ev="http://www.w3.org/2001/xml-events" xmlns:xlink="http://www.w3.org/1999/xlink"><defs /><rect fill="#1a1a1a" height="200" width="200" x="0" y="0" /><text alignment-baseline="middle" fill="#e1ed5e" style="dominant-baseline: central; font-size:9.0px; font-family:Arial;" text-anchor="middle" x="100.0" y="100.0">2025</text><line stroke="#e1ed5e" stroke-width="0.3" x1="100.0" x2="100.0" y1="15.0" y2="10.0" /><path d="M 100.0 14.0 a86.0,86.0 0 0,1 42.46469731375804,11.215312516191453" fill="none" id="id25" stroke="none" /><text fill="#e1ed5e" style="font-size:6.75px; font-family:Arial;" text-anchor="middle"><textPath startOffset="22.20632615414155" xlink:href="#id25">January</textPath></text><path d="M 100.0 79.0 l 0.0 -42.38053588275157 a63.38053588275157,63.38053588275157 0 0,0 1.090991737497463,0.009390510323024728 l -0.7295112582249346 42.37425674903711" fill="#58ff2a" stroke="none" /><path d="M 101.08401301168833 79.027996857942 l 1.7999449897834743 -34.82287719266219 a55.86936446139332,55.86936446139332 0 0,0 0.9599898573753411,0.0579092098154648 l -2.399096895998427 34.78673471346642" fill="#c6ff1e" stroke="none" /><path d="M 101.44485096284872 79.0497635885617 l 2.0361323030113057 -29.523773876959805 a50.593902390411785,50.593902390411785 0 0,0 0.8683113704737384,0.06739767401115179 l -2.5440338628473853 29.484350940760187" fill="#ffe215" stroke="none" /><path d="M 102.16513564639614 79.11191278185805 l 3.080202426300639 -29.716169071066442 a50.87538035318035,50.87538035318035 0 0,0 0.8702919330699778,0.09778743903698345 l -3.5912610628803425 29.65874567855886" fill="#ffe715" stroke="none" /><path d="M 102.88285421437855 79.19881850522331 l 3.1921733360929982 -23.033067921254865 a44.25321888412017,44.25321888412017 0 0,0 0.7536344661353219,0.11106612994405256 l -3.588176782656976 22.974707307149846" fill="#ff720a" stroke="none" /><path d="M 103.59715602781102 79.31037775812273 l 5.690330982646045 -32.728855115534 a54.21984081638077,54.21984081638077 0 0,0 0.9181352346347179,0.1677833455567659 l -6.2528613383836635 32.62605628862649" fill="#e0ff1b" stroke="none" /><path d="M 103.95276090670814 79.375362276772 l 5.175935019652745 -27.006891430782275 a48.49840882818002,48.49840882818002 0 0,0 0.8185459607668147,0.1641926192492283 l -5.640047389886686 26.91379485545584" fill="#ffbe11" stroke="none" /><path d="M 104.66035177308747 79.52364482259891 l 5.932645950924749 -26.06647985982955 a47.73308175766354,47.73308175766354 0 0,0 0.7995889290774908,0.18923686583045812 l -6.380458566964763 25.96049708185822" fill="#ffb110" stroke="none" /><path d="M 105.36241919743992 79.69619591428918 l 5.937411986588613 -22.48090746232579 a44.251753943050005,44.251753943050005 0 0,0 0.7347942859759292,0.2008470353721808 l -6.323504161788253 22.375373886127313" fill="#ff720a" stroke="none" /><path d="M 106.0581310904928 79.89281104454417 l 12.817210785182265 -42.54085547009886 a65.42977916262507,65.42977916262507 0 0,0 1.075586515583125,0.33418996607855384 l -13.547582673476109 42.313925369137785" fill="#3cff2e" stroke="none" /><path d="M 106.40334571778207 80.00007090966166 l 7.087145511791891 -22.135679367604546 a44.2425457420375,44.2425457420375 0 0,0 0.723296473379384,0.2384594753253148 l -7.4671248074136924 22.010406168019994" fill="#ff720a" stroke="none" /><path d="M 107.08798089147638 80.2323363322302 l 7.850047852017725 -21.892991543077184 a44.25782298462642,44.25782298462642 0 0,0 0.7149064656768563,0.2633060846526361 l -8.225736643467156 21.75462219061822" fill="#ff730a" stroke="none" /><path d="M 108.09893153111575 80.62456947434976 l 9.1771981730974 -21.955015293045292 a44.795874911970664,44.795874911970664 0 0,0 0.7088760389162468,0.3035037251330934 l -9.553757969803963 21.793792039949405" fill="#ff7c0b" stroke="none" /><path d="M 108.76106565485865 80.91482961587045 l 14.548236181089067 -31.691985569205595 a55.87166651164645,55.87166651164645 0 0,0 0.8705917454101573,0.4087544978308938 l -15.091606137798822 31.4368660887347" fill="#c6ff1e" stroke="none" /><line stroke="#e1ed5e" stroke-width="0.3" x1="143.23703022742887" x2="145.7803849466894" y1="26.81831364943548" y2="22.513508569990506" /><path d="M 143.74570117128098 25.957352633546492 a86.0,86.0 0 0,1 28.547481713284135,27.462654790039103" fill="none" id="id26" stroke="none" /><text fill="#e1ed5e" style="font-size:6.75px; font-family:Arial;" text-anchor="middle"><textPath startOffset="19.985693538727396" xlink:href="#id26">February</textPath></text><path d="M 112.19680574252982 82.90503203632743 l 15.972663494989074 -22.387186982017564 a48.50112943302462,48.50112943302462 0 0,0 0.6754467840390078,0.49074081400878883 l -16.355655595381872 22.108926933192098" fill="#ffbe11" stroke="none" /><path d="M 112.77801427241765 83.33499621200491 l 12.79261597091787 -16.6840472289891 a42.02399712991138,42.02399712991138 0 0,0 0.5702605278142038,0.4450973872815951 l -13.077909053891505 16.461371452484283" fill="#ff4906" stroke="none" /><path d="M 113.6212207817346 84.01681056812373 l 15.079060084564526 -17.69382331056726 a44.247568397135225,44.247568397135225 0 0,0 0.575442158288528,0.49901776916662227 l -15.38139604149982 17.431640547980965" fill="#ff720a" stroke="none" /><path d="M 114.16331599549186 84.49514656593476 l 15.690183526291147 -17.176344579628285 a44.26389202620284,44.26389202620284 0 0,0 0.5581299829092693,0.5187209919112289 l -15.983521392995263 16.903719001642415" fill="#ff730a" stroke="none" /><path d="M 114.68862486808459 84.99185889309783 l 19.543732696547035 -19.968860305137895 a48.94123958596314,48.94123958596314 0 0,0 0.5969996893979812,0.5944359830058298 l -19.88456818611234 19.62948847148195" fill="#ffc612" stroke="none" /><path d="M 114.94478906791727 85.2469230424477 l 24.815163067280736 -24.496833563996404 a55.86957373868907,55.86957373868907 0 0,0 0.6697318229382064,0.6902175146270955 l -25.23315915392205 24.066051853819193" fill="#c6ff1e" stroke="none" /><path d="M 115.4437574822437 85.77008943001954 l 19.646111853151197 -18.101968710632683 a47.714246801047054,47.714246801047054 0 0,0 0.5513412104519069,0.6088047351368283 l -19.954796704219138 17.761111188226305" fill="#ffb110" stroke="none" /><path d="M 115.9244219780498 86.31012108654704 l 18.35718165579112 -15.781269449305118 a45.20815118457593,45.20815118457593 0 0,0 0.5022181835824464,0.5944679215921403 l -18.626110452860686 15.46294257808387" fill="#ff840c" stroke="none" /><path d="M 116.38621287248628 86.86637796730983 l 23.295142219983575 -18.671159437257174 a50.85424334631074,50.85424334631074 0 0,0 0.5415878099468548,0.6877615195293019 l -23.613084110524394 18.267405523774833" fill="#ffe715" stroke="none" /><path d="M 116.60985879189232 87.15038557335679 l 26.50152970425924 -20.501946625951227 a54.50613215695133,54.50613215695133 0 0,0 0.5677048813356853,0.7470330782195691 l -26.85051052581904 20.042728771850626" fill="#dcff1b" stroke="none" /><path d="M 117.04232023915458 87.72973835380427 l 21.252175737979478 -15.30130599569564 a47.1874958476727,47.1874958476727 0 0,0 0.4689254707840938,0.6632618233303109 l -21.512413828567453 14.933217672033537" fill="#ffa70f" stroke="none" /><path d="M 117.45458315368197 88.32363383020206 l 22.859174647460133 -15.291805663477119 a48.50238509679906,48.50238509679906 0 0,0 0.45823982839859867,0.6979306966786263 l -23.119011111216658 14.896056902820819" fill="#ffbe11" stroke="none" /><line stroke="#e1ed5e" stroke-width="0.3" x1="172.23445277983987" x2="176.4835382374775" y1="55.19839476539836" y2="52.563006222186495" /><path d="M 173.08426987136738 54.67131705675599 a86.0,86.0 0 0,1 12.851231095245387,41.99856678651699" fill="none" id="id27" stroke="none" /><text fill="#e1ed5e" style="font-size:6.75px; font-family:Arial;" text-anchor="middle"><textPath startOffset="22.20632615414155" xlink:href="#id27">March</textPath></text><path d="M 117.84615892207809 88.93136811851018 l 23.37217476045459 -14.496004424418484 a48.5025943740948,48.5025943740948 0 0,0 0.4339462488106613,0.7132935345612086 l -23.618236807551476 14.091543116650193" fill="#ffbe11" stroke="none" /><path d="M 118.21658344932153 89.55222093294921 l 24.029762235443705 -13.781818504447768 a48.70140780504658,48.70140780504658 0 0,0 0.4108134405221459,0.7307912708933576 l -24.263433317258286 13.366143723619617" fill="#ffc212" stroke="none" /><path d="M 118.3937258080291 89.86733742301442 l 19.85551607972846 -10.937927792746505 a43.66891667441768,43.66891667441768 0 0,0 0.35702853851910704,0.6615196586382166 l -20.040852717466034 10.59452715077583" fill="#ff6809" stroke="none" /><path d="M 118.73160827565052 90.50648371742162 l 28.759536025473004 -14.575850590050093 a53.242306567985224,53.242306567985224 0 0,0 0.4072782589243724,0.8210481175353047 l -29.006174297350785 14.078642884015837" fill="#f0ff19" stroke="none" /><path d="M 119.04729006885535 91.15688171328212 l 31.62300904477633 -14.681669074918007 a55.864969638182814,55.864969638182814 0 0,0 0.3974331917551181,0.8756913562664844 l -31.871044553494798 14.13515570980946" fill="#c6ff1e" stroke="none" /><path d="M 119.196687751892 91.48605970444005 l 21.259096484640555 -9.428641052409624 a44.256148766260516,44.256148766260516 0 0,0 0.30285808210933424,0.699038209670056 l -21.41824527659257 9.061303698152965" fill="#ff730a" stroke="none" /><path d="M 119.47837535516314 92.15188598940014 l 19.915842288607163 -8.024375649824613 a42.47164126549649,42.47164126549649 0 0,0 0.26738213916234166,0.6804583794040743 l -20.051017977651206 7.680368265524755" fill="#ff5107" stroke="none" /><path d="M 119.7369772167798 92.82701384747503 l 26.216487921080663 -9.527827020333925 a48.89415219442193,48.89415219442193 0 0,0 0.2806685434978025,0.793487767700826 l -26.376609545388277 9.075141626206484" fill="#ffc512" stroke="none" /><path d="M 119.97218684219823 93.5106431181261 l 32.15940319498528 -10.449223517146176 a54.814397613574464,54.814397613574464 0 0,0 0.28384595957263564,0.8998692597483754 l -32.33450463832612 9.894104090971382" fill="#d7ff1c" stroke="none" /><path d="M 120.08093135843002 93.85539295169968 l 34.37050759784591 -10.517104982320658 a56.94358482042014,56.94358482042014 0 0,0 0.27873641508851316,0.939760624384 l -34.54644991004612 9.923914971190129" fill="#b6ff1f" stroke="none" /><path d="M 120.28053869075195 94.5502522615342 l 22.4549452958846 -6.034050140858609 a44.25154466575427,44.25154466575427 0 0,0 0.19134297981217274,0.7373225549301009 l -22.555484607567074 5.646631160379658" fill="#ff720a" stroke="none" /><path d="M 120.45610955862082 95.25157060432595 l 26.788658841355893 -6.218389413121337 a48.50092015572888,48.50092015572888 0 0,0 0.18177593580104154,0.8148658775169197 l -26.89172916415897 5.756345366054454" fill="#ffbe11" stroke="none" /><path d="M 120.6074358757038 95.95851677861258 l 31.4874084648322 -6.1752385771403375 a53.087232091842836,53.087232091842836 0 0,0 0.1681456577246768,0.8982408270983205 l -31.589039846466736 5.632319672579454" fill="#f2ff19" stroke="none" /><path d="M 120.67395015179393 96.31383870115 l 25.58641353925581 -4.5620525672299825 a46.98993808049536,46.98993808049536 0 0,0 0.13512547085529042,0.7975181780022544 l -25.66115087163132 4.12094860091189" fill="#ffa40f" stroke="none" /><path d="M 120.78858239683441 97.02765380044208 l 24.475110528594765 -3.499445049918666 a45.72401971857187,45.72401971857187 0 0,0 0.10469494320130125,0.7800989329637099 l -24.531721470853903 3.077627774890291" fill="#ff8d0d" stroke="none" /><path d="M 120.87857604477298 97.74499172005257 l 27.12947062802316 -2.9301414409484456 a48.28724803677965,48.28724803677965 0 0,0 0.08214091870328237,0.8271478416082797 l -27.17588867240867 2.4627180686357306" fill="#ffbb11" stroke="none" /><path d="M 120.96714384426684 98.82574320788733 l 48.1769435025154 -2.698131111764457 a69.25243824658845,69.25243824658845 0 0,0 0.05641234949674927,1.1907755376247462 l -48.21624946024565 1.8684444675167107" fill="#34ff5e" stroke="none" /><line stroke="#e1ed5e" stroke-width="0.3" x1="184.98032266829074" x2="189.97916517819016" y1="98.17113171792111" y2="98.06355123074" /><path d="M 185.9800911702706 98.14961562048488 a86.0,86.0 0 0,1 -9.607161424134198,41.387399972396054" fill="none" id="id28" stroke="none" /><text fill="#e1ed5e" style="font-size:6.75px; font-family:Arial;" text-anchor="middle"><textPath startOffset="21.466115282336823" xlink:href="#id28">April</textPath></text><path d="M 120.99513854157772 99.54816195383933 l 29.34685674257005 -0.6315760377222743 a50.35365205490373,50.35365205490373 0 0,0 0.011190482654155402,0.8667152139089035 l -29.353380232341923 0.12632456575290807" fill="#ffde14" stroke="none" /><path d="M 120.99824983174949 100.27111621757518 l 30.447099538956 0.39311383230881225 a51.44963725268738,51.44963725268738 0 0,0 -0.019055812068119415,0.8854487084297865 l -30.435821664202873 -0.9171523565287136" fill="#fff116" stroke="none" /><path d="M 120.95626037817324 101.35467743843564 l 62.86878113451971 4.064032315306923 a84.0,84.0 0 0,0 -0.10569376534264929,1.4421074540129188 l -62.789510810512716 -5.145612905816612" fill="#4dd2ff" stroke="none" /><path d="M 120.89721153311464 102.0752229133903 l 25.77921598673776 2.560036281402475 a46.90601788490413,46.90601788490413 0 0,0 -0.08670398381154651,0.8027712073129667 l -25.73132970142516 -3.0034038106002328" fill="#ffa20f" stroke="none" /><path d="M 120.8583938346157 102.4346265915055 l 27.314853707511837 3.1882353793237974 a48.50029232384167,48.50029232384167 0 0,0 -0.1039257121742644,0.8283901794492072 l -27.255926486090726 -3.6579433130603998" fill="#ffbe11" stroke="none" /><path d="M 120.81339534386255 102.79330883721812 l 23.453338322159837 3.1476083606355756 a44.66361166106379,44.66361166106379 0 0,0 -0.1088217178887771,0.761098841458108 l -23.39568255325446 -3.5508526740740933" fill="#ff7a0b" stroke="none" /><path d="M 120.70491114924044 103.5080841355445 l 34.591499367440065 5.860923009083563 a56.08450152141272,56.08450152141272 0 0,0 -0.16946481672222954,0.9504486888545274 l -34.48548810837865 -6.455490448671308" fill="#c3ff1e" stroke="none" /><path d="M 120.64145759157962 103.86396538481128 l 28.913989561348387 5.412537089794495 a50.41622596632961,50.41622596632961 0 0,0 -0.1670219152186483,0.8516411473617173 l -28.816537713154077 -5.909441964224158" fill="#ffdf14" stroke="none" /><path d="M 120.49622156327973 104.57218783832717 l 22.698450819794854 5.063449400501435 a44.25635804355626,44.25635804355626 0 0,0 -0.17226141240262452,0.7420976561304812 l -22.60792884146168 -5.453415713980481" fill="#ff730a" stroke="none" /><path d="M 120.41448212921028 104.9243191809786 l 23.460758826104524 5.659132764499309 a45.13364846729294,45.13364846729294 0 0,0 -0.18867731809582802,0.7536720963763822 l -23.359870193713636 -6.062132700273087" fill="#ff830c" stroke="none" /><path d="M 120.32669344350535 105.2749913415812 l 26.61431806901783 6.906696249753986 a48.49589750063116,48.49589750063116 0 0,0 -0.2166425444793432,0.8062075010123622 l -26.49148744819671 -7.3637946839418955" fill="#ffbe11" stroke="none" /><path d="M 120.13307415673323 105.97154293290107 l 34.14395116302094 10.127219950693338 a56.614182356927415,56.614182356927415 0 0,0 -0.2851554661818368,0.9319045624670959 l -33.964568924332966 -10.713451485712492" fill="#bbff1f" stroke="none" /><path d="M 120.02730092923936 106.31721596034902 l 24.9088540756533 7.857005348683203 a47.118643617374666,47.118643617374666 0 0,0 -0.25064369588879076,0.7714019765336975 l -24.76991812874826 -8.284606225194697" fill="#ffa60f" stroke="none" /><path d="M 119.79798401119884 107.00284435728193 l 22.33478239167151 7.900148053163596 a44.69081770950982,44.69081770950982 0 0,0 -0.2627729401410679,0.7230382747811129 l -22.195485190525215 -8.28343412495084" fill="#ff7a0b" stroke="none" /><path d="M 119.54520255179757 107.68017299344265 l 22.432352484275192 8.814661668127428 a45.1020475956364,45.1020475956364 0 0,0 -0.29015089151472073,0.7201307176381141 l -22.277298978503076 -9.199491753608356" fill="#ff820c" stroke="none" /><path d="M 119.26925614724726 108.34839909993367 l 30.745254328060287 13.320371663453013 a54.506759988838546,54.506759988838546 0 0,0 -0.38040245803700157,0.8577071195574052 l -30.51141078529201 -13.847627119503105" fill="#dcff1b" stroke="none" /><path d="M 118.81262510543309 109.33194174019688 l 22.88816477137312 11.353599988807273 a46.54940937296536,46.54940937296536 0 0,0 -0.36224601906635784,0.7147457619066574 l -22.689340082520495 -11.745899962416626" fill="#ff9c0e" stroke="none" /><line stroke="#e1ed5e" stroke-width="0.3" x1="174.80103733775053" x2="179.2010983576182" y1="140.37084112569926" y2="142.7455964860345" /><path d="M 175.68104954172406 140.8457921977663 a86.0,86.0 0 0,1 -30.038265399797805,32.042727171017184" fill="none" id="id29" stroke="none" /><text fill="#e1ed5e" style="font-size:6.75px; font-family:Arial;" text-anchor="middle"><textPath startOffset="22.206326154141568" xlink:href="#id29">May</textPath></text><path d="M 118.48025628344425 109.97397251340804 l 27.96477346921556 15.092857893724789 a52.77771097144527,52.77771097144527 0 0,0 -0.4383656118366639,0.7957609173828187 l -27.70083144792739 -15.571989329505412" fill="#f8ff18" stroke="none" /><path d="M 118.12598468904814 110.60418214915192 l 22.291391799173375 13.041055868229318 a46.8258646806362,46.8258646806362 0 0,0 -0.41300217384860705,0.6922153992109207 l -22.063608749626543 -13.422833361326344" fill="#ffa10e" stroke="none" /><path d="M 117.55443506779139 111.5257021239791 l 22.051914967333218 14.478609091963031 a47.380240237048056,47.380240237048056 0 0,0 -0.4534895786924124,0.6779053898711263 l -21.799422283230086 -14.856051396039964" fill="#ffab0f" stroke="none" /><path d="M 117.14729908036423 112.12312394758627 l 19.80105317241665 13.999325536745369 a45.25000664372368,45.25000664372368 0 0,0 -0.4551293237282223,0.6321348239229322 l -19.557144056312826 -14.338093966119432" fill="#ff850c" stroke="none" /><path d="M 116.71984013943494 112.70617746262583 l 13.742398271369893 10.443482099225951 a38.26035424334631,38.26035424334631 0 0,0 -0.40299664425952153,0.5209274871997668 l -13.560594809892303 -10.67848758053897" fill="#ff0000" stroke="none" /><path d="M 116.498646956653 112.99209946851258 l 26.324087873357062 20.72928579943997 a54.50613215695133,54.50613215695133 0 0,0 -0.5868028649456012,0.7321267990848314 l -25.963367096356606 -21.179340432103054" fill="#dcff1b" stroke="none" /><path d="M 116.0416608686014 113.55231037782055 l 19.219874562395916 16.237327769607496 a46.16057215748283,46.16057215748283 0 0,0 -0.5180040281623518,0.6025557116272762 l -18.937528024662782 -16.5657605803963" fill="#ff950d" stroke="none" /><path d="M 115.56566222782051 114.09645910891815 l 17.91460688455735 16.223692876307883 a45.16901633027279,45.16901633027279 0 0,0 -0.5268720379714387,0.5718155387267161 l -17.63268843859019 -16.529659669835937" fill="#ff830c" stroke="none" /><path d="M 115.07121518719521 114.62390073753431 l 25.784916896058586 25.019619223133606 a56.92830757783122,56.92830757783122 0 0,0 -0.6884513051958207,0.6973975374280783 l -25.350424965807232 -25.45975725454235" fill="#b6ff1f" stroke="none" /><path d="M 114.81725581225074 114.88116024355365 l 18.217286306088166 18.295854519799533 a46.818749252581085,46.818749252581085 0 0,0 -0.5759821951957177,0.5637198061813827 l -17.899654158516654 -18.606724428903487" fill="#ffa10e" stroke="none" /><line stroke="#e1ed5e" stroke-width="0.3" x1="143.8653032363475" x2="146.44561519142675" y1="172.8068346515853" y2="177.08958963109032" /><path d="M 144.38136562736335 173.6633856474863 a86.0,86.0 0 0,1 -40.68145358897372,12.25698825130547" fill="none" id="id30" stroke="none" /><text fill="#e1ed5e" style="font-size:6.75px; font-family:Arial;" text-anchor="middle"><textPath startOffset="21.466115282336833" xlink:href="#id30">June</textPath></text><line stroke="#e1ed5e" stroke-width="0.3" x1="102.19456741930631" x2="102.32365962044197" y1="184.97166512339345" y2="189.96999836594603" /><path d="M 102.22038585953345 185.97133177190398 a86.0,86.0 0 0,1 -42.740103519485714,-10.115201625700543" fill="none" id="id31" stroke="none" /><text fill="#e1ed5e" style="font-size:6.75px; font-family:Arial;" text-anchor="middle"><textPath startOffset="22.20632615414155" xlink:href="#id31">July</textPath></text><line stroke="#e1ed5e" stroke-width="0.3" x1="58.666819895761336" x2="56.23545636021788" y1="174.27360380694188" y2="178.64263932499728" /><path d="M 58.180547188652646 175.14741091055294 a86.0,86.0 0 0,1 -31.652253787137756,-30.449443065178592" fill="none" id="id32" stroke="none" /><text fill="#e1ed5e" style="font-size:6.75px; font-family:Arial;" text-anchor="middle"><textPath startOffset="22.20632615414155" xlink:href="#id32">August</textPath></text><line stroke="#e1ed5e" stroke-width="0.3" x1="26.63291911575756" x2="22.317208475507996" y1="142.92168965132927" y2="145.44649492493687" /><path d="M 25.769776987707644 143.4266507060508 a86.0,86.0 0 0,1 -11.730757126820373,-40.83630448921669" fill="none" id="id33" stroke="none" /><text fill="#e1ed5e" style="font-size:6.75px; font-family:Arial;" text-anchor="middle"><textPath startOffset="21.46611528233685" xlink:href="#id33">September</textPath></text><line stroke="#e1ed5e" stroke-width="0.3" x1="15.007084014347285" x2="10.007500721073583" y1="101.09737516637583" y2="101.16192664675087" /><path d="M 14.007167355692545 101.11028546245083 a86.0,86.0 0 0,1 10.666146001902534,-42.60595125391555" fill="none" id="id34" stroke="none" /><text fill="#e1ed5e" style="font-size:6.75px; font-family:Arial;" text-anchor="middle"><textPath startOffset="22.20632615414155" xlink:href="#id34">October</textPath></text><line stroke="#e1ed5e" stroke-width="0.3" x1="26.266209847984243" x2="21.928928074336255" y1="57.711370442889674" y2="55.22380399835377" /><path d="M 25.398753493254645 57.213857153982495 a86.0,86.0 0 0,1 29.58750427330803,-30.492523968695096" fill="none" id="id35" stroke="none" /><text fill="#e1ed5e" style="font-size:6.75px; font-family:Arial;" text-anchor="middle"><textPath startOffset="21.46611528233685" xlink:href="#id35">November</textPath></text><line stroke="#e1ed5e" stroke-width="0.3" x1="56.762969772571076" x2="54.21961505331055" y1="26.818313649435495" y2="22.513508569990535" /><path d="M 56.25429882871897 25.957352633546506 a86.0,86.0 0 0,1 42.265352541879196,-11.944610805530505" fill="none" id="id36" stroke="none" /><text fill="#e1ed5e" style="font-size:6.75px; font-family:Arial;" text-anchor="middle"><textPath startOffset="22.20632615414155" xlink:href="#id36">December</textPath></text></svg>