<?xml version="1.0" encoding="utf-8" ?>
<svg baseProfile="full" height="200mm" version="1.1" viewBox="0,0,200,200" width="200mm" xmlns="http://www.w3.org/2000/svg" xmlns:ev="http://www.w3.org/2001/xml-events" xmlns:xlink="http://www.w3.org/1999/xlink"><defs /><rect fill="#1a1a1a" height="200" width="200" x="0" y="0" /><rect fill="#1a1a1a" height="200" width="180" x="10" y="0" /><text alignment-baseline="middle" fill="#e1ed5e" style="dominant-baseline: central; font-size:9.0px; font-family:Arial;" text-anchor="middle" x="100.0" y="100.0">2023</text><line stroke="#e1ed5e" stroke-width="0.3" x1="100.0" x2="100.0" y1="15.0" y2="10.0" /><path d="M 100.0 14.0 a86.0,86.0 0 0,1 42.46469731375804,11.215312516191453" fill="none" id="id1" stroke="none" /><text fill="#e1ed5e" style="font-size:6.75px; font-family:Arial;" text-anchor="middle"><textPath startOffset="22.20632615414155" xlink:href="#id1">January</textPath></text><line stroke="#e1ed5e" stroke-width="0.3" x1="143.23703022742887" x2="145.7803849466894" y1="26.81831364943548" y2="22.513508569990506" /><path d="M 143.74570117128098 25.957352633546492 a86.0,86.0 0 0,1 28.547481713284135,27.462654790039103" fill="none" id="id2" stroke="none" /><text fill="#e1ed5e" style="font-size:6.75px; font-family:Arial;" text-anchor="middle"><textPath startOffset="19.985693538727396" xlink:href="#id2">February</textPath></text><path d="M 111.90073688211348 82.69761687909136 l 7.750432300907084 -11.268289548062391 a34.67638659112545,34.67638659112545 0 0,0 0.4888856314948228,0.34249562748461143 l -7.943249071985558 11.133209077813843" fill="#ff2603" stroke="none" /><path d="M 113.6212207817346 84.01681056812373 l 9.44044755382048 -11.077455096883806 a35.55445160217011,35.55445160217011 0 0,0 0.46238767706029277,0.4009780371028542 l -9.629729029527537 10.913312066361282" fill="#ff3505" stroke="none" /><path d="M 113.89432698308785 84.25364557470407 l 7.61968297369621 -8.635339362479064 a32.51645147277651,32.51645147277651 0 0,0 0.4165032461211937,0.3739407267609793 l -7.7671972074133935 8.502899626948787" fill="#ff0000" stroke="none" /><path d="M 115.4437574822437 85.77008943001954 l 21.711427684967074 -20.004955054422062 a50.522606911467044,50.522606911467044 0 0,0 0.5837919933201766,0.6446377000858958 l -22.05256331890329 19.628264567066616" fill="#e0ff1b" stroke="none" /><path d="M 115.9244219780498 86.31012108654704 l 16.92487724386858 -14.549948526420017 a43.31932955627235,43.31932955627235 0 0,0 0.4812352293491508,0.5696307221443779 l -17.17282308670485 14.256458854646533" fill="#ffb310" stroke="none" /><path d="M 117.04232023915458 87.72973835380427 l 23.730277551783423 -17.085508921974828 a50.24107877297891,50.24107877297891 0 0,0 0.4992704336837961,0.7061826213583925 l -24.0208606052711 16.674499800284643" fill="#e4ff1b" stroke="none" /><path d="M 117.2510076193507 88.02491185347247 l 21.38578382010138 -14.84531524066044 a47.03334658077396,47.03334658077396 0 0,0 0.4559446981699386,0.6690425839436603 l -21.638152983940053 14.474994633446373" fill="#ffec16" stroke="none" /><line stroke="#e1ed5e" stroke-width="0.3" x1="172.23445277983987" x2="176.4835382374775" y1="55.19839476539836" y2="52.563006222186495" /><path d="M 173.08426987136738 54.67131705675599 a86.0,86.0 0 0,1 12.851231095245387,41.99856678651699" fill="none" id="id3" stroke="none" /><text fill="#e1ed5e" style="font-size:6.75px; font-family:Arial;" text-anchor="middle"><textPath startOffset="22.20632615414155" xlink:href="#id3">March</textPath></text><path d="M 117.84615892207809 88.93136811851018 l 25.046013660265196 -15.53416096509576 a50.47224045028975,50.47224045028975 0 0,0 0.4515684097956404,0.7422597337852668 l -25.309697868347058 15.100733458103413" fill="#e0ff1b" stroke="none" /><path d="M 118.56541770881063 90.18545643968196 l 27.8869914773175 -14.742361142268356 a52.543961477674976,52.543961477674976 0 0,0 0.4158243210470388,0.8032402340397765 l -28.136625231524654 14.260148185968234" fill="#c3ff1e" stroke="none" /><path d="M 119.61058180528143 92.48833698450437 l 13.64423216650906 -5.226304612359824 a35.61093191123599,35.61093191123599 0 0,0 0.2143361139410132,0.5743142241504483 l -13.732172868951698 4.990667251180043" fill="#ff3605" stroke="none" /><path d="M 119.85752413597 93.16781622104841 l 14.678273961592947 -5.050209914223228 a36.52276865347468,36.52276865347468 0 0,0 0.19941902346452248,0.596237497626519 l -14.76303027882924 4.796799313674395" fill="#ff4506" stroke="none" /><path d="M 119.97218684219823 93.5106431181261 l 14.085766089211921 -4.576742838914511 a35.810650942262725,35.810650942262725 0 0,0 0.18543866250771388,0.587891235833651 l -14.16246023548784 4.33360143665444" fill="#ff3905" stroke="none" /><path d="M 120.67395015179393 96.31383870115 l 37.80227686655461 -6.740138627151259 a59.39845836760723,59.39845836760723 0 0,0 0.170807729970873,1.008116891159298 l -37.9126964580457 6.088435947676123" fill="#69ff28" stroke="none" /><path d="M 120.78858239683441 97.02765380044208 l 31.87312362307705 -4.5572110719545185 a53.197269794911136,53.197269794911136 0 0,0 0.12180655099709758,0.9076002866549578 l -31.946846173131984 4.007892443234896" fill="#baff1f" stroke="none" /><path d="M 120.91429891909075 98.10471618934814 l 34.85023834182251 -3.158178659592699 a55.993045093671725,55.993045093671725 0 0,0 0.07872493137661736,0.9606435657337022 l -34.899437757018624 2.557821176651228" fill="#95ff23" stroke="none" /><line stroke="#e1ed5e" stroke-width="0.3" x1="184.98032266829074" x2="189.97916517819016" y1="98.17113171792111" y2="98.06355123074" /><path d="M 185.9800911702706 98.14961562048488 a86.0,86.0 0 0,1 -9.607161424134198,41.387399972396054" fill="none" id="id4" stroke="none" /><text fill="#e1ed5e" style="font-size:6.75px; font-family:Arial;" text-anchor="middle"><textPath startOffset="21.466115282336823" xlink:href="#id4">April</textPath></text><path d="M 120.99980553446 99.90962569577887 l 18.54283779727015 -0.07980055155575776 a39.543009510430046,39.543009510430046 0 0,0 -0.002929388908408769,0.6806868162534293 l -18.54146411107224 -0.23939574290135626" fill="#ff770b" stroke="none" /><path d="M 120.9904718944345 100.63252640178507 l 29.324133695901047 0.8836527766224538 a50.337444661127385,50.337444661127385 0 0,0 -0.03355318395125582,0.8658585875605976 l -29.304578379098587 -1.3882886111970576" fill="#e2ff1b" stroke="none" /><path d="M 120.95626037817324 101.35467743843564 l 36.440499644817024 2.3556265203486073 a57.51655776038152,57.51655776038152 0 0,0 -0.07237073284812735,0.9874411508977474 l -36.39455235330456 -2.982540807743125" fill="#81ff25" stroke="none" /><path d="M 120.89721153311464 102.0752229133903 l 44.56849858819502 4.425928757961916 a65.7877205467804,65.7877205467804 0 0,0 -0.12160609052942743,1.1259213685394456 l -44.48571019616454 -5.192446448386153" fill="#32ff47" stroke="none" /><path d="M 120.76222939487914 103.15116336523771 l 28.997790270455415 4.4011060968068705 a50.3298751351701,50.3298751351701 0 0,0 -0.13737238790301723,0.8554179906042725 l -28.91773612819111 -4.899603317104348" fill="#e2ff1b" stroke="none" /><path d="M 120.64145759157962 103.86396538481128 l 29.17251094658449 5.460930846841636 a50.67923787166002,50.67923787166002 0 0,0 -0.1678932369273166,0.8560839979823681 l -29.074187776681512 -5.962278571891949" fill="#ddff1b" stroke="none" /><path d="M 120.5718875245553 104.21870165774334 l 32.06907752725715 6.5764442064469195 a53.73645295156057,53.73645295156057 0 0,0 -0.19362001752945562,0.904528262474756 l -31.951123471003253 -7.127486288337845" fill="#b3ff20" stroke="none" /><path d="M 120.49622156327973 104.57218783832717 l 23.100943011148864 5.153235212810734 a44.668743125964674,44.668743125964674 0 0,0 -0.173866561129041,0.7490125948332382 l -23.00881588408927 -5.550116464992538" fill="#ffc812" stroke="none" /><path d="M 120.23288151984713 105.62410040840565 l 26.740962696723372 7.433140903646172 a48.754831464828044,48.754831464828044 0 0,0 -0.23171862702700566,0.8066429393089759 l -26.60905143281027 -7.89234131845973" fill="#f9ff18" stroke="none" /><path d="M 120.02730092923936 106.31721596034902 l 28.749598907811933 9.06849234031858 a51.145928260487814,51.145928260487814 0 0,0 -0.2720665007458863,0.837334590362499 l -28.5892401560498 -9.562025830658873" fill="#d7ff1c" stroke="none" /><path d="M 119.79798401119884 107.00284435728193 l 43.89675100343427 15.526940262883617 a67.56190097692172,67.56190097692172 0 0,0 -0.39725026909605254,1.0930621283506083 l -43.62297647333299 -16.280250188240355" fill="#34ff60" stroke="none" /><path d="M 119.41010516605496 108.01547362559984 l 27.92845344421767 11.533156573381842 a51.21609194339954,51.21609194339954 0 0,0 -0.343511252256777,0.8119591287515083 l -27.725791210768584 -12.012190227799513" fill="#d6ff1c" stroke="none" /><path d="M 119.12269723197855 108.67885076344098 l 27.447575429796125 12.457103100243101 a51.14214349750917,51.14214349750917 0 0,0 -0.3707205899781267,0.798499169960938 l -27.229080222978165 -12.92772233748287" fill="#d7ff1c" stroke="none" /><path d="M 118.64920377521936 109.65438752849418 l 55.38398297787609 28.67138141578121 a83.36532436204331,83.36532436204331 0 0,0 -0.6706839262850206,1.2686812346944347 l -54.88224654336618 -29.62047766556178" fill="#4cd9ff" stroke="none" /><line stroke="#e1ed5e" stroke-width="0.3" x1="174.80103733775053" x2="179.2010983576182" y1="140.37084112569926" y2="142.7455964860345" /><path d="M 175.68104954172406 140.8457921977663 a86.0,86.0 0 0,1 -30.038265399797805,32.042727171017184" fill="none" id="id5" stroke="none" /><text fill="#e1ed5e" style="font-size:6.75px; font-family:Arial;" text-anchor="middle"><textPath startOffset="22.206326154141568" xlink:href="#id5">May</textPath></text><path d="M 118.12598468904814 110.60418214915192 l 26.364238615462796 15.42377935864591 a51.54449291570006,51.54449291570006 0 0,0 -0.4546202781154713,0.7619697358310699 l -26.094837461649096 -15.875311188363085" fill="#d1ff1c" stroke="none" /><path d="M 117.75023020441432 111.22182372390056 l 24.661610124067085 15.591248021730847 a50.176737802342025,50.176737802342025 0 0,0 -0.4678267253954038,0.7260774668826879 l -24.389578535294632 -16.01344708853499" fill="#e5ff1a" stroke="none" /><path d="M 117.35343817320211 111.8261652097733 l 27.887924798276487 19.005294670162435 a54.748149209312636,54.748149209312636 0 0,0 -0.537415895836177,0.7741876803235335 l -27.556647995278173 -19.48252361267299" fill="#a5ff21" stroke="none" /><path d="M 115.32070863581623 114.36230785411682 l 13.332147291905725 12.498142763131954 a39.27429133894655,39.27429133894655 0 0,0 -0.46660373277624,0.48923214835874734 l -13.115037007750521 -12.725782028073208" fill="#ff730a" stroke="none" /><path d="M 114.81725581225074 114.88116024355365 l 20.58313584093169 20.671907581597587 a50.17178849690842,50.17178849690842 0 0,0 -0.6172325689318033,0.6040919789349419 l -20.224253319624093 -21.0231496634551" fill="#e5ff1a" stroke="none" /><path d="M 114.29624159901734 115.38237550388516 l 26.049082229990418 28.02811925204432 a59.263953714058616,59.263953714058616 0 0,0 -0.7532179022217698,0.6880466950554968 l -25.562764778301784 -28.4723587136864" fill="#6bff28" stroke="none" /><path d="M 113.48314897796784 116.09983520530334 l 18.987466938325696 22.672380849066553 a50.57297337264434,50.57297337264434 0 0,0 -0.672210836029475,0.5531837541715405 l -18.594385973751532 -22.995859722095272" fill="#dfff1b" stroke="none" /><path d="M 112.92097659922987 116.55440617244103 l 18.130770444065718 23.22921459112017 a50.46729114485614,50.46729114485614 0 0,0 -0.6894102847720917,0.5286104084005822 l -17.728231430800133 -23.537864341348122" fill="#e0ff1b" stroke="none" /><path d="M 112.34349029814194 116.9893568818739 l 37.03047089442582 50.96807064562168 a84.0,84.0 0 0,0 -1.1770906886044616,0.8398229526231229 l -36.14765287797247 -51.597937860089026" fill="#4dd2ff" stroke="none" /><path d="M 111.45004920935366 117.60387380957326 l 10.099763130379685 15.527876990130485 a39.52350342430936,39.52350342430936 0 0,0 -0.5735014638213105,0.3660357684933787 l -9.830979864511445 -15.699427187447673" fill="#ff770a" stroke="none" /><line stroke="#e1ed5e" stroke-width="0.3" x1="143.8653032363475" x2="146.44561519142675" y1="172.8068346515853" y2="177.08958963109032" /><path d="M 144.38136562736335 173.6633856474863 a86.0,86.0 0 0,1 -40.68145358897372,12.25698825130547" fill="none" id="id6" stroke="none" /><text fill="#e1ed5e" style="font-size:6.75px; font-family:Arial;" text-anchor="middle"><textPath startOffset="21.466115282336833" xlink:href="#id6">June</textPath></text><path d="M 110.8373102113329 117.98757091392108 l 11.317290160247458 18.78423292691136 a42.930081240699835,42.930081240699835 0 0,0 -0.6362485991175012,0.3759068871469146 l -10.992273690101573 -18.976258386352026" fill="#ffad10" stroke="none" /><path d="M 108.92500713936063 119.00905698771935 l 12.097844414038919 25.766770861261467 a49.46549349797129,49.46549349797129 0 0,0 -0.773857034249628,0.355239809133326 l -11.65251938402187 -25.971197740728865" fill="#efff19" stroke="none" /><path d="M 107.93186726928326 119.44442032107085 l 11.047777326678395 27.082856868448637 a50.249521705777425,50.249521705777425 0 0,0 -0.803702632378448,0.31980986395537564 l -10.579953618258081 -27.26901357681008" fill="#e3ff1b" stroke="none" /><path d="M 106.91757812671514 119.82793768551818 l 9.61355838178931 27.55545843335858 a50.1843073282993,50.1843073282993 0 0,0 -0.8180765395265227,0.2775359789378722 l -9.137812109325562 -27.716857399194577" fill="#e4ff1a" stroke="none" /><path d="M 106.2309692047433 120.05430185196036 l 9.594720471085756 30.880496145906385 a53.33672375389336,53.33672375389336 0 0,0 -0.8791035653614231,0.264866692846888 l -9.061741931284086 -31.041078207858998" fill="#b8ff1f" stroke="none" /><path d="M 105.53697534728816 120.25689768951611 l 10.088270110418554 36.90770550225403 a59.261624629148685,59.261624629148685 0 0,0 -0.9863097229716674,0.26049336226639097 l -9.45146994463539 -37.07589021382401" fill="#6bff28" stroke="none" /><path d="M 104.48393922423573 120.51570834832081 l 6.231895162014173 28.51326416516855 a50.18634527759549,50.18634527759549 0 0,0 -0.8455408323269855,0.1771913024536428 l -5.740162868257809 -28.616311448348736" fill="#e4ff1a" stroke="none" /><path d="M 103.7750983002368 120.6578951692458 l 5.254737118016346 28.75469720063106 a50.230889026497955,50.230889026497955 0 0,0 -0.8518944186028842,0.14811276431782597 l -4.758993727941411 -28.840888543469895" fill="#e4ff1a" stroke="none" /><path d="M 103.06178313531738 120.77559828337769 l 4.253011098872307 28.85862459222106 a50.17033281883971,50.17033281883971 0 0,0 -0.8554553215746443,0.11855831264360293 l -3.7556271861108317 -28.927557470357264" fill="#e5ff1a" stroke="none" /><path d="M 101.98527174616119 120.90594882070398 l 3.333670106984693 35.1052881181104 a56.263218943223926,56.263218943223926 0 0,0 -0.9649294287882776,0.0832581713271406 l -2.7288963604548733 -35.15747054171621" fill="#91ff24" stroke="none" /><path d="M 101.26447882468166 120.96189622390904 l 1.9676806058817695 32.619222921883264 a53.678516964425995,53.678516964425995 0 0,0 -0.9227897663822492,0.04769769044164823 l -1.4059027710860408 -32.64826041908711" fill="#b4ff20" stroke="none" /><line stroke="#e1ed5e" stroke-width="0.3" x1="102.19456741930631" x2="102.32365962044197" y1="184.97166512339345" y2="189.96999836594603" /><path d="M 102.22038585953345 185.97133177190398 a86.0,86.0 0 0,1 -42.740103519485714,-10.115201625700543" fill="none" id="id7" stroke="none" /><text fill="#e1ed5e" style="font-size:6.75px; font-family:Arial;" text-anchor="middle"><textPath startOffset="22.20632615414155" xlink:href="#id7">July</textPath></text><path d="M 100.54218724476979 120.99299961872073 l 0.827487368618895 32.03956231262572 a53.05024630997163,53.05024630997163 0 0,0 -0.9130713084545949,0.01571935061952261 l -0.2758563702716322 -32.0490591405244" fill="#bcff1f" stroke="none" /><path d="M 99.45781275523022 120.99299961872073 l -0.7811846971799904 30.246764762998833 a51.25685092932336,51.25685092932336 0 0,0 -0.8818122418100567,-0.030371396578915844 l 1.30171729066469 -30.228836567993824" fill="#d5ff1c" stroke="none" /><path d="M 98.73552117531835 120.96189622390904 l -1.937353308913727 32.1164721921861 a53.174852352653026,53.174852352653026 0 0,0 -0.9131824737356573,-0.06297840991012331 l 2.489898543428314 -32.07836543775969" fill="#bbff1f" stroke="none" /><path d="M 98.01472825383883 120.90594882070398 l -2.7580537779845833 29.043747405758822 a50.17440871743209,50.17440871743209 0 0,0 -0.859099136160797,-0.08904913810749894 l 3.2575855107509737 -28.991968899195562" fill="#e5ff1a" stroke="none" /><path d="M 97.65516085044442 120.86867818915974 l -2.2866716562109692 20.3509971789681 a41.47906134181169,41.47906134181169 0 0,0 -0.708842744435498,-0.08583098474177428 l 2.6366418236978566 -20.308620665500978" fill="#ff960d" stroke="none" /><path d="M 96.93821686468263 120.77559828337769 l -4.595688464022202 31.18384717152142 a52.520670628575644,52.520670628575644 0 0,0 -0.8932619032265114,-0.1395091384250998 l 5.13178623085723 -31.100119725749217" fill="#c4ff1e" stroke="none" /><path d="M 96.22490169976321 120.6578951692458 l -5.816778311111925 31.830269576332768 a53.35739438246902,53.35739438246902 0 0,0 -0.9020763337069911,-0.17288507631470953 l 6.363822259390611 -31.72542730166959" fill="#b8ff1f" stroke="none" /><path d="M 95.51606077576429 120.51570834832081 l -6.224249046254277 28.478280309883615 a50.15053559710528,50.15053559710528 0 0,0 -0.8417644426255044,-0.19158284659182295 l 6.7135336382726445 -28.366920729714106" fill="#e5ff1a" stroke="none" /><path d="M 94.46302465271185 120.25689768951611 l -7.683533934214547 28.110033192677925 a50.14121925746555,50.14121925746555 0 0,0 -0.8305984463288085,-0.23473541755615276 l 8.166263548647969 -27.97360898178325" fill="#e5ff1a" stroke="none" /><path d="M 93.76903079525671 120.05430185196036 l -8.646832473955754 27.829729661324173 a50.142092664306766,50.142092664306766 0 0,0 -0.8220405817520456,-0.26319143509103543 l 9.12459440079874 -27.676765379573432" fill="#e5ff1a" stroke="none" /><path d="M 93.08242187328487 119.8279376855182 l -10.14485845695776 29.078330252047238 a51.797198628427765,51.797198628427765 0 0,0 -0.8393130241633676,-0.30094778913791415 l 10.643891041750855 -28.899394921869366" fill="#ceff1d" stroke="none" /><path d="M 92.7421414339146 119.70592522655815 l -9.885014603789324 26.838957644606122 a49.60145382958862,49.60145382958862 0 0,0 -0.7986537444460866,-0.3019825080651402 l 10.345538568995694 -26.664826886434348" fill="#edff1a" stroke="none" /><path d="M 92.06813273071674 119.44442032107085 l -12.450041318534447 30.520409405963015 a53.96208305221032,53.96208305221032 0 0,0 -0.857042609660973,-0.3582438803465017 l 12.973555387692883 -30.30158048259654" fill="#b0ff20" stroke="none" /><path d="M 91.40352486487194 119.15986991738527 l -14.821107483751762 33.0333639028247 a57.205916060519236,57.205916060519236 0 0,0 -0.8949511551106264,-0.4108281807290444 l 15.387526634629808 -32.77334865176159" fill="#85ff25" stroke="none" /><path d="M 90.7491055286396 118.85261126421891 l -13.48209903480898 27.47548065928562 a51.60504912335831,51.60504912335831 0 0,0 -0.7940938080024964,-0.3981751204494893 l 13.953046750494238 -27.23933769792683" fill="#d0ff1d" stroke="none" /><path d="M 90.42595943632237 118.69057910512821 l -13.373279161991638 26.107507108383682 a50.333368762535,50.333368762535 0 0,0 -0.767725520053746,-0.4016377071432301 l 13.82069558457188 -25.873439982295736" fill="#e2ff1b" stroke="none" /><line stroke="#e1ed5e" stroke-width="0.3" x1="58.666819895761336" x2="56.23545636021788" y1="174.27360380694188" y2="178.64263932499728" /><path d="M 58.180547188652646 175.14741091055294 a86.0,86.0 0 0,1 -31.652253787137756,-30.449443065178592" fill="none" id="id8" stroke="none" /><text fill="#e1ed5e" style="font-size:6.75px; font-family:Arial;" text-anchor="middle"><textPath startOffset="22.20632615414155" xlink:href="#id8">August</textPath></text><path d="M 89.7882731507175 118.34994917583269 l -15.606820446013781 28.044655542350476 a53.09479005887409,53.09479005887409 0 0,0 -0.7947815583365094,-0.4512977113479814 l 16.0872507712715 -27.77185466520786" fill="#bcff1f" stroke="none" /><path d="M 89.1626897886671 117.98757091392108 l -16.69723235893238 27.713763403066235 a53.35506529755908,53.35506529755908 0 0,0 -0.7825938047913361,-0.4807330336868167 l 17.171805363656024 -27.42224190255104" fill="#b8ff1f" stroke="none" /><path d="M 88.54995079064634 117.60387380957326 l -17.17443885839166 26.404834502054022 a52.49883545754503,52.49883545754503 0 0,0 -0.7532965433355205,-0.49924387291776195 l 17.626410100467144 -26.10529260804494" fill="#c4ff1e" stroke="none" /><path d="M 87.65650970185807 116.9893568818739 l -18.880416667065134 25.98666415151107 a53.121283399724575,53.121283399724575 0 0,0 -0.735135397457847,-0.5438355924341032 l 19.324937034941545 -25.657818610337202" fill="#bbff1f" stroke="none" /><path d="M 87.07902340077011 116.55440617244103 l -17.9419660964093 22.987317716358124 a50.1604342079725,50.1604342079725 0 0,0 -0.6760730983147875,-0.5371133577214252 l 18.334996687441443 -22.67507044463157" fill="#e5ff1a" stroke="none" /><path d="M 86.51685102203217 116.09983520530335 l -28.18286811867041 33.6523413829236 a64.89480761943491,64.89480761943491 0 0,0 -0.8502286650950868,-0.7245833137110121 l 28.757962260342556 -33.162233678989644" fill="#30ff3a" stroke="none" /><path d="M 85.70375840098266 115.38237550388516 l -20.636708057148763 22.204548678089928 a51.313622374002975,51.313622374002975 0 0,0 -0.6418214192977237,-0.6068822124191134 l 21.015865310837302 -21.846031828924882" fill="#d4ff1c" stroke="none" /><path d="M 85.18274418774928 114.88116024355367 l -20.60573209784287 20.694601292515515 a50.20381341441999,50.20381341441999 0 0,0 -0.6071299559311779,-0.6150194399657413 l 20.95890267882958 -20.33684135856911" fill="#e4ff1a" stroke="none" /><path d="M 84.67929136418377 114.36230785411682 l -26.56871449999049 24.906684541009895 a57.41757165170937,57.41757165170937 0 0,0 -0.6697447819166102,-0.7268756845695643 l 26.99350568990283 -24.445657601638985" fill="#82ff25" stroke="none" /><path d="M 83.95833913139862 113.55231037782056 l -22.294227225807763 18.834601321686375 a50.185180735140534,50.185180735140534 0 0,0 -0.5518075703718945,-0.6646877657709848 l 22.615130796073192 -18.448052298801628" fill="#e4ff1a" stroke="none" /><path d="M 83.50135304334701 112.99209946851258 l -23.03843753636827 18.141952661815843 a50.324052422895264,50.324052422895264 0 0,0 -0.5300636821859513,-0.6851787625287639 l 23.347308035772294 -17.74269590517383" fill="#e2ff1b" stroke="none" /><path d="M 83.06392112726016 112.41649034213515 l -35.36858476308084 25.930068844485568 a64.85550431157981,64.85550431157981 0 0,0 -0.6523234802988844,-0.9060202603112538 l 35.80968803575533 -25.317414978723175" fill="#30ff39" stroke="none" /><path d="M 82.44556493220864 111.52570212397912 l -24.36499839986784 15.997308527652706 a50.14733310535412,50.14733310535412 0 0,0 -0.4675525684114101,-0.7256519691552953 l 24.636755831656295 -15.575534958575963" fill="#e5ff1a" stroke="none" /><path d="M 82.05923443525364 110.91462005526583 l -27.754321382386102 16.884891098278345 a53.48694973058403,53.48694973058403 0 0,0 -0.47175266622245077,-0.7906846037514923 l 28.040854924306785 -16.404644400640745" fill="#b6ff1f" stroke="none" /><line stroke="#e1ed5e" stroke-width="0.3" x1="26.63291911575756" x2="22.317208475507996" y1="142.92168965132927" y2="145.44649492493687" /><path d="M 25.769776987707644 143.4266507060508 a86.0,86.0 0 0,1 -11.730757126820373,-40.83630448921669" fill="none" id="id9" stroke="none" /><text fill="#e1ed5e" style="font-size:6.75px; font-family:Arial;" text-anchor="middle"><textPath startOffset="21.46611528233685" xlink:href="#id9">September</textPath></text><path d="M 81.51974371655577 109.97397251340807 l -54.32449284507887 29.31945261641506 a82.73152213092784,82.73152213092784 0 0,0 -0.6655849121313137,-1.2590358215292567 l 54.82113026543507 -28.380001779799677" fill="#4be0ff" stroke="none" /><path d="M 81.18737489456691 109.33194174019688 l -21.269896788590042 10.550863398314318 a44.742982707468784,44.742982707468784 0 0,0 -0.3363111480818044,-0.6929005771201492 l 21.448361193286566 -10.183173865228884" fill="#ffc912" stroke="none" /><path d="M 80.87730276802145 108.67885076344099 l -29.465588470774442 13.372979862232537 a53.35826778931024,53.35826778931024 0 0,0 -0.37238713561043796,-0.8396346834688463 l 29.69141669111616 -12.863796842270995" fill="#b8ff1f" stroke="none" /><path d="M 80.58989483394504 108.01547362559985 l -40.78576221665275 16.84262906103624 a65.12655156797324,65.12655156797324 0 0,0 -0.4189727075840289,-1.039855900521884 l 41.06963753849416 -16.138073792671552" fill="#31ff3d" stroke="none" /><path d="M 80.20201598880116 107.00284435728193 l -27.53359288265956 9.739045422249275 a50.2052690924887,50.2052690924887 0 0,0 -0.2811714276304386,-0.8172157821218992 l 27.697155141233225 -9.263656937038078" fill="#e4ff1a" stroke="none" /><path d="M 79.97269907076064 106.31721596034903 l -27.807530753617595 8.771335574140263 a50.158105123062555,50.158105123062555 0 0,0 -0.2526373649449107,-0.8256335261400797 l 27.954394891068635 -8.291375075448137" fill="#e5ff1a" stroke="none" /><path d="M 79.35854240842038 103.8639653848113 l -23.189088530311327 4.340867644104714 a44.59188332393689,44.59188332393689 0 0,0 -0.13473874474759995,-0.755686435451497 l 23.260373717398117 -3.9410624579200033" fill="#ffc712" stroke="none" /><path d="M 79.23777060512086 103.15116336523772 l -41.564564392903755 6.308413712030708 a63.04056489551466,63.04056489551466 0 0,0 -0.15359668225374679,-1.074254837941587 l 41.6669951261741 -5.59201340210872" fill="#3dff2e" stroke="none" /><path d="M 79.10278846688536 102.07522291339032 l -31.33973337716679 3.1122301987889314 a52.49388615211143,52.49388615211143 0 0,0 -0.08155401089037521,-0.8999417143891812 l 31.38866198433424 -2.572307095851184" fill="#c4ff1e" stroke="none" /><path d="M 79.0095281055655 100.63252640178507 l -32.37646961603824 0.9756317976903784 a53.39116611366303,53.39116611366303 0 0,0 -0.019774911581258343,-0.9188624371580375 l 32.38846659030451 -0.41817954474221203" fill="#b8ff1f" stroke="none" /><line stroke="#e1ed5e" stroke-width="0.3" x1="15.007084014347285" x2="10.007500721073583" y1="101.09737516637583" y2="101.16192664675087" /><path d="M 14.007167355692545 101.11028546245083 a86.0,86.0 0 0,1 10.666146001902534,-42.60595125391555" fill="none" id="id10" stroke="none" /><text fill="#e1ed5e" style="font-size:6.75px; font-family:Arial;" text-anchor="middle"><textPath startOffset="22.20632615414155" xlink:href="#id10">October</textPath></text><path d="M 79.00486145842228 99.54816195383935 l -32.03147508096634 -0.6893519224731788 a53.0388920210357,53.0388920210357 0 0,0 0.027500174383765993,-0.9125969064144033 l 32.014863212126926 1.2406189763125766" fill="#bcff1f" stroke="none" /><path d="M 79.03285615573316 98.82574320788736 l -29.08487035827683 -1.6288869299316107 a50.1304472397571,50.1304472397571 0 0,0 0.055667257253122965,-0.8611478307945238 l 29.052522510019294 2.129293824979146" fill="#e5ff1a" stroke="none" /><path d="M 79.12142395522702 97.74499172005258 l -30.87384433020723 -3.334555692357904 a52.05339796852038,52.05339796852038 0 0,0 0.10388283494401862,-0.8900046896221506 l 30.811871142259623 3.8655041203049163" fill="#caff1d" stroke="none" /><path d="M 79.21141760316559 97.0276538004421 l -28.846975275616938 -4.1245331544241015 a50.14034585062433,50.14034585062433 0 0,0 0.12951515539578604,-0.8533430529514581 l 28.771704226781846 4.620475319767651" fill="#e5ff1a" stroke="none" /><path d="M 79.32604984820605 96.31383870115002 l -22.961905262541748 -4.094103250959836 a44.32403855929462,44.32403855929462 0 0,0 0.14038958753156486,-0.7499667902624583 l 22.88802995110032 4.488748118684867" fill="#ffc312" stroke="none" /><path d="M 79.46518482838121 95.60439243477599 l -44.15771945529623 -9.452240211492406 a66.15804504745972,66.15804504745972 0 0,0 0.24795283286700615,-1.1115239310781426 l 43.98847223542719 10.210942312120507" fill="#32ff4c" stroke="none" /><path d="M 79.71946130924805 94.55025226153421 l -31.2392685497574 -8.394556758396119 a53.34749577160179,53.34749577160179 0 0,0 0.24594015942124683,-0.8847776080073648 l 31.090141619769792 8.931045669822428" fill="#b8ff1f" stroke="none" /><path d="M 79.91906864156998 93.8553929516997 l -27.900926388992513 -8.537464019164648 a50.17790234479699,50.17790234479699 0 0,0 0.2598367483814885,-0.823753499163828 l 27.74983415684282 9.016467684754891" fill="#e5ff1a" stroke="none" /><path d="M 80.14247586403 93.16781622104843 l -20.310846174620288 -6.988153851449053 a42.47940331062783,42.47940331062783 0 0,0 0.24384577133970295,-0.689384832202059 l 20.187547322470774 7.336736310077723" fill="#ffa60f" stroke="none" /><path d="M 80.52162464483688 92.15188598940014 l -30.00689117257031 -12.090202531371327 a53.350989398966696,53.350989398966696 0 0,0 0.3505371200105555,-0.848853440460504 l 29.794332365673554 12.604930542285143" fill="#b8ff1f" stroke="none" /><path d="M 80.803312248108 91.48605970444005 l -26.691765040457543 -11.83808878253864 a50.19915524460012,50.19915524460012 0 0,0 0.3571255944733463,-0.7868789086305946 l 26.484037129020845 12.295789700011305" fill="#e4ff1a" stroke="none" /><path d="M 81.10775173730289 90.83032412892265 l -39.31442692344363 -19.0819296323215 a64.70062016506927,64.70062016506927 0 0,0 0.4949288945344232,-0.9977464504108772 l 38.980138015955795 19.75583567123134" fill="#30ff37" stroke="none" /><line stroke="#e1ed5e" stroke-width="0.3" x1="26.266209847984243" x2="21.928928074336255" y1="57.711370442889674" y2="55.22380399835377" /><path d="M 25.398753493254645 57.213857153982495 a86.0,86.0 0 0,1 29.58750427330803,-30.492523968695096" fill="none" id="id11" stroke="none" /><text fill="#e1ed5e" style="font-size:6.75px; font-family:Arial;" text-anchor="middle"><textPath startOffset="21.46611528233685" xlink:href="#id11">November</textPath></text><path d="M 81.78341655067845 89.55222093294921 l -20.648531096980207 -11.842576933294906 a44.803538915127035,44.803538915127035 0 0,0 0.3894501227832739,-0.6656965019487244 l 20.44162129972661 12.196252847597522" fill="#ffca12" stroke="none" /><path d="M 82.54541684631803 88.32363383020206 l -51.199325482531926 -34.25014889883528 a82.59905542667542,82.59905542667542 0 0,0 0.8007212782734657,-1.1749596720501416 l 50.60217973858972 35.12638659415584" fill="#4be1ff" stroke="none" /><path d="M 85.83668400450813 84.49514656593479 l -19.72774233204805 -21.596337576649987 a50.25039511261865,50.25039511261865 0 0,0 0.6436573406788341,-0.5778819156872759 l 19.353074003773244 21.932718501106542" fill="#e3ff1b" stroke="none" /><path d="M 86.37877921826538 84.01681056812374 l -18.916963388221465 -22.19723284386172 a50.164510106564876,50.164510106564876 0 0,0 0.6620340899129995,-0.5544345112209575 l 18.532071761349357 22.51956851247649" fill="#e5ff1a" stroke="none" /><path d="M 86.93701828274178 83.55741782278169 l -20.129441863290612 -25.337247588842473 a53.36001460299269,53.36001460299269 0 0,0 0.7240889056224077,-0.5651628761461925 l 19.690320402508778 25.67998885421189" fill="#b8ff1f" stroke="none" /><path d="M 87.80319425747018 82.90503203632743 l -25.889959807345313 -36.28720853887587 a65.57635609120402,65.57635609120402 0 0,0 0.9245293818180416,-0.6476919147440368 l 25.26149928594361 36.72748529638385" fill="#31ff44" stroke="none" /><path d="M 88.39885842347998 82.49532879139004 l -16.27410803758545 -24.555592958876964 a50.45884821205763,50.45884821205763 0 0,0 0.7281283261523347,-0.47359491753653726 l 15.849012685648827 24.832086800573038" fill="#e1ff1b" stroke="none" /><path d="M 89.00827224532344 82.1063720568725 l -16.93286038021254 -27.565302782134218 a53.35069826335295,53.35069826335295 0 0,0 0.7866380941004886,-0.4739406499418404 l 16.4558602198944 27.852690041534675" fill="#b8ff1f" stroke="none" /><line stroke="#e1ed5e" stroke-width="0.3" x1="56.762969772571076" x2="54.21961505331055" y1="26.818313649435495" y2="22.513508569990535" /><path d="M 56.25429882871897 25.957352633546506 a86.0,86.0 0 0,1 42.265352541879196,-11.944610805530505" fill="none" id="id12" stroke="none" /><text fill="#e1ed5e" style="font-size:6.75px; font-family:Arial;" text-anchor="middle"><textPath startOffset="22.20632615414155" xlink:href="#id12">December</textPath></text><path d="M 89.63071344664047 81.73862282372117 l -22.132907053730772 -38.97831944713218 a65.82382136288436,65.82382136288436 0 0,0 0.9901028349409544,-0.5509911556830503 l 21.45868012971777 39.35352600037542" fill="#32ff47" stroke="none" /><path d="M 90.58718382345135 81.22770947309562 l -14.501184665047887 -28.92019204569059 a53.35215394142166,53.35215394142166 0 0,0 0.824490805755918,-0.4045740576601719 l 14.001222592281543 29.16552126348559" fill="#b8ff1f" stroke="none" /><path d="M 91.23893434514133 80.91482961587045 l -13.606911418743229 -29.641396727172637 a53.61534053624407,53.61534053624407 0 0,0 0.8420618111117378,-0.3778085891331974 l 13.094667489164717 29.871225646822364" fill="#b5ff20" stroke="none" /><path d="M 91.90106846888425 80.62456947434976 l -15.832652502416417 -37.877151747579966 a62.05303289370315,62.05303289370315 0 0,0 0.9890548119278695,-0.4034602914727417 l 15.178313820900167 38.14407292523628" fill="#48ff2c" stroke="none" /><path d="M 92.91201910852362 80.23233633223022 l -10.092202040881777 -28.146133386341045 a50.90079207371738,50.90079207371738 0 0,0 0.8273026829615537,-0.2886296615712863 l 9.606217353856938 28.31568390108454" fill="#daff1b" stroke="none" /><path d="M 93.59665428221793 80.00007090966166 l -9.868320563774535 -30.82227951055871 a53.36350823035758,53.36350823035758 0 0,0 0.877231600218612,-0.2725601283325433 l 9.336303590845194 30.98757977377378" fill="#b8ff1f" stroke="none" /><path d="M 94.28887869178378 79.79150937346287 l -6.311333517387708 -22.332308726062553 a44.207002042570494,44.207002042570494 0 0,0 0.734051186825502,-0.2006439183036378 l 5.925984441338484 22.437639185192484" fill="#ffc111" stroke="none" /><path d="M 94.63758080256005 79.69619591428918 l -11.317075039147378 -42.850002201960386 a65.31928334427016,65.31928334427016 0 0,0 1.0895602072839907,-0.2777531569066859 l 10.577805943178388 43.038458355035935" fill="#31ff40" stroke="none" /><path d="M 95.33964822691252 79.52364482259891 l -6.470810805244563 -28.431034133325102 a50.158105123062555,50.158105123062555 0 0,0 0.8435095127086712,-0.18435850840899573 l 5.98045856838237 28.538206139829967" fill="#e5ff1a" stroke="none" /><path d="M 96.75951476605007 79.25152402106235 l -4.503620669699873 -28.836195364980647 a50.185763006368006,50.185763006368006 0 0,0 0.8546659805682661,-0.1259555489059994 l 4.006585708702959 28.909445398047616" fill="#e4ff1a" stroke="none" /><path d="M 97.11714578562143 79.19881850522333 l -6.407028054190235 -46.229792936673206 a67.6716591033023,67.6716591033023 0 0,0 1.1552044326652868,-0.14997868994917155 l 5.61030889301709 46.333229949786514" fill="#35ff61" stroke="none" /><path d="M 98.55514903715128 79.0497635885617 l -2.22508543914513 -32.26358093974602 a53.340217381258256,53.340217381258256 0 0,0 0.9165321311572552,-0.05528772109208315 l 1.669391259148252 32.29710193021841" fill="#b8ff1f" stroke="none" /><path d="M 99.63851952072746 79.00311137660856 l -1.0600909431349796 -61.57624751539934 a82.58537205282956,82.58537205282956 0 0,0 1.4215714224075002,-0.01223591403877644 l 1.5084065751759317e-14 61.585372052829555" fill="#4be2ff" stroke="none" /></svg>